G04 #@! TF.GenerationSoftware,KiCad,Pcbnew,9.0.1*
G04 #@! TF.CreationDate,2025-10-01T12:05:20-04:00*
G04 #@! TF.ProjectId,SCREEN_VERSION_1.2,53435245-454e-45f5-9645-5253494f4e5f,rev?*
G04 #@! TF.SameCoordinates,Original*
G04 #@! TF.FileFunction,Copper,L3,Inr*
G04 #@! TF.FilePolarity,Positive*
%FSLAX46Y46*%
G04 Gerber Fmt 4.6, Leading zero omitted, Abs format (unit mm)*
G04 Created by KiCad (PCBNEW 9.0.1) date 2025-10-01 12:05:20*
%MOMM*%
%LPD*%
G01*
G04 APERTURE LIST*
G04 Aperture macros list*
%AMRoundRect*
0 Rectangle with rounded corners*
0 $1 Rounding radius*
0 $2 $3 $4 $5 $6 $7 $8 $9 X,Y pos of 4 corners*
0 Add a 4 corners polygon primitive as box body*
4,1,4,$2,$3,$4,$5,$6,$7,$8,$9,$2,$3,0*
0 Add four circle primitives for the rounded corners*
1,1,$1+$1,$2,$3*
1,1,$1+$1,$4,$5*
1,1,$1+$1,$6,$7*
1,1,$1+$1,$8,$9*
0 Add four rect primitives between the rounded corners*
20,1,$1+$1,$2,$3,$4,$5,0*
20,1,$1+$1,$4,$5,$6,$7,0*
20,1,$1+$1,$6,$7,$8,$9,0*
20,1,$1+$1,$8,$9,$2,$3,0*%
G04 Aperture macros list end*
G04 #@! TA.AperFunction,ComponentPad*
%ADD10R,1.300000X1.300000*%
G04 #@! TD*
G04 #@! TA.AperFunction,ComponentPad*
%ADD11C,1.300000*%
G04 #@! TD*
G04 #@! TA.AperFunction,ComponentPad*
%ADD12R,1.700000X1.700000*%
G04 #@! TD*
G04 #@! TA.AperFunction,ComponentPad*
%ADD13O,1.700000X1.700000*%
G04 #@! TD*
G04 #@! TA.AperFunction,ComponentPad*
%ADD14O,2.200000X3.500000*%
G04 #@! TD*
G04 #@! TA.AperFunction,ComponentPad*
%ADD15R,1.500000X2.500000*%
G04 #@! TD*
G04 #@! TA.AperFunction,ComponentPad*
%ADD16O,1.500000X2.500000*%
G04 #@! TD*
G04 #@! TA.AperFunction,ComponentPad*
%ADD17R,1.800000X1.275000*%
G04 #@! TD*
G04 #@! TA.AperFunction,ComponentPad*
%ADD18O,1.800000X1.275000*%
G04 #@! TD*
G04 #@! TA.AperFunction,ComponentPad*
%ADD19R,3.200000X3.200000*%
G04 #@! TD*
G04 #@! TA.AperFunction,ComponentPad*
%ADD20O,3.200000X3.200000*%
G04 #@! TD*
G04 #@! TA.AperFunction,ComponentPad*
%ADD21C,1.600000*%
G04 #@! TD*
G04 #@! TA.AperFunction,ComponentPad*
%ADD22O,3.500000X2.200000*%
G04 #@! TD*
G04 #@! TA.AperFunction,ComponentPad*
%ADD23R,2.500000X1.500000*%
G04 #@! TD*
G04 #@! TA.AperFunction,ComponentPad*
%ADD24O,2.500000X1.500000*%
G04 #@! TD*
G04 #@! TA.AperFunction,ComponentPad*
%ADD25RoundRect,0.250000X0.600000X-0.600000X0.600000X0.600000X-0.600000X0.600000X-0.600000X-0.600000X0*%
G04 #@! TD*
G04 #@! TA.AperFunction,ComponentPad*
%ADD26C,1.700000*%
G04 #@! TD*
G04 #@! TA.AperFunction,ComponentPad*
%ADD27R,2.000000X4.000000*%
G04 #@! TD*
G04 #@! TA.AperFunction,ComponentPad*
%ADD28O,2.000000X3.300000*%
G04 #@! TD*
G04 #@! TA.AperFunction,ComponentPad*
%ADD29O,3.500000X2.000000*%
G04 #@! TD*
G04 #@! TA.AperFunction,ViaPad*
%ADD30C,0.700000*%
G04 #@! TD*
G04 #@! TA.AperFunction,ViaPad*
%ADD31C,2.000000*%
G04 #@! TD*
G04 #@! TA.AperFunction,Conductor*
%ADD32C,0.300000*%
G04 #@! TD*
G04 APERTURE END LIST*
D10*
X231440000Y-77150000D03*
D11*
X228900000Y-77150000D03*
X226360000Y-77150000D03*
D12*
X231350000Y-143875000D03*
D13*
X233890000Y-143875000D03*
D14*
X222600000Y-147150000D03*
X214400000Y-147150000D03*
D15*
X220500000Y-147150000D03*
D16*
X218500000Y-147150000D03*
X216500000Y-147150000D03*
D14*
X165900000Y-55500000D03*
X174100000Y-55500000D03*
D15*
X168000000Y-55500000D03*
D16*
X170000000Y-55500000D03*
X172000000Y-55500000D03*
D12*
X219130000Y-108750000D03*
D13*
X216590000Y-108750000D03*
X214050000Y-108750000D03*
X211510000Y-108750000D03*
X208970000Y-108750000D03*
X206430000Y-108750000D03*
D12*
X79500000Y-76950000D03*
D13*
X79500000Y-79490000D03*
X79500000Y-82030000D03*
X79500000Y-84570000D03*
X79500000Y-87110000D03*
D12*
X211475000Y-87750000D03*
D13*
X211475000Y-90290000D03*
D17*
X217250000Y-62800000D03*
D18*
X217250000Y-61100000D03*
X217250000Y-59400000D03*
X217250000Y-57700000D03*
X217250000Y-56000000D03*
D14*
X191150000Y-55500000D03*
X199350000Y-55500000D03*
D15*
X193250000Y-55500000D03*
D16*
X195250000Y-55500000D03*
X197250000Y-55500000D03*
D14*
X143400000Y-136250000D03*
X151600000Y-136250000D03*
D15*
X145500000Y-136250000D03*
D16*
X147500000Y-136250000D03*
X149500000Y-136250000D03*
D12*
X165170000Y-64500000D03*
D13*
X167710000Y-64500000D03*
X170250000Y-64500000D03*
X172790000Y-64500000D03*
D12*
X205260000Y-147750000D03*
D13*
X207800000Y-147750000D03*
X210340000Y-147750000D03*
D12*
X231250000Y-139975000D03*
D13*
X233790000Y-139975000D03*
D19*
X205620000Y-66000000D03*
D20*
X190380000Y-66000000D03*
D12*
X144475000Y-113250000D03*
D13*
X144475000Y-110710000D03*
D21*
X220250000Y-70250000D03*
X220250000Y-72750000D03*
D22*
X99250000Y-134600000D03*
X99250000Y-126400000D03*
D23*
X99250000Y-132500000D03*
D24*
X99250000Y-130500000D03*
X99250000Y-128500000D03*
D25*
X119220000Y-59040000D03*
D26*
X119220000Y-56500000D03*
X121760000Y-59040000D03*
X121760000Y-56500000D03*
X124300000Y-59040000D03*
X124300000Y-56500000D03*
X126840000Y-59040000D03*
X126840000Y-56500000D03*
X129380000Y-59040000D03*
X129380000Y-56500000D03*
X131920000Y-59040000D03*
X131920000Y-56500000D03*
X134460000Y-59040000D03*
X134460000Y-56500000D03*
X137000000Y-59040000D03*
X137000000Y-56500000D03*
X139540000Y-59040000D03*
X139540000Y-56500000D03*
X142080000Y-59040000D03*
X142080000Y-56500000D03*
D12*
X183000000Y-62725000D03*
D13*
X185540000Y-62725000D03*
D12*
X222880000Y-153300000D03*
D13*
X220340000Y-153300000D03*
X217800000Y-153300000D03*
X215260000Y-153300000D03*
D14*
X186100000Y-55500000D03*
X177900000Y-55500000D03*
D15*
X184000000Y-55500000D03*
D16*
X182000000Y-55500000D03*
X180000000Y-55500000D03*
D14*
X153400000Y-55500000D03*
X161600000Y-55500000D03*
D15*
X155500000Y-55500000D03*
D16*
X157500000Y-55500000D03*
X159500000Y-55500000D03*
D27*
X227500000Y-65750000D03*
D28*
X233500000Y-65750000D03*
D29*
X234500000Y-70250000D03*
X234500000Y-61250000D03*
D12*
X143750000Y-117250000D03*
D13*
X146290000Y-117250000D03*
D30*
X213000000Y-94375000D03*
X196100000Y-147875000D03*
X219950000Y-150925000D03*
X211200000Y-101700000D03*
X210775000Y-104700000D03*
X204850000Y-97825000D03*
X197325000Y-92275000D03*
X217100000Y-74625000D03*
X213850000Y-77175000D03*
X216875000Y-85775000D03*
X138350000Y-99050000D03*
X106690000Y-65485000D03*
X90000000Y-126950000D03*
X160250000Y-82750000D03*
X146250000Y-141500000D03*
X116250000Y-111250000D03*
X140000000Y-110250000D03*
X170250000Y-116500000D03*
X103500000Y-111250000D03*
X151250000Y-105500000D03*
X119750000Y-111500000D03*
D31*
X192900000Y-126025000D03*
D30*
X211000000Y-55500000D03*
X183500000Y-101500000D03*
X228250000Y-116150000D03*
X185500000Y-108150003D03*
X150500000Y-140250000D03*
X187750000Y-104000000D03*
X92000000Y-84750000D03*
X136500000Y-133452500D03*
X224250000Y-141400000D03*
X98000000Y-102750000D03*
X92000000Y-87500000D03*
X209250000Y-53250000D03*
X102000000Y-108000000D03*
X135750000Y-131702500D03*
X173000000Y-83000000D03*
X87750000Y-101750000D03*
X89000000Y-63750000D03*
X84000000Y-63750000D03*
X88750000Y-93750000D03*
X212500000Y-53250000D03*
X92250000Y-77250000D03*
D31*
X202550000Y-135000000D03*
D30*
X204000000Y-53500000D03*
X151000000Y-114762500D03*
X183000000Y-128750000D03*
X175500000Y-128000000D03*
X99000000Y-94500000D03*
X215020000Y-138880000D03*
X230800000Y-112900000D03*
X86500000Y-62000000D03*
X191000000Y-85000000D03*
X146000000Y-102750000D03*
X197750000Y-84750000D03*
X181000000Y-145750000D03*
X216800000Y-114250000D03*
D31*
X197350000Y-136200000D03*
D30*
X180500000Y-127250000D03*
X223750000Y-56750000D03*
X157000000Y-129500000D03*
X92250000Y-79750000D03*
X77250000Y-66750000D03*
X141500000Y-146500000D03*
X220000000Y-56000000D03*
X104250000Y-77250000D03*
X218990000Y-142640000D03*
X202750000Y-83750000D03*
X152750000Y-101250000D03*
X147775000Y-114737500D03*
X165250000Y-116500000D03*
X210500000Y-59500000D03*
X90750000Y-129200000D03*
X141500000Y-131202500D03*
X171250000Y-146250000D03*
D31*
X200400000Y-138650000D03*
D30*
X153250000Y-98750000D03*
X151750000Y-97000000D03*
X92000000Y-82000000D03*
X150980000Y-92250000D03*
X140600000Y-98300000D03*
X133000000Y-133702500D03*
X206750000Y-55500000D03*
X93500000Y-61750000D03*
X217000000Y-138400000D03*
X170500000Y-59750000D03*
X79750000Y-65750000D03*
D31*
X193550000Y-138425000D03*
D30*
X185000000Y-89750000D03*
X210300000Y-153490000D03*
D31*
X143000000Y-143000000D03*
D30*
X160750000Y-145250000D03*
X151250000Y-104500000D03*
X224000000Y-116900000D03*
X152000000Y-129952500D03*
X81500000Y-63000000D03*
X167250000Y-83000000D03*
X201250000Y-84750000D03*
X91250000Y-126950000D03*
X171500000Y-128000000D03*
X200500000Y-83500000D03*
D31*
X193525000Y-134175000D03*
D30*
X139100000Y-99800000D03*
X185250000Y-97000000D03*
X160250000Y-60250000D03*
X225250000Y-111900000D03*
X175550000Y-145200000D03*
X90500000Y-62250000D03*
X221500000Y-53500000D03*
X158500000Y-117000000D03*
X133000000Y-139452500D03*
X163750000Y-117000000D03*
D31*
X207300000Y-136500000D03*
X193475000Y-129975000D03*
D30*
X179997500Y-84002500D03*
X220500000Y-57750000D03*
X138250000Y-131702500D03*
X175500000Y-117250000D03*
X172500000Y-134250000D03*
X151250000Y-107750000D03*
X179000000Y-134250000D03*
X136250000Y-140250000D03*
D31*
X206550000Y-126500000D03*
D30*
X74000000Y-69250000D03*
X131000000Y-131250000D03*
X154500000Y-103000000D03*
X146500000Y-101500000D03*
X142750000Y-103750000D03*
X157500000Y-103750000D03*
X171750000Y-116500000D03*
X198250000Y-78000000D03*
X185000000Y-88500000D03*
X152775000Y-114487500D03*
X151750000Y-98000000D03*
X192000000Y-74750000D03*
X152230000Y-91500000D03*
X189250000Y-74750000D03*
X160500000Y-84000000D03*
X87750000Y-104250000D03*
X186500000Y-77500000D03*
X158500000Y-115750000D03*
X185500000Y-107250000D03*
X193250000Y-79000000D03*
X194750000Y-72000000D03*
X193500000Y-73500000D03*
X191500000Y-76500000D03*
X166750000Y-116500000D03*
X98750000Y-92750000D03*
X196000000Y-77500000D03*
X189000000Y-72000000D03*
X193500000Y-77500000D03*
X208000000Y-59500000D03*
X188000000Y-76250000D03*
X161000000Y-130500000D03*
X103500000Y-108000000D03*
X198250000Y-80250000D03*
X151750000Y-107000000D03*
X191500000Y-72000000D03*
X186500000Y-80250000D03*
X177250000Y-59250000D03*
X186250000Y-72000000D03*
X171750000Y-83000000D03*
X195500000Y-75000000D03*
X176500000Y-114500000D03*
X208750000Y-81500000D03*
X165750000Y-83000000D03*
X187730000Y-105230000D03*
X189750000Y-77500000D03*
X190000000Y-79500000D03*
X177247500Y-83752500D03*
X152520000Y-100230000D03*
X185000000Y-96000000D03*
X186250000Y-74750000D03*
X171500000Y-133750000D03*
X188000000Y-79000000D03*
X183000000Y-131250000D03*
X164750000Y-81500000D03*
X140750000Y-71250000D03*
X164750000Y-75750000D03*
X163750000Y-82000000D03*
X163750000Y-75000000D03*
X168750000Y-95500000D03*
X135750000Y-68500000D03*
X158250000Y-108000000D03*
X158250000Y-110250000D03*
X188000000Y-62750000D03*
X165750000Y-106750000D03*
X162750000Y-81000000D03*
X161500000Y-67250000D03*
X160500000Y-85500000D03*
X157250000Y-143500000D03*
X175250000Y-147250000D03*
X157500000Y-139750000D03*
X180500000Y-134250000D03*
X175250000Y-134000000D03*
X160500000Y-89500000D03*
X161500000Y-89500000D03*
X163750000Y-108000000D03*
X164750000Y-104750000D03*
X173450000Y-96125000D03*
X177500000Y-90250000D03*
X172750000Y-109750000D03*
X176250000Y-140750000D03*
X172500000Y-138500000D03*
X172250000Y-110750000D03*
X178750000Y-107250000D03*
X181750000Y-129500000D03*
X175000000Y-91000000D03*
X179000000Y-129750000D03*
X158500000Y-101500000D03*
X108750000Y-81500000D03*
X122250000Y-108000000D03*
X96500000Y-107000000D03*
X164250000Y-141000000D03*
X167250000Y-109750000D03*
X169500000Y-123250000D03*
X165750000Y-89750000D03*
X163000000Y-102250000D03*
X162750000Y-141250000D03*
X188250000Y-95500000D03*
X191500000Y-95500000D03*
X214050000Y-132000000D03*
X167000000Y-140500000D03*
X168750000Y-119750000D03*
X191750000Y-98750000D03*
X187750000Y-93500000D03*
X175750000Y-90250000D03*
X175000000Y-120500000D03*
X170500000Y-111250000D03*
X158500000Y-96550000D03*
X158750000Y-125000000D03*
X186300000Y-132250000D03*
X172000000Y-135750000D03*
X172875000Y-139875000D03*
X173500000Y-117000000D03*
X169500000Y-111000000D03*
X175500000Y-122250000D03*
X161625000Y-98875000D03*
X161250000Y-127500000D03*
X165750000Y-110500000D03*
X163500000Y-140000000D03*
X172500000Y-120500000D03*
X172500000Y-122750000D03*
X177000000Y-110750000D03*
X178000000Y-134750000D03*
X111750000Y-77250000D03*
X111750000Y-85250000D03*
X109750000Y-80750000D03*
X109750000Y-87750000D03*
X123500000Y-94250000D03*
X120250000Y-94250000D03*
X168000000Y-137500000D03*
X188750000Y-134500000D03*
X120500000Y-113750000D03*
X89250000Y-114750000D03*
X174750000Y-114250000D03*
X177250000Y-140750000D03*
X169250000Y-148000000D03*
X172000000Y-150500000D03*
X121250000Y-106000000D03*
X98250000Y-97000000D03*
X176750000Y-95750000D03*
X174250000Y-119500000D03*
X174750000Y-139750000D03*
X165750000Y-120250000D03*
X166250000Y-122250000D03*
X177750000Y-106500000D03*
X180000000Y-125250000D03*
X166300000Y-135750000D03*
X188500000Y-128750000D03*
X142000000Y-125000000D03*
X120000000Y-125000000D03*
X111000000Y-114000000D03*
X169000000Y-106500000D03*
X153750000Y-125000000D03*
X165880025Y-108380025D03*
X160000000Y-122500000D03*
X171614950Y-106635050D03*
X115500000Y-71750000D03*
X165243627Y-107743627D03*
X113500000Y-68750000D03*
X101000000Y-68000000D03*
X160000000Y-125250000D03*
X159500000Y-97050000D03*
X107500000Y-99250000D03*
X164534606Y-93853817D03*
X176250000Y-93750000D03*
X171250000Y-93750000D03*
X170000000Y-130750000D03*
X158750000Y-122500000D03*
X114000000Y-75250000D03*
X158500000Y-100250000D03*
X162255025Y-100494975D03*
X162000000Y-138750000D03*
X100750000Y-91000000D03*
X120000000Y-98750000D03*
X112625000Y-81375000D03*
X112450000Y-84000000D03*
X157750000Y-90100000D03*
X158000000Y-92250000D03*
X103750000Y-71750000D03*
X163750000Y-109750000D03*
X116250000Y-77250000D03*
X113500000Y-83000000D03*
X135000000Y-109000000D03*
X171000000Y-105750000D03*
X168250000Y-105750000D03*
X158500000Y-106750000D03*
X165000000Y-140250000D03*
X168250000Y-110250000D03*
X178000000Y-122500000D03*
X167650000Y-126000000D03*
X166000000Y-140000000D03*
X167000000Y-119000000D03*
X178250000Y-124250000D03*
X174250000Y-90250000D03*
X112000000Y-89000000D03*
X123250000Y-89250000D03*
X160800000Y-126000000D03*
X160375000Y-97550000D03*
X214300000Y-122750000D03*
X210300000Y-112750000D03*
X187000000Y-96750000D03*
X193000000Y-97000000D03*
X126000000Y-117750000D03*
X155000000Y-118750000D03*
X169250000Y-101750000D03*
X108500000Y-70500000D03*
X122500000Y-123000000D03*
X118750000Y-115500000D03*
X143500000Y-123000000D03*
X158250000Y-103000000D03*
X108250000Y-92500000D03*
X121000000Y-90000000D03*
X147000000Y-87500000D03*
X134250000Y-75250000D03*
X114750000Y-89250000D03*
X115000000Y-94000000D03*
X116250000Y-122250000D03*
X142250000Y-122250000D03*
X159250000Y-119500000D03*
X106000000Y-112500000D03*
X116750000Y-95750000D03*
X164250000Y-93000000D03*
X110750000Y-120500000D03*
X159500000Y-117500000D03*
X108000000Y-117250000D03*
X144500000Y-120500000D03*
X101000000Y-103250000D03*
X125250000Y-103250000D03*
X157500000Y-100000000D03*
X100000000Y-75750000D03*
X154369975Y-109619975D03*
X136500000Y-108750000D03*
X119500000Y-90750000D03*
X108750000Y-94000000D03*
X109250000Y-117250000D03*
X113000000Y-121250000D03*
X143500000Y-121250000D03*
X158750000Y-118500000D03*
X122000000Y-95250000D03*
X111050000Y-98500000D03*
X107000000Y-119500000D03*
X157250000Y-109750000D03*
X137000000Y-109500000D03*
X105750000Y-115250000D03*
X123500000Y-117000000D03*
X152750000Y-119500000D03*
X108500000Y-112750000D03*
X164499878Y-94753150D03*
X115500000Y-78750000D03*
X114250000Y-84750000D03*
X115750000Y-92750000D03*
X115750000Y-89250000D03*
X106750000Y-97750000D03*
X171250000Y-91750000D03*
X177250000Y-91750000D03*
X164500000Y-91750000D03*
X171500000Y-89250000D03*
X221425000Y-111125000D03*
X193075000Y-86500000D03*
X172750000Y-90000000D03*
X205800000Y-141250000D03*
X222550000Y-143250000D03*
X218300000Y-112750000D03*
X224550000Y-114250000D03*
X218550000Y-140750000D03*
X215300000Y-141250000D03*
D31*
X199050000Y-121250000D03*
D30*
X225550000Y-131750000D03*
X223800000Y-132000000D03*
X160000000Y-121250000D03*
X90750000Y-119000000D03*
X88500000Y-116500000D03*
X123500000Y-126000000D03*
X158000000Y-105500000D03*
X92000000Y-90250000D03*
X129000000Y-106250000D03*
X126000000Y-104750000D03*
X86000000Y-94250000D03*
X81750000Y-108000000D03*
X183250000Y-116000000D03*
X183250000Y-118250000D03*
X94500000Y-105500000D03*
X75250000Y-84000000D03*
X84250000Y-116500000D03*
X84500000Y-96250000D03*
X183250000Y-122500000D03*
X170000000Y-89250000D03*
X179250000Y-92500000D03*
X131750000Y-86500000D03*
X122750000Y-100000000D03*
X100000000Y-101500000D03*
X102750000Y-101750000D03*
X124750000Y-101750000D03*
D32*
X196100000Y-147875000D02*
X190000000Y-141775000D01*
X190000000Y-141775000D02*
X190000000Y-108750000D01*
X190000000Y-108750000D02*
X191750000Y-107000000D01*
X191750000Y-107000000D02*
X191750000Y-98750000D01*
X219950000Y-150925000D02*
X216300000Y-150925000D01*
X216300000Y-150925000D02*
X215260000Y-151965000D01*
X215260000Y-151965000D02*
X215260000Y-153300000D01*
X176750000Y-95750000D02*
X179000000Y-98000000D01*
X229500000Y-139975000D02*
X231250000Y-139975000D01*
X179000000Y-98000000D02*
X186750000Y-98000000D01*
X189500000Y-129250000D02*
X189500000Y-144375000D01*
X186750000Y-98000000D02*
X189250000Y-100500000D01*
X189250000Y-100500000D02*
X189250000Y-129000000D01*
X189250000Y-129000000D02*
X189500000Y-129250000D01*
X189500000Y-144375000D02*
X195250000Y-150125000D01*
X195250000Y-150125000D02*
X224000000Y-150125000D01*
X224000000Y-150125000D02*
X225125000Y-149000000D01*
X225125000Y-149000000D02*
X225125000Y-144350000D01*
X225125000Y-144350000D02*
X229500000Y-139975000D01*
X172750000Y-90000000D02*
X173250000Y-89500000D01*
X173250000Y-89500000D02*
X179750000Y-89500000D01*
X179750000Y-89500000D02*
X181750000Y-87500000D01*
X211200000Y-97150000D02*
X211200000Y-101700000D01*
X181750000Y-87500000D02*
X201550000Y-87500000D01*
X201550000Y-87500000D02*
X211200000Y-97150000D01*
X210775000Y-104700000D02*
X220000000Y-104700000D01*
X220000000Y-104700000D02*
X221550000Y-106250000D01*
X181750000Y-86500000D02*
X179500000Y-88750000D01*
X193075000Y-86500000D02*
X181750000Y-86500000D01*
X179500000Y-88750000D02*
X172000000Y-88750000D01*
X172000000Y-88750000D02*
X171500000Y-89250000D01*
X173450000Y-96125000D02*
X175075000Y-94500000D01*
X175075000Y-94500000D02*
X197025000Y-94500000D01*
X197025000Y-94500000D02*
X200350000Y-97825000D01*
X200350000Y-97825000D02*
X204850000Y-97825000D01*
X197275000Y-92275000D02*
X197325000Y-92275000D01*
X197250000Y-92250000D02*
X197275000Y-92275000D01*
X157500000Y-103750000D02*
X142750000Y-103750000D01*
X164750000Y-81500000D02*
X164750000Y-75750000D01*
X140750000Y-71250000D02*
X134460000Y-64960000D01*
X134460000Y-64960000D02*
X134460000Y-59040000D01*
X163750000Y-82000000D02*
X163750000Y-75000000D01*
X135750000Y-68500000D02*
X131750000Y-68500000D01*
X126840000Y-63590000D02*
X126840000Y-59040000D01*
X131750000Y-68500000D02*
X126840000Y-63590000D01*
X157500000Y-60750000D02*
X157500000Y-55500000D01*
X162750000Y-81000000D02*
X162750000Y-66000000D01*
X162750000Y-66000000D02*
X157500000Y-60750000D01*
X161500000Y-84500000D02*
X161500000Y-67250000D01*
X160500000Y-85500000D02*
X161500000Y-84500000D01*
X165450000Y-69300000D02*
X170250000Y-64500000D01*
X165450000Y-82050000D02*
X165450000Y-69300000D01*
X160500000Y-89500000D02*
X160500000Y-87000000D01*
X160500000Y-87000000D02*
X165450000Y-82050000D01*
X163500000Y-85500000D02*
X167000000Y-85500000D01*
X172790000Y-79710000D02*
X172790000Y-64500000D01*
X161500000Y-89500000D02*
X161500000Y-87500000D01*
X161500000Y-87500000D02*
X163500000Y-85500000D01*
X167000000Y-85500000D02*
X172790000Y-79710000D01*
X163750000Y-108000000D02*
X164750000Y-107000000D01*
X164750000Y-107000000D02*
X164750000Y-104750000D01*
X177500000Y-90250000D02*
X181250000Y-90250000D01*
X183250000Y-92250000D02*
X197250000Y-92250000D01*
X181250000Y-90250000D02*
X183250000Y-92250000D01*
X182500000Y-128260050D02*
X182300000Y-128460050D01*
X182300000Y-128460050D02*
X182300000Y-128950000D01*
X182500000Y-111000000D02*
X182500000Y-128260050D01*
X178750000Y-107250000D02*
X182500000Y-111000000D01*
X182300000Y-128950000D02*
X181750000Y-129500000D01*
X172750000Y-93250000D02*
X172750000Y-104000000D01*
X181250000Y-122239950D02*
X179000000Y-124489950D01*
X175000000Y-91000000D02*
X172750000Y-93250000D01*
X181250000Y-112500000D02*
X181250000Y-122239950D01*
X179000000Y-124489950D02*
X179000000Y-129750000D01*
X172750000Y-104000000D02*
X181250000Y-112500000D01*
X166750000Y-90750000D02*
X166750000Y-108500000D01*
X162500000Y-112750000D02*
X162500000Y-117250000D01*
X169500000Y-123010050D02*
X169500000Y-123250000D01*
X164739950Y-118250000D02*
X169500000Y-123010050D01*
X166750000Y-108500000D02*
X162500000Y-112750000D01*
X163500000Y-118250000D02*
X164739950Y-118250000D01*
X165750000Y-89750000D02*
X166750000Y-90750000D01*
X162500000Y-117250000D02*
X163500000Y-118250000D01*
X211550000Y-129500000D02*
X211550000Y-115500000D01*
X211550000Y-115500000D02*
X208970000Y-112920000D01*
X208970000Y-112920000D02*
X208970000Y-108750000D01*
X214050000Y-132000000D02*
X211550000Y-129500000D01*
X188250000Y-95500000D02*
X191500000Y-95500000D01*
X175750000Y-90250000D02*
X175750000Y-91750000D01*
X175750000Y-91750000D02*
X177500000Y-93500000D01*
X177500000Y-93500000D02*
X187750000Y-93500000D01*
X170500000Y-111250000D02*
X172750000Y-113500000D01*
X172750000Y-113500000D02*
X172750000Y-117239950D01*
X172750000Y-117239950D02*
X174010050Y-118500000D01*
X175000000Y-118750000D02*
X175000000Y-120500000D01*
X174750000Y-118500000D02*
X175000000Y-118750000D01*
X174010050Y-118500000D02*
X174750000Y-118500000D01*
X184750000Y-135750000D02*
X172000000Y-135750000D01*
X186300000Y-132250000D02*
X186300000Y-134200000D01*
X186300000Y-134200000D02*
X184750000Y-135750000D01*
X169000000Y-111500000D02*
X169000000Y-118250000D01*
X170250000Y-119500000D02*
X172750000Y-119500000D01*
X172750000Y-119500000D02*
X175500000Y-122250000D01*
X169500000Y-111000000D02*
X169000000Y-111500000D01*
X169000000Y-118250000D02*
X170250000Y-119500000D01*
X172500000Y-120500000D02*
X172500000Y-122750000D01*
X111750000Y-77250000D02*
X111750000Y-85250000D01*
X109750000Y-80750000D02*
X109750000Y-87750000D01*
X123500000Y-94250000D02*
X120250000Y-94250000D01*
X185750000Y-137500000D02*
X168000000Y-137500000D01*
X188750000Y-134500000D02*
X185750000Y-137500000D01*
X172000000Y-150500000D02*
X171750000Y-150500000D01*
X171750000Y-150500000D02*
X169250000Y-148000000D01*
X165750000Y-120250000D02*
X165750000Y-121750000D01*
X165750000Y-121750000D02*
X166250000Y-122250000D01*
X177750000Y-107500000D02*
X181750000Y-111500000D01*
X181750000Y-123500000D02*
X180000000Y-125250000D01*
X181750000Y-111500000D02*
X181750000Y-123500000D01*
X177750000Y-106500000D02*
X177750000Y-107500000D01*
X185000000Y-136750000D02*
X167500000Y-136750000D01*
X188500000Y-133250000D02*
X185000000Y-136750000D01*
X167500000Y-136750000D02*
X166500000Y-135750000D01*
X188500000Y-128750000D02*
X188500000Y-133250000D01*
X166500000Y-135750000D02*
X166300000Y-135750000D01*
X117750000Y-122750000D02*
X117750000Y-121500000D01*
X161750000Y-112750000D02*
X161750000Y-121000000D01*
X165880025Y-108619975D02*
X161750000Y-112750000D01*
X171614950Y-106635050D02*
X169135050Y-106635050D01*
X161750000Y-121000000D02*
X160250000Y-122500000D01*
X160250000Y-122500000D02*
X160000000Y-122500000D01*
X111000000Y-114750000D02*
X111000000Y-114000000D01*
X120000000Y-125000000D02*
X117750000Y-122750000D01*
X117750000Y-121500000D02*
X111000000Y-114750000D01*
X153750000Y-125000000D02*
X142000000Y-125000000D01*
X169135050Y-106635050D02*
X169000000Y-106500000D01*
X165880025Y-108380025D02*
X165880025Y-108619975D01*
X162000000Y-94750000D02*
X124000000Y-94750000D01*
X121250000Y-97500000D02*
X117250000Y-97500000D01*
X117250000Y-97500000D02*
X115500000Y-99250000D01*
X164534606Y-93853817D02*
X162896183Y-93853817D01*
X124000000Y-94750000D02*
X121250000Y-97500000D01*
X115500000Y-99250000D02*
X107500000Y-99250000D01*
X162896183Y-93853817D02*
X162000000Y-94750000D01*
X169250000Y-130750000D02*
X170000000Y-130750000D01*
X158750000Y-122500000D02*
X160500000Y-124250000D01*
X160500000Y-124250000D02*
X162750000Y-124250000D01*
X162750000Y-124250000D02*
X169250000Y-130750000D01*
X112500000Y-81500000D02*
X112500000Y-83950000D01*
X112500000Y-83950000D02*
X112450000Y-84000000D01*
X112625000Y-81375000D02*
X112500000Y-81500000D01*
X116250000Y-77250000D02*
X115000000Y-77250000D01*
X115000000Y-77250000D02*
X113500000Y-78750000D01*
X113500000Y-78750000D02*
X113500000Y-83000000D01*
X171000000Y-105750000D02*
X168250000Y-105750000D01*
X177000000Y-124250000D02*
X178000000Y-123250000D01*
X178000000Y-122500000D02*
X178000000Y-123250000D01*
X167750000Y-126000000D02*
X167650000Y-126000000D01*
X169500000Y-124250000D02*
X177000000Y-124250000D01*
X169500000Y-124250000D02*
X167750000Y-126000000D01*
X172000000Y-104250000D02*
X180500000Y-112750000D01*
X174000000Y-90250000D02*
X172000000Y-92250000D01*
X174250000Y-90250000D02*
X174000000Y-90250000D01*
X172000000Y-92250000D02*
X172000000Y-104250000D01*
X180500000Y-112750000D02*
X180500000Y-122000000D01*
X180500000Y-122000000D02*
X178250000Y-124250000D01*
X213050000Y-115500000D02*
X210300000Y-112750000D01*
X213050000Y-121500000D02*
X213050000Y-115500000D01*
X192750000Y-96750000D02*
X193000000Y-97000000D01*
X214300000Y-122750000D02*
X213050000Y-121500000D01*
X187000000Y-96750000D02*
X192750000Y-96750000D01*
X129000000Y-118750000D02*
X128000000Y-117750000D01*
X155000000Y-118750000D02*
X129000000Y-118750000D01*
X128000000Y-117750000D02*
X126000000Y-117750000D01*
X161250000Y-119500000D02*
X160500000Y-120250000D01*
X122500000Y-123000000D02*
X118750000Y-119250000D01*
X155500000Y-123000000D02*
X143500000Y-123000000D01*
X118750000Y-119250000D02*
X118750000Y-115500000D01*
X160500000Y-120250000D02*
X158250000Y-120250000D01*
X158250000Y-103000000D02*
X161250000Y-106000000D01*
X161250000Y-106000000D02*
X161250000Y-119500000D01*
X158250000Y-120250000D02*
X155500000Y-123000000D01*
X114750000Y-93750000D02*
X115000000Y-94000000D01*
X114750000Y-89250000D02*
X114750000Y-93750000D01*
X159250000Y-119500000D02*
X157707106Y-119500000D01*
X115750000Y-122250000D02*
X106000000Y-112500000D01*
X157707106Y-119500000D02*
X154957106Y-122250000D01*
X154957106Y-122250000D02*
X142250000Y-122250000D01*
X116250000Y-122250000D02*
X115750000Y-122250000D01*
X118950000Y-93550000D02*
X123789950Y-93550000D01*
X124239950Y-94000000D02*
X161500000Y-94000000D01*
X162500000Y-93000000D02*
X164250000Y-93000000D01*
X123789950Y-93550000D02*
X124239950Y-94000000D01*
X161500000Y-94000000D02*
X162500000Y-93000000D01*
X116750000Y-95750000D02*
X118950000Y-93550000D01*
X159500000Y-117500000D02*
X159250000Y-117750000D01*
X110750000Y-120500000D02*
X108000000Y-117750000D01*
X159250000Y-117750000D02*
X157500000Y-117750000D01*
X154750000Y-120500000D02*
X144500000Y-120500000D01*
X157500000Y-117750000D02*
X154750000Y-120500000D01*
X108000000Y-117750000D02*
X108000000Y-117250000D01*
X154369975Y-109619975D02*
X153500000Y-108750000D01*
X153500000Y-108750000D02*
X136500000Y-108750000D01*
X109250000Y-117500000D02*
X109250000Y-117250000D01*
X158000000Y-118500000D02*
X155250000Y-121250000D01*
X155250000Y-121250000D02*
X143500000Y-121250000D01*
X158750000Y-118500000D02*
X158000000Y-118500000D01*
X113000000Y-121250000D02*
X109250000Y-117500000D01*
X111050000Y-98500000D02*
X113050000Y-96500000D01*
X113050000Y-96500000D02*
X120750000Y-96500000D01*
X120750000Y-96500000D02*
X122000000Y-95250000D01*
X107000000Y-119500000D02*
X106000000Y-118500000D01*
X152500000Y-109500000D02*
X137000000Y-109500000D01*
X153500000Y-110500000D02*
X152500000Y-109500000D01*
X156500000Y-110500000D02*
X153500000Y-110500000D01*
X157250000Y-109750000D02*
X156500000Y-110500000D01*
X106000000Y-118500000D02*
X106000000Y-115500000D01*
X106000000Y-115500000D02*
X105750000Y-115250000D01*
X152750000Y-119500000D02*
X126000000Y-119500000D01*
X126000000Y-119500000D02*
X123500000Y-117000000D01*
X121750000Y-112750000D02*
X108500000Y-112750000D01*
X127750000Y-106750000D02*
X121750000Y-112750000D01*
X144000000Y-95250000D02*
X140250000Y-95250000D01*
X164499878Y-94753150D02*
X163753028Y-95500000D01*
X144250000Y-95500000D02*
X144000000Y-95250000D01*
X139750000Y-95750000D02*
X132500000Y-95750000D01*
X132500000Y-95750000D02*
X127750000Y-100500000D01*
X140250000Y-95250000D02*
X139750000Y-95750000D01*
X127750000Y-100500000D02*
X127750000Y-106750000D01*
X163753028Y-95500000D02*
X144250000Y-95500000D01*
X114250000Y-80000000D02*
X114250000Y-84750000D01*
X115500000Y-78750000D02*
X114250000Y-80000000D01*
X115750000Y-89250000D02*
X115750000Y-92750000D01*
X115750000Y-95500000D02*
X109000000Y-95500000D01*
X164500000Y-91750000D02*
X162500000Y-91750000D01*
X161000000Y-93250000D02*
X125500000Y-93250000D01*
X162500000Y-91750000D02*
X161000000Y-93250000D01*
X125500000Y-93250000D02*
X125000000Y-92750000D01*
X118500000Y-92750000D02*
X115750000Y-95500000D01*
X125000000Y-92750000D02*
X118500000Y-92750000D01*
X109000000Y-95500000D02*
X106750000Y-97750000D01*
X221550000Y-111000000D02*
X221550000Y-106250000D01*
X221425000Y-111125000D02*
X221550000Y-111000000D01*
X219050000Y-114750000D02*
X216300000Y-112000000D01*
X219050000Y-125250000D02*
X219050000Y-114750000D01*
X216300000Y-111000000D02*
X214050000Y-108750000D01*
X225550000Y-131750000D02*
X219050000Y-125250000D01*
X216300000Y-112000000D02*
X216300000Y-111000000D01*
X215289950Y-111750000D02*
X213050000Y-111750000D01*
X218300000Y-126500000D02*
X218300000Y-114760050D01*
X213050000Y-111750000D02*
X211510000Y-110210000D01*
X211510000Y-110210000D02*
X211510000Y-108750000D01*
X223800000Y-132000000D02*
X218300000Y-126500000D01*
X218300000Y-114760050D02*
X215289950Y-111750000D01*
X123500000Y-126000000D02*
X125250000Y-124250000D01*
X88500000Y-116750000D02*
X88500000Y-116500000D01*
X155250000Y-124250000D02*
X156500000Y-123000000D01*
X158010050Y-121500000D02*
X159750000Y-121500000D01*
X159750000Y-121500000D02*
X160000000Y-121250000D01*
X156500000Y-123000000D02*
X156510050Y-123000000D01*
X125250000Y-124250000D02*
X155250000Y-124250000D01*
X156510050Y-123000000D02*
X158010050Y-121500000D01*
X90750000Y-119000000D02*
X88500000Y-116750000D01*
X101250000Y-96750000D02*
X101250000Y-93500000D01*
X137800000Y-106200000D02*
X137750000Y-106250000D01*
X126000000Y-104750000D02*
X109250000Y-104750000D01*
X101250000Y-93500000D02*
X98000000Y-90250000D01*
X137750000Y-106250000D02*
X129000000Y-106250000D01*
X158000000Y-105500000D02*
X157300000Y-106200000D01*
X98000000Y-90250000D02*
X92000000Y-90250000D01*
X157300000Y-106200000D02*
X137800000Y-106200000D01*
X109250000Y-104750000D02*
X101250000Y-96750000D01*
X84250000Y-96500000D02*
X84500000Y-96250000D01*
X84250000Y-116500000D02*
X84250000Y-96500000D01*
X95750000Y-78500000D02*
X91750000Y-74500000D01*
X112750000Y-86500000D02*
X110250000Y-89000000D01*
X91750000Y-74500000D02*
X83000000Y-74500000D01*
X83000000Y-74500000D02*
X80550000Y-76950000D01*
X80550000Y-76950000D02*
X79500000Y-76950000D01*
X110250000Y-89000000D02*
X103500000Y-89000000D01*
X131750000Y-86500000D02*
X112750000Y-86500000D01*
X95750000Y-81250000D02*
X95750000Y-78500000D01*
X103500000Y-89000000D02*
X95750000Y-81250000D01*
M02*
