%TF.GenerationSoftware,KiCad,Pcbnew,9.0.1*%
%TF.CreationDate,2025-10-01T12:05:25-04:00*%
%TF.ProjectId,SCREEN_VERSION_1.2,53435245-454e-45f5-9645-5253494f4e5f,rev?*%
%TF.SameCoordinates,Original*%
%TF.FileFunction,Drillmap*%
%TF.FilePolarity,Positive*%
%FSLAX45Y45*%
G04 Gerber Fmt 4.5, Leading zero omitted, Abs format (unit mm)*
G04 Created by KiCad (PCBNEW 9.0.1) date 2025-10-01 12:05:25*
%MOMM*%
%LPD*%
G01*
G04 APERTURE LIST*
%ADD10C,0.050000*%
%ADD11C,0.200000*%
%ADD12C,0.160000*%
%ADD13C,0.300000*%
%ADD14C,0.320000*%
G04 APERTURE END LIST*
D10*
X24061250Y-10580000D02*
X24068750Y-8755000D01*
X23700000Y-15650000D02*
X23717500Y-10580000D01*
X24061250Y-10580000D02*
X23717500Y-10580000D01*
X23725000Y-7125000D02*
X23975000Y-7125000D01*
X7200000Y-15650000D02*
X7200000Y-5000000D01*
X23725000Y-6050000D02*
X23725000Y-5000000D01*
X23700000Y-15650000D02*
X7200000Y-15650000D01*
X23725000Y-7125000D02*
X23725000Y-7600000D01*
X7200000Y-5000000D02*
X23725000Y-5000000D01*
X23725000Y-7600000D02*
X23725000Y-8755000D01*
X23975000Y-7125000D02*
X23975000Y-6050000D01*
X23975000Y-6050000D02*
X23725000Y-6050000D01*
X24068750Y-8755000D02*
X23725000Y-8755000D01*
D11*
D12*
X23570000Y-6495000D02*
X23730000Y-6655000D01*
X23730000Y-6495000D02*
X23570000Y-6655000D01*
D13*
X23087500Y-9096000D02*
G75*
G02*
X22787500Y-9096000I-150000J0D01*
G01*
X22787500Y-9096000D02*
G75*
G02*
X23087500Y-9096000I150000J0D01*
G01*
X23087500Y-10239000D02*
G75*
G02*
X22787500Y-10239000I-150000J0D01*
G01*
X22787500Y-10239000D02*
G75*
G02*
X23087500Y-10239000I150000J0D01*
G01*
D14*
X7700000Y-5315000D02*
X7700000Y-5635000D01*
X7540000Y-5475000D02*
X7860000Y-5475000D01*
X7700000Y-15040000D02*
X7700000Y-15360000D01*
X7540000Y-15200000D02*
X7860000Y-15200000D01*
X23150000Y-14890000D02*
X23150000Y-15210000D01*
X22990000Y-15050000D02*
X23310000Y-15050000D01*
X23200000Y-5315000D02*
X23200000Y-5635000D01*
X23040000Y-5475000D02*
X23360000Y-5475000D01*
D11*
X7458277Y-15963984D02*
X7458277Y-15763984D01*
X7458277Y-15763984D02*
X7505896Y-15763984D01*
X7505896Y-15763984D02*
X7534467Y-15773508D01*
X7534467Y-15773508D02*
X7553515Y-15792555D01*
X7553515Y-15792555D02*
X7563039Y-15811603D01*
X7563039Y-15811603D02*
X7572562Y-15849698D01*
X7572562Y-15849698D02*
X7572562Y-15878269D01*
X7572562Y-15878269D02*
X7563039Y-15916365D01*
X7563039Y-15916365D02*
X7553515Y-15935412D01*
X7553515Y-15935412D02*
X7534467Y-15954460D01*
X7534467Y-15954460D02*
X7505896Y-15963984D01*
X7505896Y-15963984D02*
X7458277Y-15963984D01*
X7658277Y-15963984D02*
X7658277Y-15830650D01*
X7658277Y-15868746D02*
X7667801Y-15849698D01*
X7667801Y-15849698D02*
X7677324Y-15840174D01*
X7677324Y-15840174D02*
X7696372Y-15830650D01*
X7696372Y-15830650D02*
X7715420Y-15830650D01*
X7782086Y-15963984D02*
X7782086Y-15830650D01*
X7782086Y-15763984D02*
X7772562Y-15773508D01*
X7772562Y-15773508D02*
X7782086Y-15783031D01*
X7782086Y-15783031D02*
X7791610Y-15773508D01*
X7791610Y-15773508D02*
X7782086Y-15763984D01*
X7782086Y-15763984D02*
X7782086Y-15783031D01*
X7905896Y-15963984D02*
X7886848Y-15954460D01*
X7886848Y-15954460D02*
X7877324Y-15935412D01*
X7877324Y-15935412D02*
X7877324Y-15763984D01*
X8010658Y-15963984D02*
X7991610Y-15954460D01*
X7991610Y-15954460D02*
X7982086Y-15935412D01*
X7982086Y-15935412D02*
X7982086Y-15763984D01*
X8239229Y-15963984D02*
X8239229Y-15763984D01*
X8239229Y-15763984D02*
X8305896Y-15906841D01*
X8305896Y-15906841D02*
X8372562Y-15763984D01*
X8372562Y-15763984D02*
X8372562Y-15963984D01*
X8553515Y-15963984D02*
X8553515Y-15859222D01*
X8553515Y-15859222D02*
X8543991Y-15840174D01*
X8543991Y-15840174D02*
X8524944Y-15830650D01*
X8524944Y-15830650D02*
X8486848Y-15830650D01*
X8486848Y-15830650D02*
X8467801Y-15840174D01*
X8553515Y-15954460D02*
X8534467Y-15963984D01*
X8534467Y-15963984D02*
X8486848Y-15963984D01*
X8486848Y-15963984D02*
X8467801Y-15954460D01*
X8467801Y-15954460D02*
X8458277Y-15935412D01*
X8458277Y-15935412D02*
X8458277Y-15916365D01*
X8458277Y-15916365D02*
X8467801Y-15897317D01*
X8467801Y-15897317D02*
X8486848Y-15887793D01*
X8486848Y-15887793D02*
X8534467Y-15887793D01*
X8534467Y-15887793D02*
X8553515Y-15878269D01*
X8648753Y-15830650D02*
X8648753Y-16030650D01*
X8648753Y-15840174D02*
X8667801Y-15830650D01*
X8667801Y-15830650D02*
X8705896Y-15830650D01*
X8705896Y-15830650D02*
X8724944Y-15840174D01*
X8724944Y-15840174D02*
X8734467Y-15849698D01*
X8734467Y-15849698D02*
X8743991Y-15868746D01*
X8743991Y-15868746D02*
X8743991Y-15925888D01*
X8743991Y-15925888D02*
X8734467Y-15944936D01*
X8734467Y-15944936D02*
X8724944Y-15954460D01*
X8724944Y-15954460D02*
X8705896Y-15963984D01*
X8705896Y-15963984D02*
X8667801Y-15963984D01*
X8667801Y-15963984D02*
X8648753Y-15954460D01*
X8829705Y-15944936D02*
X8839229Y-15954460D01*
X8839229Y-15954460D02*
X8829705Y-15963984D01*
X8829705Y-15963984D02*
X8820182Y-15954460D01*
X8820182Y-15954460D02*
X8829705Y-15944936D01*
X8829705Y-15944936D02*
X8829705Y-15963984D01*
X8829705Y-15840174D02*
X8839229Y-15849698D01*
X8839229Y-15849698D02*
X8829705Y-15859222D01*
X8829705Y-15859222D02*
X8820182Y-15849698D01*
X8820182Y-15849698D02*
X8829705Y-15840174D01*
X8829705Y-15840174D02*
X8829705Y-15859222D01*
D12*
X7037500Y-16212500D02*
X7197500Y-16372500D01*
X7197500Y-16212500D02*
X7037500Y-16372500D01*
D11*
X7563039Y-16383984D02*
X7448753Y-16383984D01*
X7505896Y-16383984D02*
X7505896Y-16183984D01*
X7505896Y-16183984D02*
X7486848Y-16212555D01*
X7486848Y-16212555D02*
X7467801Y-16231603D01*
X7467801Y-16231603D02*
X7448753Y-16241127D01*
X7648753Y-16364936D02*
X7658277Y-16374460D01*
X7658277Y-16374460D02*
X7648753Y-16383984D01*
X7648753Y-16383984D02*
X7639229Y-16374460D01*
X7639229Y-16374460D02*
X7648753Y-16364936D01*
X7648753Y-16364936D02*
X7648753Y-16383984D01*
X7829705Y-16183984D02*
X7791610Y-16183984D01*
X7791610Y-16183984D02*
X7772562Y-16193508D01*
X7772562Y-16193508D02*
X7763039Y-16203031D01*
X7763039Y-16203031D02*
X7743991Y-16231603D01*
X7743991Y-16231603D02*
X7734467Y-16269698D01*
X7734467Y-16269698D02*
X7734467Y-16345888D01*
X7734467Y-16345888D02*
X7743991Y-16364936D01*
X7743991Y-16364936D02*
X7753515Y-16374460D01*
X7753515Y-16374460D02*
X7772562Y-16383984D01*
X7772562Y-16383984D02*
X7810658Y-16383984D01*
X7810658Y-16383984D02*
X7829705Y-16374460D01*
X7829705Y-16374460D02*
X7839229Y-16364936D01*
X7839229Y-16364936D02*
X7848753Y-16345888D01*
X7848753Y-16345888D02*
X7848753Y-16298269D01*
X7848753Y-16298269D02*
X7839229Y-16279222D01*
X7839229Y-16279222D02*
X7829705Y-16269698D01*
X7829705Y-16269698D02*
X7810658Y-16260174D01*
X7810658Y-16260174D02*
X7772562Y-16260174D01*
X7772562Y-16260174D02*
X7753515Y-16269698D01*
X7753515Y-16269698D02*
X7743991Y-16279222D01*
X7743991Y-16279222D02*
X7734467Y-16298269D01*
X7972562Y-16183984D02*
X7991610Y-16183984D01*
X7991610Y-16183984D02*
X8010658Y-16193508D01*
X8010658Y-16193508D02*
X8020182Y-16203031D01*
X8020182Y-16203031D02*
X8029705Y-16222079D01*
X8029705Y-16222079D02*
X8039229Y-16260174D01*
X8039229Y-16260174D02*
X8039229Y-16307793D01*
X8039229Y-16307793D02*
X8029705Y-16345888D01*
X8029705Y-16345888D02*
X8020182Y-16364936D01*
X8020182Y-16364936D02*
X8010658Y-16374460D01*
X8010658Y-16374460D02*
X7991610Y-16383984D01*
X7991610Y-16383984D02*
X7972562Y-16383984D01*
X7972562Y-16383984D02*
X7953515Y-16374460D01*
X7953515Y-16374460D02*
X7943991Y-16364936D01*
X7943991Y-16364936D02*
X7934467Y-16345888D01*
X7934467Y-16345888D02*
X7924943Y-16307793D01*
X7924943Y-16307793D02*
X7924943Y-16260174D01*
X7924943Y-16260174D02*
X7934467Y-16222079D01*
X7934467Y-16222079D02*
X7943991Y-16203031D01*
X7943991Y-16203031D02*
X7953515Y-16193508D01*
X7953515Y-16193508D02*
X7972562Y-16183984D01*
X8163039Y-16183984D02*
X8182086Y-16183984D01*
X8182086Y-16183984D02*
X8201134Y-16193508D01*
X8201134Y-16193508D02*
X8210658Y-16203031D01*
X8210658Y-16203031D02*
X8220182Y-16222079D01*
X8220182Y-16222079D02*
X8229705Y-16260174D01*
X8229705Y-16260174D02*
X8229705Y-16307793D01*
X8229705Y-16307793D02*
X8220182Y-16345888D01*
X8220182Y-16345888D02*
X8210658Y-16364936D01*
X8210658Y-16364936D02*
X8201134Y-16374460D01*
X8201134Y-16374460D02*
X8182086Y-16383984D01*
X8182086Y-16383984D02*
X8163039Y-16383984D01*
X8163039Y-16383984D02*
X8143991Y-16374460D01*
X8143991Y-16374460D02*
X8134467Y-16364936D01*
X8134467Y-16364936D02*
X8124943Y-16345888D01*
X8124943Y-16345888D02*
X8115420Y-16307793D01*
X8115420Y-16307793D02*
X8115420Y-16260174D01*
X8115420Y-16260174D02*
X8124943Y-16222079D01*
X8124943Y-16222079D02*
X8134467Y-16203031D01*
X8134467Y-16203031D02*
X8143991Y-16193508D01*
X8143991Y-16193508D02*
X8163039Y-16183984D01*
X8315420Y-16383984D02*
X8315420Y-16250650D01*
X8315420Y-16269698D02*
X8324943Y-16260174D01*
X8324943Y-16260174D02*
X8343991Y-16250650D01*
X8343991Y-16250650D02*
X8372563Y-16250650D01*
X8372563Y-16250650D02*
X8391610Y-16260174D01*
X8391610Y-16260174D02*
X8401134Y-16279222D01*
X8401134Y-16279222D02*
X8401134Y-16383984D01*
X8401134Y-16279222D02*
X8410658Y-16260174D01*
X8410658Y-16260174D02*
X8429705Y-16250650D01*
X8429705Y-16250650D02*
X8458277Y-16250650D01*
X8458277Y-16250650D02*
X8477325Y-16260174D01*
X8477325Y-16260174D02*
X8486848Y-16279222D01*
X8486848Y-16279222D02*
X8486848Y-16383984D01*
X8582086Y-16383984D02*
X8582086Y-16250650D01*
X8582086Y-16269698D02*
X8591610Y-16260174D01*
X8591610Y-16260174D02*
X8610658Y-16250650D01*
X8610658Y-16250650D02*
X8639229Y-16250650D01*
X8639229Y-16250650D02*
X8658277Y-16260174D01*
X8658277Y-16260174D02*
X8667801Y-16279222D01*
X8667801Y-16279222D02*
X8667801Y-16383984D01*
X8667801Y-16279222D02*
X8677325Y-16260174D01*
X8677325Y-16260174D02*
X8696372Y-16250650D01*
X8696372Y-16250650D02*
X8724944Y-16250650D01*
X8724944Y-16250650D02*
X8743991Y-16260174D01*
X8743991Y-16260174D02*
X8753515Y-16279222D01*
X8753515Y-16279222D02*
X8753515Y-16383984D01*
X9143991Y-16174460D02*
X8972563Y-16431603D01*
X9401134Y-16183984D02*
X9420182Y-16183984D01*
X9420182Y-16183984D02*
X9439229Y-16193508D01*
X9439229Y-16193508D02*
X9448753Y-16203031D01*
X9448753Y-16203031D02*
X9458277Y-16222079D01*
X9458277Y-16222079D02*
X9467801Y-16260174D01*
X9467801Y-16260174D02*
X9467801Y-16307793D01*
X9467801Y-16307793D02*
X9458277Y-16345888D01*
X9458277Y-16345888D02*
X9448753Y-16364936D01*
X9448753Y-16364936D02*
X9439229Y-16374460D01*
X9439229Y-16374460D02*
X9420182Y-16383984D01*
X9420182Y-16383984D02*
X9401134Y-16383984D01*
X9401134Y-16383984D02*
X9382087Y-16374460D01*
X9382087Y-16374460D02*
X9372563Y-16364936D01*
X9372563Y-16364936D02*
X9363039Y-16345888D01*
X9363039Y-16345888D02*
X9353515Y-16307793D01*
X9353515Y-16307793D02*
X9353515Y-16260174D01*
X9353515Y-16260174D02*
X9363039Y-16222079D01*
X9363039Y-16222079D02*
X9372563Y-16203031D01*
X9372563Y-16203031D02*
X9382087Y-16193508D01*
X9382087Y-16193508D02*
X9401134Y-16183984D01*
X9553515Y-16364936D02*
X9563039Y-16374460D01*
X9563039Y-16374460D02*
X9553515Y-16383984D01*
X9553515Y-16383984D02*
X9543991Y-16374460D01*
X9543991Y-16374460D02*
X9553515Y-16364936D01*
X9553515Y-16364936D02*
X9553515Y-16383984D01*
X9686848Y-16183984D02*
X9705896Y-16183984D01*
X9705896Y-16183984D02*
X9724944Y-16193508D01*
X9724944Y-16193508D02*
X9734468Y-16203031D01*
X9734468Y-16203031D02*
X9743991Y-16222079D01*
X9743991Y-16222079D02*
X9753515Y-16260174D01*
X9753515Y-16260174D02*
X9753515Y-16307793D01*
X9753515Y-16307793D02*
X9743991Y-16345888D01*
X9743991Y-16345888D02*
X9734468Y-16364936D01*
X9734468Y-16364936D02*
X9724944Y-16374460D01*
X9724944Y-16374460D02*
X9705896Y-16383984D01*
X9705896Y-16383984D02*
X9686848Y-16383984D01*
X9686848Y-16383984D02*
X9667801Y-16374460D01*
X9667801Y-16374460D02*
X9658277Y-16364936D01*
X9658277Y-16364936D02*
X9648753Y-16345888D01*
X9648753Y-16345888D02*
X9639229Y-16307793D01*
X9639229Y-16307793D02*
X9639229Y-16260174D01*
X9639229Y-16260174D02*
X9648753Y-16222079D01*
X9648753Y-16222079D02*
X9658277Y-16203031D01*
X9658277Y-16203031D02*
X9667801Y-16193508D01*
X9667801Y-16193508D02*
X9686848Y-16183984D01*
X9924944Y-16183984D02*
X9886848Y-16183984D01*
X9886848Y-16183984D02*
X9867801Y-16193508D01*
X9867801Y-16193508D02*
X9858277Y-16203031D01*
X9858277Y-16203031D02*
X9839229Y-16231603D01*
X9839229Y-16231603D02*
X9829706Y-16269698D01*
X9829706Y-16269698D02*
X9829706Y-16345888D01*
X9829706Y-16345888D02*
X9839229Y-16364936D01*
X9839229Y-16364936D02*
X9848753Y-16374460D01*
X9848753Y-16374460D02*
X9867801Y-16383984D01*
X9867801Y-16383984D02*
X9905896Y-16383984D01*
X9905896Y-16383984D02*
X9924944Y-16374460D01*
X9924944Y-16374460D02*
X9934468Y-16364936D01*
X9934468Y-16364936D02*
X9943991Y-16345888D01*
X9943991Y-16345888D02*
X9943991Y-16298269D01*
X9943991Y-16298269D02*
X9934468Y-16279222D01*
X9934468Y-16279222D02*
X9924944Y-16269698D01*
X9924944Y-16269698D02*
X9905896Y-16260174D01*
X9905896Y-16260174D02*
X9867801Y-16260174D01*
X9867801Y-16260174D02*
X9848753Y-16269698D01*
X9848753Y-16269698D02*
X9839229Y-16279222D01*
X9839229Y-16279222D02*
X9829706Y-16298269D01*
X10010658Y-16183984D02*
X10134468Y-16183984D01*
X10134468Y-16183984D02*
X10067801Y-16260174D01*
X10067801Y-16260174D02*
X10096372Y-16260174D01*
X10096372Y-16260174D02*
X10115420Y-16269698D01*
X10115420Y-16269698D02*
X10124944Y-16279222D01*
X10124944Y-16279222D02*
X10134468Y-16298269D01*
X10134468Y-16298269D02*
X10134468Y-16345888D01*
X10134468Y-16345888D02*
X10124944Y-16364936D01*
X10124944Y-16364936D02*
X10115420Y-16374460D01*
X10115420Y-16374460D02*
X10096372Y-16383984D01*
X10096372Y-16383984D02*
X10039229Y-16383984D01*
X10039229Y-16383984D02*
X10020182Y-16374460D01*
X10020182Y-16374460D02*
X10010658Y-16364936D01*
X10258277Y-16183984D02*
X10277325Y-16183984D01*
X10277325Y-16183984D02*
X10296372Y-16193508D01*
X10296372Y-16193508D02*
X10305896Y-16203031D01*
X10305896Y-16203031D02*
X10315420Y-16222079D01*
X10315420Y-16222079D02*
X10324944Y-16260174D01*
X10324944Y-16260174D02*
X10324944Y-16307793D01*
X10324944Y-16307793D02*
X10315420Y-16345888D01*
X10315420Y-16345888D02*
X10305896Y-16364936D01*
X10305896Y-16364936D02*
X10296372Y-16374460D01*
X10296372Y-16374460D02*
X10277325Y-16383984D01*
X10277325Y-16383984D02*
X10258277Y-16383984D01*
X10258277Y-16383984D02*
X10239229Y-16374460D01*
X10239229Y-16374460D02*
X10229706Y-16364936D01*
X10229706Y-16364936D02*
X10220182Y-16345888D01*
X10220182Y-16345888D02*
X10210658Y-16307793D01*
X10210658Y-16307793D02*
X10210658Y-16260174D01*
X10210658Y-16260174D02*
X10220182Y-16222079D01*
X10220182Y-16222079D02*
X10229706Y-16203031D01*
X10229706Y-16203031D02*
X10239229Y-16193508D01*
X10239229Y-16193508D02*
X10258277Y-16183984D01*
X10401134Y-16183984D02*
X10401134Y-16222079D01*
X10477325Y-16183984D02*
X10477325Y-16222079D01*
X10772563Y-16460174D02*
X10763039Y-16450650D01*
X10763039Y-16450650D02*
X10743991Y-16422079D01*
X10743991Y-16422079D02*
X10734468Y-16403031D01*
X10734468Y-16403031D02*
X10724944Y-16374460D01*
X10724944Y-16374460D02*
X10715420Y-16326841D01*
X10715420Y-16326841D02*
X10715420Y-16288746D01*
X10715420Y-16288746D02*
X10724944Y-16241127D01*
X10724944Y-16241127D02*
X10734468Y-16212555D01*
X10734468Y-16212555D02*
X10743991Y-16193508D01*
X10743991Y-16193508D02*
X10763039Y-16164936D01*
X10763039Y-16164936D02*
X10772563Y-16155412D01*
X10953515Y-16383984D02*
X10839230Y-16383984D01*
X10896372Y-16383984D02*
X10896372Y-16183984D01*
X10896372Y-16183984D02*
X10877325Y-16212555D01*
X10877325Y-16212555D02*
X10858277Y-16231603D01*
X10858277Y-16231603D02*
X10839230Y-16241127D01*
X11191610Y-16383984D02*
X11191610Y-16183984D01*
X11277325Y-16383984D02*
X11277325Y-16279222D01*
X11277325Y-16279222D02*
X11267801Y-16260174D01*
X11267801Y-16260174D02*
X11248753Y-16250650D01*
X11248753Y-16250650D02*
X11220182Y-16250650D01*
X11220182Y-16250650D02*
X11201134Y-16260174D01*
X11201134Y-16260174D02*
X11191610Y-16269698D01*
X11401134Y-16383984D02*
X11382087Y-16374460D01*
X11382087Y-16374460D02*
X11372563Y-16364936D01*
X11372563Y-16364936D02*
X11363039Y-16345888D01*
X11363039Y-16345888D02*
X11363039Y-16288746D01*
X11363039Y-16288746D02*
X11372563Y-16269698D01*
X11372563Y-16269698D02*
X11382087Y-16260174D01*
X11382087Y-16260174D02*
X11401134Y-16250650D01*
X11401134Y-16250650D02*
X11429706Y-16250650D01*
X11429706Y-16250650D02*
X11448753Y-16260174D01*
X11448753Y-16260174D02*
X11458277Y-16269698D01*
X11458277Y-16269698D02*
X11467801Y-16288746D01*
X11467801Y-16288746D02*
X11467801Y-16345888D01*
X11467801Y-16345888D02*
X11458277Y-16364936D01*
X11458277Y-16364936D02*
X11448753Y-16374460D01*
X11448753Y-16374460D02*
X11429706Y-16383984D01*
X11429706Y-16383984D02*
X11401134Y-16383984D01*
X11582087Y-16383984D02*
X11563039Y-16374460D01*
X11563039Y-16374460D02*
X11553515Y-16355412D01*
X11553515Y-16355412D02*
X11553515Y-16183984D01*
X11734468Y-16374460D02*
X11715420Y-16383984D01*
X11715420Y-16383984D02*
X11677325Y-16383984D01*
X11677325Y-16383984D02*
X11658277Y-16374460D01*
X11658277Y-16374460D02*
X11648753Y-16355412D01*
X11648753Y-16355412D02*
X11648753Y-16279222D01*
X11648753Y-16279222D02*
X11658277Y-16260174D01*
X11658277Y-16260174D02*
X11677325Y-16250650D01*
X11677325Y-16250650D02*
X11715420Y-16250650D01*
X11715420Y-16250650D02*
X11734468Y-16260174D01*
X11734468Y-16260174D02*
X11743991Y-16279222D01*
X11743991Y-16279222D02*
X11743991Y-16298269D01*
X11743991Y-16298269D02*
X11648753Y-16317317D01*
X11810658Y-16460174D02*
X11820182Y-16450650D01*
X11820182Y-16450650D02*
X11839230Y-16422079D01*
X11839230Y-16422079D02*
X11848753Y-16403031D01*
X11848753Y-16403031D02*
X11858277Y-16374460D01*
X11858277Y-16374460D02*
X11867801Y-16326841D01*
X11867801Y-16326841D02*
X11867801Y-16288746D01*
X11867801Y-16288746D02*
X11858277Y-16241127D01*
X11858277Y-16241127D02*
X11848753Y-16212555D01*
X11848753Y-16212555D02*
X11839230Y-16193508D01*
X11839230Y-16193508D02*
X11820182Y-16164936D01*
X11820182Y-16164936D02*
X11810658Y-16155412D01*
X12172563Y-16460174D02*
X12163039Y-16450650D01*
X12163039Y-16450650D02*
X12143991Y-16422079D01*
X12143991Y-16422079D02*
X12134468Y-16403031D01*
X12134468Y-16403031D02*
X12124944Y-16374460D01*
X12124944Y-16374460D02*
X12115420Y-16326841D01*
X12115420Y-16326841D02*
X12115420Y-16288746D01*
X12115420Y-16288746D02*
X12124944Y-16241127D01*
X12124944Y-16241127D02*
X12134468Y-16212555D01*
X12134468Y-16212555D02*
X12143991Y-16193508D01*
X12143991Y-16193508D02*
X12163039Y-16164936D01*
X12163039Y-16164936D02*
X12172563Y-16155412D01*
X12248753Y-16250650D02*
X12248753Y-16383984D01*
X12248753Y-16269698D02*
X12258277Y-16260174D01*
X12258277Y-16260174D02*
X12277325Y-16250650D01*
X12277325Y-16250650D02*
X12305896Y-16250650D01*
X12305896Y-16250650D02*
X12324944Y-16260174D01*
X12324944Y-16260174D02*
X12334468Y-16279222D01*
X12334468Y-16279222D02*
X12334468Y-16383984D01*
X12458277Y-16383984D02*
X12439230Y-16374460D01*
X12439230Y-16374460D02*
X12429706Y-16364936D01*
X12429706Y-16364936D02*
X12420182Y-16345888D01*
X12420182Y-16345888D02*
X12420182Y-16288746D01*
X12420182Y-16288746D02*
X12429706Y-16269698D01*
X12429706Y-16269698D02*
X12439230Y-16260174D01*
X12439230Y-16260174D02*
X12458277Y-16250650D01*
X12458277Y-16250650D02*
X12486849Y-16250650D01*
X12486849Y-16250650D02*
X12505896Y-16260174D01*
X12505896Y-16260174D02*
X12515420Y-16269698D01*
X12515420Y-16269698D02*
X12524944Y-16288746D01*
X12524944Y-16288746D02*
X12524944Y-16345888D01*
X12524944Y-16345888D02*
X12515420Y-16364936D01*
X12515420Y-16364936D02*
X12505896Y-16374460D01*
X12505896Y-16374460D02*
X12486849Y-16383984D01*
X12486849Y-16383984D02*
X12458277Y-16383984D01*
X12582087Y-16250650D02*
X12658277Y-16250650D01*
X12610658Y-16183984D02*
X12610658Y-16355412D01*
X12610658Y-16355412D02*
X12620182Y-16374460D01*
X12620182Y-16374460D02*
X12639230Y-16383984D01*
X12639230Y-16383984D02*
X12658277Y-16383984D01*
X12877325Y-16250650D02*
X12877325Y-16450650D01*
X12877325Y-16260174D02*
X12896372Y-16250650D01*
X12896372Y-16250650D02*
X12934468Y-16250650D01*
X12934468Y-16250650D02*
X12953515Y-16260174D01*
X12953515Y-16260174D02*
X12963039Y-16269698D01*
X12963039Y-16269698D02*
X12972563Y-16288746D01*
X12972563Y-16288746D02*
X12972563Y-16345888D01*
X12972563Y-16345888D02*
X12963039Y-16364936D01*
X12963039Y-16364936D02*
X12953515Y-16374460D01*
X12953515Y-16374460D02*
X12934468Y-16383984D01*
X12934468Y-16383984D02*
X12896372Y-16383984D01*
X12896372Y-16383984D02*
X12877325Y-16374460D01*
X13086849Y-16383984D02*
X13067801Y-16374460D01*
X13067801Y-16374460D02*
X13058277Y-16355412D01*
X13058277Y-16355412D02*
X13058277Y-16183984D01*
X13248753Y-16383984D02*
X13248753Y-16279222D01*
X13248753Y-16279222D02*
X13239230Y-16260174D01*
X13239230Y-16260174D02*
X13220182Y-16250650D01*
X13220182Y-16250650D02*
X13182087Y-16250650D01*
X13182087Y-16250650D02*
X13163039Y-16260174D01*
X13248753Y-16374460D02*
X13229706Y-16383984D01*
X13229706Y-16383984D02*
X13182087Y-16383984D01*
X13182087Y-16383984D02*
X13163039Y-16374460D01*
X13163039Y-16374460D02*
X13153515Y-16355412D01*
X13153515Y-16355412D02*
X13153515Y-16336365D01*
X13153515Y-16336365D02*
X13163039Y-16317317D01*
X13163039Y-16317317D02*
X13182087Y-16307793D01*
X13182087Y-16307793D02*
X13229706Y-16307793D01*
X13229706Y-16307793D02*
X13248753Y-16298269D01*
X13315420Y-16250650D02*
X13391611Y-16250650D01*
X13343992Y-16183984D02*
X13343992Y-16355412D01*
X13343992Y-16355412D02*
X13353515Y-16374460D01*
X13353515Y-16374460D02*
X13372563Y-16383984D01*
X13372563Y-16383984D02*
X13391611Y-16383984D01*
X13534468Y-16374460D02*
X13515420Y-16383984D01*
X13515420Y-16383984D02*
X13477325Y-16383984D01*
X13477325Y-16383984D02*
X13458277Y-16374460D01*
X13458277Y-16374460D02*
X13448753Y-16355412D01*
X13448753Y-16355412D02*
X13448753Y-16279222D01*
X13448753Y-16279222D02*
X13458277Y-16260174D01*
X13458277Y-16260174D02*
X13477325Y-16250650D01*
X13477325Y-16250650D02*
X13515420Y-16250650D01*
X13515420Y-16250650D02*
X13534468Y-16260174D01*
X13534468Y-16260174D02*
X13543992Y-16279222D01*
X13543992Y-16279222D02*
X13543992Y-16298269D01*
X13543992Y-16298269D02*
X13448753Y-16317317D01*
X13715420Y-16383984D02*
X13715420Y-16183984D01*
X13715420Y-16374460D02*
X13696373Y-16383984D01*
X13696373Y-16383984D02*
X13658277Y-16383984D01*
X13658277Y-16383984D02*
X13639230Y-16374460D01*
X13639230Y-16374460D02*
X13629706Y-16364936D01*
X13629706Y-16364936D02*
X13620182Y-16345888D01*
X13620182Y-16345888D02*
X13620182Y-16288746D01*
X13620182Y-16288746D02*
X13629706Y-16269698D01*
X13629706Y-16269698D02*
X13639230Y-16260174D01*
X13639230Y-16260174D02*
X13658277Y-16250650D01*
X13658277Y-16250650D02*
X13696373Y-16250650D01*
X13696373Y-16250650D02*
X13715420Y-16260174D01*
X13791611Y-16460174D02*
X13801134Y-16450650D01*
X13801134Y-16450650D02*
X13820182Y-16422079D01*
X13820182Y-16422079D02*
X13829706Y-16403031D01*
X13829706Y-16403031D02*
X13839230Y-16374460D01*
X13839230Y-16374460D02*
X13848753Y-16326841D01*
X13848753Y-16326841D02*
X13848753Y-16288746D01*
X13848753Y-16288746D02*
X13839230Y-16241127D01*
X13839230Y-16241127D02*
X13829706Y-16212555D01*
X13829706Y-16212555D02*
X13820182Y-16193508D01*
X13820182Y-16193508D02*
X13801134Y-16164936D01*
X13801134Y-16164936D02*
X13791611Y-16155412D01*
X7197500Y-16572500D02*
G75*
G02*
X6997500Y-16572500I-100000J0D01*
G01*
X6997500Y-16572500D02*
G75*
G02*
X7197500Y-16572500I100000J0D01*
G01*
X7439229Y-16463984D02*
X7563039Y-16463984D01*
X7563039Y-16463984D02*
X7496372Y-16540174D01*
X7496372Y-16540174D02*
X7524943Y-16540174D01*
X7524943Y-16540174D02*
X7543991Y-16549698D01*
X7543991Y-16549698D02*
X7553515Y-16559222D01*
X7553515Y-16559222D02*
X7563039Y-16578269D01*
X7563039Y-16578269D02*
X7563039Y-16625888D01*
X7563039Y-16625888D02*
X7553515Y-16644936D01*
X7553515Y-16644936D02*
X7543991Y-16654460D01*
X7543991Y-16654460D02*
X7524943Y-16663984D01*
X7524943Y-16663984D02*
X7467801Y-16663984D01*
X7467801Y-16663984D02*
X7448753Y-16654460D01*
X7448753Y-16654460D02*
X7439229Y-16644936D01*
X7648753Y-16644936D02*
X7658277Y-16654460D01*
X7658277Y-16654460D02*
X7648753Y-16663984D01*
X7648753Y-16663984D02*
X7639229Y-16654460D01*
X7639229Y-16654460D02*
X7648753Y-16644936D01*
X7648753Y-16644936D02*
X7648753Y-16663984D01*
X7782086Y-16463984D02*
X7801134Y-16463984D01*
X7801134Y-16463984D02*
X7820182Y-16473508D01*
X7820182Y-16473508D02*
X7829705Y-16483031D01*
X7829705Y-16483031D02*
X7839229Y-16502079D01*
X7839229Y-16502079D02*
X7848753Y-16540174D01*
X7848753Y-16540174D02*
X7848753Y-16587793D01*
X7848753Y-16587793D02*
X7839229Y-16625888D01*
X7839229Y-16625888D02*
X7829705Y-16644936D01*
X7829705Y-16644936D02*
X7820182Y-16654460D01*
X7820182Y-16654460D02*
X7801134Y-16663984D01*
X7801134Y-16663984D02*
X7782086Y-16663984D01*
X7782086Y-16663984D02*
X7763039Y-16654460D01*
X7763039Y-16654460D02*
X7753515Y-16644936D01*
X7753515Y-16644936D02*
X7743991Y-16625888D01*
X7743991Y-16625888D02*
X7734467Y-16587793D01*
X7734467Y-16587793D02*
X7734467Y-16540174D01*
X7734467Y-16540174D02*
X7743991Y-16502079D01*
X7743991Y-16502079D02*
X7753515Y-16483031D01*
X7753515Y-16483031D02*
X7763039Y-16473508D01*
X7763039Y-16473508D02*
X7782086Y-16463984D01*
X7972562Y-16463984D02*
X7991610Y-16463984D01*
X7991610Y-16463984D02*
X8010658Y-16473508D01*
X8010658Y-16473508D02*
X8020182Y-16483031D01*
X8020182Y-16483031D02*
X8029705Y-16502079D01*
X8029705Y-16502079D02*
X8039229Y-16540174D01*
X8039229Y-16540174D02*
X8039229Y-16587793D01*
X8039229Y-16587793D02*
X8029705Y-16625888D01*
X8029705Y-16625888D02*
X8020182Y-16644936D01*
X8020182Y-16644936D02*
X8010658Y-16654460D01*
X8010658Y-16654460D02*
X7991610Y-16663984D01*
X7991610Y-16663984D02*
X7972562Y-16663984D01*
X7972562Y-16663984D02*
X7953515Y-16654460D01*
X7953515Y-16654460D02*
X7943991Y-16644936D01*
X7943991Y-16644936D02*
X7934467Y-16625888D01*
X7934467Y-16625888D02*
X7924943Y-16587793D01*
X7924943Y-16587793D02*
X7924943Y-16540174D01*
X7924943Y-16540174D02*
X7934467Y-16502079D01*
X7934467Y-16502079D02*
X7943991Y-16483031D01*
X7943991Y-16483031D02*
X7953515Y-16473508D01*
X7953515Y-16473508D02*
X7972562Y-16463984D01*
X8163039Y-16463984D02*
X8182086Y-16463984D01*
X8182086Y-16463984D02*
X8201134Y-16473508D01*
X8201134Y-16473508D02*
X8210658Y-16483031D01*
X8210658Y-16483031D02*
X8220182Y-16502079D01*
X8220182Y-16502079D02*
X8229705Y-16540174D01*
X8229705Y-16540174D02*
X8229705Y-16587793D01*
X8229705Y-16587793D02*
X8220182Y-16625888D01*
X8220182Y-16625888D02*
X8210658Y-16644936D01*
X8210658Y-16644936D02*
X8201134Y-16654460D01*
X8201134Y-16654460D02*
X8182086Y-16663984D01*
X8182086Y-16663984D02*
X8163039Y-16663984D01*
X8163039Y-16663984D02*
X8143991Y-16654460D01*
X8143991Y-16654460D02*
X8134467Y-16644936D01*
X8134467Y-16644936D02*
X8124943Y-16625888D01*
X8124943Y-16625888D02*
X8115420Y-16587793D01*
X8115420Y-16587793D02*
X8115420Y-16540174D01*
X8115420Y-16540174D02*
X8124943Y-16502079D01*
X8124943Y-16502079D02*
X8134467Y-16483031D01*
X8134467Y-16483031D02*
X8143991Y-16473508D01*
X8143991Y-16473508D02*
X8163039Y-16463984D01*
X8315420Y-16663984D02*
X8315420Y-16530650D01*
X8315420Y-16549698D02*
X8324943Y-16540174D01*
X8324943Y-16540174D02*
X8343991Y-16530650D01*
X8343991Y-16530650D02*
X8372563Y-16530650D01*
X8372563Y-16530650D02*
X8391610Y-16540174D01*
X8391610Y-16540174D02*
X8401134Y-16559222D01*
X8401134Y-16559222D02*
X8401134Y-16663984D01*
X8401134Y-16559222D02*
X8410658Y-16540174D01*
X8410658Y-16540174D02*
X8429705Y-16530650D01*
X8429705Y-16530650D02*
X8458277Y-16530650D01*
X8458277Y-16530650D02*
X8477325Y-16540174D01*
X8477325Y-16540174D02*
X8486848Y-16559222D01*
X8486848Y-16559222D02*
X8486848Y-16663984D01*
X8582086Y-16663984D02*
X8582086Y-16530650D01*
X8582086Y-16549698D02*
X8591610Y-16540174D01*
X8591610Y-16540174D02*
X8610658Y-16530650D01*
X8610658Y-16530650D02*
X8639229Y-16530650D01*
X8639229Y-16530650D02*
X8658277Y-16540174D01*
X8658277Y-16540174D02*
X8667801Y-16559222D01*
X8667801Y-16559222D02*
X8667801Y-16663984D01*
X8667801Y-16559222D02*
X8677325Y-16540174D01*
X8677325Y-16540174D02*
X8696372Y-16530650D01*
X8696372Y-16530650D02*
X8724944Y-16530650D01*
X8724944Y-16530650D02*
X8743991Y-16540174D01*
X8743991Y-16540174D02*
X8753515Y-16559222D01*
X8753515Y-16559222D02*
X8753515Y-16663984D01*
X9143991Y-16454460D02*
X8972563Y-16711603D01*
X9401134Y-16463984D02*
X9420182Y-16463984D01*
X9420182Y-16463984D02*
X9439229Y-16473508D01*
X9439229Y-16473508D02*
X9448753Y-16483031D01*
X9448753Y-16483031D02*
X9458277Y-16502079D01*
X9458277Y-16502079D02*
X9467801Y-16540174D01*
X9467801Y-16540174D02*
X9467801Y-16587793D01*
X9467801Y-16587793D02*
X9458277Y-16625888D01*
X9458277Y-16625888D02*
X9448753Y-16644936D01*
X9448753Y-16644936D02*
X9439229Y-16654460D01*
X9439229Y-16654460D02*
X9420182Y-16663984D01*
X9420182Y-16663984D02*
X9401134Y-16663984D01*
X9401134Y-16663984D02*
X9382087Y-16654460D01*
X9382087Y-16654460D02*
X9372563Y-16644936D01*
X9372563Y-16644936D02*
X9363039Y-16625888D01*
X9363039Y-16625888D02*
X9353515Y-16587793D01*
X9353515Y-16587793D02*
X9353515Y-16540174D01*
X9353515Y-16540174D02*
X9363039Y-16502079D01*
X9363039Y-16502079D02*
X9372563Y-16483031D01*
X9372563Y-16483031D02*
X9382087Y-16473508D01*
X9382087Y-16473508D02*
X9401134Y-16463984D01*
X9553515Y-16644936D02*
X9563039Y-16654460D01*
X9563039Y-16654460D02*
X9553515Y-16663984D01*
X9553515Y-16663984D02*
X9543991Y-16654460D01*
X9543991Y-16654460D02*
X9553515Y-16644936D01*
X9553515Y-16644936D02*
X9553515Y-16663984D01*
X9753515Y-16663984D02*
X9639229Y-16663984D01*
X9696372Y-16663984D02*
X9696372Y-16463984D01*
X9696372Y-16463984D02*
X9677325Y-16492555D01*
X9677325Y-16492555D02*
X9658277Y-16511603D01*
X9658277Y-16511603D02*
X9639229Y-16521127D01*
X9943991Y-16663984D02*
X9829706Y-16663984D01*
X9886848Y-16663984D02*
X9886848Y-16463984D01*
X9886848Y-16463984D02*
X9867801Y-16492555D01*
X9867801Y-16492555D02*
X9848753Y-16511603D01*
X9848753Y-16511603D02*
X9829706Y-16521127D01*
X10058277Y-16549698D02*
X10039229Y-16540174D01*
X10039229Y-16540174D02*
X10029706Y-16530650D01*
X10029706Y-16530650D02*
X10020182Y-16511603D01*
X10020182Y-16511603D02*
X10020182Y-16502079D01*
X10020182Y-16502079D02*
X10029706Y-16483031D01*
X10029706Y-16483031D02*
X10039229Y-16473508D01*
X10039229Y-16473508D02*
X10058277Y-16463984D01*
X10058277Y-16463984D02*
X10096372Y-16463984D01*
X10096372Y-16463984D02*
X10115420Y-16473508D01*
X10115420Y-16473508D02*
X10124944Y-16483031D01*
X10124944Y-16483031D02*
X10134468Y-16502079D01*
X10134468Y-16502079D02*
X10134468Y-16511603D01*
X10134468Y-16511603D02*
X10124944Y-16530650D01*
X10124944Y-16530650D02*
X10115420Y-16540174D01*
X10115420Y-16540174D02*
X10096372Y-16549698D01*
X10096372Y-16549698D02*
X10058277Y-16549698D01*
X10058277Y-16549698D02*
X10039229Y-16559222D01*
X10039229Y-16559222D02*
X10029706Y-16568746D01*
X10029706Y-16568746D02*
X10020182Y-16587793D01*
X10020182Y-16587793D02*
X10020182Y-16625888D01*
X10020182Y-16625888D02*
X10029706Y-16644936D01*
X10029706Y-16644936D02*
X10039229Y-16654460D01*
X10039229Y-16654460D02*
X10058277Y-16663984D01*
X10058277Y-16663984D02*
X10096372Y-16663984D01*
X10096372Y-16663984D02*
X10115420Y-16654460D01*
X10115420Y-16654460D02*
X10124944Y-16644936D01*
X10124944Y-16644936D02*
X10134468Y-16625888D01*
X10134468Y-16625888D02*
X10134468Y-16587793D01*
X10134468Y-16587793D02*
X10124944Y-16568746D01*
X10124944Y-16568746D02*
X10115420Y-16559222D01*
X10115420Y-16559222D02*
X10096372Y-16549698D01*
X10324944Y-16663984D02*
X10210658Y-16663984D01*
X10267801Y-16663984D02*
X10267801Y-16463984D01*
X10267801Y-16463984D02*
X10248753Y-16492555D01*
X10248753Y-16492555D02*
X10229706Y-16511603D01*
X10229706Y-16511603D02*
X10210658Y-16521127D01*
X10401134Y-16463984D02*
X10401134Y-16502079D01*
X10477325Y-16463984D02*
X10477325Y-16502079D01*
X10772563Y-16740174D02*
X10763039Y-16730650D01*
X10763039Y-16730650D02*
X10743991Y-16702079D01*
X10743991Y-16702079D02*
X10734468Y-16683031D01*
X10734468Y-16683031D02*
X10724944Y-16654460D01*
X10724944Y-16654460D02*
X10715420Y-16606841D01*
X10715420Y-16606841D02*
X10715420Y-16568746D01*
X10715420Y-16568746D02*
X10724944Y-16521127D01*
X10724944Y-16521127D02*
X10734468Y-16492555D01*
X10734468Y-16492555D02*
X10743991Y-16473508D01*
X10743991Y-16473508D02*
X10763039Y-16444936D01*
X10763039Y-16444936D02*
X10772563Y-16435412D01*
X10839230Y-16483031D02*
X10848753Y-16473508D01*
X10848753Y-16473508D02*
X10867801Y-16463984D01*
X10867801Y-16463984D02*
X10915420Y-16463984D01*
X10915420Y-16463984D02*
X10934468Y-16473508D01*
X10934468Y-16473508D02*
X10943991Y-16483031D01*
X10943991Y-16483031D02*
X10953515Y-16502079D01*
X10953515Y-16502079D02*
X10953515Y-16521127D01*
X10953515Y-16521127D02*
X10943991Y-16549698D01*
X10943991Y-16549698D02*
X10829706Y-16663984D01*
X10829706Y-16663984D02*
X10953515Y-16663984D01*
X11191610Y-16663984D02*
X11191610Y-16463984D01*
X11277325Y-16663984D02*
X11277325Y-16559222D01*
X11277325Y-16559222D02*
X11267801Y-16540174D01*
X11267801Y-16540174D02*
X11248753Y-16530650D01*
X11248753Y-16530650D02*
X11220182Y-16530650D01*
X11220182Y-16530650D02*
X11201134Y-16540174D01*
X11201134Y-16540174D02*
X11191610Y-16549698D01*
X11401134Y-16663984D02*
X11382087Y-16654460D01*
X11382087Y-16654460D02*
X11372563Y-16644936D01*
X11372563Y-16644936D02*
X11363039Y-16625888D01*
X11363039Y-16625888D02*
X11363039Y-16568746D01*
X11363039Y-16568746D02*
X11372563Y-16549698D01*
X11372563Y-16549698D02*
X11382087Y-16540174D01*
X11382087Y-16540174D02*
X11401134Y-16530650D01*
X11401134Y-16530650D02*
X11429706Y-16530650D01*
X11429706Y-16530650D02*
X11448753Y-16540174D01*
X11448753Y-16540174D02*
X11458277Y-16549698D01*
X11458277Y-16549698D02*
X11467801Y-16568746D01*
X11467801Y-16568746D02*
X11467801Y-16625888D01*
X11467801Y-16625888D02*
X11458277Y-16644936D01*
X11458277Y-16644936D02*
X11448753Y-16654460D01*
X11448753Y-16654460D02*
X11429706Y-16663984D01*
X11429706Y-16663984D02*
X11401134Y-16663984D01*
X11582087Y-16663984D02*
X11563039Y-16654460D01*
X11563039Y-16654460D02*
X11553515Y-16635412D01*
X11553515Y-16635412D02*
X11553515Y-16463984D01*
X11734468Y-16654460D02*
X11715420Y-16663984D01*
X11715420Y-16663984D02*
X11677325Y-16663984D01*
X11677325Y-16663984D02*
X11658277Y-16654460D01*
X11658277Y-16654460D02*
X11648753Y-16635412D01*
X11648753Y-16635412D02*
X11648753Y-16559222D01*
X11648753Y-16559222D02*
X11658277Y-16540174D01*
X11658277Y-16540174D02*
X11677325Y-16530650D01*
X11677325Y-16530650D02*
X11715420Y-16530650D01*
X11715420Y-16530650D02*
X11734468Y-16540174D01*
X11734468Y-16540174D02*
X11743991Y-16559222D01*
X11743991Y-16559222D02*
X11743991Y-16578269D01*
X11743991Y-16578269D02*
X11648753Y-16597317D01*
X11820182Y-16654460D02*
X11839230Y-16663984D01*
X11839230Y-16663984D02*
X11877325Y-16663984D01*
X11877325Y-16663984D02*
X11896372Y-16654460D01*
X11896372Y-16654460D02*
X11905896Y-16635412D01*
X11905896Y-16635412D02*
X11905896Y-16625888D01*
X11905896Y-16625888D02*
X11896372Y-16606841D01*
X11896372Y-16606841D02*
X11877325Y-16597317D01*
X11877325Y-16597317D02*
X11848753Y-16597317D01*
X11848753Y-16597317D02*
X11829706Y-16587793D01*
X11829706Y-16587793D02*
X11820182Y-16568746D01*
X11820182Y-16568746D02*
X11820182Y-16559222D01*
X11820182Y-16559222D02*
X11829706Y-16540174D01*
X11829706Y-16540174D02*
X11848753Y-16530650D01*
X11848753Y-16530650D02*
X11877325Y-16530650D01*
X11877325Y-16530650D02*
X11896372Y-16540174D01*
X11972563Y-16740174D02*
X11982087Y-16730650D01*
X11982087Y-16730650D02*
X12001134Y-16702079D01*
X12001134Y-16702079D02*
X12010658Y-16683031D01*
X12010658Y-16683031D02*
X12020182Y-16654460D01*
X12020182Y-16654460D02*
X12029706Y-16606841D01*
X12029706Y-16606841D02*
X12029706Y-16568746D01*
X12029706Y-16568746D02*
X12020182Y-16521127D01*
X12020182Y-16521127D02*
X12010658Y-16492555D01*
X12010658Y-16492555D02*
X12001134Y-16473508D01*
X12001134Y-16473508D02*
X11982087Y-16444936D01*
X11982087Y-16444936D02*
X11972563Y-16435412D01*
X12334468Y-16740174D02*
X12324944Y-16730650D01*
X12324944Y-16730650D02*
X12305896Y-16702079D01*
X12305896Y-16702079D02*
X12296372Y-16683031D01*
X12296372Y-16683031D02*
X12286849Y-16654460D01*
X12286849Y-16654460D02*
X12277325Y-16606841D01*
X12277325Y-16606841D02*
X12277325Y-16568746D01*
X12277325Y-16568746D02*
X12286849Y-16521127D01*
X12286849Y-16521127D02*
X12296372Y-16492555D01*
X12296372Y-16492555D02*
X12305896Y-16473508D01*
X12305896Y-16473508D02*
X12324944Y-16444936D01*
X12324944Y-16444936D02*
X12334468Y-16435412D01*
X12410658Y-16530650D02*
X12410658Y-16663984D01*
X12410658Y-16549698D02*
X12420182Y-16540174D01*
X12420182Y-16540174D02*
X12439230Y-16530650D01*
X12439230Y-16530650D02*
X12467801Y-16530650D01*
X12467801Y-16530650D02*
X12486849Y-16540174D01*
X12486849Y-16540174D02*
X12496372Y-16559222D01*
X12496372Y-16559222D02*
X12496372Y-16663984D01*
X12620182Y-16663984D02*
X12601134Y-16654460D01*
X12601134Y-16654460D02*
X12591611Y-16644936D01*
X12591611Y-16644936D02*
X12582087Y-16625888D01*
X12582087Y-16625888D02*
X12582087Y-16568746D01*
X12582087Y-16568746D02*
X12591611Y-16549698D01*
X12591611Y-16549698D02*
X12601134Y-16540174D01*
X12601134Y-16540174D02*
X12620182Y-16530650D01*
X12620182Y-16530650D02*
X12648753Y-16530650D01*
X12648753Y-16530650D02*
X12667801Y-16540174D01*
X12667801Y-16540174D02*
X12677325Y-16549698D01*
X12677325Y-16549698D02*
X12686849Y-16568746D01*
X12686849Y-16568746D02*
X12686849Y-16625888D01*
X12686849Y-16625888D02*
X12677325Y-16644936D01*
X12677325Y-16644936D02*
X12667801Y-16654460D01*
X12667801Y-16654460D02*
X12648753Y-16663984D01*
X12648753Y-16663984D02*
X12620182Y-16663984D01*
X12743992Y-16530650D02*
X12820182Y-16530650D01*
X12772563Y-16463984D02*
X12772563Y-16635412D01*
X12772563Y-16635412D02*
X12782087Y-16654460D01*
X12782087Y-16654460D02*
X12801134Y-16663984D01*
X12801134Y-16663984D02*
X12820182Y-16663984D01*
X13039230Y-16530650D02*
X13039230Y-16730650D01*
X13039230Y-16540174D02*
X13058277Y-16530650D01*
X13058277Y-16530650D02*
X13096373Y-16530650D01*
X13096373Y-16530650D02*
X13115420Y-16540174D01*
X13115420Y-16540174D02*
X13124944Y-16549698D01*
X13124944Y-16549698D02*
X13134468Y-16568746D01*
X13134468Y-16568746D02*
X13134468Y-16625888D01*
X13134468Y-16625888D02*
X13124944Y-16644936D01*
X13124944Y-16644936D02*
X13115420Y-16654460D01*
X13115420Y-16654460D02*
X13096373Y-16663984D01*
X13096373Y-16663984D02*
X13058277Y-16663984D01*
X13058277Y-16663984D02*
X13039230Y-16654460D01*
X13248753Y-16663984D02*
X13229706Y-16654460D01*
X13229706Y-16654460D02*
X13220182Y-16635412D01*
X13220182Y-16635412D02*
X13220182Y-16463984D01*
X13410658Y-16663984D02*
X13410658Y-16559222D01*
X13410658Y-16559222D02*
X13401134Y-16540174D01*
X13401134Y-16540174D02*
X13382087Y-16530650D01*
X13382087Y-16530650D02*
X13343992Y-16530650D01*
X13343992Y-16530650D02*
X13324944Y-16540174D01*
X13410658Y-16654460D02*
X13391611Y-16663984D01*
X13391611Y-16663984D02*
X13343992Y-16663984D01*
X13343992Y-16663984D02*
X13324944Y-16654460D01*
X13324944Y-16654460D02*
X13315420Y-16635412D01*
X13315420Y-16635412D02*
X13315420Y-16616365D01*
X13315420Y-16616365D02*
X13324944Y-16597317D01*
X13324944Y-16597317D02*
X13343992Y-16587793D01*
X13343992Y-16587793D02*
X13391611Y-16587793D01*
X13391611Y-16587793D02*
X13410658Y-16578269D01*
X13477325Y-16530650D02*
X13553515Y-16530650D01*
X13505896Y-16463984D02*
X13505896Y-16635412D01*
X13505896Y-16635412D02*
X13515420Y-16654460D01*
X13515420Y-16654460D02*
X13534468Y-16663984D01*
X13534468Y-16663984D02*
X13553515Y-16663984D01*
X13696373Y-16654460D02*
X13677325Y-16663984D01*
X13677325Y-16663984D02*
X13639230Y-16663984D01*
X13639230Y-16663984D02*
X13620182Y-16654460D01*
X13620182Y-16654460D02*
X13610658Y-16635412D01*
X13610658Y-16635412D02*
X13610658Y-16559222D01*
X13610658Y-16559222D02*
X13620182Y-16540174D01*
X13620182Y-16540174D02*
X13639230Y-16530650D01*
X13639230Y-16530650D02*
X13677325Y-16530650D01*
X13677325Y-16530650D02*
X13696373Y-16540174D01*
X13696373Y-16540174D02*
X13705896Y-16559222D01*
X13705896Y-16559222D02*
X13705896Y-16578269D01*
X13705896Y-16578269D02*
X13610658Y-16597317D01*
X13877325Y-16663984D02*
X13877325Y-16463984D01*
X13877325Y-16654460D02*
X13858277Y-16663984D01*
X13858277Y-16663984D02*
X13820182Y-16663984D01*
X13820182Y-16663984D02*
X13801134Y-16654460D01*
X13801134Y-16654460D02*
X13791611Y-16644936D01*
X13791611Y-16644936D02*
X13782087Y-16625888D01*
X13782087Y-16625888D02*
X13782087Y-16568746D01*
X13782087Y-16568746D02*
X13791611Y-16549698D01*
X13791611Y-16549698D02*
X13801134Y-16540174D01*
X13801134Y-16540174D02*
X13820182Y-16530650D01*
X13820182Y-16530650D02*
X13858277Y-16530650D01*
X13858277Y-16530650D02*
X13877325Y-16540174D01*
X13953515Y-16740174D02*
X13963039Y-16730650D01*
X13963039Y-16730650D02*
X13982087Y-16702079D01*
X13982087Y-16702079D02*
X13991611Y-16683031D01*
X13991611Y-16683031D02*
X14001134Y-16654460D01*
X14001134Y-16654460D02*
X14010658Y-16606841D01*
X14010658Y-16606841D02*
X14010658Y-16568746D01*
X14010658Y-16568746D02*
X14001134Y-16521127D01*
X14001134Y-16521127D02*
X13991611Y-16492555D01*
X13991611Y-16492555D02*
X13982087Y-16473508D01*
X13982087Y-16473508D02*
X13963039Y-16444936D01*
X13963039Y-16444936D02*
X13953515Y-16435412D01*
X7097500Y-16792500D02*
X7097500Y-16992500D01*
X6997500Y-16892500D02*
X7197500Y-16892500D01*
X7439229Y-16783984D02*
X7563039Y-16783984D01*
X7563039Y-16783984D02*
X7496372Y-16860174D01*
X7496372Y-16860174D02*
X7524943Y-16860174D01*
X7524943Y-16860174D02*
X7543991Y-16869698D01*
X7543991Y-16869698D02*
X7553515Y-16879222D01*
X7553515Y-16879222D02*
X7563039Y-16898270D01*
X7563039Y-16898270D02*
X7563039Y-16945889D01*
X7563039Y-16945889D02*
X7553515Y-16964936D01*
X7553515Y-16964936D02*
X7543991Y-16974460D01*
X7543991Y-16974460D02*
X7524943Y-16983984D01*
X7524943Y-16983984D02*
X7467801Y-16983984D01*
X7467801Y-16983984D02*
X7448753Y-16974460D01*
X7448753Y-16974460D02*
X7439229Y-16964936D01*
X7648753Y-16964936D02*
X7658277Y-16974460D01*
X7658277Y-16974460D02*
X7648753Y-16983984D01*
X7648753Y-16983984D02*
X7639229Y-16974460D01*
X7639229Y-16974460D02*
X7648753Y-16964936D01*
X7648753Y-16964936D02*
X7648753Y-16983984D01*
X7734467Y-16803031D02*
X7743991Y-16793508D01*
X7743991Y-16793508D02*
X7763039Y-16783984D01*
X7763039Y-16783984D02*
X7810658Y-16783984D01*
X7810658Y-16783984D02*
X7829705Y-16793508D01*
X7829705Y-16793508D02*
X7839229Y-16803031D01*
X7839229Y-16803031D02*
X7848753Y-16822079D01*
X7848753Y-16822079D02*
X7848753Y-16841127D01*
X7848753Y-16841127D02*
X7839229Y-16869698D01*
X7839229Y-16869698D02*
X7724943Y-16983984D01*
X7724943Y-16983984D02*
X7848753Y-16983984D01*
X7972562Y-16783984D02*
X7991610Y-16783984D01*
X7991610Y-16783984D02*
X8010658Y-16793508D01*
X8010658Y-16793508D02*
X8020182Y-16803031D01*
X8020182Y-16803031D02*
X8029705Y-16822079D01*
X8029705Y-16822079D02*
X8039229Y-16860174D01*
X8039229Y-16860174D02*
X8039229Y-16907793D01*
X8039229Y-16907793D02*
X8029705Y-16945889D01*
X8029705Y-16945889D02*
X8020182Y-16964936D01*
X8020182Y-16964936D02*
X8010658Y-16974460D01*
X8010658Y-16974460D02*
X7991610Y-16983984D01*
X7991610Y-16983984D02*
X7972562Y-16983984D01*
X7972562Y-16983984D02*
X7953515Y-16974460D01*
X7953515Y-16974460D02*
X7943991Y-16964936D01*
X7943991Y-16964936D02*
X7934467Y-16945889D01*
X7934467Y-16945889D02*
X7924943Y-16907793D01*
X7924943Y-16907793D02*
X7924943Y-16860174D01*
X7924943Y-16860174D02*
X7934467Y-16822079D01*
X7934467Y-16822079D02*
X7943991Y-16803031D01*
X7943991Y-16803031D02*
X7953515Y-16793508D01*
X7953515Y-16793508D02*
X7972562Y-16783984D01*
X8163039Y-16783984D02*
X8182086Y-16783984D01*
X8182086Y-16783984D02*
X8201134Y-16793508D01*
X8201134Y-16793508D02*
X8210658Y-16803031D01*
X8210658Y-16803031D02*
X8220182Y-16822079D01*
X8220182Y-16822079D02*
X8229705Y-16860174D01*
X8229705Y-16860174D02*
X8229705Y-16907793D01*
X8229705Y-16907793D02*
X8220182Y-16945889D01*
X8220182Y-16945889D02*
X8210658Y-16964936D01*
X8210658Y-16964936D02*
X8201134Y-16974460D01*
X8201134Y-16974460D02*
X8182086Y-16983984D01*
X8182086Y-16983984D02*
X8163039Y-16983984D01*
X8163039Y-16983984D02*
X8143991Y-16974460D01*
X8143991Y-16974460D02*
X8134467Y-16964936D01*
X8134467Y-16964936D02*
X8124943Y-16945889D01*
X8124943Y-16945889D02*
X8115420Y-16907793D01*
X8115420Y-16907793D02*
X8115420Y-16860174D01*
X8115420Y-16860174D02*
X8124943Y-16822079D01*
X8124943Y-16822079D02*
X8134467Y-16803031D01*
X8134467Y-16803031D02*
X8143991Y-16793508D01*
X8143991Y-16793508D02*
X8163039Y-16783984D01*
X8315420Y-16983984D02*
X8315420Y-16850650D01*
X8315420Y-16869698D02*
X8324943Y-16860174D01*
X8324943Y-16860174D02*
X8343991Y-16850650D01*
X8343991Y-16850650D02*
X8372563Y-16850650D01*
X8372563Y-16850650D02*
X8391610Y-16860174D01*
X8391610Y-16860174D02*
X8401134Y-16879222D01*
X8401134Y-16879222D02*
X8401134Y-16983984D01*
X8401134Y-16879222D02*
X8410658Y-16860174D01*
X8410658Y-16860174D02*
X8429705Y-16850650D01*
X8429705Y-16850650D02*
X8458277Y-16850650D01*
X8458277Y-16850650D02*
X8477325Y-16860174D01*
X8477325Y-16860174D02*
X8486848Y-16879222D01*
X8486848Y-16879222D02*
X8486848Y-16983984D01*
X8582086Y-16983984D02*
X8582086Y-16850650D01*
X8582086Y-16869698D02*
X8591610Y-16860174D01*
X8591610Y-16860174D02*
X8610658Y-16850650D01*
X8610658Y-16850650D02*
X8639229Y-16850650D01*
X8639229Y-16850650D02*
X8658277Y-16860174D01*
X8658277Y-16860174D02*
X8667801Y-16879222D01*
X8667801Y-16879222D02*
X8667801Y-16983984D01*
X8667801Y-16879222D02*
X8677325Y-16860174D01*
X8677325Y-16860174D02*
X8696372Y-16850650D01*
X8696372Y-16850650D02*
X8724944Y-16850650D01*
X8724944Y-16850650D02*
X8743991Y-16860174D01*
X8743991Y-16860174D02*
X8753515Y-16879222D01*
X8753515Y-16879222D02*
X8753515Y-16983984D01*
X9143991Y-16774460D02*
X8972563Y-17031603D01*
X9401134Y-16783984D02*
X9420182Y-16783984D01*
X9420182Y-16783984D02*
X9439229Y-16793508D01*
X9439229Y-16793508D02*
X9448753Y-16803031D01*
X9448753Y-16803031D02*
X9458277Y-16822079D01*
X9458277Y-16822079D02*
X9467801Y-16860174D01*
X9467801Y-16860174D02*
X9467801Y-16907793D01*
X9467801Y-16907793D02*
X9458277Y-16945889D01*
X9458277Y-16945889D02*
X9448753Y-16964936D01*
X9448753Y-16964936D02*
X9439229Y-16974460D01*
X9439229Y-16974460D02*
X9420182Y-16983984D01*
X9420182Y-16983984D02*
X9401134Y-16983984D01*
X9401134Y-16983984D02*
X9382087Y-16974460D01*
X9382087Y-16974460D02*
X9372563Y-16964936D01*
X9372563Y-16964936D02*
X9363039Y-16945889D01*
X9363039Y-16945889D02*
X9353515Y-16907793D01*
X9353515Y-16907793D02*
X9353515Y-16860174D01*
X9353515Y-16860174D02*
X9363039Y-16822079D01*
X9363039Y-16822079D02*
X9372563Y-16803031D01*
X9372563Y-16803031D02*
X9382087Y-16793508D01*
X9382087Y-16793508D02*
X9401134Y-16783984D01*
X9553515Y-16964936D02*
X9563039Y-16974460D01*
X9563039Y-16974460D02*
X9553515Y-16983984D01*
X9553515Y-16983984D02*
X9543991Y-16974460D01*
X9543991Y-16974460D02*
X9553515Y-16964936D01*
X9553515Y-16964936D02*
X9553515Y-16983984D01*
X9753515Y-16983984D02*
X9639229Y-16983984D01*
X9696372Y-16983984D02*
X9696372Y-16783984D01*
X9696372Y-16783984D02*
X9677325Y-16812555D01*
X9677325Y-16812555D02*
X9658277Y-16831603D01*
X9658277Y-16831603D02*
X9639229Y-16841127D01*
X9829706Y-16803031D02*
X9839229Y-16793508D01*
X9839229Y-16793508D02*
X9858277Y-16783984D01*
X9858277Y-16783984D02*
X9905896Y-16783984D01*
X9905896Y-16783984D02*
X9924944Y-16793508D01*
X9924944Y-16793508D02*
X9934468Y-16803031D01*
X9934468Y-16803031D02*
X9943991Y-16822079D01*
X9943991Y-16822079D02*
X9943991Y-16841127D01*
X9943991Y-16841127D02*
X9934468Y-16869698D01*
X9934468Y-16869698D02*
X9820182Y-16983984D01*
X9820182Y-16983984D02*
X9943991Y-16983984D01*
X10115420Y-16783984D02*
X10077325Y-16783984D01*
X10077325Y-16783984D02*
X10058277Y-16793508D01*
X10058277Y-16793508D02*
X10048753Y-16803031D01*
X10048753Y-16803031D02*
X10029706Y-16831603D01*
X10029706Y-16831603D02*
X10020182Y-16869698D01*
X10020182Y-16869698D02*
X10020182Y-16945889D01*
X10020182Y-16945889D02*
X10029706Y-16964936D01*
X10029706Y-16964936D02*
X10039229Y-16974460D01*
X10039229Y-16974460D02*
X10058277Y-16983984D01*
X10058277Y-16983984D02*
X10096372Y-16983984D01*
X10096372Y-16983984D02*
X10115420Y-16974460D01*
X10115420Y-16974460D02*
X10124944Y-16964936D01*
X10124944Y-16964936D02*
X10134468Y-16945889D01*
X10134468Y-16945889D02*
X10134468Y-16898270D01*
X10134468Y-16898270D02*
X10124944Y-16879222D01*
X10124944Y-16879222D02*
X10115420Y-16869698D01*
X10115420Y-16869698D02*
X10096372Y-16860174D01*
X10096372Y-16860174D02*
X10058277Y-16860174D01*
X10058277Y-16860174D02*
X10039229Y-16869698D01*
X10039229Y-16869698D02*
X10029706Y-16879222D01*
X10029706Y-16879222D02*
X10020182Y-16898270D01*
X10258277Y-16783984D02*
X10277325Y-16783984D01*
X10277325Y-16783984D02*
X10296372Y-16793508D01*
X10296372Y-16793508D02*
X10305896Y-16803031D01*
X10305896Y-16803031D02*
X10315420Y-16822079D01*
X10315420Y-16822079D02*
X10324944Y-16860174D01*
X10324944Y-16860174D02*
X10324944Y-16907793D01*
X10324944Y-16907793D02*
X10315420Y-16945889D01*
X10315420Y-16945889D02*
X10305896Y-16964936D01*
X10305896Y-16964936D02*
X10296372Y-16974460D01*
X10296372Y-16974460D02*
X10277325Y-16983984D01*
X10277325Y-16983984D02*
X10258277Y-16983984D01*
X10258277Y-16983984D02*
X10239229Y-16974460D01*
X10239229Y-16974460D02*
X10229706Y-16964936D01*
X10229706Y-16964936D02*
X10220182Y-16945889D01*
X10220182Y-16945889D02*
X10210658Y-16907793D01*
X10210658Y-16907793D02*
X10210658Y-16860174D01*
X10210658Y-16860174D02*
X10220182Y-16822079D01*
X10220182Y-16822079D02*
X10229706Y-16803031D01*
X10229706Y-16803031D02*
X10239229Y-16793508D01*
X10239229Y-16793508D02*
X10258277Y-16783984D01*
X10401134Y-16783984D02*
X10401134Y-16822079D01*
X10477325Y-16783984D02*
X10477325Y-16822079D01*
X10772563Y-17060174D02*
X10763039Y-17050650D01*
X10763039Y-17050650D02*
X10743991Y-17022079D01*
X10743991Y-17022079D02*
X10734468Y-17003031D01*
X10734468Y-17003031D02*
X10724944Y-16974460D01*
X10724944Y-16974460D02*
X10715420Y-16926841D01*
X10715420Y-16926841D02*
X10715420Y-16888746D01*
X10715420Y-16888746D02*
X10724944Y-16841127D01*
X10724944Y-16841127D02*
X10734468Y-16812555D01*
X10734468Y-16812555D02*
X10743991Y-16793508D01*
X10743991Y-16793508D02*
X10763039Y-16764936D01*
X10763039Y-16764936D02*
X10772563Y-16755412D01*
X10934468Y-16850650D02*
X10934468Y-16983984D01*
X10886849Y-16774460D02*
X10839230Y-16917317D01*
X10839230Y-16917317D02*
X10963039Y-16917317D01*
X11191610Y-16983984D02*
X11191610Y-16783984D01*
X11277325Y-16983984D02*
X11277325Y-16879222D01*
X11277325Y-16879222D02*
X11267801Y-16860174D01*
X11267801Y-16860174D02*
X11248753Y-16850650D01*
X11248753Y-16850650D02*
X11220182Y-16850650D01*
X11220182Y-16850650D02*
X11201134Y-16860174D01*
X11201134Y-16860174D02*
X11191610Y-16869698D01*
X11401134Y-16983984D02*
X11382087Y-16974460D01*
X11382087Y-16974460D02*
X11372563Y-16964936D01*
X11372563Y-16964936D02*
X11363039Y-16945889D01*
X11363039Y-16945889D02*
X11363039Y-16888746D01*
X11363039Y-16888746D02*
X11372563Y-16869698D01*
X11372563Y-16869698D02*
X11382087Y-16860174D01*
X11382087Y-16860174D02*
X11401134Y-16850650D01*
X11401134Y-16850650D02*
X11429706Y-16850650D01*
X11429706Y-16850650D02*
X11448753Y-16860174D01*
X11448753Y-16860174D02*
X11458277Y-16869698D01*
X11458277Y-16869698D02*
X11467801Y-16888746D01*
X11467801Y-16888746D02*
X11467801Y-16945889D01*
X11467801Y-16945889D02*
X11458277Y-16964936D01*
X11458277Y-16964936D02*
X11448753Y-16974460D01*
X11448753Y-16974460D02*
X11429706Y-16983984D01*
X11429706Y-16983984D02*
X11401134Y-16983984D01*
X11582087Y-16983984D02*
X11563039Y-16974460D01*
X11563039Y-16974460D02*
X11553515Y-16955412D01*
X11553515Y-16955412D02*
X11553515Y-16783984D01*
X11734468Y-16974460D02*
X11715420Y-16983984D01*
X11715420Y-16983984D02*
X11677325Y-16983984D01*
X11677325Y-16983984D02*
X11658277Y-16974460D01*
X11658277Y-16974460D02*
X11648753Y-16955412D01*
X11648753Y-16955412D02*
X11648753Y-16879222D01*
X11648753Y-16879222D02*
X11658277Y-16860174D01*
X11658277Y-16860174D02*
X11677325Y-16850650D01*
X11677325Y-16850650D02*
X11715420Y-16850650D01*
X11715420Y-16850650D02*
X11734468Y-16860174D01*
X11734468Y-16860174D02*
X11743991Y-16879222D01*
X11743991Y-16879222D02*
X11743991Y-16898270D01*
X11743991Y-16898270D02*
X11648753Y-16917317D01*
X11820182Y-16974460D02*
X11839230Y-16983984D01*
X11839230Y-16983984D02*
X11877325Y-16983984D01*
X11877325Y-16983984D02*
X11896372Y-16974460D01*
X11896372Y-16974460D02*
X11905896Y-16955412D01*
X11905896Y-16955412D02*
X11905896Y-16945889D01*
X11905896Y-16945889D02*
X11896372Y-16926841D01*
X11896372Y-16926841D02*
X11877325Y-16917317D01*
X11877325Y-16917317D02*
X11848753Y-16917317D01*
X11848753Y-16917317D02*
X11829706Y-16907793D01*
X11829706Y-16907793D02*
X11820182Y-16888746D01*
X11820182Y-16888746D02*
X11820182Y-16879222D01*
X11820182Y-16879222D02*
X11829706Y-16860174D01*
X11829706Y-16860174D02*
X11848753Y-16850650D01*
X11848753Y-16850650D02*
X11877325Y-16850650D01*
X11877325Y-16850650D02*
X11896372Y-16860174D01*
X11972563Y-17060174D02*
X11982087Y-17050650D01*
X11982087Y-17050650D02*
X12001134Y-17022079D01*
X12001134Y-17022079D02*
X12010658Y-17003031D01*
X12010658Y-17003031D02*
X12020182Y-16974460D01*
X12020182Y-16974460D02*
X12029706Y-16926841D01*
X12029706Y-16926841D02*
X12029706Y-16888746D01*
X12029706Y-16888746D02*
X12020182Y-16841127D01*
X12020182Y-16841127D02*
X12010658Y-16812555D01*
X12010658Y-16812555D02*
X12001134Y-16793508D01*
X12001134Y-16793508D02*
X11982087Y-16764936D01*
X11982087Y-16764936D02*
X11972563Y-16755412D01*
X12334468Y-17060174D02*
X12324944Y-17050650D01*
X12324944Y-17050650D02*
X12305896Y-17022079D01*
X12305896Y-17022079D02*
X12296372Y-17003031D01*
X12296372Y-17003031D02*
X12286849Y-16974460D01*
X12286849Y-16974460D02*
X12277325Y-16926841D01*
X12277325Y-16926841D02*
X12277325Y-16888746D01*
X12277325Y-16888746D02*
X12286849Y-16841127D01*
X12286849Y-16841127D02*
X12296372Y-16812555D01*
X12296372Y-16812555D02*
X12305896Y-16793508D01*
X12305896Y-16793508D02*
X12324944Y-16764936D01*
X12324944Y-16764936D02*
X12334468Y-16755412D01*
X12410658Y-16850650D02*
X12410658Y-16983984D01*
X12410658Y-16869698D02*
X12420182Y-16860174D01*
X12420182Y-16860174D02*
X12439230Y-16850650D01*
X12439230Y-16850650D02*
X12467801Y-16850650D01*
X12467801Y-16850650D02*
X12486849Y-16860174D01*
X12486849Y-16860174D02*
X12496372Y-16879222D01*
X12496372Y-16879222D02*
X12496372Y-16983984D01*
X12620182Y-16983984D02*
X12601134Y-16974460D01*
X12601134Y-16974460D02*
X12591611Y-16964936D01*
X12591611Y-16964936D02*
X12582087Y-16945889D01*
X12582087Y-16945889D02*
X12582087Y-16888746D01*
X12582087Y-16888746D02*
X12591611Y-16869698D01*
X12591611Y-16869698D02*
X12601134Y-16860174D01*
X12601134Y-16860174D02*
X12620182Y-16850650D01*
X12620182Y-16850650D02*
X12648753Y-16850650D01*
X12648753Y-16850650D02*
X12667801Y-16860174D01*
X12667801Y-16860174D02*
X12677325Y-16869698D01*
X12677325Y-16869698D02*
X12686849Y-16888746D01*
X12686849Y-16888746D02*
X12686849Y-16945889D01*
X12686849Y-16945889D02*
X12677325Y-16964936D01*
X12677325Y-16964936D02*
X12667801Y-16974460D01*
X12667801Y-16974460D02*
X12648753Y-16983984D01*
X12648753Y-16983984D02*
X12620182Y-16983984D01*
X12743992Y-16850650D02*
X12820182Y-16850650D01*
X12772563Y-16783984D02*
X12772563Y-16955412D01*
X12772563Y-16955412D02*
X12782087Y-16974460D01*
X12782087Y-16974460D02*
X12801134Y-16983984D01*
X12801134Y-16983984D02*
X12820182Y-16983984D01*
X13039230Y-16850650D02*
X13039230Y-17050650D01*
X13039230Y-16860174D02*
X13058277Y-16850650D01*
X13058277Y-16850650D02*
X13096373Y-16850650D01*
X13096373Y-16850650D02*
X13115420Y-16860174D01*
X13115420Y-16860174D02*
X13124944Y-16869698D01*
X13124944Y-16869698D02*
X13134468Y-16888746D01*
X13134468Y-16888746D02*
X13134468Y-16945889D01*
X13134468Y-16945889D02*
X13124944Y-16964936D01*
X13124944Y-16964936D02*
X13115420Y-16974460D01*
X13115420Y-16974460D02*
X13096373Y-16983984D01*
X13096373Y-16983984D02*
X13058277Y-16983984D01*
X13058277Y-16983984D02*
X13039230Y-16974460D01*
X13248753Y-16983984D02*
X13229706Y-16974460D01*
X13229706Y-16974460D02*
X13220182Y-16955412D01*
X13220182Y-16955412D02*
X13220182Y-16783984D01*
X13410658Y-16983984D02*
X13410658Y-16879222D01*
X13410658Y-16879222D02*
X13401134Y-16860174D01*
X13401134Y-16860174D02*
X13382087Y-16850650D01*
X13382087Y-16850650D02*
X13343992Y-16850650D01*
X13343992Y-16850650D02*
X13324944Y-16860174D01*
X13410658Y-16974460D02*
X13391611Y-16983984D01*
X13391611Y-16983984D02*
X13343992Y-16983984D01*
X13343992Y-16983984D02*
X13324944Y-16974460D01*
X13324944Y-16974460D02*
X13315420Y-16955412D01*
X13315420Y-16955412D02*
X13315420Y-16936365D01*
X13315420Y-16936365D02*
X13324944Y-16917317D01*
X13324944Y-16917317D02*
X13343992Y-16907793D01*
X13343992Y-16907793D02*
X13391611Y-16907793D01*
X13391611Y-16907793D02*
X13410658Y-16898270D01*
X13477325Y-16850650D02*
X13553515Y-16850650D01*
X13505896Y-16783984D02*
X13505896Y-16955412D01*
X13505896Y-16955412D02*
X13515420Y-16974460D01*
X13515420Y-16974460D02*
X13534468Y-16983984D01*
X13534468Y-16983984D02*
X13553515Y-16983984D01*
X13696373Y-16974460D02*
X13677325Y-16983984D01*
X13677325Y-16983984D02*
X13639230Y-16983984D01*
X13639230Y-16983984D02*
X13620182Y-16974460D01*
X13620182Y-16974460D02*
X13610658Y-16955412D01*
X13610658Y-16955412D02*
X13610658Y-16879222D01*
X13610658Y-16879222D02*
X13620182Y-16860174D01*
X13620182Y-16860174D02*
X13639230Y-16850650D01*
X13639230Y-16850650D02*
X13677325Y-16850650D01*
X13677325Y-16850650D02*
X13696373Y-16860174D01*
X13696373Y-16860174D02*
X13705896Y-16879222D01*
X13705896Y-16879222D02*
X13705896Y-16898270D01*
X13705896Y-16898270D02*
X13610658Y-16917317D01*
X13877325Y-16983984D02*
X13877325Y-16783984D01*
X13877325Y-16974460D02*
X13858277Y-16983984D01*
X13858277Y-16983984D02*
X13820182Y-16983984D01*
X13820182Y-16983984D02*
X13801134Y-16974460D01*
X13801134Y-16974460D02*
X13791611Y-16964936D01*
X13791611Y-16964936D02*
X13782087Y-16945889D01*
X13782087Y-16945889D02*
X13782087Y-16888746D01*
X13782087Y-16888746D02*
X13791611Y-16869698D01*
X13791611Y-16869698D02*
X13801134Y-16860174D01*
X13801134Y-16860174D02*
X13820182Y-16850650D01*
X13820182Y-16850650D02*
X13858277Y-16850650D01*
X13858277Y-16850650D02*
X13877325Y-16860174D01*
X13953515Y-17060174D02*
X13963039Y-17050650D01*
X13963039Y-17050650D02*
X13982087Y-17022079D01*
X13982087Y-17022079D02*
X13991611Y-17003031D01*
X13991611Y-17003031D02*
X14001134Y-16974460D01*
X14001134Y-16974460D02*
X14010658Y-16926841D01*
X14010658Y-16926841D02*
X14010658Y-16888746D01*
X14010658Y-16888746D02*
X14001134Y-16841127D01*
X14001134Y-16841127D02*
X13991611Y-16812555D01*
X13991611Y-16812555D02*
X13982087Y-16793508D01*
X13982087Y-16793508D02*
X13963039Y-16764936D01*
X13963039Y-16764936D02*
X13953515Y-16755412D01*
M02*
