%TF.GenerationSoftware,KiCad,Pcbnew,9.0.1*%
%TF.CreationDate,2025-10-01T12:05:25-04:00*%
%TF.ProjectId,SCREEN_VERSION_1.2,53435245-454e-45f5-9645-5253494f4e5f,rev?*%
%TF.SameCoordinates,Original*%
%TF.FileFunction,Drillmap*%
%TF.FilePolarity,Positive*%
%FSLAX45Y45*%
G04 Gerber Fmt 4.5, Leading zero omitted, Abs format (unit mm)*
G04 Created by KiCad (PCBNEW 9.0.1) date 2025-10-01 12:05:25*
%MOMM*%
%LPD*%
G01*
G04 APERTURE LIST*
%ADD10C,0.050000*%
%ADD11C,0.200000*%
%ADD12C,0.100000*%
%ADD13C,0.110000*%
%ADD14C,0.150000*%
%ADD15C,0.160000*%
G04 APERTURE END LIST*
D10*
X24061250Y-10580000D02*
X24068750Y-8755000D01*
X23700000Y-15650000D02*
X23717500Y-10580000D01*
X24061250Y-10580000D02*
X23717500Y-10580000D01*
X23725000Y-7125000D02*
X23975000Y-7125000D01*
X7200000Y-15650000D02*
X7200000Y-5000000D01*
X23725000Y-6050000D02*
X23725000Y-5000000D01*
X23700000Y-15650000D02*
X7200000Y-15650000D01*
X23725000Y-7125000D02*
X23725000Y-7600000D01*
X7200000Y-5000000D02*
X23725000Y-5000000D01*
X23725000Y-7600000D02*
X23725000Y-8755000D01*
X23975000Y-7125000D02*
X23975000Y-6050000D01*
X23975000Y-6050000D02*
X23725000Y-6050000D01*
X24068750Y-8755000D02*
X23725000Y-8755000D01*
D11*
D12*
X7385000Y-6910000D02*
X7415000Y-6940000D01*
X7415000Y-6910000D02*
X7385000Y-6940000D01*
X7510000Y-8385000D02*
X7540000Y-8415000D01*
X7540000Y-8385000D02*
X7510000Y-8415000D01*
X7710000Y-6660000D02*
X7740000Y-6690000D01*
X7740000Y-6660000D02*
X7710000Y-6690000D01*
X7960000Y-6560000D02*
X7990000Y-6590000D01*
X7990000Y-6560000D02*
X7960000Y-6590000D01*
X8135000Y-6285000D02*
X8165000Y-6315000D01*
X8165000Y-6285000D02*
X8135000Y-6315000D01*
X8160000Y-10785000D02*
X8190000Y-10815000D01*
X8190000Y-10785000D02*
X8160000Y-10815000D01*
X8385000Y-6360000D02*
X8415000Y-6390000D01*
X8415000Y-6360000D02*
X8385000Y-6390000D01*
X8410000Y-11635000D02*
X8440000Y-11665000D01*
X8440000Y-11635000D02*
X8410000Y-11665000D01*
X8435000Y-9610000D02*
X8465000Y-9640000D01*
X8465000Y-9610000D02*
X8435000Y-9640000D01*
X8585000Y-9410000D02*
X8615000Y-9440000D01*
X8615000Y-9410000D02*
X8585000Y-9440000D01*
X8635000Y-6185000D02*
X8665000Y-6215000D01*
X8665000Y-6185000D02*
X8635000Y-6215000D01*
X8760000Y-10160000D02*
X8790000Y-10190000D01*
X8790000Y-10160000D02*
X8760000Y-10190000D01*
X8760000Y-10410000D02*
X8790000Y-10440000D01*
X8790000Y-10410000D02*
X8760000Y-10440000D01*
X8835000Y-11635000D02*
X8865000Y-11665000D01*
X8865000Y-11635000D02*
X8835000Y-11665000D01*
X8860000Y-9360000D02*
X8890000Y-9390000D01*
X8890000Y-9360000D02*
X8860000Y-9390000D01*
X8885000Y-6360000D02*
X8915000Y-6390000D01*
X8915000Y-6360000D02*
X8885000Y-6390000D01*
X8910000Y-11460000D02*
X8940000Y-11490000D01*
X8940000Y-11460000D02*
X8910000Y-11490000D01*
X8985000Y-12680000D02*
X9015000Y-12710000D01*
X9015000Y-12680000D02*
X8985000Y-12710000D01*
X9035000Y-6210000D02*
X9065000Y-6240000D01*
X9065000Y-6210000D02*
X9035000Y-6240000D01*
X9060000Y-11885000D02*
X9090000Y-11915000D01*
X9090000Y-11885000D02*
X9060000Y-11915000D01*
X9060000Y-12905000D02*
X9090000Y-12935000D01*
X9090000Y-12905000D02*
X9060000Y-12935000D01*
X9110000Y-12680000D02*
X9140000Y-12710000D01*
X9140000Y-12680000D02*
X9110000Y-12710000D01*
X9185000Y-8185000D02*
X9215000Y-8215000D01*
X9215000Y-8185000D02*
X9185000Y-8215000D01*
X9185000Y-8460000D02*
X9215000Y-8490000D01*
X9215000Y-8460000D02*
X9185000Y-8490000D01*
X9185000Y-8735000D02*
X9215000Y-8765000D01*
X9215000Y-8735000D02*
X9185000Y-8765000D01*
X9185000Y-9010000D02*
X9215000Y-9040000D01*
X9215000Y-9010000D02*
X9185000Y-9040000D01*
X9210000Y-7710000D02*
X9240000Y-7740000D01*
X9240000Y-7710000D02*
X9210000Y-7740000D01*
X9210000Y-7960000D02*
X9240000Y-7990000D01*
X9240000Y-7960000D02*
X9210000Y-7990000D01*
X9335000Y-6160000D02*
X9365000Y-6190000D01*
X9365000Y-6160000D02*
X9335000Y-6190000D01*
X9435000Y-10535000D02*
X9465000Y-10565000D01*
X9465000Y-10535000D02*
X9435000Y-10565000D01*
X9635000Y-10685000D02*
X9665000Y-10715000D01*
X9665000Y-10685000D02*
X9635000Y-10715000D01*
X9785000Y-10260000D02*
X9815000Y-10290000D01*
X9815000Y-10260000D02*
X9785000Y-10290000D01*
X9810000Y-9685000D02*
X9840000Y-9715000D01*
X9840000Y-9685000D02*
X9810000Y-9715000D01*
X9860000Y-9260000D02*
X9890000Y-9290000D01*
X9890000Y-9260000D02*
X9860000Y-9290000D01*
X9885000Y-9435000D02*
X9915000Y-9465000D01*
X9915000Y-9435000D02*
X9885000Y-9465000D01*
X9985000Y-7560000D02*
X10015000Y-7590000D01*
X10015000Y-7560000D02*
X9985000Y-7590000D01*
X9985000Y-10135000D02*
X10015000Y-10165000D01*
X10015000Y-10135000D02*
X9985000Y-10165000D01*
X10060000Y-9085000D02*
X10090000Y-9115000D01*
X10090000Y-9085000D02*
X10060000Y-9115000D01*
X10085000Y-6785000D02*
X10115000Y-6815000D01*
X10115000Y-6785000D02*
X10085000Y-6815000D01*
X10085000Y-10310000D02*
X10115000Y-10340000D01*
X10115000Y-10310000D02*
X10085000Y-10340000D01*
X10185000Y-10785000D02*
X10215000Y-10815000D01*
X10215000Y-10785000D02*
X10185000Y-10815000D01*
X10260000Y-10160000D02*
X10290000Y-10190000D01*
X10290000Y-10160000D02*
X10260000Y-10190000D01*
X10335000Y-10785000D02*
X10365000Y-10815000D01*
X10365000Y-10785000D02*
X10335000Y-10815000D01*
X10335000Y-11110000D02*
X10365000Y-11140000D01*
X10365000Y-11110000D02*
X10335000Y-11140000D01*
X10360000Y-7160000D02*
X10390000Y-7190000D01*
X10390000Y-7160000D02*
X10360000Y-7190000D01*
X10410000Y-7710000D02*
X10440000Y-7740000D01*
X10440000Y-7710000D02*
X10410000Y-7740000D01*
X10560000Y-11510000D02*
X10590000Y-11540000D01*
X10590000Y-11510000D02*
X10560000Y-11540000D01*
X10585000Y-11235000D02*
X10615000Y-11265000D01*
X10615000Y-11235000D02*
X10585000Y-11265000D01*
X10654000Y-6533500D02*
X10684000Y-6563500D01*
X10684000Y-6533500D02*
X10654000Y-6563500D01*
X10660000Y-9760000D02*
X10690000Y-9790000D01*
X10690000Y-9760000D02*
X10660000Y-9790000D01*
X10685000Y-11935000D02*
X10715000Y-11965000D01*
X10715000Y-11935000D02*
X10685000Y-11965000D01*
X10735000Y-9910000D02*
X10765000Y-9940000D01*
X10765000Y-9910000D02*
X10735000Y-9940000D01*
X10785000Y-11710000D02*
X10815000Y-11740000D01*
X10815000Y-11710000D02*
X10785000Y-11740000D01*
X10810000Y-9235000D02*
X10840000Y-9265000D01*
X10840000Y-9235000D02*
X10810000Y-9265000D01*
X10835000Y-7035000D02*
X10865000Y-7065000D01*
X10865000Y-7035000D02*
X10835000Y-7065000D01*
X10835000Y-11260000D02*
X10865000Y-11290000D01*
X10865000Y-11260000D02*
X10835000Y-11290000D01*
X10860000Y-8135000D02*
X10890000Y-8165000D01*
X10890000Y-8135000D02*
X10860000Y-8165000D01*
X10860000Y-9385000D02*
X10890000Y-9415000D01*
X10890000Y-9385000D02*
X10860000Y-9415000D01*
X10910000Y-11710000D02*
X10940000Y-11740000D01*
X10940000Y-11710000D02*
X10910000Y-11740000D01*
X10960000Y-8060000D02*
X10990000Y-8090000D01*
X10990000Y-8060000D02*
X10960000Y-8090000D01*
X10960000Y-8760000D02*
X10990000Y-8790000D01*
X10990000Y-8760000D02*
X10960000Y-8790000D01*
X11060000Y-12035000D02*
X11090000Y-12065000D01*
X11090000Y-12035000D02*
X11060000Y-12065000D01*
X11085000Y-11385000D02*
X11115000Y-11415000D01*
X11115000Y-11385000D02*
X11085000Y-11415000D01*
X11090000Y-9835000D02*
X11120000Y-9865000D01*
X11120000Y-9835000D02*
X11090000Y-9865000D01*
X11160000Y-7710000D02*
X11190000Y-7740000D01*
X11190000Y-7710000D02*
X11160000Y-7740000D01*
X11160000Y-8510000D02*
X11190000Y-8540000D01*
X11190000Y-8510000D02*
X11160000Y-8540000D01*
X11185000Y-8885000D02*
X11215000Y-8915000D01*
X11215000Y-8885000D02*
X11185000Y-8915000D01*
X11230000Y-8385000D02*
X11260000Y-8415000D01*
X11260000Y-8385000D02*
X11230000Y-8415000D01*
X11247500Y-8122500D02*
X11277500Y-8152500D01*
X11277500Y-8122500D02*
X11247500Y-8152500D01*
X11285000Y-12110000D02*
X11315000Y-12140000D01*
X11315000Y-12110000D02*
X11285000Y-12140000D01*
X11335000Y-6860000D02*
X11365000Y-6890000D01*
X11365000Y-6860000D02*
X11335000Y-6890000D01*
X11335000Y-8285000D02*
X11365000Y-8315000D01*
X11365000Y-8285000D02*
X11335000Y-8315000D01*
X11385000Y-7510000D02*
X11415000Y-7540000D01*
X11415000Y-7510000D02*
X11385000Y-7540000D01*
X11410000Y-8460000D02*
X11440000Y-8490000D01*
X11440000Y-8460000D02*
X11410000Y-8490000D01*
X11460000Y-8910000D02*
X11490000Y-8940000D01*
X11490000Y-8910000D02*
X11460000Y-8940000D01*
X11485000Y-9385000D02*
X11515000Y-9415000D01*
X11515000Y-9385000D02*
X11485000Y-9415000D01*
X11535000Y-7160000D02*
X11565000Y-7190000D01*
X11565000Y-7160000D02*
X11535000Y-7190000D01*
X11535000Y-7860000D02*
X11565000Y-7890000D01*
X11565000Y-7860000D02*
X11535000Y-7890000D01*
X11560000Y-8910000D02*
X11590000Y-8940000D01*
X11590000Y-8910000D02*
X11560000Y-8940000D01*
X11560000Y-9260000D02*
X11590000Y-9290000D01*
X11590000Y-9260000D02*
X11560000Y-9290000D01*
X11610000Y-7710000D02*
X11640000Y-7740000D01*
X11640000Y-7710000D02*
X11610000Y-7740000D01*
X11610000Y-11110000D02*
X11640000Y-11140000D01*
X11640000Y-11110000D02*
X11610000Y-11140000D01*
X11610000Y-12210000D02*
X11640000Y-12240000D01*
X11640000Y-12210000D02*
X11610000Y-12240000D01*
X11660000Y-9560000D02*
X11690000Y-9590000D01*
X11690000Y-9560000D02*
X11660000Y-9590000D01*
X11860000Y-11535000D02*
X11890000Y-11565000D01*
X11890000Y-11535000D02*
X11860000Y-11565000D01*
X11935000Y-9060000D02*
X11965000Y-9090000D01*
X11965000Y-9060000D02*
X11935000Y-9090000D01*
X11960000Y-11135000D02*
X11990000Y-11165000D01*
X11990000Y-11135000D02*
X11960000Y-11165000D01*
X11985000Y-9860000D02*
X12015000Y-9890000D01*
X12015000Y-9860000D02*
X11985000Y-9890000D01*
X11985000Y-12485000D02*
X12015000Y-12515000D01*
X12015000Y-12485000D02*
X11985000Y-12515000D01*
X12010000Y-9410000D02*
X12040000Y-9440000D01*
X12040000Y-9410000D02*
X12010000Y-9440000D01*
X12035000Y-11360000D02*
X12065000Y-11390000D01*
X12065000Y-11360000D02*
X12035000Y-11390000D01*
X12085000Y-8985000D02*
X12115000Y-9015000D01*
X12115000Y-8985000D02*
X12085000Y-9015000D01*
X12110000Y-10585000D02*
X12140000Y-10615000D01*
X12140000Y-10585000D02*
X12110000Y-10615000D01*
X12185000Y-9510000D02*
X12215000Y-9540000D01*
X12215000Y-9510000D02*
X12185000Y-9540000D01*
X12210000Y-10785000D02*
X12240000Y-10815000D01*
X12240000Y-10785000D02*
X12210000Y-10815000D01*
X12235000Y-12285000D02*
X12265000Y-12315000D01*
X12265000Y-12285000D02*
X12235000Y-12315000D01*
X12260000Y-9985000D02*
X12290000Y-10015000D01*
X12290000Y-9985000D02*
X12260000Y-10015000D01*
X12310000Y-8910000D02*
X12340000Y-8940000D01*
X12340000Y-8910000D02*
X12310000Y-8940000D01*
X12335000Y-9410000D02*
X12365000Y-9440000D01*
X12365000Y-9410000D02*
X12335000Y-9440000D01*
X12335000Y-11685000D02*
X12365000Y-11715000D01*
X12365000Y-11685000D02*
X12335000Y-11715000D01*
X12335000Y-12585000D02*
X12365000Y-12615000D01*
X12365000Y-12585000D02*
X12335000Y-12615000D01*
X12460000Y-10160000D02*
X12490000Y-10190000D01*
X12490000Y-10160000D02*
X12460000Y-10190000D01*
X12510000Y-10310000D02*
X12540000Y-10340000D01*
X12540000Y-10310000D02*
X12510000Y-10340000D01*
X12585000Y-10460000D02*
X12615000Y-10490000D01*
X12615000Y-10460000D02*
X12585000Y-10490000D01*
X12585000Y-11760000D02*
X12615000Y-11790000D01*
X12615000Y-11760000D02*
X12585000Y-11790000D01*
X12885000Y-10610000D02*
X12915000Y-10640000D01*
X12915000Y-10610000D02*
X12885000Y-10640000D01*
X13085000Y-13110000D02*
X13115000Y-13140000D01*
X13115000Y-13110000D02*
X13085000Y-13140000D01*
X13160000Y-8635000D02*
X13190000Y-8665000D01*
X13190000Y-8635000D02*
X13160000Y-8665000D01*
X13285000Y-13355250D02*
X13315000Y-13385250D01*
X13315000Y-13355250D02*
X13285000Y-13385250D01*
X13285000Y-13930250D02*
X13315000Y-13960250D01*
X13315000Y-13930250D02*
X13285000Y-13960250D01*
X13410000Y-7510000D02*
X13440000Y-7540000D01*
X13440000Y-7510000D02*
X13410000Y-7540000D01*
X13485000Y-10885000D02*
X13515000Y-10915000D01*
X13515000Y-10885000D02*
X13485000Y-10915000D01*
X13560000Y-6835000D02*
X13590000Y-6865000D01*
X13590000Y-6835000D02*
X13560000Y-6865000D01*
X13560000Y-13155250D02*
X13590000Y-13185250D01*
X13590000Y-13155250D02*
X13560000Y-13185250D01*
X13610000Y-14010000D02*
X13640000Y-14040000D01*
X13640000Y-14010000D02*
X13610000Y-14040000D01*
X13635000Y-10860000D02*
X13665000Y-10890000D01*
X13665000Y-10860000D02*
X13635000Y-10890000D01*
X13635000Y-13330250D02*
X13665000Y-13360250D01*
X13665000Y-13330250D02*
X13635000Y-13360250D01*
X13685000Y-10935000D02*
X13715000Y-10965000D01*
X13715000Y-10935000D02*
X13685000Y-10965000D01*
X13810000Y-13155250D02*
X13840000Y-13185250D01*
X13840000Y-13155250D02*
X13810000Y-13185250D01*
X13820000Y-9890000D02*
X13850000Y-9920000D01*
X13850000Y-9890000D02*
X13820000Y-9920000D01*
X13895000Y-9965000D02*
X13925000Y-9995000D01*
X13925000Y-9965000D02*
X13895000Y-9995000D01*
X13985000Y-11010000D02*
X14015000Y-11040000D01*
X14015000Y-11010000D02*
X13985000Y-11040000D01*
X14045000Y-9815000D02*
X14075000Y-9845000D01*
X14075000Y-9815000D02*
X14045000Y-9845000D01*
X14060000Y-7110000D02*
X14090000Y-7140000D01*
X14090000Y-7110000D02*
X14060000Y-7140000D01*
X14135000Y-13105250D02*
X14165000Y-13135250D01*
X14165000Y-13105250D02*
X14135000Y-13135250D01*
X14135000Y-14635000D02*
X14165000Y-14665000D01*
X14165000Y-14635000D02*
X14135000Y-14665000D01*
X14185000Y-12485000D02*
X14215000Y-12515000D01*
X14215000Y-12485000D02*
X14185000Y-12515000D01*
X14210000Y-12210000D02*
X14240000Y-12240000D01*
X14240000Y-12210000D02*
X14210000Y-12240000D01*
X14260000Y-10360000D02*
X14290000Y-10390000D01*
X14290000Y-10360000D02*
X14260000Y-10390000D01*
X14285000Y-14285000D02*
X14315000Y-14315000D01*
X14315000Y-14285000D02*
X14285000Y-14315000D01*
X14335000Y-12110000D02*
X14365000Y-12140000D01*
X14365000Y-12110000D02*
X14335000Y-12140000D01*
X14335000Y-12285000D02*
X14365000Y-12315000D01*
X14365000Y-12285000D02*
X14335000Y-12315000D01*
X14435000Y-12035000D02*
X14465000Y-12065000D01*
X14465000Y-12035000D02*
X14435000Y-12065000D01*
X14585000Y-10260000D02*
X14615000Y-10290000D01*
X14615000Y-10260000D02*
X14585000Y-10290000D01*
X14610000Y-14135000D02*
X14640000Y-14165000D01*
X14640000Y-14135000D02*
X14610000Y-14165000D01*
X14635000Y-10135000D02*
X14665000Y-10165000D01*
X14665000Y-10135000D02*
X14635000Y-10165000D01*
X14685000Y-8735000D02*
X14715000Y-8765000D01*
X14715000Y-8735000D02*
X14685000Y-8765000D01*
X14762500Y-11458750D02*
X14792500Y-11488750D01*
X14792500Y-11458750D02*
X14762500Y-11488750D01*
X15035000Y-14010000D02*
X15065000Y-14040000D01*
X15065000Y-14010000D02*
X15035000Y-14040000D01*
X15083000Y-9210000D02*
X15113000Y-9240000D01*
X15113000Y-9210000D02*
X15083000Y-9240000D01*
X15085000Y-11461250D02*
X15115000Y-11491250D01*
X15115000Y-11461250D02*
X15085000Y-11491250D01*
X15110000Y-10435000D02*
X15140000Y-10465000D01*
X15140000Y-10435000D02*
X15110000Y-10465000D01*
X15110000Y-10535000D02*
X15140000Y-10565000D01*
X15140000Y-10535000D02*
X15110000Y-10565000D01*
X15110000Y-10760000D02*
X15140000Y-10790000D01*
X15140000Y-10760000D02*
X15110000Y-10790000D01*
X15160000Y-9685000D02*
X15190000Y-9715000D01*
X15190000Y-9685000D02*
X15160000Y-9715000D01*
X15160000Y-9785000D02*
X15190000Y-9815000D01*
X15190000Y-9785000D02*
X15160000Y-9815000D01*
X15160000Y-10685000D02*
X15190000Y-10715000D01*
X15190000Y-10685000D02*
X15160000Y-10715000D01*
X15185000Y-12980250D02*
X15215000Y-13010250D01*
X15215000Y-12980250D02*
X15185000Y-13010250D01*
X15208000Y-9135000D02*
X15238000Y-9165000D01*
X15238000Y-9135000D02*
X15208000Y-9165000D01*
X15237000Y-10008000D02*
X15267000Y-10038000D01*
X15267000Y-10008000D02*
X15237000Y-10038000D01*
X15260000Y-10110000D02*
X15290000Y-10140000D01*
X15290000Y-10110000D02*
X15260000Y-10140000D01*
X15260000Y-11935000D02*
X15290000Y-11965000D01*
X15290000Y-11935000D02*
X15260000Y-11965000D01*
X15262500Y-11433750D02*
X15292500Y-11463750D01*
X15292500Y-11433750D02*
X15262500Y-11463750D01*
X15310000Y-9860000D02*
X15340000Y-9890000D01*
X15340000Y-9860000D02*
X15310000Y-9890000D01*
X15360000Y-12485000D02*
X15390000Y-12515000D01*
X15390000Y-12485000D02*
X15360000Y-12515000D01*
X15421997Y-10946998D02*
X15451997Y-10976998D01*
X15451997Y-10946998D02*
X15421997Y-10976998D01*
X15435000Y-10285000D02*
X15465000Y-10315000D01*
X15465000Y-10285000D02*
X15435000Y-10315000D01*
X15485000Y-11860000D02*
X15515000Y-11890000D01*
X15515000Y-11860000D02*
X15485000Y-11890000D01*
X15685000Y-12935000D02*
X15715000Y-12965000D01*
X15715000Y-12935000D02*
X15685000Y-12965000D01*
X15710000Y-10960000D02*
X15740000Y-10990000D01*
X15740000Y-10960000D02*
X15710000Y-10990000D01*
X15710000Y-14335000D02*
X15740000Y-14365000D01*
X15740000Y-14335000D02*
X15710000Y-14365000D01*
X15735000Y-9985000D02*
X15765000Y-10015000D01*
X15765000Y-9985000D02*
X15735000Y-10015000D01*
X15735000Y-10360000D02*
X15765000Y-10390000D01*
X15765000Y-10360000D02*
X15735000Y-10390000D01*
X15735000Y-13960000D02*
X15765000Y-13990000D01*
X15765000Y-13960000D02*
X15735000Y-13990000D01*
X15760000Y-8995000D02*
X15790000Y-9025000D01*
X15790000Y-8995000D02*
X15760000Y-9025000D01*
X15785000Y-9210000D02*
X15815000Y-9240000D01*
X15815000Y-9210000D02*
X15785000Y-9240000D01*
X15785000Y-10535000D02*
X15815000Y-10565000D01*
X15815000Y-10535000D02*
X15785000Y-10565000D01*
X15810000Y-10285000D02*
X15840000Y-10315000D01*
X15840000Y-10285000D02*
X15810000Y-10315000D01*
X15810000Y-10785000D02*
X15840000Y-10815000D01*
X15840000Y-10785000D02*
X15810000Y-10815000D01*
X15810000Y-11010000D02*
X15840000Y-11040000D01*
X15840000Y-11010000D02*
X15810000Y-11040000D01*
X15835000Y-9640000D02*
X15865000Y-9670000D01*
X15865000Y-9640000D02*
X15835000Y-9670000D01*
X15835000Y-10010000D02*
X15865000Y-10040000D01*
X15865000Y-10010000D02*
X15835000Y-10040000D01*
X15835000Y-10135000D02*
X15865000Y-10165000D01*
X15865000Y-10135000D02*
X15835000Y-10165000D01*
X15835000Y-10660000D02*
X15865000Y-10690000D01*
X15865000Y-10660000D02*
X15835000Y-10690000D01*
X15835000Y-11560000D02*
X15865000Y-11590000D01*
X15865000Y-11560000D02*
X15835000Y-11590000D01*
X15835000Y-11685000D02*
X15865000Y-11715000D01*
X15865000Y-11685000D02*
X15835000Y-11715000D01*
X15860000Y-11835000D02*
X15890000Y-11865000D01*
X15890000Y-11835000D02*
X15860000Y-11865000D01*
X15860000Y-12235000D02*
X15890000Y-12265000D01*
X15890000Y-12235000D02*
X15860000Y-12265000D01*
X15860000Y-12485000D02*
X15890000Y-12515000D01*
X15890000Y-12485000D02*
X15860000Y-12515000D01*
X15910000Y-11935000D02*
X15940000Y-11965000D01*
X15940000Y-11935000D02*
X15910000Y-11965000D01*
X15935000Y-9690000D02*
X15965000Y-9720000D01*
X15965000Y-9690000D02*
X15935000Y-9720000D01*
X15935000Y-11735000D02*
X15965000Y-11765000D01*
X15965000Y-11735000D02*
X15935000Y-11765000D01*
X15985000Y-12110000D02*
X16015000Y-12140000D01*
X16015000Y-12110000D02*
X15985000Y-12140000D01*
X15985000Y-12235000D02*
X16015000Y-12265000D01*
X16015000Y-12235000D02*
X15985000Y-12265000D01*
X15985000Y-12510000D02*
X16015000Y-12540000D01*
X16015000Y-12510000D02*
X15985000Y-12540000D01*
X16010000Y-6010000D02*
X16040000Y-6040000D01*
X16040000Y-6010000D02*
X16010000Y-6040000D01*
X16010000Y-8260000D02*
X16040000Y-8290000D01*
X16040000Y-8260000D02*
X16010000Y-8290000D01*
X16022500Y-9740000D02*
X16052500Y-9770000D01*
X16052500Y-9740000D02*
X16022500Y-9770000D01*
X16035000Y-8385000D02*
X16065000Y-8415000D01*
X16065000Y-8385000D02*
X16035000Y-8415000D01*
X16035000Y-8535000D02*
X16065000Y-8565000D01*
X16065000Y-8535000D02*
X16035000Y-8565000D01*
X16035000Y-8935000D02*
X16065000Y-8965000D01*
X16065000Y-8935000D02*
X16035000Y-8965000D01*
X16060000Y-14510000D02*
X16090000Y-14540000D01*
X16090000Y-14510000D02*
X16060000Y-14540000D01*
X16065000Y-12585000D02*
X16095000Y-12615000D01*
X16095000Y-12585000D02*
X16065000Y-12615000D01*
X16085000Y-13035000D02*
X16115000Y-13065000D01*
X16115000Y-13035000D02*
X16085000Y-13065000D01*
X16110000Y-12735000D02*
X16140000Y-12765000D01*
X16140000Y-12735000D02*
X16110000Y-12765000D01*
X16135000Y-6710000D02*
X16165000Y-6740000D01*
X16165000Y-6710000D02*
X16135000Y-6740000D01*
X16135000Y-8935000D02*
X16165000Y-8965000D01*
X16165000Y-8935000D02*
X16135000Y-8965000D01*
X16147500Y-9872500D02*
X16177500Y-9902500D01*
X16177500Y-9872500D02*
X16147500Y-9902500D01*
X16185000Y-13860000D02*
X16215000Y-13890000D01*
X16215000Y-13860000D02*
X16185000Y-13890000D01*
X16210502Y-10034498D02*
X16240502Y-10064498D01*
X16240502Y-10034498D02*
X16210502Y-10064498D01*
X16260000Y-8085000D02*
X16290000Y-8115000D01*
X16290000Y-8085000D02*
X16260000Y-8115000D01*
X16260000Y-14110000D02*
X16290000Y-14140000D01*
X16290000Y-14110000D02*
X16260000Y-14140000D01*
X16285000Y-10210000D02*
X16315000Y-10240000D01*
X16315000Y-10210000D02*
X16285000Y-10240000D01*
X16335000Y-13985000D02*
X16365000Y-14015000D01*
X16365000Y-13985000D02*
X16335000Y-14015000D01*
X16360000Y-7485000D02*
X16390000Y-7515000D01*
X16390000Y-7485000D02*
X16360000Y-7515000D01*
X16360000Y-8185000D02*
X16390000Y-8215000D01*
X16390000Y-8185000D02*
X16360000Y-8215000D01*
X16360000Y-10785000D02*
X16390000Y-10815000D01*
X16390000Y-10785000D02*
X16360000Y-10815000D01*
X16360000Y-10960000D02*
X16390000Y-10990000D01*
X16390000Y-10960000D02*
X16360000Y-10990000D01*
X16360000Y-11685000D02*
X16390000Y-11715000D01*
X16390000Y-11685000D02*
X16360000Y-11715000D01*
X16410000Y-9285000D02*
X16440000Y-9315000D01*
X16440000Y-9285000D02*
X16410000Y-9315000D01*
X16410000Y-14085000D02*
X16440000Y-14115000D01*
X16440000Y-14085000D02*
X16410000Y-14115000D01*
X16434988Y-9460315D02*
X16464988Y-9490315D01*
X16464988Y-9460315D02*
X16434988Y-9490315D01*
X16435000Y-9160000D02*
X16465000Y-9190000D01*
X16465000Y-9160000D02*
X16435000Y-9190000D01*
X16438461Y-9370382D02*
X16468461Y-9400382D01*
X16468461Y-9370382D02*
X16438461Y-9400382D01*
X16460000Y-7560000D02*
X16490000Y-7590000D01*
X16490000Y-7560000D02*
X16460000Y-7590000D01*
X16460000Y-8135000D02*
X16490000Y-8165000D01*
X16490000Y-8135000D02*
X16460000Y-8165000D01*
X16460000Y-10460000D02*
X16490000Y-10490000D01*
X16490000Y-10460000D02*
X16460000Y-10490000D01*
X16485000Y-14010000D02*
X16515000Y-14040000D01*
X16515000Y-14010000D02*
X16485000Y-14040000D01*
X16509363Y-10759363D02*
X16539363Y-10789363D01*
X16539363Y-10759363D02*
X16509363Y-10789363D01*
X16510000Y-11635000D02*
X16540000Y-11665000D01*
X16540000Y-11635000D02*
X16510000Y-11665000D01*
X16560000Y-8285000D02*
X16590000Y-8315000D01*
X16590000Y-8285000D02*
X16560000Y-8315000D01*
X16560000Y-8960000D02*
X16590000Y-8990000D01*
X16590000Y-8960000D02*
X16560000Y-8990000D01*
X16560000Y-10660000D02*
X16590000Y-10690000D01*
X16590000Y-10660000D02*
X16560000Y-10690000D01*
X16560000Y-11035000D02*
X16590000Y-11065000D01*
X16590000Y-11035000D02*
X16560000Y-11065000D01*
X16560000Y-12010000D02*
X16590000Y-12040000D01*
X16590000Y-12010000D02*
X16560000Y-12040000D01*
X16573002Y-10823003D02*
X16603002Y-10853003D01*
X16603002Y-10823003D02*
X16573002Y-10853003D01*
X16585000Y-13985000D02*
X16615000Y-14015000D01*
X16615000Y-13985000D02*
X16585000Y-14015000D01*
X16610000Y-12210000D02*
X16640000Y-12240000D01*
X16640000Y-12210000D02*
X16610000Y-12240000D01*
X16615000Y-13560000D02*
X16645000Y-13590000D01*
X16645000Y-13560000D02*
X16615000Y-13590000D01*
X16660000Y-11635000D02*
X16690000Y-11665000D01*
X16690000Y-11635000D02*
X16660000Y-11665000D01*
X16685000Y-11885000D02*
X16715000Y-11915000D01*
X16715000Y-11885000D02*
X16685000Y-11915000D01*
X16685000Y-14035000D02*
X16715000Y-14065000D01*
X16715000Y-14035000D02*
X16685000Y-14065000D01*
X16710000Y-8285000D02*
X16740000Y-8315000D01*
X16740000Y-8285000D02*
X16710000Y-8315000D01*
X16710000Y-10960000D02*
X16740000Y-10990000D01*
X16740000Y-10960000D02*
X16710000Y-10990000D01*
X16750000Y-12585000D02*
X16780000Y-12615000D01*
X16780000Y-12585000D02*
X16750000Y-12615000D01*
X16785000Y-13735000D02*
X16815000Y-13765000D01*
X16815000Y-13735000D02*
X16785000Y-13765000D01*
X16810000Y-10560000D02*
X16840000Y-10590000D01*
X16840000Y-10560000D02*
X16810000Y-10590000D01*
X16810000Y-11010000D02*
X16840000Y-11040000D01*
X16840000Y-11010000D02*
X16810000Y-11040000D01*
X16860000Y-9535000D02*
X16890000Y-9565000D01*
X16890000Y-9535000D02*
X16860000Y-9565000D01*
X16860000Y-11960000D02*
X16890000Y-11990000D01*
X16890000Y-11960000D02*
X16860000Y-11990000D01*
X16885000Y-10635000D02*
X16915000Y-10665000D01*
X16915000Y-10635000D02*
X16885000Y-10665000D01*
X16910000Y-10160000D02*
X16940000Y-10190000D01*
X16940000Y-10160000D02*
X16910000Y-10190000D01*
X16910000Y-14785000D02*
X16940000Y-14815000D01*
X16940000Y-14785000D02*
X16910000Y-14815000D01*
X16935000Y-11085000D02*
X16965000Y-11115000D01*
X16965000Y-11085000D02*
X16935000Y-11115000D01*
X16935000Y-12310000D02*
X16965000Y-12340000D01*
X16965000Y-12310000D02*
X16935000Y-12340000D01*
X16985000Y-8910000D02*
X17015000Y-8940000D01*
X17015000Y-8910000D02*
X16985000Y-8940000D01*
X16985000Y-13060000D02*
X17015000Y-13090000D01*
X17015000Y-13060000D02*
X16985000Y-13090000D01*
X17010000Y-11635000D02*
X17040000Y-11665000D01*
X17040000Y-11635000D02*
X17010000Y-11665000D01*
X17035000Y-5960000D02*
X17065000Y-5990000D01*
X17065000Y-5960000D02*
X17035000Y-5990000D01*
X17035000Y-11110000D02*
X17065000Y-11140000D01*
X17065000Y-11110000D02*
X17035000Y-11140000D01*
X17085000Y-10560000D02*
X17115000Y-10590000D01*
X17115000Y-10560000D02*
X17085000Y-10590000D01*
X17110000Y-9160000D02*
X17140000Y-9190000D01*
X17140000Y-9160000D02*
X17110000Y-9190000D01*
X17110000Y-9360000D02*
X17140000Y-9390000D01*
X17140000Y-9360000D02*
X17110000Y-9390000D01*
X17110000Y-14610000D02*
X17140000Y-14640000D01*
X17140000Y-14610000D02*
X17110000Y-14640000D01*
X17135000Y-8910000D02*
X17165000Y-8940000D01*
X17165000Y-8910000D02*
X17135000Y-8940000D01*
X17135000Y-12785000D02*
X17165000Y-12815000D01*
X17165000Y-12785000D02*
X17135000Y-12815000D01*
X17135000Y-13360000D02*
X17165000Y-13390000D01*
X17165000Y-13360000D02*
X17135000Y-13390000D01*
X17146495Y-10648505D02*
X17176495Y-10678505D01*
X17176495Y-10648505D02*
X17146495Y-10678505D01*
X17160000Y-8285000D02*
X17190000Y-8315000D01*
X17190000Y-8285000D02*
X17160000Y-8315000D01*
X17160000Y-11635000D02*
X17190000Y-11665000D01*
X17190000Y-11635000D02*
X17160000Y-11665000D01*
X17185000Y-13560000D02*
X17215000Y-13590000D01*
X17215000Y-13560000D02*
X17185000Y-13590000D01*
X17185000Y-15035000D02*
X17215000Y-15065000D01*
X17215000Y-15035000D02*
X17185000Y-15065000D01*
X17210000Y-11060000D02*
X17240000Y-11090000D01*
X17240000Y-11060000D02*
X17210000Y-11090000D01*
X17235000Y-12035000D02*
X17265000Y-12065000D01*
X17265000Y-12035000D02*
X17235000Y-12065000D01*
X17235000Y-12260000D02*
X17265000Y-12290000D01*
X17265000Y-12260000D02*
X17235000Y-12290000D01*
X17235000Y-13410000D02*
X17265000Y-13440000D01*
X17265000Y-13410000D02*
X17235000Y-13440000D01*
X17235000Y-13835000D02*
X17265000Y-13865000D01*
X17265000Y-13835000D02*
X17235000Y-13865000D01*
X17260000Y-8985000D02*
X17290000Y-9015000D01*
X17290000Y-8985000D02*
X17260000Y-9015000D01*
X17260000Y-10960000D02*
X17290000Y-10990000D01*
X17290000Y-10960000D02*
X17260000Y-10990000D01*
X17272500Y-13972500D02*
X17302500Y-14002500D01*
X17302500Y-13972500D02*
X17272500Y-14002500D01*
X17285000Y-8285000D02*
X17315000Y-8315000D01*
X17315000Y-8285000D02*
X17285000Y-8315000D01*
X17330000Y-9597500D02*
X17360000Y-9627500D01*
X17360000Y-9597500D02*
X17330000Y-9627500D01*
X17335000Y-11685000D02*
X17365000Y-11715000D01*
X17365000Y-11685000D02*
X17335000Y-11715000D01*
X17410000Y-9010000D02*
X17440000Y-9040000D01*
X17440000Y-9010000D02*
X17410000Y-9040000D01*
X17410000Y-11935000D02*
X17440000Y-11965000D01*
X17440000Y-11935000D02*
X17410000Y-11965000D01*
X17460000Y-11410000D02*
X17490000Y-11440000D01*
X17490000Y-11410000D02*
X17460000Y-11440000D01*
X17460000Y-13960000D02*
X17490000Y-13990000D01*
X17490000Y-13960000D02*
X17460000Y-13990000D01*
X17485000Y-9085000D02*
X17515000Y-9115000D01*
X17515000Y-9085000D02*
X17485000Y-9115000D01*
X17485000Y-12035000D02*
X17515000Y-12065000D01*
X17515000Y-12035000D02*
X17485000Y-12065000D01*
X17510000Y-13385000D02*
X17540000Y-13415000D01*
X17540000Y-13385000D02*
X17510000Y-13415000D01*
X17510000Y-14710000D02*
X17540000Y-14740000D01*
X17540000Y-14710000D02*
X17510000Y-14740000D01*
X17535000Y-11710000D02*
X17565000Y-11740000D01*
X17565000Y-11710000D02*
X17535000Y-11740000D01*
X17535000Y-12210000D02*
X17565000Y-12240000D01*
X17565000Y-12210000D02*
X17535000Y-12240000D01*
X17535000Y-12785000D02*
X17565000Y-12815000D01*
X17565000Y-12785000D02*
X17535000Y-12815000D01*
X17540000Y-14505000D02*
X17570000Y-14535000D01*
X17570000Y-14505000D02*
X17540000Y-14535000D01*
X17560000Y-9010000D02*
X17590000Y-9040000D01*
X17590000Y-9010000D02*
X17560000Y-9040000D01*
X17610000Y-9360000D02*
X17640000Y-9390000D01*
X17640000Y-9360000D02*
X17610000Y-9390000D01*
X17610000Y-14060000D02*
X17640000Y-14090000D01*
X17640000Y-14060000D02*
X17610000Y-14090000D01*
X17635000Y-11435000D02*
X17665000Y-11465000D01*
X17665000Y-11435000D02*
X17635000Y-11465000D01*
X17660000Y-9560000D02*
X17690000Y-9590000D01*
X17690000Y-9560000D02*
X17660000Y-9590000D01*
X17685000Y-11060000D02*
X17715000Y-11090000D01*
X17715000Y-11060000D02*
X17685000Y-11090000D01*
X17709750Y-8360250D02*
X17739750Y-8390250D01*
X17739750Y-8360250D02*
X17709750Y-8390250D01*
X17710000Y-5910000D02*
X17740000Y-5940000D01*
X17740000Y-5910000D02*
X17710000Y-5940000D01*
X17710000Y-9160000D02*
X17740000Y-9190000D01*
X17740000Y-9160000D02*
X17710000Y-9190000D01*
X17710000Y-14060000D02*
X17740000Y-14090000D01*
X17740000Y-14060000D02*
X17710000Y-14090000D01*
X17735000Y-9010000D02*
X17765000Y-9040000D01*
X17765000Y-9010000D02*
X17735000Y-9040000D01*
X17760000Y-10635000D02*
X17790000Y-10665000D01*
X17790000Y-10635000D02*
X17760000Y-10665000D01*
X17785000Y-12235000D02*
X17815000Y-12265000D01*
X17815000Y-12235000D02*
X17785000Y-12265000D01*
X17785000Y-13460000D02*
X17815000Y-13490000D01*
X17815000Y-13460000D02*
X17785000Y-13490000D01*
X17810000Y-12410000D02*
X17840000Y-12440000D01*
X17840000Y-12410000D02*
X17810000Y-12440000D01*
X17860000Y-10710000D02*
X17890000Y-10740000D01*
X17890000Y-10710000D02*
X17860000Y-10740000D01*
X17885000Y-12960000D02*
X17915000Y-12990000D01*
X17915000Y-12960000D02*
X17885000Y-12990000D01*
X17885000Y-13410000D02*
X17915000Y-13440000D01*
X17915000Y-13410000D02*
X17885000Y-13440000D01*
X17910000Y-9235000D02*
X17940000Y-9265000D01*
X17940000Y-9235000D02*
X17910000Y-9265000D01*
X17984750Y-8385250D02*
X18014750Y-8415250D01*
X18014750Y-8385250D02*
X17984750Y-8415250D01*
X17985000Y-12510000D02*
X18015000Y-12540000D01*
X18015000Y-12510000D02*
X17985000Y-12540000D01*
X18035000Y-12710000D02*
X18065000Y-12740000D01*
X18065000Y-12710000D02*
X18035000Y-12740000D01*
X18035000Y-13410000D02*
X18065000Y-13440000D01*
X18065000Y-13410000D02*
X18035000Y-13440000D01*
X18085000Y-14560000D02*
X18115000Y-14590000D01*
X18115000Y-14560000D02*
X18085000Y-14590000D01*
X18160000Y-12935000D02*
X18190000Y-12965000D01*
X18190000Y-12935000D02*
X18160000Y-12965000D01*
X18285000Y-12860000D02*
X18315000Y-12890000D01*
X18315000Y-12860000D02*
X18285000Y-12890000D01*
X18285000Y-13110000D02*
X18315000Y-13140000D01*
X18315000Y-13110000D02*
X18285000Y-13140000D01*
X18310000Y-11585000D02*
X18340000Y-11615000D01*
X18340000Y-11585000D02*
X18310000Y-11615000D01*
X18310000Y-11810000D02*
X18340000Y-11840000D01*
X18340000Y-11810000D02*
X18310000Y-11840000D01*
X18310000Y-12235000D02*
X18340000Y-12265000D01*
X18340000Y-12235000D02*
X18310000Y-12265000D01*
X18335000Y-10135000D02*
X18365000Y-10165000D01*
X18365000Y-10135000D02*
X18335000Y-10165000D01*
X18485000Y-8835000D02*
X18515000Y-8865000D01*
X18515000Y-8835000D02*
X18485000Y-8865000D01*
X18485000Y-8960000D02*
X18515000Y-8990000D01*
X18515000Y-8960000D02*
X18485000Y-8990000D01*
X18485000Y-9585000D02*
X18515000Y-9615000D01*
X18515000Y-9585000D02*
X18485000Y-9615000D01*
X18510000Y-9685000D02*
X18540000Y-9715000D01*
X18540000Y-9685000D02*
X18510000Y-9715000D01*
X18535000Y-10710000D02*
X18565000Y-10740000D01*
X18565000Y-10710000D02*
X18535000Y-10740000D01*
X18535000Y-10800000D02*
X18565000Y-10830000D01*
X18565000Y-10800000D02*
X18535000Y-10830000D01*
X18610000Y-7185000D02*
X18640000Y-7215000D01*
X18640000Y-7185000D02*
X18610000Y-7215000D01*
X18610000Y-7460000D02*
X18640000Y-7490000D01*
X18640000Y-7460000D02*
X18610000Y-7490000D01*
X18615000Y-13210000D02*
X18645000Y-13240000D01*
X18645000Y-13210000D02*
X18615000Y-13240000D01*
X18635000Y-7735000D02*
X18665000Y-7765000D01*
X18665000Y-7735000D02*
X18635000Y-7765000D01*
X18635000Y-8010000D02*
X18665000Y-8040000D01*
X18665000Y-8010000D02*
X18635000Y-8040000D01*
X18685000Y-9660000D02*
X18715000Y-9690000D01*
X18715000Y-9660000D02*
X18685000Y-9690000D01*
X18758000Y-10508000D02*
X18788000Y-10538000D01*
X18788000Y-10508000D02*
X18758000Y-10538000D01*
X18760000Y-9335000D02*
X18790000Y-9365000D01*
X18790000Y-9335000D02*
X18760000Y-9365000D01*
X18760000Y-10385000D02*
X18790000Y-10415000D01*
X18790000Y-10385000D02*
X18760000Y-10415000D01*
X18785000Y-6260000D02*
X18815000Y-6290000D01*
X18815000Y-6260000D02*
X18785000Y-6290000D01*
X18785000Y-7610000D02*
X18815000Y-7640000D01*
X18815000Y-7610000D02*
X18785000Y-7640000D01*
X18785000Y-7885000D02*
X18815000Y-7915000D01*
X18815000Y-7885000D02*
X18785000Y-7915000D01*
X18810000Y-9535000D02*
X18840000Y-9565000D01*
X18840000Y-9535000D02*
X18810000Y-9565000D01*
X18835000Y-12860000D02*
X18865000Y-12890000D01*
X18865000Y-12860000D02*
X18835000Y-12890000D01*
X18860000Y-13435000D02*
X18890000Y-13465000D01*
X18890000Y-13435000D02*
X18860000Y-13465000D01*
X18885000Y-7185000D02*
X18915000Y-7215000D01*
X18915000Y-7185000D02*
X18885000Y-7215000D01*
X18910000Y-7460000D02*
X18940000Y-7490000D01*
X18940000Y-7460000D02*
X18910000Y-7490000D01*
X18960000Y-7735000D02*
X18990000Y-7765000D01*
X18990000Y-7735000D02*
X18960000Y-7765000D01*
X18985000Y-7935000D02*
X19015000Y-7965000D01*
X19015000Y-7935000D02*
X18985000Y-7965000D01*
X19085000Y-8485000D02*
X19115000Y-8515000D01*
X19115000Y-8485000D02*
X19085000Y-8515000D01*
X19135000Y-7185000D02*
X19165000Y-7215000D01*
X19165000Y-7185000D02*
X19135000Y-7215000D01*
X19135000Y-7635000D02*
X19165000Y-7665000D01*
X19165000Y-7635000D02*
X19135000Y-7665000D01*
X19135000Y-9535000D02*
X19165000Y-9565000D01*
X19165000Y-9535000D02*
X19135000Y-9565000D01*
X19160000Y-9860000D02*
X19190000Y-9890000D01*
X19190000Y-9860000D02*
X19160000Y-9890000D01*
X19185000Y-7460000D02*
X19215000Y-7490000D01*
X19215000Y-7460000D02*
X19185000Y-7490000D01*
X19275000Y-12587500D02*
X19305000Y-12617500D01*
X19305000Y-12587500D02*
X19275000Y-12617500D01*
X19285000Y-9685000D02*
X19315000Y-9715000D01*
X19315000Y-9685000D02*
X19285000Y-9715000D01*
X19292500Y-8635000D02*
X19322500Y-8665000D01*
X19322500Y-8635000D02*
X19292500Y-8665000D01*
X19310000Y-7885000D02*
X19340000Y-7915000D01*
X19340000Y-7885000D02*
X19310000Y-7915000D01*
X19332500Y-12982500D02*
X19362500Y-13012500D01*
X19362500Y-12982500D02*
X19332500Y-13012500D01*
X19335000Y-7335000D02*
X19365000Y-7365000D01*
X19365000Y-7335000D02*
X19335000Y-7365000D01*
X19335000Y-7735000D02*
X19365000Y-7765000D01*
X19365000Y-7735000D02*
X19335000Y-7765000D01*
X19337500Y-13402500D02*
X19367500Y-13432500D01*
X19367500Y-13402500D02*
X19337500Y-13432500D01*
X19340000Y-13827500D02*
X19370000Y-13857500D01*
X19370000Y-13827500D02*
X19340000Y-13857500D01*
X19460000Y-7185000D02*
X19490000Y-7215000D01*
X19490000Y-7185000D02*
X19460000Y-7215000D01*
X19535000Y-7485000D02*
X19565000Y-7515000D01*
X19565000Y-7485000D02*
X19535000Y-7515000D01*
X19585000Y-7735000D02*
X19615000Y-7765000D01*
X19615000Y-7735000D02*
X19585000Y-7765000D01*
X19595000Y-14772500D02*
X19625000Y-14802500D01*
X19625000Y-14772500D02*
X19595000Y-14802500D01*
X19717500Y-9212500D02*
X19747500Y-9242500D01*
X19747500Y-9212500D02*
X19717500Y-9242500D01*
X19720000Y-13605000D02*
X19750000Y-13635000D01*
X19750000Y-13605000D02*
X19720000Y-13635000D01*
X19760000Y-8460000D02*
X19790000Y-8490000D01*
X19790000Y-8460000D02*
X19760000Y-8490000D01*
X19810000Y-7785000D02*
X19840000Y-7815000D01*
X19840000Y-7785000D02*
X19810000Y-7815000D01*
X19810000Y-8010000D02*
X19840000Y-8040000D01*
X19840000Y-8010000D02*
X19810000Y-8040000D01*
X19890000Y-12110000D02*
X19920000Y-12140000D01*
X19920000Y-12110000D02*
X19890000Y-12140000D01*
X20025000Y-13850000D02*
X20055000Y-13880000D01*
X20055000Y-13850000D02*
X20025000Y-13880000D01*
X20035000Y-8335000D02*
X20065000Y-8365000D01*
X20065000Y-8335000D02*
X20035000Y-8365000D01*
X20110000Y-8460000D02*
X20140000Y-8490000D01*
X20140000Y-8460000D02*
X20110000Y-8490000D01*
X20240000Y-13485000D02*
X20270000Y-13515000D01*
X20270000Y-13485000D02*
X20240000Y-13515000D01*
X20260000Y-8360000D02*
X20290000Y-8390000D01*
X20290000Y-8360000D02*
X20260000Y-8390000D01*
X20385000Y-5335000D02*
X20415000Y-5365000D01*
X20415000Y-5335000D02*
X20385000Y-5365000D01*
X20470000Y-9767500D02*
X20500000Y-9797500D01*
X20500000Y-9767500D02*
X20470000Y-9797500D01*
X20565000Y-14110000D02*
X20595000Y-14140000D01*
X20595000Y-14110000D02*
X20565000Y-14140000D01*
X20640000Y-12635000D02*
X20670000Y-12665000D01*
X20670000Y-12635000D02*
X20640000Y-12665000D01*
X20660000Y-5535000D02*
X20690000Y-5565000D01*
X20690000Y-5535000D02*
X20660000Y-5565000D01*
X20715000Y-13635000D02*
X20745000Y-13665000D01*
X20745000Y-13635000D02*
X20715000Y-13665000D01*
X20785000Y-5935000D02*
X20815000Y-5965000D01*
X20815000Y-5935000D02*
X20785000Y-5965000D01*
X20860000Y-8135000D02*
X20890000Y-8165000D01*
X20890000Y-8135000D02*
X20860000Y-8165000D01*
X20910000Y-5310000D02*
X20940000Y-5340000D01*
X20940000Y-5310000D02*
X20910000Y-5340000D01*
X21015000Y-11260000D02*
X21045000Y-11290000D01*
X21045000Y-11260000D02*
X21015000Y-11290000D01*
X21015000Y-15334000D02*
X21045000Y-15364000D01*
X21045000Y-15334000D02*
X21015000Y-15364000D01*
X21035000Y-5935000D02*
X21065000Y-5965000D01*
X21065000Y-5935000D02*
X21035000Y-5965000D01*
X21062500Y-10455000D02*
X21092500Y-10485000D01*
X21092500Y-10455000D02*
X21062500Y-10485000D01*
X21085000Y-5535000D02*
X21115000Y-5565000D01*
X21115000Y-5535000D02*
X21085000Y-5565000D01*
X21105000Y-10155000D02*
X21135000Y-10185000D01*
X21135000Y-10155000D02*
X21105000Y-10185000D01*
X21235000Y-5310000D02*
X21265000Y-5340000D01*
X21265000Y-5310000D02*
X21235000Y-5340000D01*
X21285000Y-9422500D02*
X21315000Y-9452500D01*
X21315000Y-9422500D02*
X21285000Y-9452500D01*
X21370000Y-7702500D02*
X21400000Y-7732500D01*
X21400000Y-7702500D02*
X21370000Y-7732500D01*
X21390000Y-13185000D02*
X21420000Y-13215000D01*
X21420000Y-13185000D02*
X21390000Y-13215000D01*
X21415000Y-12260000D02*
X21445000Y-12290000D01*
X21445000Y-12260000D02*
X21415000Y-12290000D01*
X21487000Y-13873000D02*
X21517000Y-13903000D01*
X21517000Y-13873000D02*
X21487000Y-13903000D01*
X21515000Y-14110000D02*
X21545000Y-14140000D01*
X21545000Y-14110000D02*
X21515000Y-14140000D01*
X21665000Y-11410000D02*
X21695000Y-11440000D01*
X21695000Y-11410000D02*
X21665000Y-11440000D01*
X21672500Y-8562500D02*
X21702500Y-8592500D01*
X21702500Y-8562500D02*
X21672500Y-8592500D01*
X21685000Y-13825000D02*
X21715000Y-13855000D01*
X21715000Y-13825000D02*
X21685000Y-13855000D01*
X21695000Y-7447500D02*
X21725000Y-7477500D01*
X21725000Y-7447500D02*
X21695000Y-7477500D01*
X21815000Y-11260000D02*
X21845000Y-11290000D01*
X21845000Y-11260000D02*
X21815000Y-11290000D01*
X21840000Y-14060000D02*
X21870000Y-14090000D01*
X21870000Y-14060000D02*
X21840000Y-14090000D01*
X21884000Y-14249000D02*
X21914000Y-14279000D01*
X21914000Y-14249000D02*
X21884000Y-14279000D01*
X21980000Y-15077500D02*
X22010000Y-15107500D01*
X22010000Y-15077500D02*
X21980000Y-15107500D01*
X21985000Y-5585000D02*
X22015000Y-5615000D01*
X22015000Y-5585000D02*
X21985000Y-5615000D01*
X22035000Y-5760000D02*
X22065000Y-5790000D01*
X22065000Y-5760000D02*
X22035000Y-5790000D01*
X22127500Y-11097500D02*
X22157500Y-11127500D01*
X22157500Y-11097500D02*
X22127500Y-11127500D01*
X22135000Y-5335000D02*
X22165000Y-5365000D01*
X22165000Y-5335000D02*
X22135000Y-5365000D01*
X22240000Y-14310000D02*
X22270000Y-14340000D01*
X22270000Y-14310000D02*
X22240000Y-14340000D01*
X22360000Y-5660000D02*
X22390000Y-5690000D01*
X22390000Y-5660000D02*
X22360000Y-5690000D01*
X22365000Y-13185000D02*
X22395000Y-13215000D01*
X22395000Y-13185000D02*
X22365000Y-13215000D01*
X22385000Y-11675000D02*
X22415000Y-11705000D01*
X22415000Y-11675000D02*
X22385000Y-11705000D01*
X22410000Y-14125000D02*
X22440000Y-14155000D01*
X22440000Y-14125000D02*
X22410000Y-14155000D01*
X22440000Y-11410000D02*
X22470000Y-11440000D01*
X22470000Y-11410000D02*
X22440000Y-11440000D01*
X22510000Y-11175000D02*
X22540000Y-11205000D01*
X22540000Y-11175000D02*
X22510000Y-11205000D01*
X22540000Y-13160000D02*
X22570000Y-13190000D01*
X22570000Y-13160000D02*
X22540000Y-13190000D01*
X22810000Y-11600000D02*
X22840000Y-11630000D01*
X22840000Y-11600000D02*
X22810000Y-11630000D01*
X23065000Y-11275000D02*
X23095000Y-11305000D01*
X23095000Y-11275000D02*
X23065000Y-11305000D01*
X22671000Y-7715000D02*
G75*
G02*
X22601000Y-7715000I-35000J0D01*
G01*
X22601000Y-7715000D02*
G75*
G02*
X22671000Y-7715000I35000J0D01*
G01*
X22925000Y-7715000D02*
G75*
G02*
X22855000Y-7715000I-35000J0D01*
G01*
X22855000Y-7715000D02*
G75*
G02*
X22925000Y-7715000I35000J0D01*
G01*
X23179000Y-7715000D02*
G75*
G02*
X23109000Y-7715000I-35000J0D01*
G01*
X23109000Y-7715000D02*
G75*
G02*
X23179000Y-7715000I35000J0D01*
G01*
X9925000Y-12810000D02*
X9925000Y-12890000D01*
X9885000Y-12850000D02*
X9965000Y-12850000D01*
X9925000Y-13010000D02*
X9925000Y-13090000D01*
X9885000Y-13050000D02*
X9965000Y-13050000D01*
X9925000Y-13210000D02*
X9925000Y-13290000D01*
X9885000Y-13250000D02*
X9965000Y-13250000D01*
X14550000Y-13585000D02*
X14550000Y-13665000D01*
X14510000Y-13625000D02*
X14590000Y-13625000D01*
X14750000Y-13585000D02*
X14750000Y-13665000D01*
X14710000Y-13625000D02*
X14790000Y-13625000D01*
X14950000Y-13585000D02*
X14950000Y-13665000D01*
X14910000Y-13625000D02*
X14990000Y-13625000D01*
X15550000Y-5510000D02*
X15550000Y-5590000D01*
X15510000Y-5550000D02*
X15590000Y-5550000D01*
X15750000Y-5510000D02*
X15750000Y-5590000D01*
X15710000Y-5550000D02*
X15790000Y-5550000D01*
X15950000Y-5510000D02*
X15950000Y-5590000D01*
X15910000Y-5550000D02*
X15990000Y-5550000D01*
X16800000Y-5510000D02*
X16800000Y-5590000D01*
X16760000Y-5550000D02*
X16840000Y-5550000D01*
X17000000Y-5510000D02*
X17000000Y-5590000D01*
X16960000Y-5550000D02*
X17040000Y-5550000D01*
X17200000Y-5510000D02*
X17200000Y-5590000D01*
X17160000Y-5550000D02*
X17240000Y-5550000D01*
X18000000Y-5510000D02*
X18000000Y-5590000D01*
X17960000Y-5550000D02*
X18040000Y-5550000D01*
X18200000Y-5510000D02*
X18200000Y-5590000D01*
X18160000Y-5550000D02*
X18240000Y-5550000D01*
X18400000Y-5510000D02*
X18400000Y-5590000D01*
X18360000Y-5550000D02*
X18440000Y-5550000D01*
X19325000Y-5510000D02*
X19325000Y-5590000D01*
X19285000Y-5550000D02*
X19365000Y-5550000D01*
X19525000Y-5510000D02*
X19525000Y-5590000D01*
X19485000Y-5550000D02*
X19565000Y-5550000D01*
X19725000Y-5510000D02*
X19725000Y-5590000D01*
X19685000Y-5550000D02*
X19765000Y-5550000D01*
X21650000Y-14675000D02*
X21650000Y-14755000D01*
X21610000Y-14715000D02*
X21690000Y-14715000D01*
X21850000Y-14675000D02*
X21850000Y-14755000D01*
X21810000Y-14715000D02*
X21890000Y-14715000D01*
X22025000Y-6985000D02*
X22025000Y-7065000D01*
X21985000Y-7025000D02*
X22065000Y-7025000D01*
X22025000Y-7235000D02*
X22025000Y-7315000D01*
X21985000Y-7275000D02*
X22065000Y-7275000D01*
X22050000Y-14675000D02*
X22050000Y-14755000D01*
X22010000Y-14715000D02*
X22090000Y-14715000D01*
X7985356Y-7730356D02*
X7985356Y-7659644D01*
X7914644Y-7659644D01*
X7914644Y-7730356D01*
X7985356Y-7730356D01*
X7985356Y-7984356D02*
X7985356Y-7913644D01*
X7914644Y-7913644D01*
X7914644Y-7984356D01*
X7985356Y-7984356D01*
X7985356Y-8238356D02*
X7985356Y-8167644D01*
X7914644Y-8167644D01*
X7914644Y-8238356D01*
X7985356Y-8238356D01*
X7985356Y-8492356D02*
X7985356Y-8421644D01*
X7914644Y-8421644D01*
X7914644Y-8492356D01*
X7985356Y-8492356D01*
X7985356Y-8746356D02*
X7985356Y-8675644D01*
X7914644Y-8675644D01*
X7914644Y-8746356D01*
X7985356Y-8746356D01*
X11957356Y-5685356D02*
X11957356Y-5614644D01*
X11886644Y-5614644D01*
X11886644Y-5685356D01*
X11957356Y-5685356D01*
X11957356Y-5939356D02*
X11957356Y-5868644D01*
X11886644Y-5868644D01*
X11886644Y-5939356D01*
X11957356Y-5939356D01*
X12211356Y-5685356D02*
X12211356Y-5614644D01*
X12140644Y-5614644D01*
X12140644Y-5685356D01*
X12211356Y-5685356D01*
X12211356Y-5939356D02*
X12211356Y-5868644D01*
X12140644Y-5868644D01*
X12140644Y-5939356D01*
X12211356Y-5939356D01*
X12465356Y-5685356D02*
X12465356Y-5614644D01*
X12394644Y-5614644D01*
X12394644Y-5685356D01*
X12465356Y-5685356D01*
X12465356Y-5939356D02*
X12465356Y-5868644D01*
X12394644Y-5868644D01*
X12394644Y-5939356D01*
X12465356Y-5939356D01*
X12719356Y-5685356D02*
X12719356Y-5614644D01*
X12648644Y-5614644D01*
X12648644Y-5685356D01*
X12719356Y-5685356D01*
X12719356Y-5939356D02*
X12719356Y-5868644D01*
X12648644Y-5868644D01*
X12648644Y-5939356D01*
X12719356Y-5939356D01*
X12973356Y-5685356D02*
X12973356Y-5614644D01*
X12902644Y-5614644D01*
X12902644Y-5685356D01*
X12973356Y-5685356D01*
X12973356Y-5939356D02*
X12973356Y-5868644D01*
X12902644Y-5868644D01*
X12902644Y-5939356D01*
X12973356Y-5939356D01*
X13227356Y-5685356D02*
X13227356Y-5614644D01*
X13156644Y-5614644D01*
X13156644Y-5685356D01*
X13227356Y-5685356D01*
X13227356Y-5939356D02*
X13227356Y-5868644D01*
X13156644Y-5868644D01*
X13156644Y-5939356D01*
X13227356Y-5939356D01*
X13481356Y-5685356D02*
X13481356Y-5614644D01*
X13410644Y-5614644D01*
X13410644Y-5685356D01*
X13481356Y-5685356D01*
X13481356Y-5939356D02*
X13481356Y-5868644D01*
X13410644Y-5868644D01*
X13410644Y-5939356D01*
X13481356Y-5939356D01*
X13735356Y-5685356D02*
X13735356Y-5614644D01*
X13664644Y-5614644D01*
X13664644Y-5685356D01*
X13735356Y-5685356D01*
X13735356Y-5939356D02*
X13735356Y-5868644D01*
X13664644Y-5868644D01*
X13664644Y-5939356D01*
X13735356Y-5939356D01*
X13989356Y-5685356D02*
X13989356Y-5614644D01*
X13918644Y-5614644D01*
X13918644Y-5685356D01*
X13989356Y-5685356D01*
X13989356Y-5939356D02*
X13989356Y-5868644D01*
X13918644Y-5868644D01*
X13918644Y-5939356D01*
X13989356Y-5939356D01*
X14243356Y-5685356D02*
X14243356Y-5614644D01*
X14172644Y-5614644D01*
X14172644Y-5685356D01*
X14243356Y-5685356D01*
X14243356Y-5939356D02*
X14243356Y-5868644D01*
X14172644Y-5868644D01*
X14172644Y-5939356D01*
X14243356Y-5939356D01*
X14410356Y-11760356D02*
X14410356Y-11689644D01*
X14339644Y-11689644D01*
X14339644Y-11760356D01*
X14410356Y-11760356D01*
X14482856Y-11106356D02*
X14482856Y-11035644D01*
X14412144Y-11035644D01*
X14412144Y-11106356D01*
X14482856Y-11106356D01*
X14482856Y-11360356D02*
X14482856Y-11289644D01*
X14412144Y-11289644D01*
X14412144Y-11360356D01*
X14482856Y-11360356D01*
X14664356Y-11760356D02*
X14664356Y-11689644D01*
X14593644Y-11689644D01*
X14593644Y-11760356D01*
X14664356Y-11760356D01*
X16552356Y-6485356D02*
X16552356Y-6414644D01*
X16481644Y-6414644D01*
X16481644Y-6485356D01*
X16552356Y-6485356D01*
X16806356Y-6485356D02*
X16806356Y-6414644D01*
X16735644Y-6414644D01*
X16735644Y-6485356D01*
X16806356Y-6485356D01*
X17060356Y-6485356D02*
X17060356Y-6414644D01*
X16989644Y-6414644D01*
X16989644Y-6485356D01*
X17060356Y-6485356D01*
X17314356Y-6485356D02*
X17314356Y-6414644D01*
X17243644Y-6414644D01*
X17243644Y-6485356D01*
X17314356Y-6485356D01*
X18335356Y-6307856D02*
X18335356Y-6237144D01*
X18264644Y-6237144D01*
X18264644Y-6307856D01*
X18335356Y-6307856D01*
X18589356Y-6307856D02*
X18589356Y-6237144D01*
X18518644Y-6237144D01*
X18518644Y-6307856D01*
X18589356Y-6307856D01*
X20561356Y-14810356D02*
X20561356Y-14739644D01*
X20490644Y-14739644D01*
X20490644Y-14810356D01*
X20561356Y-14810356D01*
X20678356Y-10910356D02*
X20678356Y-10839644D01*
X20607644Y-10839644D01*
X20607644Y-10910356D01*
X20678356Y-10910356D01*
X20815356Y-14810356D02*
X20815356Y-14739644D01*
X20744644Y-14739644D01*
X20744644Y-14810356D01*
X20815356Y-14810356D01*
X20932356Y-10910356D02*
X20932356Y-10839644D01*
X20861644Y-10839644D01*
X20861644Y-10910356D01*
X20932356Y-10910356D01*
X21069356Y-14810356D02*
X21069356Y-14739644D01*
X20998644Y-14739644D01*
X20998644Y-14810356D01*
X21069356Y-14810356D01*
X21182856Y-8810356D02*
X21182856Y-8739644D01*
X21112144Y-8739644D01*
X21112144Y-8810356D01*
X21182856Y-8810356D01*
X21182856Y-9064356D02*
X21182856Y-8993644D01*
X21112144Y-8993644D01*
X21112144Y-9064356D01*
X21182856Y-9064356D01*
X21186356Y-10910356D02*
X21186356Y-10839644D01*
X21115644Y-10839644D01*
X21115644Y-10910356D01*
X21186356Y-10910356D01*
X21440356Y-10910356D02*
X21440356Y-10839644D01*
X21369644Y-10839644D01*
X21369644Y-10910356D01*
X21440356Y-10910356D01*
X21561356Y-15365356D02*
X21561356Y-15294644D01*
X21490644Y-15294644D01*
X21490644Y-15365356D01*
X21561356Y-15365356D01*
X21694356Y-10910356D02*
X21694356Y-10839644D01*
X21623644Y-10839644D01*
X21623644Y-10910356D01*
X21694356Y-10910356D01*
X21815356Y-15365356D02*
X21815356Y-15294644D01*
X21744644Y-15294644D01*
X21744644Y-15365356D01*
X21815356Y-15365356D01*
X21948356Y-10910356D02*
X21948356Y-10839644D01*
X21877644Y-10839644D01*
X21877644Y-10910356D01*
X21948356Y-10910356D01*
X22069356Y-15365356D02*
X22069356Y-15294644D01*
X21998644Y-15294644D01*
X21998644Y-15365356D01*
X22069356Y-15365356D01*
X22323356Y-15365356D02*
X22323356Y-15294644D01*
X22252644Y-15294644D01*
X22252644Y-15365356D01*
X22323356Y-15365356D01*
X22785356Y-6610356D02*
X22785356Y-6539644D01*
X22714644Y-6539644D01*
X22714644Y-6610356D01*
X22785356Y-6610356D01*
X22800000Y-6675000D02*
X22800000Y-6475000D01*
X22700000Y-6475000D02*
G75*
G02*
X22800000Y-6475000I50000J0D01*
G01*
X22700000Y-6475000D02*
X22700000Y-6675000D01*
X22700000Y-6675000D02*
G75*
G03*
X22800000Y-6675000I50000J0D01*
G01*
X23160356Y-14032856D02*
X23160356Y-13962144D01*
X23089644Y-13962144D01*
X23089644Y-14032856D01*
X23160356Y-14032856D01*
X23170356Y-14422856D02*
X23170356Y-14352144D01*
X23099644Y-14352144D01*
X23099644Y-14422856D01*
X23170356Y-14422856D01*
X23385356Y-6610356D02*
X23385356Y-6539644D01*
X23314644Y-6539644D01*
X23314644Y-6610356D01*
X23385356Y-6610356D01*
X23400000Y-6640000D02*
X23400000Y-6510000D01*
X23300000Y-6510000D02*
G75*
G02*
X23400000Y-6510000I50000J0D01*
G01*
X23300000Y-6510000D02*
X23300000Y-6640000D01*
X23300000Y-6640000D02*
G75*
G03*
X23400000Y-6640000I50000J0D01*
G01*
X23414356Y-14032856D02*
X23414356Y-13962144D01*
X23343644Y-13962144D01*
X23343644Y-14032856D01*
X23414356Y-14032856D01*
X23424356Y-14422856D02*
X23424356Y-14352144D01*
X23353644Y-14352144D01*
X23353644Y-14422856D01*
X23424356Y-14422856D01*
X23485356Y-6160356D02*
X23485356Y-6089644D01*
X23414644Y-6089644D01*
X23414644Y-6160356D01*
X23485356Y-6160356D01*
X23375000Y-6175000D02*
X23525000Y-6175000D01*
X23525000Y-6075000D02*
G75*
G02*
X23525000Y-6175000I0J-50000D01*
G01*
X23525000Y-6075000D02*
X23375000Y-6075000D01*
X23375000Y-6075000D02*
G75*
G03*
X23375000Y-6175000I0J-50000D01*
G01*
X23485356Y-7060356D02*
X23485356Y-6989644D01*
X23414644Y-6989644D01*
X23414644Y-7060356D01*
X23485356Y-7060356D01*
X23375000Y-7075000D02*
X23525000Y-7075000D01*
X23525000Y-6975000D02*
G75*
G02*
X23525000Y-7075000I0J-50000D01*
G01*
X23525000Y-6975000D02*
X23375000Y-6975000D01*
X23375000Y-6975000D02*
G75*
G03*
X23375000Y-7075000I0J-50000D01*
G01*
D13*
X21725000Y-5655000D02*
X21780000Y-5600000D01*
X21725000Y-5545000D01*
X21670000Y-5600000D01*
X21725000Y-5655000D01*
X21725000Y-5825000D02*
X21780000Y-5770000D01*
X21725000Y-5715000D01*
X21670000Y-5770000D01*
X21725000Y-5825000D01*
X21725000Y-5995000D02*
X21780000Y-5940000D01*
X21725000Y-5885000D01*
X21670000Y-5940000D01*
X21725000Y-5995000D01*
X21725000Y-6165000D02*
X21780000Y-6110000D01*
X21725000Y-6055000D01*
X21670000Y-6110000D01*
X21725000Y-6165000D01*
X21725000Y-6335000D02*
X21780000Y-6280000D01*
X21725000Y-6225000D01*
X21670000Y-6280000D01*
X21725000Y-6335000D01*
D14*
X9850000Y-12565000D02*
X10000000Y-12715000D01*
X10000000Y-12565000D02*
X9850000Y-12715000D01*
X10000000Y-12640000D02*
G75*
G02*
X9850000Y-12640000I-75000J0D01*
G01*
X9850000Y-12640000D02*
G75*
G02*
X10000000Y-12640000I75000J0D01*
G01*
X9850000Y-13385000D02*
X10000000Y-13535000D01*
X10000000Y-13385000D02*
X9850000Y-13535000D01*
X10000000Y-13460000D02*
G75*
G02*
X9850000Y-13460000I-75000J0D01*
G01*
X9850000Y-13460000D02*
G75*
G02*
X10000000Y-13460000I75000J0D01*
G01*
X14265000Y-13550000D02*
X14415000Y-13700000D01*
X14415000Y-13550000D02*
X14265000Y-13700000D01*
X14415000Y-13625000D02*
G75*
G02*
X14265000Y-13625000I-75000J0D01*
G01*
X14265000Y-13625000D02*
G75*
G02*
X14415000Y-13625000I75000J0D01*
G01*
X15085000Y-13550000D02*
X15235000Y-13700000D01*
X15235000Y-13550000D02*
X15085000Y-13700000D01*
X15235000Y-13625000D02*
G75*
G02*
X15085000Y-13625000I-75000J0D01*
G01*
X15085000Y-13625000D02*
G75*
G02*
X15235000Y-13625000I75000J0D01*
G01*
X15265000Y-5475000D02*
X15415000Y-5625000D01*
X15415000Y-5475000D02*
X15265000Y-5625000D01*
X15415000Y-5550000D02*
G75*
G02*
X15265000Y-5550000I-75000J0D01*
G01*
X15265000Y-5550000D02*
G75*
G02*
X15415000Y-5550000I75000J0D01*
G01*
X16085000Y-5475000D02*
X16235000Y-5625000D01*
X16235000Y-5475000D02*
X16085000Y-5625000D01*
X16235000Y-5550000D02*
G75*
G02*
X16085000Y-5550000I-75000J0D01*
G01*
X16085000Y-5550000D02*
G75*
G02*
X16235000Y-5550000I75000J0D01*
G01*
X16515000Y-5475000D02*
X16665000Y-5625000D01*
X16665000Y-5475000D02*
X16515000Y-5625000D01*
X16665000Y-5550000D02*
G75*
G02*
X16515000Y-5550000I-75000J0D01*
G01*
X16515000Y-5550000D02*
G75*
G02*
X16665000Y-5550000I75000J0D01*
G01*
X17335000Y-5475000D02*
X17485000Y-5625000D01*
X17485000Y-5475000D02*
X17335000Y-5625000D01*
X17485000Y-5550000D02*
G75*
G02*
X17335000Y-5550000I-75000J0D01*
G01*
X17335000Y-5550000D02*
G75*
G02*
X17485000Y-5550000I75000J0D01*
G01*
X17715000Y-5475000D02*
X17865000Y-5625000D01*
X17865000Y-5475000D02*
X17715000Y-5625000D01*
X17865000Y-5550000D02*
G75*
G02*
X17715000Y-5550000I-75000J0D01*
G01*
X17715000Y-5550000D02*
G75*
G02*
X17865000Y-5550000I75000J0D01*
G01*
X18535000Y-5475000D02*
X18685000Y-5625000D01*
X18685000Y-5475000D02*
X18535000Y-5625000D01*
X18685000Y-5550000D02*
G75*
G02*
X18535000Y-5550000I-75000J0D01*
G01*
X18535000Y-5550000D02*
G75*
G02*
X18685000Y-5550000I75000J0D01*
G01*
X19040000Y-5475000D02*
X19190000Y-5625000D01*
X19190000Y-5475000D02*
X19040000Y-5625000D01*
X19190000Y-5550000D02*
G75*
G02*
X19040000Y-5550000I-75000J0D01*
G01*
X19040000Y-5550000D02*
G75*
G02*
X19190000Y-5550000I75000J0D01*
G01*
X19860000Y-5475000D02*
X20010000Y-5625000D01*
X20010000Y-5475000D02*
X19860000Y-5625000D01*
X20010000Y-5550000D02*
G75*
G02*
X19860000Y-5550000I-75000J0D01*
G01*
X19860000Y-5550000D02*
G75*
G02*
X20010000Y-5550000I75000J0D01*
G01*
X21365000Y-14640000D02*
X21515000Y-14790000D01*
X21515000Y-14640000D02*
X21365000Y-14790000D01*
X21515000Y-14715000D02*
G75*
G02*
X21365000Y-14715000I-75000J0D01*
G01*
X21365000Y-14715000D02*
G75*
G02*
X21515000Y-14715000I75000J0D01*
G01*
X22185000Y-14640000D02*
X22335000Y-14790000D01*
X22335000Y-14640000D02*
X22185000Y-14790000D01*
X22335000Y-14715000D02*
G75*
G02*
X22185000Y-14715000I-75000J0D01*
G01*
X22185000Y-14715000D02*
G75*
G02*
X22335000Y-14715000I75000J0D01*
G01*
D15*
X18958000Y-6520000D02*
X19118000Y-6680000D01*
X19118000Y-6520000D02*
X18958000Y-6680000D01*
X19038000Y-6520000D02*
X19038000Y-6680000D01*
X18958000Y-6600000D02*
X19118000Y-6600000D01*
X20482000Y-6520000D02*
X20642000Y-6680000D01*
X20642000Y-6520000D02*
X20482000Y-6680000D01*
X20562000Y-6520000D02*
X20562000Y-6680000D01*
X20482000Y-6600000D02*
X20642000Y-6600000D01*
D11*
X7458277Y-15963984D02*
X7458277Y-15763984D01*
X7458277Y-15763984D02*
X7505896Y-15763984D01*
X7505896Y-15763984D02*
X7534467Y-15773508D01*
X7534467Y-15773508D02*
X7553515Y-15792555D01*
X7553515Y-15792555D02*
X7563039Y-15811603D01*
X7563039Y-15811603D02*
X7572562Y-15849698D01*
X7572562Y-15849698D02*
X7572562Y-15878269D01*
X7572562Y-15878269D02*
X7563039Y-15916365D01*
X7563039Y-15916365D02*
X7553515Y-15935412D01*
X7553515Y-15935412D02*
X7534467Y-15954460D01*
X7534467Y-15954460D02*
X7505896Y-15963984D01*
X7505896Y-15963984D02*
X7458277Y-15963984D01*
X7658277Y-15963984D02*
X7658277Y-15830650D01*
X7658277Y-15868746D02*
X7667801Y-15849698D01*
X7667801Y-15849698D02*
X7677324Y-15840174D01*
X7677324Y-15840174D02*
X7696372Y-15830650D01*
X7696372Y-15830650D02*
X7715420Y-15830650D01*
X7782086Y-15963984D02*
X7782086Y-15830650D01*
X7782086Y-15763984D02*
X7772562Y-15773508D01*
X7772562Y-15773508D02*
X7782086Y-15783031D01*
X7782086Y-15783031D02*
X7791610Y-15773508D01*
X7791610Y-15773508D02*
X7782086Y-15763984D01*
X7782086Y-15763984D02*
X7782086Y-15783031D01*
X7905896Y-15963984D02*
X7886848Y-15954460D01*
X7886848Y-15954460D02*
X7877324Y-15935412D01*
X7877324Y-15935412D02*
X7877324Y-15763984D01*
X8010658Y-15963984D02*
X7991610Y-15954460D01*
X7991610Y-15954460D02*
X7982086Y-15935412D01*
X7982086Y-15935412D02*
X7982086Y-15763984D01*
X8239229Y-15963984D02*
X8239229Y-15763984D01*
X8239229Y-15763984D02*
X8305896Y-15906841D01*
X8305896Y-15906841D02*
X8372562Y-15763984D01*
X8372562Y-15763984D02*
X8372562Y-15963984D01*
X8553515Y-15963984D02*
X8553515Y-15859222D01*
X8553515Y-15859222D02*
X8543991Y-15840174D01*
X8543991Y-15840174D02*
X8524944Y-15830650D01*
X8524944Y-15830650D02*
X8486848Y-15830650D01*
X8486848Y-15830650D02*
X8467801Y-15840174D01*
X8553515Y-15954460D02*
X8534467Y-15963984D01*
X8534467Y-15963984D02*
X8486848Y-15963984D01*
X8486848Y-15963984D02*
X8467801Y-15954460D01*
X8467801Y-15954460D02*
X8458277Y-15935412D01*
X8458277Y-15935412D02*
X8458277Y-15916365D01*
X8458277Y-15916365D02*
X8467801Y-15897317D01*
X8467801Y-15897317D02*
X8486848Y-15887793D01*
X8486848Y-15887793D02*
X8534467Y-15887793D01*
X8534467Y-15887793D02*
X8553515Y-15878269D01*
X8648753Y-15830650D02*
X8648753Y-16030650D01*
X8648753Y-15840174D02*
X8667801Y-15830650D01*
X8667801Y-15830650D02*
X8705896Y-15830650D01*
X8705896Y-15830650D02*
X8724944Y-15840174D01*
X8724944Y-15840174D02*
X8734467Y-15849698D01*
X8734467Y-15849698D02*
X8743991Y-15868746D01*
X8743991Y-15868746D02*
X8743991Y-15925888D01*
X8743991Y-15925888D02*
X8734467Y-15944936D01*
X8734467Y-15944936D02*
X8724944Y-15954460D01*
X8724944Y-15954460D02*
X8705896Y-15963984D01*
X8705896Y-15963984D02*
X8667801Y-15963984D01*
X8667801Y-15963984D02*
X8648753Y-15954460D01*
X8829705Y-15944936D02*
X8839229Y-15954460D01*
X8839229Y-15954460D02*
X8829705Y-15963984D01*
X8829705Y-15963984D02*
X8820182Y-15954460D01*
X8820182Y-15954460D02*
X8829705Y-15944936D01*
X8829705Y-15944936D02*
X8829705Y-15963984D01*
X8829705Y-15840174D02*
X8839229Y-15849698D01*
X8839229Y-15849698D02*
X8829705Y-15859222D01*
X8829705Y-15859222D02*
X8820182Y-15849698D01*
X8820182Y-15849698D02*
X8829705Y-15840174D01*
X8829705Y-15840174D02*
X8829705Y-15859222D01*
D12*
X7167500Y-16277500D02*
X7197500Y-16307500D01*
X7197500Y-16277500D02*
X7167500Y-16307500D01*
D11*
X7496372Y-16183984D02*
X7515420Y-16183984D01*
X7515420Y-16183984D02*
X7534467Y-16193508D01*
X7534467Y-16193508D02*
X7543991Y-16203031D01*
X7543991Y-16203031D02*
X7553515Y-16222079D01*
X7553515Y-16222079D02*
X7563039Y-16260174D01*
X7563039Y-16260174D02*
X7563039Y-16307793D01*
X7563039Y-16307793D02*
X7553515Y-16345888D01*
X7553515Y-16345888D02*
X7543991Y-16364936D01*
X7543991Y-16364936D02*
X7534467Y-16374460D01*
X7534467Y-16374460D02*
X7515420Y-16383984D01*
X7515420Y-16383984D02*
X7496372Y-16383984D01*
X7496372Y-16383984D02*
X7477324Y-16374460D01*
X7477324Y-16374460D02*
X7467801Y-16364936D01*
X7467801Y-16364936D02*
X7458277Y-16345888D01*
X7458277Y-16345888D02*
X7448753Y-16307793D01*
X7448753Y-16307793D02*
X7448753Y-16260174D01*
X7448753Y-16260174D02*
X7458277Y-16222079D01*
X7458277Y-16222079D02*
X7467801Y-16203031D01*
X7467801Y-16203031D02*
X7477324Y-16193508D01*
X7477324Y-16193508D02*
X7496372Y-16183984D01*
X7648753Y-16364936D02*
X7658277Y-16374460D01*
X7658277Y-16374460D02*
X7648753Y-16383984D01*
X7648753Y-16383984D02*
X7639229Y-16374460D01*
X7639229Y-16374460D02*
X7648753Y-16364936D01*
X7648753Y-16364936D02*
X7648753Y-16383984D01*
X7724943Y-16183984D02*
X7848753Y-16183984D01*
X7848753Y-16183984D02*
X7782086Y-16260174D01*
X7782086Y-16260174D02*
X7810658Y-16260174D01*
X7810658Y-16260174D02*
X7829705Y-16269698D01*
X7829705Y-16269698D02*
X7839229Y-16279222D01*
X7839229Y-16279222D02*
X7848753Y-16298269D01*
X7848753Y-16298269D02*
X7848753Y-16345888D01*
X7848753Y-16345888D02*
X7839229Y-16364936D01*
X7839229Y-16364936D02*
X7829705Y-16374460D01*
X7829705Y-16374460D02*
X7810658Y-16383984D01*
X7810658Y-16383984D02*
X7753515Y-16383984D01*
X7753515Y-16383984D02*
X7734467Y-16374460D01*
X7734467Y-16374460D02*
X7724943Y-16364936D01*
X7972562Y-16183984D02*
X7991610Y-16183984D01*
X7991610Y-16183984D02*
X8010658Y-16193508D01*
X8010658Y-16193508D02*
X8020182Y-16203031D01*
X8020182Y-16203031D02*
X8029705Y-16222079D01*
X8029705Y-16222079D02*
X8039229Y-16260174D01*
X8039229Y-16260174D02*
X8039229Y-16307793D01*
X8039229Y-16307793D02*
X8029705Y-16345888D01*
X8029705Y-16345888D02*
X8020182Y-16364936D01*
X8020182Y-16364936D02*
X8010658Y-16374460D01*
X8010658Y-16374460D02*
X7991610Y-16383984D01*
X7991610Y-16383984D02*
X7972562Y-16383984D01*
X7972562Y-16383984D02*
X7953515Y-16374460D01*
X7953515Y-16374460D02*
X7943991Y-16364936D01*
X7943991Y-16364936D02*
X7934467Y-16345888D01*
X7934467Y-16345888D02*
X7924943Y-16307793D01*
X7924943Y-16307793D02*
X7924943Y-16260174D01*
X7924943Y-16260174D02*
X7934467Y-16222079D01*
X7934467Y-16222079D02*
X7943991Y-16203031D01*
X7943991Y-16203031D02*
X7953515Y-16193508D01*
X7953515Y-16193508D02*
X7972562Y-16183984D01*
X8163039Y-16183984D02*
X8182086Y-16183984D01*
X8182086Y-16183984D02*
X8201134Y-16193508D01*
X8201134Y-16193508D02*
X8210658Y-16203031D01*
X8210658Y-16203031D02*
X8220182Y-16222079D01*
X8220182Y-16222079D02*
X8229705Y-16260174D01*
X8229705Y-16260174D02*
X8229705Y-16307793D01*
X8229705Y-16307793D02*
X8220182Y-16345888D01*
X8220182Y-16345888D02*
X8210658Y-16364936D01*
X8210658Y-16364936D02*
X8201134Y-16374460D01*
X8201134Y-16374460D02*
X8182086Y-16383984D01*
X8182086Y-16383984D02*
X8163039Y-16383984D01*
X8163039Y-16383984D02*
X8143991Y-16374460D01*
X8143991Y-16374460D02*
X8134467Y-16364936D01*
X8134467Y-16364936D02*
X8124943Y-16345888D01*
X8124943Y-16345888D02*
X8115420Y-16307793D01*
X8115420Y-16307793D02*
X8115420Y-16260174D01*
X8115420Y-16260174D02*
X8124943Y-16222079D01*
X8124943Y-16222079D02*
X8134467Y-16203031D01*
X8134467Y-16203031D02*
X8143991Y-16193508D01*
X8143991Y-16193508D02*
X8163039Y-16183984D01*
X8315420Y-16383984D02*
X8315420Y-16250650D01*
X8315420Y-16269698D02*
X8324943Y-16260174D01*
X8324943Y-16260174D02*
X8343991Y-16250650D01*
X8343991Y-16250650D02*
X8372563Y-16250650D01*
X8372563Y-16250650D02*
X8391610Y-16260174D01*
X8391610Y-16260174D02*
X8401134Y-16279222D01*
X8401134Y-16279222D02*
X8401134Y-16383984D01*
X8401134Y-16279222D02*
X8410658Y-16260174D01*
X8410658Y-16260174D02*
X8429705Y-16250650D01*
X8429705Y-16250650D02*
X8458277Y-16250650D01*
X8458277Y-16250650D02*
X8477325Y-16260174D01*
X8477325Y-16260174D02*
X8486848Y-16279222D01*
X8486848Y-16279222D02*
X8486848Y-16383984D01*
X8582086Y-16383984D02*
X8582086Y-16250650D01*
X8582086Y-16269698D02*
X8591610Y-16260174D01*
X8591610Y-16260174D02*
X8610658Y-16250650D01*
X8610658Y-16250650D02*
X8639229Y-16250650D01*
X8639229Y-16250650D02*
X8658277Y-16260174D01*
X8658277Y-16260174D02*
X8667801Y-16279222D01*
X8667801Y-16279222D02*
X8667801Y-16383984D01*
X8667801Y-16279222D02*
X8677325Y-16260174D01*
X8677325Y-16260174D02*
X8696372Y-16250650D01*
X8696372Y-16250650D02*
X8724944Y-16250650D01*
X8724944Y-16250650D02*
X8743991Y-16260174D01*
X8743991Y-16260174D02*
X8753515Y-16279222D01*
X8753515Y-16279222D02*
X8753515Y-16383984D01*
X9143991Y-16174460D02*
X8972563Y-16431603D01*
X9401134Y-16183984D02*
X9420182Y-16183984D01*
X9420182Y-16183984D02*
X9439229Y-16193508D01*
X9439229Y-16193508D02*
X9448753Y-16203031D01*
X9448753Y-16203031D02*
X9458277Y-16222079D01*
X9458277Y-16222079D02*
X9467801Y-16260174D01*
X9467801Y-16260174D02*
X9467801Y-16307793D01*
X9467801Y-16307793D02*
X9458277Y-16345888D01*
X9458277Y-16345888D02*
X9448753Y-16364936D01*
X9448753Y-16364936D02*
X9439229Y-16374460D01*
X9439229Y-16374460D02*
X9420182Y-16383984D01*
X9420182Y-16383984D02*
X9401134Y-16383984D01*
X9401134Y-16383984D02*
X9382087Y-16374460D01*
X9382087Y-16374460D02*
X9372563Y-16364936D01*
X9372563Y-16364936D02*
X9363039Y-16345888D01*
X9363039Y-16345888D02*
X9353515Y-16307793D01*
X9353515Y-16307793D02*
X9353515Y-16260174D01*
X9353515Y-16260174D02*
X9363039Y-16222079D01*
X9363039Y-16222079D02*
X9372563Y-16203031D01*
X9372563Y-16203031D02*
X9382087Y-16193508D01*
X9382087Y-16193508D02*
X9401134Y-16183984D01*
X9553515Y-16364936D02*
X9563039Y-16374460D01*
X9563039Y-16374460D02*
X9553515Y-16383984D01*
X9553515Y-16383984D02*
X9543991Y-16374460D01*
X9543991Y-16374460D02*
X9553515Y-16364936D01*
X9553515Y-16364936D02*
X9553515Y-16383984D01*
X9686848Y-16183984D02*
X9705896Y-16183984D01*
X9705896Y-16183984D02*
X9724944Y-16193508D01*
X9724944Y-16193508D02*
X9734468Y-16203031D01*
X9734468Y-16203031D02*
X9743991Y-16222079D01*
X9743991Y-16222079D02*
X9753515Y-16260174D01*
X9753515Y-16260174D02*
X9753515Y-16307793D01*
X9753515Y-16307793D02*
X9743991Y-16345888D01*
X9743991Y-16345888D02*
X9734468Y-16364936D01*
X9734468Y-16364936D02*
X9724944Y-16374460D01*
X9724944Y-16374460D02*
X9705896Y-16383984D01*
X9705896Y-16383984D02*
X9686848Y-16383984D01*
X9686848Y-16383984D02*
X9667801Y-16374460D01*
X9667801Y-16374460D02*
X9658277Y-16364936D01*
X9658277Y-16364936D02*
X9648753Y-16345888D01*
X9648753Y-16345888D02*
X9639229Y-16307793D01*
X9639229Y-16307793D02*
X9639229Y-16260174D01*
X9639229Y-16260174D02*
X9648753Y-16222079D01*
X9648753Y-16222079D02*
X9658277Y-16203031D01*
X9658277Y-16203031D02*
X9667801Y-16193508D01*
X9667801Y-16193508D02*
X9686848Y-16183984D01*
X9943991Y-16383984D02*
X9829706Y-16383984D01*
X9886848Y-16383984D02*
X9886848Y-16183984D01*
X9886848Y-16183984D02*
X9867801Y-16212555D01*
X9867801Y-16212555D02*
X9848753Y-16231603D01*
X9848753Y-16231603D02*
X9829706Y-16241127D01*
X10134468Y-16383984D02*
X10020182Y-16383984D01*
X10077325Y-16383984D02*
X10077325Y-16183984D01*
X10077325Y-16183984D02*
X10058277Y-16212555D01*
X10058277Y-16212555D02*
X10039229Y-16231603D01*
X10039229Y-16231603D02*
X10020182Y-16241127D01*
X10248753Y-16269698D02*
X10229706Y-16260174D01*
X10229706Y-16260174D02*
X10220182Y-16250650D01*
X10220182Y-16250650D02*
X10210658Y-16231603D01*
X10210658Y-16231603D02*
X10210658Y-16222079D01*
X10210658Y-16222079D02*
X10220182Y-16203031D01*
X10220182Y-16203031D02*
X10229706Y-16193508D01*
X10229706Y-16193508D02*
X10248753Y-16183984D01*
X10248753Y-16183984D02*
X10286849Y-16183984D01*
X10286849Y-16183984D02*
X10305896Y-16193508D01*
X10305896Y-16193508D02*
X10315420Y-16203031D01*
X10315420Y-16203031D02*
X10324944Y-16222079D01*
X10324944Y-16222079D02*
X10324944Y-16231603D01*
X10324944Y-16231603D02*
X10315420Y-16250650D01*
X10315420Y-16250650D02*
X10305896Y-16260174D01*
X10305896Y-16260174D02*
X10286849Y-16269698D01*
X10286849Y-16269698D02*
X10248753Y-16269698D01*
X10248753Y-16269698D02*
X10229706Y-16279222D01*
X10229706Y-16279222D02*
X10220182Y-16288746D01*
X10220182Y-16288746D02*
X10210658Y-16307793D01*
X10210658Y-16307793D02*
X10210658Y-16345888D01*
X10210658Y-16345888D02*
X10220182Y-16364936D01*
X10220182Y-16364936D02*
X10229706Y-16374460D01*
X10229706Y-16374460D02*
X10248753Y-16383984D01*
X10248753Y-16383984D02*
X10286849Y-16383984D01*
X10286849Y-16383984D02*
X10305896Y-16374460D01*
X10305896Y-16374460D02*
X10315420Y-16364936D01*
X10315420Y-16364936D02*
X10324944Y-16345888D01*
X10324944Y-16345888D02*
X10324944Y-16307793D01*
X10324944Y-16307793D02*
X10315420Y-16288746D01*
X10315420Y-16288746D02*
X10305896Y-16279222D01*
X10305896Y-16279222D02*
X10286849Y-16269698D01*
X10401134Y-16183984D02*
X10401134Y-16222079D01*
X10477325Y-16183984D02*
X10477325Y-16222079D01*
X10772563Y-16460174D02*
X10763039Y-16450650D01*
X10763039Y-16450650D02*
X10743991Y-16422079D01*
X10743991Y-16422079D02*
X10734468Y-16403031D01*
X10734468Y-16403031D02*
X10724944Y-16374460D01*
X10724944Y-16374460D02*
X10715420Y-16326841D01*
X10715420Y-16326841D02*
X10715420Y-16288746D01*
X10715420Y-16288746D02*
X10724944Y-16241127D01*
X10724944Y-16241127D02*
X10734468Y-16212555D01*
X10734468Y-16212555D02*
X10743991Y-16193508D01*
X10743991Y-16193508D02*
X10763039Y-16164936D01*
X10763039Y-16164936D02*
X10772563Y-16155412D01*
X10934468Y-16250650D02*
X10934468Y-16383984D01*
X10886849Y-16174460D02*
X10839230Y-16317317D01*
X10839230Y-16317317D02*
X10963039Y-16317317D01*
X11143991Y-16383984D02*
X11029706Y-16383984D01*
X11086849Y-16383984D02*
X11086849Y-16183984D01*
X11086849Y-16183984D02*
X11067801Y-16212555D01*
X11067801Y-16212555D02*
X11048753Y-16231603D01*
X11048753Y-16231603D02*
X11029706Y-16241127D01*
X11324944Y-16183984D02*
X11229706Y-16183984D01*
X11229706Y-16183984D02*
X11220182Y-16279222D01*
X11220182Y-16279222D02*
X11229706Y-16269698D01*
X11229706Y-16269698D02*
X11248753Y-16260174D01*
X11248753Y-16260174D02*
X11296372Y-16260174D01*
X11296372Y-16260174D02*
X11315420Y-16269698D01*
X11315420Y-16269698D02*
X11324944Y-16279222D01*
X11324944Y-16279222D02*
X11334468Y-16298269D01*
X11334468Y-16298269D02*
X11334468Y-16345888D01*
X11334468Y-16345888D02*
X11324944Y-16364936D01*
X11324944Y-16364936D02*
X11315420Y-16374460D01*
X11315420Y-16374460D02*
X11296372Y-16383984D01*
X11296372Y-16383984D02*
X11248753Y-16383984D01*
X11248753Y-16383984D02*
X11229706Y-16374460D01*
X11229706Y-16374460D02*
X11220182Y-16364936D01*
X11572563Y-16383984D02*
X11572563Y-16183984D01*
X11658277Y-16383984D02*
X11658277Y-16279222D01*
X11658277Y-16279222D02*
X11648753Y-16260174D01*
X11648753Y-16260174D02*
X11629706Y-16250650D01*
X11629706Y-16250650D02*
X11601134Y-16250650D01*
X11601134Y-16250650D02*
X11582087Y-16260174D01*
X11582087Y-16260174D02*
X11572563Y-16269698D01*
X11782087Y-16383984D02*
X11763039Y-16374460D01*
X11763039Y-16374460D02*
X11753515Y-16364936D01*
X11753515Y-16364936D02*
X11743991Y-16345888D01*
X11743991Y-16345888D02*
X11743991Y-16288746D01*
X11743991Y-16288746D02*
X11753515Y-16269698D01*
X11753515Y-16269698D02*
X11763039Y-16260174D01*
X11763039Y-16260174D02*
X11782087Y-16250650D01*
X11782087Y-16250650D02*
X11810658Y-16250650D01*
X11810658Y-16250650D02*
X11829706Y-16260174D01*
X11829706Y-16260174D02*
X11839230Y-16269698D01*
X11839230Y-16269698D02*
X11848753Y-16288746D01*
X11848753Y-16288746D02*
X11848753Y-16345888D01*
X11848753Y-16345888D02*
X11839230Y-16364936D01*
X11839230Y-16364936D02*
X11829706Y-16374460D01*
X11829706Y-16374460D02*
X11810658Y-16383984D01*
X11810658Y-16383984D02*
X11782087Y-16383984D01*
X11963039Y-16383984D02*
X11943991Y-16374460D01*
X11943991Y-16374460D02*
X11934468Y-16355412D01*
X11934468Y-16355412D02*
X11934468Y-16183984D01*
X12115420Y-16374460D02*
X12096372Y-16383984D01*
X12096372Y-16383984D02*
X12058277Y-16383984D01*
X12058277Y-16383984D02*
X12039230Y-16374460D01*
X12039230Y-16374460D02*
X12029706Y-16355412D01*
X12029706Y-16355412D02*
X12029706Y-16279222D01*
X12029706Y-16279222D02*
X12039230Y-16260174D01*
X12039230Y-16260174D02*
X12058277Y-16250650D01*
X12058277Y-16250650D02*
X12096372Y-16250650D01*
X12096372Y-16250650D02*
X12115420Y-16260174D01*
X12115420Y-16260174D02*
X12124944Y-16279222D01*
X12124944Y-16279222D02*
X12124944Y-16298269D01*
X12124944Y-16298269D02*
X12029706Y-16317317D01*
X12201134Y-16374460D02*
X12220182Y-16383984D01*
X12220182Y-16383984D02*
X12258277Y-16383984D01*
X12258277Y-16383984D02*
X12277325Y-16374460D01*
X12277325Y-16374460D02*
X12286849Y-16355412D01*
X12286849Y-16355412D02*
X12286849Y-16345888D01*
X12286849Y-16345888D02*
X12277325Y-16326841D01*
X12277325Y-16326841D02*
X12258277Y-16317317D01*
X12258277Y-16317317D02*
X12229706Y-16317317D01*
X12229706Y-16317317D02*
X12210658Y-16307793D01*
X12210658Y-16307793D02*
X12201134Y-16288746D01*
X12201134Y-16288746D02*
X12201134Y-16279222D01*
X12201134Y-16279222D02*
X12210658Y-16260174D01*
X12210658Y-16260174D02*
X12229706Y-16250650D01*
X12229706Y-16250650D02*
X12258277Y-16250650D01*
X12258277Y-16250650D02*
X12277325Y-16260174D01*
X12353515Y-16460174D02*
X12363039Y-16450650D01*
X12363039Y-16450650D02*
X12382087Y-16422079D01*
X12382087Y-16422079D02*
X12391611Y-16403031D01*
X12391611Y-16403031D02*
X12401134Y-16374460D01*
X12401134Y-16374460D02*
X12410658Y-16326841D01*
X12410658Y-16326841D02*
X12410658Y-16288746D01*
X12410658Y-16288746D02*
X12401134Y-16241127D01*
X12401134Y-16241127D02*
X12391611Y-16212555D01*
X12391611Y-16212555D02*
X12382087Y-16193508D01*
X12382087Y-16193508D02*
X12363039Y-16164936D01*
X12363039Y-16164936D02*
X12353515Y-16155412D01*
D12*
X7197500Y-16556500D02*
G75*
G02*
X7127500Y-16556500I-35000J0D01*
G01*
X7127500Y-16556500D02*
G75*
G02*
X7197500Y-16556500I35000J0D01*
G01*
D11*
X7496372Y-16447984D02*
X7515420Y-16447984D01*
X7515420Y-16447984D02*
X7534467Y-16457508D01*
X7534467Y-16457508D02*
X7543991Y-16467031D01*
X7543991Y-16467031D02*
X7553515Y-16486079D01*
X7553515Y-16486079D02*
X7563039Y-16524174D01*
X7563039Y-16524174D02*
X7563039Y-16571793D01*
X7563039Y-16571793D02*
X7553515Y-16609888D01*
X7553515Y-16609888D02*
X7543991Y-16628936D01*
X7543991Y-16628936D02*
X7534467Y-16638460D01*
X7534467Y-16638460D02*
X7515420Y-16647984D01*
X7515420Y-16647984D02*
X7496372Y-16647984D01*
X7496372Y-16647984D02*
X7477324Y-16638460D01*
X7477324Y-16638460D02*
X7467801Y-16628936D01*
X7467801Y-16628936D02*
X7458277Y-16609888D01*
X7458277Y-16609888D02*
X7448753Y-16571793D01*
X7448753Y-16571793D02*
X7448753Y-16524174D01*
X7448753Y-16524174D02*
X7458277Y-16486079D01*
X7458277Y-16486079D02*
X7467801Y-16467031D01*
X7467801Y-16467031D02*
X7477324Y-16457508D01*
X7477324Y-16457508D02*
X7496372Y-16447984D01*
X7648753Y-16628936D02*
X7658277Y-16638460D01*
X7658277Y-16638460D02*
X7648753Y-16647984D01*
X7648753Y-16647984D02*
X7639229Y-16638460D01*
X7639229Y-16638460D02*
X7648753Y-16628936D01*
X7648753Y-16628936D02*
X7648753Y-16647984D01*
X7724943Y-16447984D02*
X7858277Y-16447984D01*
X7858277Y-16447984D02*
X7772562Y-16647984D01*
X7972562Y-16447984D02*
X7991610Y-16447984D01*
X7991610Y-16447984D02*
X8010658Y-16457508D01*
X8010658Y-16457508D02*
X8020182Y-16467031D01*
X8020182Y-16467031D02*
X8029705Y-16486079D01*
X8029705Y-16486079D02*
X8039229Y-16524174D01*
X8039229Y-16524174D02*
X8039229Y-16571793D01*
X8039229Y-16571793D02*
X8029705Y-16609888D01*
X8029705Y-16609888D02*
X8020182Y-16628936D01*
X8020182Y-16628936D02*
X8010658Y-16638460D01*
X8010658Y-16638460D02*
X7991610Y-16647984D01*
X7991610Y-16647984D02*
X7972562Y-16647984D01*
X7972562Y-16647984D02*
X7953515Y-16638460D01*
X7953515Y-16638460D02*
X7943991Y-16628936D01*
X7943991Y-16628936D02*
X7934467Y-16609888D01*
X7934467Y-16609888D02*
X7924943Y-16571793D01*
X7924943Y-16571793D02*
X7924943Y-16524174D01*
X7924943Y-16524174D02*
X7934467Y-16486079D01*
X7934467Y-16486079D02*
X7943991Y-16467031D01*
X7943991Y-16467031D02*
X7953515Y-16457508D01*
X7953515Y-16457508D02*
X7972562Y-16447984D01*
X8163039Y-16447984D02*
X8182086Y-16447984D01*
X8182086Y-16447984D02*
X8201134Y-16457508D01*
X8201134Y-16457508D02*
X8210658Y-16467031D01*
X8210658Y-16467031D02*
X8220182Y-16486079D01*
X8220182Y-16486079D02*
X8229705Y-16524174D01*
X8229705Y-16524174D02*
X8229705Y-16571793D01*
X8229705Y-16571793D02*
X8220182Y-16609888D01*
X8220182Y-16609888D02*
X8210658Y-16628936D01*
X8210658Y-16628936D02*
X8201134Y-16638460D01*
X8201134Y-16638460D02*
X8182086Y-16647984D01*
X8182086Y-16647984D02*
X8163039Y-16647984D01*
X8163039Y-16647984D02*
X8143991Y-16638460D01*
X8143991Y-16638460D02*
X8134467Y-16628936D01*
X8134467Y-16628936D02*
X8124943Y-16609888D01*
X8124943Y-16609888D02*
X8115420Y-16571793D01*
X8115420Y-16571793D02*
X8115420Y-16524174D01*
X8115420Y-16524174D02*
X8124943Y-16486079D01*
X8124943Y-16486079D02*
X8134467Y-16467031D01*
X8134467Y-16467031D02*
X8143991Y-16457508D01*
X8143991Y-16457508D02*
X8163039Y-16447984D01*
X8315420Y-16647984D02*
X8315420Y-16514650D01*
X8315420Y-16533698D02*
X8324943Y-16524174D01*
X8324943Y-16524174D02*
X8343991Y-16514650D01*
X8343991Y-16514650D02*
X8372563Y-16514650D01*
X8372563Y-16514650D02*
X8391610Y-16524174D01*
X8391610Y-16524174D02*
X8401134Y-16543222D01*
X8401134Y-16543222D02*
X8401134Y-16647984D01*
X8401134Y-16543222D02*
X8410658Y-16524174D01*
X8410658Y-16524174D02*
X8429705Y-16514650D01*
X8429705Y-16514650D02*
X8458277Y-16514650D01*
X8458277Y-16514650D02*
X8477325Y-16524174D01*
X8477325Y-16524174D02*
X8486848Y-16543222D01*
X8486848Y-16543222D02*
X8486848Y-16647984D01*
X8582086Y-16647984D02*
X8582086Y-16514650D01*
X8582086Y-16533698D02*
X8591610Y-16524174D01*
X8591610Y-16524174D02*
X8610658Y-16514650D01*
X8610658Y-16514650D02*
X8639229Y-16514650D01*
X8639229Y-16514650D02*
X8658277Y-16524174D01*
X8658277Y-16524174D02*
X8667801Y-16543222D01*
X8667801Y-16543222D02*
X8667801Y-16647984D01*
X8667801Y-16543222D02*
X8677325Y-16524174D01*
X8677325Y-16524174D02*
X8696372Y-16514650D01*
X8696372Y-16514650D02*
X8724944Y-16514650D01*
X8724944Y-16514650D02*
X8743991Y-16524174D01*
X8743991Y-16524174D02*
X8753515Y-16543222D01*
X8753515Y-16543222D02*
X8753515Y-16647984D01*
X9143991Y-16438460D02*
X8972563Y-16695603D01*
X9401134Y-16447984D02*
X9420182Y-16447984D01*
X9420182Y-16447984D02*
X9439229Y-16457508D01*
X9439229Y-16457508D02*
X9448753Y-16467031D01*
X9448753Y-16467031D02*
X9458277Y-16486079D01*
X9458277Y-16486079D02*
X9467801Y-16524174D01*
X9467801Y-16524174D02*
X9467801Y-16571793D01*
X9467801Y-16571793D02*
X9458277Y-16609888D01*
X9458277Y-16609888D02*
X9448753Y-16628936D01*
X9448753Y-16628936D02*
X9439229Y-16638460D01*
X9439229Y-16638460D02*
X9420182Y-16647984D01*
X9420182Y-16647984D02*
X9401134Y-16647984D01*
X9401134Y-16647984D02*
X9382087Y-16638460D01*
X9382087Y-16638460D02*
X9372563Y-16628936D01*
X9372563Y-16628936D02*
X9363039Y-16609888D01*
X9363039Y-16609888D02*
X9353515Y-16571793D01*
X9353515Y-16571793D02*
X9353515Y-16524174D01*
X9353515Y-16524174D02*
X9363039Y-16486079D01*
X9363039Y-16486079D02*
X9372563Y-16467031D01*
X9372563Y-16467031D02*
X9382087Y-16457508D01*
X9382087Y-16457508D02*
X9401134Y-16447984D01*
X9553515Y-16628936D02*
X9563039Y-16638460D01*
X9563039Y-16638460D02*
X9553515Y-16647984D01*
X9553515Y-16647984D02*
X9543991Y-16638460D01*
X9543991Y-16638460D02*
X9553515Y-16628936D01*
X9553515Y-16628936D02*
X9553515Y-16647984D01*
X9686848Y-16447984D02*
X9705896Y-16447984D01*
X9705896Y-16447984D02*
X9724944Y-16457508D01*
X9724944Y-16457508D02*
X9734468Y-16467031D01*
X9734468Y-16467031D02*
X9743991Y-16486079D01*
X9743991Y-16486079D02*
X9753515Y-16524174D01*
X9753515Y-16524174D02*
X9753515Y-16571793D01*
X9753515Y-16571793D02*
X9743991Y-16609888D01*
X9743991Y-16609888D02*
X9734468Y-16628936D01*
X9734468Y-16628936D02*
X9724944Y-16638460D01*
X9724944Y-16638460D02*
X9705896Y-16647984D01*
X9705896Y-16647984D02*
X9686848Y-16647984D01*
X9686848Y-16647984D02*
X9667801Y-16638460D01*
X9667801Y-16638460D02*
X9658277Y-16628936D01*
X9658277Y-16628936D02*
X9648753Y-16609888D01*
X9648753Y-16609888D02*
X9639229Y-16571793D01*
X9639229Y-16571793D02*
X9639229Y-16524174D01*
X9639229Y-16524174D02*
X9648753Y-16486079D01*
X9648753Y-16486079D02*
X9658277Y-16467031D01*
X9658277Y-16467031D02*
X9667801Y-16457508D01*
X9667801Y-16457508D02*
X9686848Y-16447984D01*
X9829706Y-16467031D02*
X9839229Y-16457508D01*
X9839229Y-16457508D02*
X9858277Y-16447984D01*
X9858277Y-16447984D02*
X9905896Y-16447984D01*
X9905896Y-16447984D02*
X9924944Y-16457508D01*
X9924944Y-16457508D02*
X9934468Y-16467031D01*
X9934468Y-16467031D02*
X9943991Y-16486079D01*
X9943991Y-16486079D02*
X9943991Y-16505127D01*
X9943991Y-16505127D02*
X9934468Y-16533698D01*
X9934468Y-16533698D02*
X9820182Y-16647984D01*
X9820182Y-16647984D02*
X9943991Y-16647984D01*
X10010658Y-16447984D02*
X10143991Y-16447984D01*
X10143991Y-16447984D02*
X10058277Y-16647984D01*
X10305896Y-16447984D02*
X10267801Y-16447984D01*
X10267801Y-16447984D02*
X10248753Y-16457508D01*
X10248753Y-16457508D02*
X10239229Y-16467031D01*
X10239229Y-16467031D02*
X10220182Y-16495603D01*
X10220182Y-16495603D02*
X10210658Y-16533698D01*
X10210658Y-16533698D02*
X10210658Y-16609888D01*
X10210658Y-16609888D02*
X10220182Y-16628936D01*
X10220182Y-16628936D02*
X10229706Y-16638460D01*
X10229706Y-16638460D02*
X10248753Y-16647984D01*
X10248753Y-16647984D02*
X10286849Y-16647984D01*
X10286849Y-16647984D02*
X10305896Y-16638460D01*
X10305896Y-16638460D02*
X10315420Y-16628936D01*
X10315420Y-16628936D02*
X10324944Y-16609888D01*
X10324944Y-16609888D02*
X10324944Y-16562269D01*
X10324944Y-16562269D02*
X10315420Y-16543222D01*
X10315420Y-16543222D02*
X10305896Y-16533698D01*
X10305896Y-16533698D02*
X10286849Y-16524174D01*
X10286849Y-16524174D02*
X10248753Y-16524174D01*
X10248753Y-16524174D02*
X10229706Y-16533698D01*
X10229706Y-16533698D02*
X10220182Y-16543222D01*
X10220182Y-16543222D02*
X10210658Y-16562269D01*
X10401134Y-16447984D02*
X10401134Y-16486079D01*
X10477325Y-16447984D02*
X10477325Y-16486079D01*
X10772563Y-16724174D02*
X10763039Y-16714650D01*
X10763039Y-16714650D02*
X10743991Y-16686079D01*
X10743991Y-16686079D02*
X10734468Y-16667031D01*
X10734468Y-16667031D02*
X10724944Y-16638460D01*
X10724944Y-16638460D02*
X10715420Y-16590841D01*
X10715420Y-16590841D02*
X10715420Y-16552746D01*
X10715420Y-16552746D02*
X10724944Y-16505127D01*
X10724944Y-16505127D02*
X10734468Y-16476555D01*
X10734468Y-16476555D02*
X10743991Y-16457508D01*
X10743991Y-16457508D02*
X10763039Y-16428936D01*
X10763039Y-16428936D02*
X10772563Y-16419412D01*
X10829706Y-16447984D02*
X10953515Y-16447984D01*
X10953515Y-16447984D02*
X10886849Y-16524174D01*
X10886849Y-16524174D02*
X10915420Y-16524174D01*
X10915420Y-16524174D02*
X10934468Y-16533698D01*
X10934468Y-16533698D02*
X10943991Y-16543222D01*
X10943991Y-16543222D02*
X10953515Y-16562269D01*
X10953515Y-16562269D02*
X10953515Y-16609888D01*
X10953515Y-16609888D02*
X10943991Y-16628936D01*
X10943991Y-16628936D02*
X10934468Y-16638460D01*
X10934468Y-16638460D02*
X10915420Y-16647984D01*
X10915420Y-16647984D02*
X10858277Y-16647984D01*
X10858277Y-16647984D02*
X10839230Y-16638460D01*
X10839230Y-16638460D02*
X10829706Y-16628936D01*
X11191610Y-16647984D02*
X11191610Y-16447984D01*
X11277325Y-16647984D02*
X11277325Y-16543222D01*
X11277325Y-16543222D02*
X11267801Y-16524174D01*
X11267801Y-16524174D02*
X11248753Y-16514650D01*
X11248753Y-16514650D02*
X11220182Y-16514650D01*
X11220182Y-16514650D02*
X11201134Y-16524174D01*
X11201134Y-16524174D02*
X11191610Y-16533698D01*
X11401134Y-16647984D02*
X11382087Y-16638460D01*
X11382087Y-16638460D02*
X11372563Y-16628936D01*
X11372563Y-16628936D02*
X11363039Y-16609888D01*
X11363039Y-16609888D02*
X11363039Y-16552746D01*
X11363039Y-16552746D02*
X11372563Y-16533698D01*
X11372563Y-16533698D02*
X11382087Y-16524174D01*
X11382087Y-16524174D02*
X11401134Y-16514650D01*
X11401134Y-16514650D02*
X11429706Y-16514650D01*
X11429706Y-16514650D02*
X11448753Y-16524174D01*
X11448753Y-16524174D02*
X11458277Y-16533698D01*
X11458277Y-16533698D02*
X11467801Y-16552746D01*
X11467801Y-16552746D02*
X11467801Y-16609888D01*
X11467801Y-16609888D02*
X11458277Y-16628936D01*
X11458277Y-16628936D02*
X11448753Y-16638460D01*
X11448753Y-16638460D02*
X11429706Y-16647984D01*
X11429706Y-16647984D02*
X11401134Y-16647984D01*
X11582087Y-16647984D02*
X11563039Y-16638460D01*
X11563039Y-16638460D02*
X11553515Y-16619412D01*
X11553515Y-16619412D02*
X11553515Y-16447984D01*
X11734468Y-16638460D02*
X11715420Y-16647984D01*
X11715420Y-16647984D02*
X11677325Y-16647984D01*
X11677325Y-16647984D02*
X11658277Y-16638460D01*
X11658277Y-16638460D02*
X11648753Y-16619412D01*
X11648753Y-16619412D02*
X11648753Y-16543222D01*
X11648753Y-16543222D02*
X11658277Y-16524174D01*
X11658277Y-16524174D02*
X11677325Y-16514650D01*
X11677325Y-16514650D02*
X11715420Y-16514650D01*
X11715420Y-16514650D02*
X11734468Y-16524174D01*
X11734468Y-16524174D02*
X11743991Y-16543222D01*
X11743991Y-16543222D02*
X11743991Y-16562269D01*
X11743991Y-16562269D02*
X11648753Y-16581317D01*
X11820182Y-16638460D02*
X11839230Y-16647984D01*
X11839230Y-16647984D02*
X11877325Y-16647984D01*
X11877325Y-16647984D02*
X11896372Y-16638460D01*
X11896372Y-16638460D02*
X11905896Y-16619412D01*
X11905896Y-16619412D02*
X11905896Y-16609888D01*
X11905896Y-16609888D02*
X11896372Y-16590841D01*
X11896372Y-16590841D02*
X11877325Y-16581317D01*
X11877325Y-16581317D02*
X11848753Y-16581317D01*
X11848753Y-16581317D02*
X11829706Y-16571793D01*
X11829706Y-16571793D02*
X11820182Y-16552746D01*
X11820182Y-16552746D02*
X11820182Y-16543222D01*
X11820182Y-16543222D02*
X11829706Y-16524174D01*
X11829706Y-16524174D02*
X11848753Y-16514650D01*
X11848753Y-16514650D02*
X11877325Y-16514650D01*
X11877325Y-16514650D02*
X11896372Y-16524174D01*
X11972563Y-16724174D02*
X11982087Y-16714650D01*
X11982087Y-16714650D02*
X12001134Y-16686079D01*
X12001134Y-16686079D02*
X12010658Y-16667031D01*
X12010658Y-16667031D02*
X12020182Y-16638460D01*
X12020182Y-16638460D02*
X12029706Y-16590841D01*
X12029706Y-16590841D02*
X12029706Y-16552746D01*
X12029706Y-16552746D02*
X12020182Y-16505127D01*
X12020182Y-16505127D02*
X12010658Y-16476555D01*
X12010658Y-16476555D02*
X12001134Y-16457508D01*
X12001134Y-16457508D02*
X11982087Y-16428936D01*
X11982087Y-16428936D02*
X11972563Y-16419412D01*
D12*
X7157500Y-16780500D02*
X7157500Y-16860500D01*
X7117500Y-16820500D02*
X7197500Y-16820500D01*
D11*
X7496372Y-16711984D02*
X7515420Y-16711984D01*
X7515420Y-16711984D02*
X7534467Y-16721508D01*
X7534467Y-16721508D02*
X7543991Y-16731031D01*
X7543991Y-16731031D02*
X7553515Y-16750079D01*
X7553515Y-16750079D02*
X7563039Y-16788174D01*
X7563039Y-16788174D02*
X7563039Y-16835793D01*
X7563039Y-16835793D02*
X7553515Y-16873889D01*
X7553515Y-16873889D02*
X7543991Y-16892936D01*
X7543991Y-16892936D02*
X7534467Y-16902460D01*
X7534467Y-16902460D02*
X7515420Y-16911984D01*
X7515420Y-16911984D02*
X7496372Y-16911984D01*
X7496372Y-16911984D02*
X7477324Y-16902460D01*
X7477324Y-16902460D02*
X7467801Y-16892936D01*
X7467801Y-16892936D02*
X7458277Y-16873889D01*
X7458277Y-16873889D02*
X7448753Y-16835793D01*
X7448753Y-16835793D02*
X7448753Y-16788174D01*
X7448753Y-16788174D02*
X7458277Y-16750079D01*
X7458277Y-16750079D02*
X7467801Y-16731031D01*
X7467801Y-16731031D02*
X7477324Y-16721508D01*
X7477324Y-16721508D02*
X7496372Y-16711984D01*
X7648753Y-16892936D02*
X7658277Y-16902460D01*
X7658277Y-16902460D02*
X7648753Y-16911984D01*
X7648753Y-16911984D02*
X7639229Y-16902460D01*
X7639229Y-16902460D02*
X7648753Y-16892936D01*
X7648753Y-16892936D02*
X7648753Y-16911984D01*
X7772562Y-16797698D02*
X7753515Y-16788174D01*
X7753515Y-16788174D02*
X7743991Y-16778650D01*
X7743991Y-16778650D02*
X7734467Y-16759603D01*
X7734467Y-16759603D02*
X7734467Y-16750079D01*
X7734467Y-16750079D02*
X7743991Y-16731031D01*
X7743991Y-16731031D02*
X7753515Y-16721508D01*
X7753515Y-16721508D02*
X7772562Y-16711984D01*
X7772562Y-16711984D02*
X7810658Y-16711984D01*
X7810658Y-16711984D02*
X7829705Y-16721508D01*
X7829705Y-16721508D02*
X7839229Y-16731031D01*
X7839229Y-16731031D02*
X7848753Y-16750079D01*
X7848753Y-16750079D02*
X7848753Y-16759603D01*
X7848753Y-16759603D02*
X7839229Y-16778650D01*
X7839229Y-16778650D02*
X7829705Y-16788174D01*
X7829705Y-16788174D02*
X7810658Y-16797698D01*
X7810658Y-16797698D02*
X7772562Y-16797698D01*
X7772562Y-16797698D02*
X7753515Y-16807222D01*
X7753515Y-16807222D02*
X7743991Y-16816746D01*
X7743991Y-16816746D02*
X7734467Y-16835793D01*
X7734467Y-16835793D02*
X7734467Y-16873889D01*
X7734467Y-16873889D02*
X7743991Y-16892936D01*
X7743991Y-16892936D02*
X7753515Y-16902460D01*
X7753515Y-16902460D02*
X7772562Y-16911984D01*
X7772562Y-16911984D02*
X7810658Y-16911984D01*
X7810658Y-16911984D02*
X7829705Y-16902460D01*
X7829705Y-16902460D02*
X7839229Y-16892936D01*
X7839229Y-16892936D02*
X7848753Y-16873889D01*
X7848753Y-16873889D02*
X7848753Y-16835793D01*
X7848753Y-16835793D02*
X7839229Y-16816746D01*
X7839229Y-16816746D02*
X7829705Y-16807222D01*
X7829705Y-16807222D02*
X7810658Y-16797698D01*
X7972562Y-16711984D02*
X7991610Y-16711984D01*
X7991610Y-16711984D02*
X8010658Y-16721508D01*
X8010658Y-16721508D02*
X8020182Y-16731031D01*
X8020182Y-16731031D02*
X8029705Y-16750079D01*
X8029705Y-16750079D02*
X8039229Y-16788174D01*
X8039229Y-16788174D02*
X8039229Y-16835793D01*
X8039229Y-16835793D02*
X8029705Y-16873889D01*
X8029705Y-16873889D02*
X8020182Y-16892936D01*
X8020182Y-16892936D02*
X8010658Y-16902460D01*
X8010658Y-16902460D02*
X7991610Y-16911984D01*
X7991610Y-16911984D02*
X7972562Y-16911984D01*
X7972562Y-16911984D02*
X7953515Y-16902460D01*
X7953515Y-16902460D02*
X7943991Y-16892936D01*
X7943991Y-16892936D02*
X7934467Y-16873889D01*
X7934467Y-16873889D02*
X7924943Y-16835793D01*
X7924943Y-16835793D02*
X7924943Y-16788174D01*
X7924943Y-16788174D02*
X7934467Y-16750079D01*
X7934467Y-16750079D02*
X7943991Y-16731031D01*
X7943991Y-16731031D02*
X7953515Y-16721508D01*
X7953515Y-16721508D02*
X7972562Y-16711984D01*
X8163039Y-16711984D02*
X8182086Y-16711984D01*
X8182086Y-16711984D02*
X8201134Y-16721508D01*
X8201134Y-16721508D02*
X8210658Y-16731031D01*
X8210658Y-16731031D02*
X8220182Y-16750079D01*
X8220182Y-16750079D02*
X8229705Y-16788174D01*
X8229705Y-16788174D02*
X8229705Y-16835793D01*
X8229705Y-16835793D02*
X8220182Y-16873889D01*
X8220182Y-16873889D02*
X8210658Y-16892936D01*
X8210658Y-16892936D02*
X8201134Y-16902460D01*
X8201134Y-16902460D02*
X8182086Y-16911984D01*
X8182086Y-16911984D02*
X8163039Y-16911984D01*
X8163039Y-16911984D02*
X8143991Y-16902460D01*
X8143991Y-16902460D02*
X8134467Y-16892936D01*
X8134467Y-16892936D02*
X8124943Y-16873889D01*
X8124943Y-16873889D02*
X8115420Y-16835793D01*
X8115420Y-16835793D02*
X8115420Y-16788174D01*
X8115420Y-16788174D02*
X8124943Y-16750079D01*
X8124943Y-16750079D02*
X8134467Y-16731031D01*
X8134467Y-16731031D02*
X8143991Y-16721508D01*
X8143991Y-16721508D02*
X8163039Y-16711984D01*
X8315420Y-16911984D02*
X8315420Y-16778650D01*
X8315420Y-16797698D02*
X8324943Y-16788174D01*
X8324943Y-16788174D02*
X8343991Y-16778650D01*
X8343991Y-16778650D02*
X8372563Y-16778650D01*
X8372563Y-16778650D02*
X8391610Y-16788174D01*
X8391610Y-16788174D02*
X8401134Y-16807222D01*
X8401134Y-16807222D02*
X8401134Y-16911984D01*
X8401134Y-16807222D02*
X8410658Y-16788174D01*
X8410658Y-16788174D02*
X8429705Y-16778650D01*
X8429705Y-16778650D02*
X8458277Y-16778650D01*
X8458277Y-16778650D02*
X8477325Y-16788174D01*
X8477325Y-16788174D02*
X8486848Y-16807222D01*
X8486848Y-16807222D02*
X8486848Y-16911984D01*
X8582086Y-16911984D02*
X8582086Y-16778650D01*
X8582086Y-16797698D02*
X8591610Y-16788174D01*
X8591610Y-16788174D02*
X8610658Y-16778650D01*
X8610658Y-16778650D02*
X8639229Y-16778650D01*
X8639229Y-16778650D02*
X8658277Y-16788174D01*
X8658277Y-16788174D02*
X8667801Y-16807222D01*
X8667801Y-16807222D02*
X8667801Y-16911984D01*
X8667801Y-16807222D02*
X8677325Y-16788174D01*
X8677325Y-16788174D02*
X8696372Y-16778650D01*
X8696372Y-16778650D02*
X8724944Y-16778650D01*
X8724944Y-16778650D02*
X8743991Y-16788174D01*
X8743991Y-16788174D02*
X8753515Y-16807222D01*
X8753515Y-16807222D02*
X8753515Y-16911984D01*
X9143991Y-16702460D02*
X8972563Y-16959603D01*
X9401134Y-16711984D02*
X9420182Y-16711984D01*
X9420182Y-16711984D02*
X9439229Y-16721508D01*
X9439229Y-16721508D02*
X9448753Y-16731031D01*
X9448753Y-16731031D02*
X9458277Y-16750079D01*
X9458277Y-16750079D02*
X9467801Y-16788174D01*
X9467801Y-16788174D02*
X9467801Y-16835793D01*
X9467801Y-16835793D02*
X9458277Y-16873889D01*
X9458277Y-16873889D02*
X9448753Y-16892936D01*
X9448753Y-16892936D02*
X9439229Y-16902460D01*
X9439229Y-16902460D02*
X9420182Y-16911984D01*
X9420182Y-16911984D02*
X9401134Y-16911984D01*
X9401134Y-16911984D02*
X9382087Y-16902460D01*
X9382087Y-16902460D02*
X9372563Y-16892936D01*
X9372563Y-16892936D02*
X9363039Y-16873889D01*
X9363039Y-16873889D02*
X9353515Y-16835793D01*
X9353515Y-16835793D02*
X9353515Y-16788174D01*
X9353515Y-16788174D02*
X9363039Y-16750079D01*
X9363039Y-16750079D02*
X9372563Y-16731031D01*
X9372563Y-16731031D02*
X9382087Y-16721508D01*
X9382087Y-16721508D02*
X9401134Y-16711984D01*
X9553515Y-16892936D02*
X9563039Y-16902460D01*
X9563039Y-16902460D02*
X9553515Y-16911984D01*
X9553515Y-16911984D02*
X9543991Y-16902460D01*
X9543991Y-16902460D02*
X9553515Y-16892936D01*
X9553515Y-16892936D02*
X9553515Y-16911984D01*
X9686848Y-16711984D02*
X9705896Y-16711984D01*
X9705896Y-16711984D02*
X9724944Y-16721508D01*
X9724944Y-16721508D02*
X9734468Y-16731031D01*
X9734468Y-16731031D02*
X9743991Y-16750079D01*
X9743991Y-16750079D02*
X9753515Y-16788174D01*
X9753515Y-16788174D02*
X9753515Y-16835793D01*
X9753515Y-16835793D02*
X9743991Y-16873889D01*
X9743991Y-16873889D02*
X9734468Y-16892936D01*
X9734468Y-16892936D02*
X9724944Y-16902460D01*
X9724944Y-16902460D02*
X9705896Y-16911984D01*
X9705896Y-16911984D02*
X9686848Y-16911984D01*
X9686848Y-16911984D02*
X9667801Y-16902460D01*
X9667801Y-16902460D02*
X9658277Y-16892936D01*
X9658277Y-16892936D02*
X9648753Y-16873889D01*
X9648753Y-16873889D02*
X9639229Y-16835793D01*
X9639229Y-16835793D02*
X9639229Y-16788174D01*
X9639229Y-16788174D02*
X9648753Y-16750079D01*
X9648753Y-16750079D02*
X9658277Y-16731031D01*
X9658277Y-16731031D02*
X9667801Y-16721508D01*
X9667801Y-16721508D02*
X9686848Y-16711984D01*
X9820182Y-16711984D02*
X9943991Y-16711984D01*
X9943991Y-16711984D02*
X9877325Y-16788174D01*
X9877325Y-16788174D02*
X9905896Y-16788174D01*
X9905896Y-16788174D02*
X9924944Y-16797698D01*
X9924944Y-16797698D02*
X9934468Y-16807222D01*
X9934468Y-16807222D02*
X9943991Y-16826270D01*
X9943991Y-16826270D02*
X9943991Y-16873889D01*
X9943991Y-16873889D02*
X9934468Y-16892936D01*
X9934468Y-16892936D02*
X9924944Y-16902460D01*
X9924944Y-16902460D02*
X9905896Y-16911984D01*
X9905896Y-16911984D02*
X9848753Y-16911984D01*
X9848753Y-16911984D02*
X9829706Y-16902460D01*
X9829706Y-16902460D02*
X9820182Y-16892936D01*
X10134468Y-16911984D02*
X10020182Y-16911984D01*
X10077325Y-16911984D02*
X10077325Y-16711984D01*
X10077325Y-16711984D02*
X10058277Y-16740555D01*
X10058277Y-16740555D02*
X10039229Y-16759603D01*
X10039229Y-16759603D02*
X10020182Y-16769127D01*
X10315420Y-16711984D02*
X10220182Y-16711984D01*
X10220182Y-16711984D02*
X10210658Y-16807222D01*
X10210658Y-16807222D02*
X10220182Y-16797698D01*
X10220182Y-16797698D02*
X10239229Y-16788174D01*
X10239229Y-16788174D02*
X10286849Y-16788174D01*
X10286849Y-16788174D02*
X10305896Y-16797698D01*
X10305896Y-16797698D02*
X10315420Y-16807222D01*
X10315420Y-16807222D02*
X10324944Y-16826270D01*
X10324944Y-16826270D02*
X10324944Y-16873889D01*
X10324944Y-16873889D02*
X10315420Y-16892936D01*
X10315420Y-16892936D02*
X10305896Y-16902460D01*
X10305896Y-16902460D02*
X10286849Y-16911984D01*
X10286849Y-16911984D02*
X10239229Y-16911984D01*
X10239229Y-16911984D02*
X10220182Y-16902460D01*
X10220182Y-16902460D02*
X10210658Y-16892936D01*
X10401134Y-16711984D02*
X10401134Y-16750079D01*
X10477325Y-16711984D02*
X10477325Y-16750079D01*
X10772563Y-16988174D02*
X10763039Y-16978650D01*
X10763039Y-16978650D02*
X10743991Y-16950079D01*
X10743991Y-16950079D02*
X10734468Y-16931031D01*
X10734468Y-16931031D02*
X10724944Y-16902460D01*
X10724944Y-16902460D02*
X10715420Y-16854841D01*
X10715420Y-16854841D02*
X10715420Y-16816746D01*
X10715420Y-16816746D02*
X10724944Y-16769127D01*
X10724944Y-16769127D02*
X10734468Y-16740555D01*
X10734468Y-16740555D02*
X10743991Y-16721508D01*
X10743991Y-16721508D02*
X10763039Y-16692936D01*
X10763039Y-16692936D02*
X10772563Y-16683412D01*
X10839230Y-16731031D02*
X10848753Y-16721508D01*
X10848753Y-16721508D02*
X10867801Y-16711984D01*
X10867801Y-16711984D02*
X10915420Y-16711984D01*
X10915420Y-16711984D02*
X10934468Y-16721508D01*
X10934468Y-16721508D02*
X10943991Y-16731031D01*
X10943991Y-16731031D02*
X10953515Y-16750079D01*
X10953515Y-16750079D02*
X10953515Y-16769127D01*
X10953515Y-16769127D02*
X10943991Y-16797698D01*
X10943991Y-16797698D02*
X10829706Y-16911984D01*
X10829706Y-16911984D02*
X10953515Y-16911984D01*
X11020182Y-16711984D02*
X11143991Y-16711984D01*
X11143991Y-16711984D02*
X11077325Y-16788174D01*
X11077325Y-16788174D02*
X11105896Y-16788174D01*
X11105896Y-16788174D02*
X11124944Y-16797698D01*
X11124944Y-16797698D02*
X11134468Y-16807222D01*
X11134468Y-16807222D02*
X11143991Y-16826270D01*
X11143991Y-16826270D02*
X11143991Y-16873889D01*
X11143991Y-16873889D02*
X11134468Y-16892936D01*
X11134468Y-16892936D02*
X11124944Y-16902460D01*
X11124944Y-16902460D02*
X11105896Y-16911984D01*
X11105896Y-16911984D02*
X11048753Y-16911984D01*
X11048753Y-16911984D02*
X11029706Y-16902460D01*
X11029706Y-16902460D02*
X11020182Y-16892936D01*
X11382087Y-16911984D02*
X11382087Y-16711984D01*
X11467801Y-16911984D02*
X11467801Y-16807222D01*
X11467801Y-16807222D02*
X11458277Y-16788174D01*
X11458277Y-16788174D02*
X11439230Y-16778650D01*
X11439230Y-16778650D02*
X11410658Y-16778650D01*
X11410658Y-16778650D02*
X11391610Y-16788174D01*
X11391610Y-16788174D02*
X11382087Y-16797698D01*
X11591610Y-16911984D02*
X11572563Y-16902460D01*
X11572563Y-16902460D02*
X11563039Y-16892936D01*
X11563039Y-16892936D02*
X11553515Y-16873889D01*
X11553515Y-16873889D02*
X11553515Y-16816746D01*
X11553515Y-16816746D02*
X11563039Y-16797698D01*
X11563039Y-16797698D02*
X11572563Y-16788174D01*
X11572563Y-16788174D02*
X11591610Y-16778650D01*
X11591610Y-16778650D02*
X11620182Y-16778650D01*
X11620182Y-16778650D02*
X11639230Y-16788174D01*
X11639230Y-16788174D02*
X11648753Y-16797698D01*
X11648753Y-16797698D02*
X11658277Y-16816746D01*
X11658277Y-16816746D02*
X11658277Y-16873889D01*
X11658277Y-16873889D02*
X11648753Y-16892936D01*
X11648753Y-16892936D02*
X11639230Y-16902460D01*
X11639230Y-16902460D02*
X11620182Y-16911984D01*
X11620182Y-16911984D02*
X11591610Y-16911984D01*
X11772563Y-16911984D02*
X11753515Y-16902460D01*
X11753515Y-16902460D02*
X11743991Y-16883412D01*
X11743991Y-16883412D02*
X11743991Y-16711984D01*
X11924944Y-16902460D02*
X11905896Y-16911984D01*
X11905896Y-16911984D02*
X11867801Y-16911984D01*
X11867801Y-16911984D02*
X11848753Y-16902460D01*
X11848753Y-16902460D02*
X11839230Y-16883412D01*
X11839230Y-16883412D02*
X11839230Y-16807222D01*
X11839230Y-16807222D02*
X11848753Y-16788174D01*
X11848753Y-16788174D02*
X11867801Y-16778650D01*
X11867801Y-16778650D02*
X11905896Y-16778650D01*
X11905896Y-16778650D02*
X11924944Y-16788174D01*
X11924944Y-16788174D02*
X11934468Y-16807222D01*
X11934468Y-16807222D02*
X11934468Y-16826270D01*
X11934468Y-16826270D02*
X11839230Y-16845317D01*
X12010658Y-16902460D02*
X12029706Y-16911984D01*
X12029706Y-16911984D02*
X12067801Y-16911984D01*
X12067801Y-16911984D02*
X12086849Y-16902460D01*
X12086849Y-16902460D02*
X12096372Y-16883412D01*
X12096372Y-16883412D02*
X12096372Y-16873889D01*
X12096372Y-16873889D02*
X12086849Y-16854841D01*
X12086849Y-16854841D02*
X12067801Y-16845317D01*
X12067801Y-16845317D02*
X12039230Y-16845317D01*
X12039230Y-16845317D02*
X12020182Y-16835793D01*
X12020182Y-16835793D02*
X12010658Y-16816746D01*
X12010658Y-16816746D02*
X12010658Y-16807222D01*
X12010658Y-16807222D02*
X12020182Y-16788174D01*
X12020182Y-16788174D02*
X12039230Y-16778650D01*
X12039230Y-16778650D02*
X12067801Y-16778650D01*
X12067801Y-16778650D02*
X12086849Y-16788174D01*
X12163039Y-16988174D02*
X12172563Y-16978650D01*
X12172563Y-16978650D02*
X12191611Y-16950079D01*
X12191611Y-16950079D02*
X12201134Y-16931031D01*
X12201134Y-16931031D02*
X12210658Y-16902460D01*
X12210658Y-16902460D02*
X12220182Y-16854841D01*
X12220182Y-16854841D02*
X12220182Y-16816746D01*
X12220182Y-16816746D02*
X12210658Y-16769127D01*
X12210658Y-16769127D02*
X12201134Y-16740555D01*
X12201134Y-16740555D02*
X12191611Y-16721508D01*
X12191611Y-16721508D02*
X12172563Y-16692936D01*
X12172563Y-16692936D02*
X12163039Y-16683412D01*
D12*
X7182856Y-17119856D02*
X7182856Y-17049144D01*
X7112144Y-17049144D01*
X7112144Y-17119856D01*
X7182856Y-17119856D01*
D11*
X7563039Y-17175984D02*
X7448753Y-17175984D01*
X7505896Y-17175984D02*
X7505896Y-16975984D01*
X7505896Y-16975984D02*
X7486848Y-17004555D01*
X7486848Y-17004555D02*
X7467801Y-17023603D01*
X7467801Y-17023603D02*
X7448753Y-17033127D01*
X7648753Y-17156936D02*
X7658277Y-17166460D01*
X7658277Y-17166460D02*
X7648753Y-17175984D01*
X7648753Y-17175984D02*
X7639229Y-17166460D01*
X7639229Y-17166460D02*
X7648753Y-17156936D01*
X7648753Y-17156936D02*
X7648753Y-17175984D01*
X7782086Y-16975984D02*
X7801134Y-16975984D01*
X7801134Y-16975984D02*
X7820182Y-16985508D01*
X7820182Y-16985508D02*
X7829705Y-16995031D01*
X7829705Y-16995031D02*
X7839229Y-17014079D01*
X7839229Y-17014079D02*
X7848753Y-17052174D01*
X7848753Y-17052174D02*
X7848753Y-17099793D01*
X7848753Y-17099793D02*
X7839229Y-17137889D01*
X7839229Y-17137889D02*
X7829705Y-17156936D01*
X7829705Y-17156936D02*
X7820182Y-17166460D01*
X7820182Y-17166460D02*
X7801134Y-17175984D01*
X7801134Y-17175984D02*
X7782086Y-17175984D01*
X7782086Y-17175984D02*
X7763039Y-17166460D01*
X7763039Y-17166460D02*
X7753515Y-17156936D01*
X7753515Y-17156936D02*
X7743991Y-17137889D01*
X7743991Y-17137889D02*
X7734467Y-17099793D01*
X7734467Y-17099793D02*
X7734467Y-17052174D01*
X7734467Y-17052174D02*
X7743991Y-17014079D01*
X7743991Y-17014079D02*
X7753515Y-16995031D01*
X7753515Y-16995031D02*
X7763039Y-16985508D01*
X7763039Y-16985508D02*
X7782086Y-16975984D01*
X7972562Y-16975984D02*
X7991610Y-16975984D01*
X7991610Y-16975984D02*
X8010658Y-16985508D01*
X8010658Y-16985508D02*
X8020182Y-16995031D01*
X8020182Y-16995031D02*
X8029705Y-17014079D01*
X8029705Y-17014079D02*
X8039229Y-17052174D01*
X8039229Y-17052174D02*
X8039229Y-17099793D01*
X8039229Y-17099793D02*
X8029705Y-17137889D01*
X8029705Y-17137889D02*
X8020182Y-17156936D01*
X8020182Y-17156936D02*
X8010658Y-17166460D01*
X8010658Y-17166460D02*
X7991610Y-17175984D01*
X7991610Y-17175984D02*
X7972562Y-17175984D01*
X7972562Y-17175984D02*
X7953515Y-17166460D01*
X7953515Y-17166460D02*
X7943991Y-17156936D01*
X7943991Y-17156936D02*
X7934467Y-17137889D01*
X7934467Y-17137889D02*
X7924943Y-17099793D01*
X7924943Y-17099793D02*
X7924943Y-17052174D01*
X7924943Y-17052174D02*
X7934467Y-17014079D01*
X7934467Y-17014079D02*
X7943991Y-16995031D01*
X7943991Y-16995031D02*
X7953515Y-16985508D01*
X7953515Y-16985508D02*
X7972562Y-16975984D01*
X8163039Y-16975984D02*
X8182086Y-16975984D01*
X8182086Y-16975984D02*
X8201134Y-16985508D01*
X8201134Y-16985508D02*
X8210658Y-16995031D01*
X8210658Y-16995031D02*
X8220182Y-17014079D01*
X8220182Y-17014079D02*
X8229705Y-17052174D01*
X8229705Y-17052174D02*
X8229705Y-17099793D01*
X8229705Y-17099793D02*
X8220182Y-17137889D01*
X8220182Y-17137889D02*
X8210658Y-17156936D01*
X8210658Y-17156936D02*
X8201134Y-17166460D01*
X8201134Y-17166460D02*
X8182086Y-17175984D01*
X8182086Y-17175984D02*
X8163039Y-17175984D01*
X8163039Y-17175984D02*
X8143991Y-17166460D01*
X8143991Y-17166460D02*
X8134467Y-17156936D01*
X8134467Y-17156936D02*
X8124943Y-17137889D01*
X8124943Y-17137889D02*
X8115420Y-17099793D01*
X8115420Y-17099793D02*
X8115420Y-17052174D01*
X8115420Y-17052174D02*
X8124943Y-17014079D01*
X8124943Y-17014079D02*
X8134467Y-16995031D01*
X8134467Y-16995031D02*
X8143991Y-16985508D01*
X8143991Y-16985508D02*
X8163039Y-16975984D01*
X8315420Y-17175984D02*
X8315420Y-17042650D01*
X8315420Y-17061698D02*
X8324943Y-17052174D01*
X8324943Y-17052174D02*
X8343991Y-17042650D01*
X8343991Y-17042650D02*
X8372563Y-17042650D01*
X8372563Y-17042650D02*
X8391610Y-17052174D01*
X8391610Y-17052174D02*
X8401134Y-17071222D01*
X8401134Y-17071222D02*
X8401134Y-17175984D01*
X8401134Y-17071222D02*
X8410658Y-17052174D01*
X8410658Y-17052174D02*
X8429705Y-17042650D01*
X8429705Y-17042650D02*
X8458277Y-17042650D01*
X8458277Y-17042650D02*
X8477325Y-17052174D01*
X8477325Y-17052174D02*
X8486848Y-17071222D01*
X8486848Y-17071222D02*
X8486848Y-17175984D01*
X8582086Y-17175984D02*
X8582086Y-17042650D01*
X8582086Y-17061698D02*
X8591610Y-17052174D01*
X8591610Y-17052174D02*
X8610658Y-17042650D01*
X8610658Y-17042650D02*
X8639229Y-17042650D01*
X8639229Y-17042650D02*
X8658277Y-17052174D01*
X8658277Y-17052174D02*
X8667801Y-17071222D01*
X8667801Y-17071222D02*
X8667801Y-17175984D01*
X8667801Y-17071222D02*
X8677325Y-17052174D01*
X8677325Y-17052174D02*
X8696372Y-17042650D01*
X8696372Y-17042650D02*
X8724944Y-17042650D01*
X8724944Y-17042650D02*
X8743991Y-17052174D01*
X8743991Y-17052174D02*
X8753515Y-17071222D01*
X8753515Y-17071222D02*
X8753515Y-17175984D01*
X9143991Y-16966460D02*
X8972563Y-17223603D01*
X9401134Y-16975984D02*
X9420182Y-16975984D01*
X9420182Y-16975984D02*
X9439229Y-16985508D01*
X9439229Y-16985508D02*
X9448753Y-16995031D01*
X9448753Y-16995031D02*
X9458277Y-17014079D01*
X9458277Y-17014079D02*
X9467801Y-17052174D01*
X9467801Y-17052174D02*
X9467801Y-17099793D01*
X9467801Y-17099793D02*
X9458277Y-17137889D01*
X9458277Y-17137889D02*
X9448753Y-17156936D01*
X9448753Y-17156936D02*
X9439229Y-17166460D01*
X9439229Y-17166460D02*
X9420182Y-17175984D01*
X9420182Y-17175984D02*
X9401134Y-17175984D01*
X9401134Y-17175984D02*
X9382087Y-17166460D01*
X9382087Y-17166460D02*
X9372563Y-17156936D01*
X9372563Y-17156936D02*
X9363039Y-17137889D01*
X9363039Y-17137889D02*
X9353515Y-17099793D01*
X9353515Y-17099793D02*
X9353515Y-17052174D01*
X9353515Y-17052174D02*
X9363039Y-17014079D01*
X9363039Y-17014079D02*
X9372563Y-16995031D01*
X9372563Y-16995031D02*
X9382087Y-16985508D01*
X9382087Y-16985508D02*
X9401134Y-16975984D01*
X9553515Y-17156936D02*
X9563039Y-17166460D01*
X9563039Y-17166460D02*
X9553515Y-17175984D01*
X9553515Y-17175984D02*
X9543991Y-17166460D01*
X9543991Y-17166460D02*
X9553515Y-17156936D01*
X9553515Y-17156936D02*
X9553515Y-17175984D01*
X9686848Y-16975984D02*
X9705896Y-16975984D01*
X9705896Y-16975984D02*
X9724944Y-16985508D01*
X9724944Y-16985508D02*
X9734468Y-16995031D01*
X9734468Y-16995031D02*
X9743991Y-17014079D01*
X9743991Y-17014079D02*
X9753515Y-17052174D01*
X9753515Y-17052174D02*
X9753515Y-17099793D01*
X9753515Y-17099793D02*
X9743991Y-17137889D01*
X9743991Y-17137889D02*
X9734468Y-17156936D01*
X9734468Y-17156936D02*
X9724944Y-17166460D01*
X9724944Y-17166460D02*
X9705896Y-17175984D01*
X9705896Y-17175984D02*
X9686848Y-17175984D01*
X9686848Y-17175984D02*
X9667801Y-17166460D01*
X9667801Y-17166460D02*
X9658277Y-17156936D01*
X9658277Y-17156936D02*
X9648753Y-17137889D01*
X9648753Y-17137889D02*
X9639229Y-17099793D01*
X9639229Y-17099793D02*
X9639229Y-17052174D01*
X9639229Y-17052174D02*
X9648753Y-17014079D01*
X9648753Y-17014079D02*
X9658277Y-16995031D01*
X9658277Y-16995031D02*
X9667801Y-16985508D01*
X9667801Y-16985508D02*
X9686848Y-16975984D01*
X9820182Y-16975984D02*
X9943991Y-16975984D01*
X9943991Y-16975984D02*
X9877325Y-17052174D01*
X9877325Y-17052174D02*
X9905896Y-17052174D01*
X9905896Y-17052174D02*
X9924944Y-17061698D01*
X9924944Y-17061698D02*
X9934468Y-17071222D01*
X9934468Y-17071222D02*
X9943991Y-17090270D01*
X9943991Y-17090270D02*
X9943991Y-17137889D01*
X9943991Y-17137889D02*
X9934468Y-17156936D01*
X9934468Y-17156936D02*
X9924944Y-17166460D01*
X9924944Y-17166460D02*
X9905896Y-17175984D01*
X9905896Y-17175984D02*
X9848753Y-17175984D01*
X9848753Y-17175984D02*
X9829706Y-17166460D01*
X9829706Y-17166460D02*
X9820182Y-17156936D01*
X10039229Y-17175984D02*
X10077325Y-17175984D01*
X10077325Y-17175984D02*
X10096372Y-17166460D01*
X10096372Y-17166460D02*
X10105896Y-17156936D01*
X10105896Y-17156936D02*
X10124944Y-17128365D01*
X10124944Y-17128365D02*
X10134468Y-17090270D01*
X10134468Y-17090270D02*
X10134468Y-17014079D01*
X10134468Y-17014079D02*
X10124944Y-16995031D01*
X10124944Y-16995031D02*
X10115420Y-16985508D01*
X10115420Y-16985508D02*
X10096372Y-16975984D01*
X10096372Y-16975984D02*
X10058277Y-16975984D01*
X10058277Y-16975984D02*
X10039229Y-16985508D01*
X10039229Y-16985508D02*
X10029706Y-16995031D01*
X10029706Y-16995031D02*
X10020182Y-17014079D01*
X10020182Y-17014079D02*
X10020182Y-17061698D01*
X10020182Y-17061698D02*
X10029706Y-17080746D01*
X10029706Y-17080746D02*
X10039229Y-17090270D01*
X10039229Y-17090270D02*
X10058277Y-17099793D01*
X10058277Y-17099793D02*
X10096372Y-17099793D01*
X10096372Y-17099793D02*
X10115420Y-17090270D01*
X10115420Y-17090270D02*
X10124944Y-17080746D01*
X10124944Y-17080746D02*
X10134468Y-17061698D01*
X10305896Y-17042650D02*
X10305896Y-17175984D01*
X10258277Y-16966460D02*
X10210658Y-17109317D01*
X10210658Y-17109317D02*
X10334468Y-17109317D01*
X10401134Y-16975984D02*
X10401134Y-17014079D01*
X10477325Y-16975984D02*
X10477325Y-17014079D01*
X10772563Y-17252174D02*
X10763039Y-17242650D01*
X10763039Y-17242650D02*
X10743991Y-17214079D01*
X10743991Y-17214079D02*
X10734468Y-17195031D01*
X10734468Y-17195031D02*
X10724944Y-17166460D01*
X10724944Y-17166460D02*
X10715420Y-17118841D01*
X10715420Y-17118841D02*
X10715420Y-17080746D01*
X10715420Y-17080746D02*
X10724944Y-17033127D01*
X10724944Y-17033127D02*
X10734468Y-17004555D01*
X10734468Y-17004555D02*
X10743991Y-16985508D01*
X10743991Y-16985508D02*
X10763039Y-16956936D01*
X10763039Y-16956936D02*
X10772563Y-16947412D01*
X10943991Y-16975984D02*
X10848753Y-16975984D01*
X10848753Y-16975984D02*
X10839230Y-17071222D01*
X10839230Y-17071222D02*
X10848753Y-17061698D01*
X10848753Y-17061698D02*
X10867801Y-17052174D01*
X10867801Y-17052174D02*
X10915420Y-17052174D01*
X10915420Y-17052174D02*
X10934468Y-17061698D01*
X10934468Y-17061698D02*
X10943991Y-17071222D01*
X10943991Y-17071222D02*
X10953515Y-17090270D01*
X10953515Y-17090270D02*
X10953515Y-17137889D01*
X10953515Y-17137889D02*
X10943991Y-17156936D01*
X10943991Y-17156936D02*
X10934468Y-17166460D01*
X10934468Y-17166460D02*
X10915420Y-17175984D01*
X10915420Y-17175984D02*
X10867801Y-17175984D01*
X10867801Y-17175984D02*
X10848753Y-17166460D01*
X10848753Y-17166460D02*
X10839230Y-17156936D01*
X11124944Y-17042650D02*
X11124944Y-17175984D01*
X11077325Y-16966460D02*
X11029706Y-17109317D01*
X11029706Y-17109317D02*
X11153515Y-17109317D01*
X11382087Y-17175984D02*
X11382087Y-16975984D01*
X11467801Y-17175984D02*
X11467801Y-17071222D01*
X11467801Y-17071222D02*
X11458277Y-17052174D01*
X11458277Y-17052174D02*
X11439230Y-17042650D01*
X11439230Y-17042650D02*
X11410658Y-17042650D01*
X11410658Y-17042650D02*
X11391610Y-17052174D01*
X11391610Y-17052174D02*
X11382087Y-17061698D01*
X11591610Y-17175984D02*
X11572563Y-17166460D01*
X11572563Y-17166460D02*
X11563039Y-17156936D01*
X11563039Y-17156936D02*
X11553515Y-17137889D01*
X11553515Y-17137889D02*
X11553515Y-17080746D01*
X11553515Y-17080746D02*
X11563039Y-17061698D01*
X11563039Y-17061698D02*
X11572563Y-17052174D01*
X11572563Y-17052174D02*
X11591610Y-17042650D01*
X11591610Y-17042650D02*
X11620182Y-17042650D01*
X11620182Y-17042650D02*
X11639230Y-17052174D01*
X11639230Y-17052174D02*
X11648753Y-17061698D01*
X11648753Y-17061698D02*
X11658277Y-17080746D01*
X11658277Y-17080746D02*
X11658277Y-17137889D01*
X11658277Y-17137889D02*
X11648753Y-17156936D01*
X11648753Y-17156936D02*
X11639230Y-17166460D01*
X11639230Y-17166460D02*
X11620182Y-17175984D01*
X11620182Y-17175984D02*
X11591610Y-17175984D01*
X11772563Y-17175984D02*
X11753515Y-17166460D01*
X11753515Y-17166460D02*
X11743991Y-17147412D01*
X11743991Y-17147412D02*
X11743991Y-16975984D01*
X11924944Y-17166460D02*
X11905896Y-17175984D01*
X11905896Y-17175984D02*
X11867801Y-17175984D01*
X11867801Y-17175984D02*
X11848753Y-17166460D01*
X11848753Y-17166460D02*
X11839230Y-17147412D01*
X11839230Y-17147412D02*
X11839230Y-17071222D01*
X11839230Y-17071222D02*
X11848753Y-17052174D01*
X11848753Y-17052174D02*
X11867801Y-17042650D01*
X11867801Y-17042650D02*
X11905896Y-17042650D01*
X11905896Y-17042650D02*
X11924944Y-17052174D01*
X11924944Y-17052174D02*
X11934468Y-17071222D01*
X11934468Y-17071222D02*
X11934468Y-17090270D01*
X11934468Y-17090270D02*
X11839230Y-17109317D01*
X12010658Y-17166460D02*
X12029706Y-17175984D01*
X12029706Y-17175984D02*
X12067801Y-17175984D01*
X12067801Y-17175984D02*
X12086849Y-17166460D01*
X12086849Y-17166460D02*
X12096372Y-17147412D01*
X12096372Y-17147412D02*
X12096372Y-17137889D01*
X12096372Y-17137889D02*
X12086849Y-17118841D01*
X12086849Y-17118841D02*
X12067801Y-17109317D01*
X12067801Y-17109317D02*
X12039230Y-17109317D01*
X12039230Y-17109317D02*
X12020182Y-17099793D01*
X12020182Y-17099793D02*
X12010658Y-17080746D01*
X12010658Y-17080746D02*
X12010658Y-17071222D01*
X12010658Y-17071222D02*
X12020182Y-17052174D01*
X12020182Y-17052174D02*
X12039230Y-17042650D01*
X12039230Y-17042650D02*
X12067801Y-17042650D01*
X12067801Y-17042650D02*
X12086849Y-17052174D01*
X12334468Y-17099793D02*
X12486849Y-17099793D01*
X12410658Y-17175984D02*
X12410658Y-17023603D01*
X12820182Y-17042650D02*
X12820182Y-17175984D01*
X12772563Y-16966460D02*
X12724944Y-17109317D01*
X12724944Y-17109317D02*
X12848753Y-17109317D01*
X13067801Y-17166460D02*
X13086849Y-17175984D01*
X13086849Y-17175984D02*
X13124944Y-17175984D01*
X13124944Y-17175984D02*
X13143992Y-17166460D01*
X13143992Y-17166460D02*
X13153515Y-17147412D01*
X13153515Y-17147412D02*
X13153515Y-17137889D01*
X13153515Y-17137889D02*
X13143992Y-17118841D01*
X13143992Y-17118841D02*
X13124944Y-17109317D01*
X13124944Y-17109317D02*
X13096373Y-17109317D01*
X13096373Y-17109317D02*
X13077325Y-17099793D01*
X13077325Y-17099793D02*
X13067801Y-17080746D01*
X13067801Y-17080746D02*
X13067801Y-17071222D01*
X13067801Y-17071222D02*
X13077325Y-17052174D01*
X13077325Y-17052174D02*
X13096373Y-17042650D01*
X13096373Y-17042650D02*
X13124944Y-17042650D01*
X13124944Y-17042650D02*
X13143992Y-17052174D01*
X13267801Y-17175984D02*
X13248754Y-17166460D01*
X13248754Y-17166460D02*
X13239230Y-17147412D01*
X13239230Y-17147412D02*
X13239230Y-16975984D01*
X13372563Y-17175984D02*
X13353515Y-17166460D01*
X13353515Y-17166460D02*
X13343992Y-17156936D01*
X13343992Y-17156936D02*
X13334468Y-17137889D01*
X13334468Y-17137889D02*
X13334468Y-17080746D01*
X13334468Y-17080746D02*
X13343992Y-17061698D01*
X13343992Y-17061698D02*
X13353515Y-17052174D01*
X13353515Y-17052174D02*
X13372563Y-17042650D01*
X13372563Y-17042650D02*
X13401135Y-17042650D01*
X13401135Y-17042650D02*
X13420182Y-17052174D01*
X13420182Y-17052174D02*
X13429706Y-17061698D01*
X13429706Y-17061698D02*
X13439230Y-17080746D01*
X13439230Y-17080746D02*
X13439230Y-17137889D01*
X13439230Y-17137889D02*
X13429706Y-17156936D01*
X13429706Y-17156936D02*
X13420182Y-17166460D01*
X13420182Y-17166460D02*
X13401135Y-17175984D01*
X13401135Y-17175984D02*
X13372563Y-17175984D01*
X13496373Y-17042650D02*
X13572563Y-17042650D01*
X13524944Y-16975984D02*
X13524944Y-17147412D01*
X13524944Y-17147412D02*
X13534468Y-17166460D01*
X13534468Y-17166460D02*
X13553515Y-17175984D01*
X13553515Y-17175984D02*
X13572563Y-17175984D01*
X13629706Y-17166460D02*
X13648754Y-17175984D01*
X13648754Y-17175984D02*
X13686849Y-17175984D01*
X13686849Y-17175984D02*
X13705896Y-17166460D01*
X13705896Y-17166460D02*
X13715420Y-17147412D01*
X13715420Y-17147412D02*
X13715420Y-17137889D01*
X13715420Y-17137889D02*
X13705896Y-17118841D01*
X13705896Y-17118841D02*
X13686849Y-17109317D01*
X13686849Y-17109317D02*
X13658277Y-17109317D01*
X13658277Y-17109317D02*
X13639230Y-17099793D01*
X13639230Y-17099793D02*
X13629706Y-17080746D01*
X13629706Y-17080746D02*
X13629706Y-17071222D01*
X13629706Y-17071222D02*
X13639230Y-17052174D01*
X13639230Y-17052174D02*
X13658277Y-17042650D01*
X13658277Y-17042650D02*
X13686849Y-17042650D01*
X13686849Y-17042650D02*
X13705896Y-17052174D01*
X13782087Y-17252174D02*
X13791611Y-17242650D01*
X13791611Y-17242650D02*
X13810658Y-17214079D01*
X13810658Y-17214079D02*
X13820182Y-17195031D01*
X13820182Y-17195031D02*
X13829706Y-17166460D01*
X13829706Y-17166460D02*
X13839230Y-17118841D01*
X13839230Y-17118841D02*
X13839230Y-17080746D01*
X13839230Y-17080746D02*
X13829706Y-17033127D01*
X13829706Y-17033127D02*
X13820182Y-17004555D01*
X13820182Y-17004555D02*
X13810658Y-16985508D01*
X13810658Y-16985508D02*
X13791611Y-16956936D01*
X13791611Y-16956936D02*
X13782087Y-16947412D01*
D13*
X7142500Y-17403500D02*
X7197500Y-17348500D01*
X7142500Y-17293500D01*
X7087500Y-17348500D01*
X7142500Y-17403500D01*
D11*
X7563039Y-17439984D02*
X7448753Y-17439984D01*
X7505896Y-17439984D02*
X7505896Y-17239984D01*
X7505896Y-17239984D02*
X7486848Y-17268555D01*
X7486848Y-17268555D02*
X7467801Y-17287603D01*
X7467801Y-17287603D02*
X7448753Y-17297127D01*
X7648753Y-17420936D02*
X7658277Y-17430460D01*
X7658277Y-17430460D02*
X7648753Y-17439984D01*
X7648753Y-17439984D02*
X7639229Y-17430460D01*
X7639229Y-17430460D02*
X7648753Y-17420936D01*
X7648753Y-17420936D02*
X7648753Y-17439984D01*
X7848753Y-17439984D02*
X7734467Y-17439984D01*
X7791610Y-17439984D02*
X7791610Y-17239984D01*
X7791610Y-17239984D02*
X7772562Y-17268555D01*
X7772562Y-17268555D02*
X7753515Y-17287603D01*
X7753515Y-17287603D02*
X7734467Y-17297127D01*
X7972562Y-17239984D02*
X7991610Y-17239984D01*
X7991610Y-17239984D02*
X8010658Y-17249508D01*
X8010658Y-17249508D02*
X8020182Y-17259031D01*
X8020182Y-17259031D02*
X8029705Y-17278079D01*
X8029705Y-17278079D02*
X8039229Y-17316174D01*
X8039229Y-17316174D02*
X8039229Y-17363793D01*
X8039229Y-17363793D02*
X8029705Y-17401889D01*
X8029705Y-17401889D02*
X8020182Y-17420936D01*
X8020182Y-17420936D02*
X8010658Y-17430460D01*
X8010658Y-17430460D02*
X7991610Y-17439984D01*
X7991610Y-17439984D02*
X7972562Y-17439984D01*
X7972562Y-17439984D02*
X7953515Y-17430460D01*
X7953515Y-17430460D02*
X7943991Y-17420936D01*
X7943991Y-17420936D02*
X7934467Y-17401889D01*
X7934467Y-17401889D02*
X7924943Y-17363793D01*
X7924943Y-17363793D02*
X7924943Y-17316174D01*
X7924943Y-17316174D02*
X7934467Y-17278079D01*
X7934467Y-17278079D02*
X7943991Y-17259031D01*
X7943991Y-17259031D02*
X7953515Y-17249508D01*
X7953515Y-17249508D02*
X7972562Y-17239984D01*
X8163039Y-17239984D02*
X8182086Y-17239984D01*
X8182086Y-17239984D02*
X8201134Y-17249508D01*
X8201134Y-17249508D02*
X8210658Y-17259031D01*
X8210658Y-17259031D02*
X8220182Y-17278079D01*
X8220182Y-17278079D02*
X8229705Y-17316174D01*
X8229705Y-17316174D02*
X8229705Y-17363793D01*
X8229705Y-17363793D02*
X8220182Y-17401889D01*
X8220182Y-17401889D02*
X8210658Y-17420936D01*
X8210658Y-17420936D02*
X8201134Y-17430460D01*
X8201134Y-17430460D02*
X8182086Y-17439984D01*
X8182086Y-17439984D02*
X8163039Y-17439984D01*
X8163039Y-17439984D02*
X8143991Y-17430460D01*
X8143991Y-17430460D02*
X8134467Y-17420936D01*
X8134467Y-17420936D02*
X8124943Y-17401889D01*
X8124943Y-17401889D02*
X8115420Y-17363793D01*
X8115420Y-17363793D02*
X8115420Y-17316174D01*
X8115420Y-17316174D02*
X8124943Y-17278079D01*
X8124943Y-17278079D02*
X8134467Y-17259031D01*
X8134467Y-17259031D02*
X8143991Y-17249508D01*
X8143991Y-17249508D02*
X8163039Y-17239984D01*
X8315420Y-17439984D02*
X8315420Y-17306650D01*
X8315420Y-17325698D02*
X8324943Y-17316174D01*
X8324943Y-17316174D02*
X8343991Y-17306650D01*
X8343991Y-17306650D02*
X8372563Y-17306650D01*
X8372563Y-17306650D02*
X8391610Y-17316174D01*
X8391610Y-17316174D02*
X8401134Y-17335222D01*
X8401134Y-17335222D02*
X8401134Y-17439984D01*
X8401134Y-17335222D02*
X8410658Y-17316174D01*
X8410658Y-17316174D02*
X8429705Y-17306650D01*
X8429705Y-17306650D02*
X8458277Y-17306650D01*
X8458277Y-17306650D02*
X8477325Y-17316174D01*
X8477325Y-17316174D02*
X8486848Y-17335222D01*
X8486848Y-17335222D02*
X8486848Y-17439984D01*
X8582086Y-17439984D02*
X8582086Y-17306650D01*
X8582086Y-17325698D02*
X8591610Y-17316174D01*
X8591610Y-17316174D02*
X8610658Y-17306650D01*
X8610658Y-17306650D02*
X8639229Y-17306650D01*
X8639229Y-17306650D02*
X8658277Y-17316174D01*
X8658277Y-17316174D02*
X8667801Y-17335222D01*
X8667801Y-17335222D02*
X8667801Y-17439984D01*
X8667801Y-17335222D02*
X8677325Y-17316174D01*
X8677325Y-17316174D02*
X8696372Y-17306650D01*
X8696372Y-17306650D02*
X8724944Y-17306650D01*
X8724944Y-17306650D02*
X8743991Y-17316174D01*
X8743991Y-17316174D02*
X8753515Y-17335222D01*
X8753515Y-17335222D02*
X8753515Y-17439984D01*
X9143991Y-17230460D02*
X8972563Y-17487603D01*
X9401134Y-17239984D02*
X9420182Y-17239984D01*
X9420182Y-17239984D02*
X9439229Y-17249508D01*
X9439229Y-17249508D02*
X9448753Y-17259031D01*
X9448753Y-17259031D02*
X9458277Y-17278079D01*
X9458277Y-17278079D02*
X9467801Y-17316174D01*
X9467801Y-17316174D02*
X9467801Y-17363793D01*
X9467801Y-17363793D02*
X9458277Y-17401889D01*
X9458277Y-17401889D02*
X9448753Y-17420936D01*
X9448753Y-17420936D02*
X9439229Y-17430460D01*
X9439229Y-17430460D02*
X9420182Y-17439984D01*
X9420182Y-17439984D02*
X9401134Y-17439984D01*
X9401134Y-17439984D02*
X9382087Y-17430460D01*
X9382087Y-17430460D02*
X9372563Y-17420936D01*
X9372563Y-17420936D02*
X9363039Y-17401889D01*
X9363039Y-17401889D02*
X9353515Y-17363793D01*
X9353515Y-17363793D02*
X9353515Y-17316174D01*
X9353515Y-17316174D02*
X9363039Y-17278079D01*
X9363039Y-17278079D02*
X9372563Y-17259031D01*
X9372563Y-17259031D02*
X9382087Y-17249508D01*
X9382087Y-17249508D02*
X9401134Y-17239984D01*
X9553515Y-17420936D02*
X9563039Y-17430460D01*
X9563039Y-17430460D02*
X9553515Y-17439984D01*
X9553515Y-17439984D02*
X9543991Y-17430460D01*
X9543991Y-17430460D02*
X9553515Y-17420936D01*
X9553515Y-17420936D02*
X9553515Y-17439984D01*
X9686848Y-17239984D02*
X9705896Y-17239984D01*
X9705896Y-17239984D02*
X9724944Y-17249508D01*
X9724944Y-17249508D02*
X9734468Y-17259031D01*
X9734468Y-17259031D02*
X9743991Y-17278079D01*
X9743991Y-17278079D02*
X9753515Y-17316174D01*
X9753515Y-17316174D02*
X9753515Y-17363793D01*
X9753515Y-17363793D02*
X9743991Y-17401889D01*
X9743991Y-17401889D02*
X9734468Y-17420936D01*
X9734468Y-17420936D02*
X9724944Y-17430460D01*
X9724944Y-17430460D02*
X9705896Y-17439984D01*
X9705896Y-17439984D02*
X9686848Y-17439984D01*
X9686848Y-17439984D02*
X9667801Y-17430460D01*
X9667801Y-17430460D02*
X9658277Y-17420936D01*
X9658277Y-17420936D02*
X9648753Y-17401889D01*
X9648753Y-17401889D02*
X9639229Y-17363793D01*
X9639229Y-17363793D02*
X9639229Y-17316174D01*
X9639229Y-17316174D02*
X9648753Y-17278079D01*
X9648753Y-17278079D02*
X9658277Y-17259031D01*
X9658277Y-17259031D02*
X9667801Y-17249508D01*
X9667801Y-17249508D02*
X9686848Y-17239984D01*
X9924944Y-17306650D02*
X9924944Y-17439984D01*
X9877325Y-17230460D02*
X9829706Y-17373317D01*
X9829706Y-17373317D02*
X9953515Y-17373317D01*
X10010658Y-17239984D02*
X10134468Y-17239984D01*
X10134468Y-17239984D02*
X10067801Y-17316174D01*
X10067801Y-17316174D02*
X10096372Y-17316174D01*
X10096372Y-17316174D02*
X10115420Y-17325698D01*
X10115420Y-17325698D02*
X10124944Y-17335222D01*
X10124944Y-17335222D02*
X10134468Y-17354270D01*
X10134468Y-17354270D02*
X10134468Y-17401889D01*
X10134468Y-17401889D02*
X10124944Y-17420936D01*
X10124944Y-17420936D02*
X10115420Y-17430460D01*
X10115420Y-17430460D02*
X10096372Y-17439984D01*
X10096372Y-17439984D02*
X10039229Y-17439984D01*
X10039229Y-17439984D02*
X10020182Y-17430460D01*
X10020182Y-17430460D02*
X10010658Y-17420936D01*
X10201134Y-17239984D02*
X10324944Y-17239984D01*
X10324944Y-17239984D02*
X10258277Y-17316174D01*
X10258277Y-17316174D02*
X10286849Y-17316174D01*
X10286849Y-17316174D02*
X10305896Y-17325698D01*
X10305896Y-17325698D02*
X10315420Y-17335222D01*
X10315420Y-17335222D02*
X10324944Y-17354270D01*
X10324944Y-17354270D02*
X10324944Y-17401889D01*
X10324944Y-17401889D02*
X10315420Y-17420936D01*
X10315420Y-17420936D02*
X10305896Y-17430460D01*
X10305896Y-17430460D02*
X10286849Y-17439984D01*
X10286849Y-17439984D02*
X10229706Y-17439984D01*
X10229706Y-17439984D02*
X10210658Y-17430460D01*
X10210658Y-17430460D02*
X10201134Y-17420936D01*
X10401134Y-17239984D02*
X10401134Y-17278079D01*
X10477325Y-17239984D02*
X10477325Y-17278079D01*
X10772563Y-17516174D02*
X10763039Y-17506650D01*
X10763039Y-17506650D02*
X10743991Y-17478079D01*
X10743991Y-17478079D02*
X10734468Y-17459031D01*
X10734468Y-17459031D02*
X10724944Y-17430460D01*
X10724944Y-17430460D02*
X10715420Y-17382841D01*
X10715420Y-17382841D02*
X10715420Y-17344746D01*
X10715420Y-17344746D02*
X10724944Y-17297127D01*
X10724944Y-17297127D02*
X10734468Y-17268555D01*
X10734468Y-17268555D02*
X10743991Y-17249508D01*
X10743991Y-17249508D02*
X10763039Y-17220936D01*
X10763039Y-17220936D02*
X10772563Y-17211412D01*
X10943991Y-17239984D02*
X10848753Y-17239984D01*
X10848753Y-17239984D02*
X10839230Y-17335222D01*
X10839230Y-17335222D02*
X10848753Y-17325698D01*
X10848753Y-17325698D02*
X10867801Y-17316174D01*
X10867801Y-17316174D02*
X10915420Y-17316174D01*
X10915420Y-17316174D02*
X10934468Y-17325698D01*
X10934468Y-17325698D02*
X10943991Y-17335222D01*
X10943991Y-17335222D02*
X10953515Y-17354270D01*
X10953515Y-17354270D02*
X10953515Y-17401889D01*
X10953515Y-17401889D02*
X10943991Y-17420936D01*
X10943991Y-17420936D02*
X10934468Y-17430460D01*
X10934468Y-17430460D02*
X10915420Y-17439984D01*
X10915420Y-17439984D02*
X10867801Y-17439984D01*
X10867801Y-17439984D02*
X10848753Y-17430460D01*
X10848753Y-17430460D02*
X10839230Y-17420936D01*
X11191610Y-17439984D02*
X11191610Y-17239984D01*
X11277325Y-17439984D02*
X11277325Y-17335222D01*
X11277325Y-17335222D02*
X11267801Y-17316174D01*
X11267801Y-17316174D02*
X11248753Y-17306650D01*
X11248753Y-17306650D02*
X11220182Y-17306650D01*
X11220182Y-17306650D02*
X11201134Y-17316174D01*
X11201134Y-17316174D02*
X11191610Y-17325698D01*
X11401134Y-17439984D02*
X11382087Y-17430460D01*
X11382087Y-17430460D02*
X11372563Y-17420936D01*
X11372563Y-17420936D02*
X11363039Y-17401889D01*
X11363039Y-17401889D02*
X11363039Y-17344746D01*
X11363039Y-17344746D02*
X11372563Y-17325698D01*
X11372563Y-17325698D02*
X11382087Y-17316174D01*
X11382087Y-17316174D02*
X11401134Y-17306650D01*
X11401134Y-17306650D02*
X11429706Y-17306650D01*
X11429706Y-17306650D02*
X11448753Y-17316174D01*
X11448753Y-17316174D02*
X11458277Y-17325698D01*
X11458277Y-17325698D02*
X11467801Y-17344746D01*
X11467801Y-17344746D02*
X11467801Y-17401889D01*
X11467801Y-17401889D02*
X11458277Y-17420936D01*
X11458277Y-17420936D02*
X11448753Y-17430460D01*
X11448753Y-17430460D02*
X11429706Y-17439984D01*
X11429706Y-17439984D02*
X11401134Y-17439984D01*
X11582087Y-17439984D02*
X11563039Y-17430460D01*
X11563039Y-17430460D02*
X11553515Y-17411412D01*
X11553515Y-17411412D02*
X11553515Y-17239984D01*
X11734468Y-17430460D02*
X11715420Y-17439984D01*
X11715420Y-17439984D02*
X11677325Y-17439984D01*
X11677325Y-17439984D02*
X11658277Y-17430460D01*
X11658277Y-17430460D02*
X11648753Y-17411412D01*
X11648753Y-17411412D02*
X11648753Y-17335222D01*
X11648753Y-17335222D02*
X11658277Y-17316174D01*
X11658277Y-17316174D02*
X11677325Y-17306650D01*
X11677325Y-17306650D02*
X11715420Y-17306650D01*
X11715420Y-17306650D02*
X11734468Y-17316174D01*
X11734468Y-17316174D02*
X11743991Y-17335222D01*
X11743991Y-17335222D02*
X11743991Y-17354270D01*
X11743991Y-17354270D02*
X11648753Y-17373317D01*
X11820182Y-17430460D02*
X11839230Y-17439984D01*
X11839230Y-17439984D02*
X11877325Y-17439984D01*
X11877325Y-17439984D02*
X11896372Y-17430460D01*
X11896372Y-17430460D02*
X11905896Y-17411412D01*
X11905896Y-17411412D02*
X11905896Y-17401889D01*
X11905896Y-17401889D02*
X11896372Y-17382841D01*
X11896372Y-17382841D02*
X11877325Y-17373317D01*
X11877325Y-17373317D02*
X11848753Y-17373317D01*
X11848753Y-17373317D02*
X11829706Y-17363793D01*
X11829706Y-17363793D02*
X11820182Y-17344746D01*
X11820182Y-17344746D02*
X11820182Y-17335222D01*
X11820182Y-17335222D02*
X11829706Y-17316174D01*
X11829706Y-17316174D02*
X11848753Y-17306650D01*
X11848753Y-17306650D02*
X11877325Y-17306650D01*
X11877325Y-17306650D02*
X11896372Y-17316174D01*
X11972563Y-17516174D02*
X11982087Y-17506650D01*
X11982087Y-17506650D02*
X12001134Y-17478079D01*
X12001134Y-17478079D02*
X12010658Y-17459031D01*
X12010658Y-17459031D02*
X12020182Y-17430460D01*
X12020182Y-17430460D02*
X12029706Y-17382841D01*
X12029706Y-17382841D02*
X12029706Y-17344746D01*
X12029706Y-17344746D02*
X12020182Y-17297127D01*
X12020182Y-17297127D02*
X12010658Y-17268555D01*
X12010658Y-17268555D02*
X12001134Y-17249508D01*
X12001134Y-17249508D02*
X11982087Y-17220936D01*
X11982087Y-17220936D02*
X11972563Y-17211412D01*
D14*
X7047500Y-17537500D02*
X7197500Y-17687500D01*
X7197500Y-17537500D02*
X7047500Y-17687500D01*
X7197500Y-17612500D02*
G75*
G02*
X7047500Y-17612500I-75000J0D01*
G01*
X7047500Y-17612500D02*
G75*
G02*
X7197500Y-17612500I75000J0D01*
G01*
D11*
X7563039Y-17703984D02*
X7448753Y-17703984D01*
X7505896Y-17703984D02*
X7505896Y-17503984D01*
X7505896Y-17503984D02*
X7486848Y-17532555D01*
X7486848Y-17532555D02*
X7467801Y-17551603D01*
X7467801Y-17551603D02*
X7448753Y-17561127D01*
X7648753Y-17684936D02*
X7658277Y-17694460D01*
X7658277Y-17694460D02*
X7648753Y-17703984D01*
X7648753Y-17703984D02*
X7639229Y-17694460D01*
X7639229Y-17694460D02*
X7648753Y-17684936D01*
X7648753Y-17684936D02*
X7648753Y-17703984D01*
X7839229Y-17503984D02*
X7743991Y-17503984D01*
X7743991Y-17503984D02*
X7734467Y-17599222D01*
X7734467Y-17599222D02*
X7743991Y-17589698D01*
X7743991Y-17589698D02*
X7763039Y-17580174D01*
X7763039Y-17580174D02*
X7810658Y-17580174D01*
X7810658Y-17580174D02*
X7829705Y-17589698D01*
X7829705Y-17589698D02*
X7839229Y-17599222D01*
X7839229Y-17599222D02*
X7848753Y-17618270D01*
X7848753Y-17618270D02*
X7848753Y-17665889D01*
X7848753Y-17665889D02*
X7839229Y-17684936D01*
X7839229Y-17684936D02*
X7829705Y-17694460D01*
X7829705Y-17694460D02*
X7810658Y-17703984D01*
X7810658Y-17703984D02*
X7763039Y-17703984D01*
X7763039Y-17703984D02*
X7743991Y-17694460D01*
X7743991Y-17694460D02*
X7734467Y-17684936D01*
X7972562Y-17503984D02*
X7991610Y-17503984D01*
X7991610Y-17503984D02*
X8010658Y-17513508D01*
X8010658Y-17513508D02*
X8020182Y-17523031D01*
X8020182Y-17523031D02*
X8029705Y-17542079D01*
X8029705Y-17542079D02*
X8039229Y-17580174D01*
X8039229Y-17580174D02*
X8039229Y-17627793D01*
X8039229Y-17627793D02*
X8029705Y-17665889D01*
X8029705Y-17665889D02*
X8020182Y-17684936D01*
X8020182Y-17684936D02*
X8010658Y-17694460D01*
X8010658Y-17694460D02*
X7991610Y-17703984D01*
X7991610Y-17703984D02*
X7972562Y-17703984D01*
X7972562Y-17703984D02*
X7953515Y-17694460D01*
X7953515Y-17694460D02*
X7943991Y-17684936D01*
X7943991Y-17684936D02*
X7934467Y-17665889D01*
X7934467Y-17665889D02*
X7924943Y-17627793D01*
X7924943Y-17627793D02*
X7924943Y-17580174D01*
X7924943Y-17580174D02*
X7934467Y-17542079D01*
X7934467Y-17542079D02*
X7943991Y-17523031D01*
X7943991Y-17523031D02*
X7953515Y-17513508D01*
X7953515Y-17513508D02*
X7972562Y-17503984D01*
X8163039Y-17503984D02*
X8182086Y-17503984D01*
X8182086Y-17503984D02*
X8201134Y-17513508D01*
X8201134Y-17513508D02*
X8210658Y-17523031D01*
X8210658Y-17523031D02*
X8220182Y-17542079D01*
X8220182Y-17542079D02*
X8229705Y-17580174D01*
X8229705Y-17580174D02*
X8229705Y-17627793D01*
X8229705Y-17627793D02*
X8220182Y-17665889D01*
X8220182Y-17665889D02*
X8210658Y-17684936D01*
X8210658Y-17684936D02*
X8201134Y-17694460D01*
X8201134Y-17694460D02*
X8182086Y-17703984D01*
X8182086Y-17703984D02*
X8163039Y-17703984D01*
X8163039Y-17703984D02*
X8143991Y-17694460D01*
X8143991Y-17694460D02*
X8134467Y-17684936D01*
X8134467Y-17684936D02*
X8124943Y-17665889D01*
X8124943Y-17665889D02*
X8115420Y-17627793D01*
X8115420Y-17627793D02*
X8115420Y-17580174D01*
X8115420Y-17580174D02*
X8124943Y-17542079D01*
X8124943Y-17542079D02*
X8134467Y-17523031D01*
X8134467Y-17523031D02*
X8143991Y-17513508D01*
X8143991Y-17513508D02*
X8163039Y-17503984D01*
X8315420Y-17703984D02*
X8315420Y-17570650D01*
X8315420Y-17589698D02*
X8324943Y-17580174D01*
X8324943Y-17580174D02*
X8343991Y-17570650D01*
X8343991Y-17570650D02*
X8372563Y-17570650D01*
X8372563Y-17570650D02*
X8391610Y-17580174D01*
X8391610Y-17580174D02*
X8401134Y-17599222D01*
X8401134Y-17599222D02*
X8401134Y-17703984D01*
X8401134Y-17599222D02*
X8410658Y-17580174D01*
X8410658Y-17580174D02*
X8429705Y-17570650D01*
X8429705Y-17570650D02*
X8458277Y-17570650D01*
X8458277Y-17570650D02*
X8477325Y-17580174D01*
X8477325Y-17580174D02*
X8486848Y-17599222D01*
X8486848Y-17599222D02*
X8486848Y-17703984D01*
X8582086Y-17703984D02*
X8582086Y-17570650D01*
X8582086Y-17589698D02*
X8591610Y-17580174D01*
X8591610Y-17580174D02*
X8610658Y-17570650D01*
X8610658Y-17570650D02*
X8639229Y-17570650D01*
X8639229Y-17570650D02*
X8658277Y-17580174D01*
X8658277Y-17580174D02*
X8667801Y-17599222D01*
X8667801Y-17599222D02*
X8667801Y-17703984D01*
X8667801Y-17599222D02*
X8677325Y-17580174D01*
X8677325Y-17580174D02*
X8696372Y-17570650D01*
X8696372Y-17570650D02*
X8724944Y-17570650D01*
X8724944Y-17570650D02*
X8743991Y-17580174D01*
X8743991Y-17580174D02*
X8753515Y-17599222D01*
X8753515Y-17599222D02*
X8753515Y-17703984D01*
X9143991Y-17494460D02*
X8972563Y-17751603D01*
X9401134Y-17503984D02*
X9420182Y-17503984D01*
X9420182Y-17503984D02*
X9439229Y-17513508D01*
X9439229Y-17513508D02*
X9448753Y-17523031D01*
X9448753Y-17523031D02*
X9458277Y-17542079D01*
X9458277Y-17542079D02*
X9467801Y-17580174D01*
X9467801Y-17580174D02*
X9467801Y-17627793D01*
X9467801Y-17627793D02*
X9458277Y-17665889D01*
X9458277Y-17665889D02*
X9448753Y-17684936D01*
X9448753Y-17684936D02*
X9439229Y-17694460D01*
X9439229Y-17694460D02*
X9420182Y-17703984D01*
X9420182Y-17703984D02*
X9401134Y-17703984D01*
X9401134Y-17703984D02*
X9382087Y-17694460D01*
X9382087Y-17694460D02*
X9372563Y-17684936D01*
X9372563Y-17684936D02*
X9363039Y-17665889D01*
X9363039Y-17665889D02*
X9353515Y-17627793D01*
X9353515Y-17627793D02*
X9353515Y-17580174D01*
X9353515Y-17580174D02*
X9363039Y-17542079D01*
X9363039Y-17542079D02*
X9372563Y-17523031D01*
X9372563Y-17523031D02*
X9382087Y-17513508D01*
X9382087Y-17513508D02*
X9401134Y-17503984D01*
X9553515Y-17684936D02*
X9563039Y-17694460D01*
X9563039Y-17694460D02*
X9553515Y-17703984D01*
X9553515Y-17703984D02*
X9543991Y-17694460D01*
X9543991Y-17694460D02*
X9553515Y-17684936D01*
X9553515Y-17684936D02*
X9553515Y-17703984D01*
X9686848Y-17503984D02*
X9705896Y-17503984D01*
X9705896Y-17503984D02*
X9724944Y-17513508D01*
X9724944Y-17513508D02*
X9734468Y-17523031D01*
X9734468Y-17523031D02*
X9743991Y-17542079D01*
X9743991Y-17542079D02*
X9753515Y-17580174D01*
X9753515Y-17580174D02*
X9753515Y-17627793D01*
X9753515Y-17627793D02*
X9743991Y-17665889D01*
X9743991Y-17665889D02*
X9734468Y-17684936D01*
X9734468Y-17684936D02*
X9724944Y-17694460D01*
X9724944Y-17694460D02*
X9705896Y-17703984D01*
X9705896Y-17703984D02*
X9686848Y-17703984D01*
X9686848Y-17703984D02*
X9667801Y-17694460D01*
X9667801Y-17694460D02*
X9658277Y-17684936D01*
X9658277Y-17684936D02*
X9648753Y-17665889D01*
X9648753Y-17665889D02*
X9639229Y-17627793D01*
X9639229Y-17627793D02*
X9639229Y-17580174D01*
X9639229Y-17580174D02*
X9648753Y-17542079D01*
X9648753Y-17542079D02*
X9658277Y-17523031D01*
X9658277Y-17523031D02*
X9667801Y-17513508D01*
X9667801Y-17513508D02*
X9686848Y-17503984D01*
X9934468Y-17503984D02*
X9839229Y-17503984D01*
X9839229Y-17503984D02*
X9829706Y-17599222D01*
X9829706Y-17599222D02*
X9839229Y-17589698D01*
X9839229Y-17589698D02*
X9858277Y-17580174D01*
X9858277Y-17580174D02*
X9905896Y-17580174D01*
X9905896Y-17580174D02*
X9924944Y-17589698D01*
X9924944Y-17589698D02*
X9934468Y-17599222D01*
X9934468Y-17599222D02*
X9943991Y-17618270D01*
X9943991Y-17618270D02*
X9943991Y-17665889D01*
X9943991Y-17665889D02*
X9934468Y-17684936D01*
X9934468Y-17684936D02*
X9924944Y-17694460D01*
X9924944Y-17694460D02*
X9905896Y-17703984D01*
X9905896Y-17703984D02*
X9858277Y-17703984D01*
X9858277Y-17703984D02*
X9839229Y-17694460D01*
X9839229Y-17694460D02*
X9829706Y-17684936D01*
X10039229Y-17703984D02*
X10077325Y-17703984D01*
X10077325Y-17703984D02*
X10096372Y-17694460D01*
X10096372Y-17694460D02*
X10105896Y-17684936D01*
X10105896Y-17684936D02*
X10124944Y-17656365D01*
X10124944Y-17656365D02*
X10134468Y-17618270D01*
X10134468Y-17618270D02*
X10134468Y-17542079D01*
X10134468Y-17542079D02*
X10124944Y-17523031D01*
X10124944Y-17523031D02*
X10115420Y-17513508D01*
X10115420Y-17513508D02*
X10096372Y-17503984D01*
X10096372Y-17503984D02*
X10058277Y-17503984D01*
X10058277Y-17503984D02*
X10039229Y-17513508D01*
X10039229Y-17513508D02*
X10029706Y-17523031D01*
X10029706Y-17523031D02*
X10020182Y-17542079D01*
X10020182Y-17542079D02*
X10020182Y-17589698D01*
X10020182Y-17589698D02*
X10029706Y-17608746D01*
X10029706Y-17608746D02*
X10039229Y-17618270D01*
X10039229Y-17618270D02*
X10058277Y-17627793D01*
X10058277Y-17627793D02*
X10096372Y-17627793D01*
X10096372Y-17627793D02*
X10115420Y-17618270D01*
X10115420Y-17618270D02*
X10124944Y-17608746D01*
X10124944Y-17608746D02*
X10134468Y-17589698D01*
X10324944Y-17703984D02*
X10210658Y-17703984D01*
X10267801Y-17703984D02*
X10267801Y-17503984D01*
X10267801Y-17503984D02*
X10248753Y-17532555D01*
X10248753Y-17532555D02*
X10229706Y-17551603D01*
X10229706Y-17551603D02*
X10210658Y-17561127D01*
X10401134Y-17503984D02*
X10401134Y-17542079D01*
X10477325Y-17503984D02*
X10477325Y-17542079D01*
X10772563Y-17780174D02*
X10763039Y-17770650D01*
X10763039Y-17770650D02*
X10743991Y-17742079D01*
X10743991Y-17742079D02*
X10734468Y-17723031D01*
X10734468Y-17723031D02*
X10724944Y-17694460D01*
X10724944Y-17694460D02*
X10715420Y-17646841D01*
X10715420Y-17646841D02*
X10715420Y-17608746D01*
X10715420Y-17608746D02*
X10724944Y-17561127D01*
X10724944Y-17561127D02*
X10734468Y-17532555D01*
X10734468Y-17532555D02*
X10743991Y-17513508D01*
X10743991Y-17513508D02*
X10763039Y-17484936D01*
X10763039Y-17484936D02*
X10772563Y-17475412D01*
X10953515Y-17703984D02*
X10839230Y-17703984D01*
X10896372Y-17703984D02*
X10896372Y-17503984D01*
X10896372Y-17503984D02*
X10877325Y-17532555D01*
X10877325Y-17532555D02*
X10858277Y-17551603D01*
X10858277Y-17551603D02*
X10839230Y-17561127D01*
X11124944Y-17570650D02*
X11124944Y-17703984D01*
X11077325Y-17494460D02*
X11029706Y-17637317D01*
X11029706Y-17637317D02*
X11153515Y-17637317D01*
X11382087Y-17703984D02*
X11382087Y-17503984D01*
X11467801Y-17703984D02*
X11467801Y-17599222D01*
X11467801Y-17599222D02*
X11458277Y-17580174D01*
X11458277Y-17580174D02*
X11439230Y-17570650D01*
X11439230Y-17570650D02*
X11410658Y-17570650D01*
X11410658Y-17570650D02*
X11391610Y-17580174D01*
X11391610Y-17580174D02*
X11382087Y-17589698D01*
X11591610Y-17703984D02*
X11572563Y-17694460D01*
X11572563Y-17694460D02*
X11563039Y-17684936D01*
X11563039Y-17684936D02*
X11553515Y-17665889D01*
X11553515Y-17665889D02*
X11553515Y-17608746D01*
X11553515Y-17608746D02*
X11563039Y-17589698D01*
X11563039Y-17589698D02*
X11572563Y-17580174D01*
X11572563Y-17580174D02*
X11591610Y-17570650D01*
X11591610Y-17570650D02*
X11620182Y-17570650D01*
X11620182Y-17570650D02*
X11639230Y-17580174D01*
X11639230Y-17580174D02*
X11648753Y-17589698D01*
X11648753Y-17589698D02*
X11658277Y-17608746D01*
X11658277Y-17608746D02*
X11658277Y-17665889D01*
X11658277Y-17665889D02*
X11648753Y-17684936D01*
X11648753Y-17684936D02*
X11639230Y-17694460D01*
X11639230Y-17694460D02*
X11620182Y-17703984D01*
X11620182Y-17703984D02*
X11591610Y-17703984D01*
X11772563Y-17703984D02*
X11753515Y-17694460D01*
X11753515Y-17694460D02*
X11743991Y-17675412D01*
X11743991Y-17675412D02*
X11743991Y-17503984D01*
X11924944Y-17694460D02*
X11905896Y-17703984D01*
X11905896Y-17703984D02*
X11867801Y-17703984D01*
X11867801Y-17703984D02*
X11848753Y-17694460D01*
X11848753Y-17694460D02*
X11839230Y-17675412D01*
X11839230Y-17675412D02*
X11839230Y-17599222D01*
X11839230Y-17599222D02*
X11848753Y-17580174D01*
X11848753Y-17580174D02*
X11867801Y-17570650D01*
X11867801Y-17570650D02*
X11905896Y-17570650D01*
X11905896Y-17570650D02*
X11924944Y-17580174D01*
X11924944Y-17580174D02*
X11934468Y-17599222D01*
X11934468Y-17599222D02*
X11934468Y-17618270D01*
X11934468Y-17618270D02*
X11839230Y-17637317D01*
X12010658Y-17694460D02*
X12029706Y-17703984D01*
X12029706Y-17703984D02*
X12067801Y-17703984D01*
X12067801Y-17703984D02*
X12086849Y-17694460D01*
X12086849Y-17694460D02*
X12096372Y-17675412D01*
X12096372Y-17675412D02*
X12096372Y-17665889D01*
X12096372Y-17665889D02*
X12086849Y-17646841D01*
X12086849Y-17646841D02*
X12067801Y-17637317D01*
X12067801Y-17637317D02*
X12039230Y-17637317D01*
X12039230Y-17637317D02*
X12020182Y-17627793D01*
X12020182Y-17627793D02*
X12010658Y-17608746D01*
X12010658Y-17608746D02*
X12010658Y-17599222D01*
X12010658Y-17599222D02*
X12020182Y-17580174D01*
X12020182Y-17580174D02*
X12039230Y-17570650D01*
X12039230Y-17570650D02*
X12067801Y-17570650D01*
X12067801Y-17570650D02*
X12086849Y-17580174D01*
X12163039Y-17780174D02*
X12172563Y-17770650D01*
X12172563Y-17770650D02*
X12191611Y-17742079D01*
X12191611Y-17742079D02*
X12201134Y-17723031D01*
X12201134Y-17723031D02*
X12210658Y-17694460D01*
X12210658Y-17694460D02*
X12220182Y-17646841D01*
X12220182Y-17646841D02*
X12220182Y-17608746D01*
X12220182Y-17608746D02*
X12210658Y-17561127D01*
X12210658Y-17561127D02*
X12201134Y-17532555D01*
X12201134Y-17532555D02*
X12191611Y-17513508D01*
X12191611Y-17513508D02*
X12172563Y-17484936D01*
X12172563Y-17484936D02*
X12163039Y-17475412D01*
D15*
X7037500Y-17802500D02*
X7197500Y-17962500D01*
X7197500Y-17802500D02*
X7037500Y-17962500D01*
X7117500Y-17802500D02*
X7117500Y-17962500D01*
X7037500Y-17882500D02*
X7197500Y-17882500D01*
D11*
X7563039Y-17973984D02*
X7448753Y-17973984D01*
X7505896Y-17973984D02*
X7505896Y-17773984D01*
X7505896Y-17773984D02*
X7486848Y-17802555D01*
X7486848Y-17802555D02*
X7467801Y-17821603D01*
X7467801Y-17821603D02*
X7448753Y-17831127D01*
X7648753Y-17954936D02*
X7658277Y-17964460D01*
X7658277Y-17964460D02*
X7648753Y-17973984D01*
X7648753Y-17973984D02*
X7639229Y-17964460D01*
X7639229Y-17964460D02*
X7648753Y-17954936D01*
X7648753Y-17954936D02*
X7648753Y-17973984D01*
X7829705Y-17773984D02*
X7791610Y-17773984D01*
X7791610Y-17773984D02*
X7772562Y-17783508D01*
X7772562Y-17783508D02*
X7763039Y-17793031D01*
X7763039Y-17793031D02*
X7743991Y-17821603D01*
X7743991Y-17821603D02*
X7734467Y-17859698D01*
X7734467Y-17859698D02*
X7734467Y-17935889D01*
X7734467Y-17935889D02*
X7743991Y-17954936D01*
X7743991Y-17954936D02*
X7753515Y-17964460D01*
X7753515Y-17964460D02*
X7772562Y-17973984D01*
X7772562Y-17973984D02*
X7810658Y-17973984D01*
X7810658Y-17973984D02*
X7829705Y-17964460D01*
X7829705Y-17964460D02*
X7839229Y-17954936D01*
X7839229Y-17954936D02*
X7848753Y-17935889D01*
X7848753Y-17935889D02*
X7848753Y-17888270D01*
X7848753Y-17888270D02*
X7839229Y-17869222D01*
X7839229Y-17869222D02*
X7829705Y-17859698D01*
X7829705Y-17859698D02*
X7810658Y-17850174D01*
X7810658Y-17850174D02*
X7772562Y-17850174D01*
X7772562Y-17850174D02*
X7753515Y-17859698D01*
X7753515Y-17859698D02*
X7743991Y-17869222D01*
X7743991Y-17869222D02*
X7734467Y-17888270D01*
X7972562Y-17773984D02*
X7991610Y-17773984D01*
X7991610Y-17773984D02*
X8010658Y-17783508D01*
X8010658Y-17783508D02*
X8020182Y-17793031D01*
X8020182Y-17793031D02*
X8029705Y-17812079D01*
X8029705Y-17812079D02*
X8039229Y-17850174D01*
X8039229Y-17850174D02*
X8039229Y-17897793D01*
X8039229Y-17897793D02*
X8029705Y-17935889D01*
X8029705Y-17935889D02*
X8020182Y-17954936D01*
X8020182Y-17954936D02*
X8010658Y-17964460D01*
X8010658Y-17964460D02*
X7991610Y-17973984D01*
X7991610Y-17973984D02*
X7972562Y-17973984D01*
X7972562Y-17973984D02*
X7953515Y-17964460D01*
X7953515Y-17964460D02*
X7943991Y-17954936D01*
X7943991Y-17954936D02*
X7934467Y-17935889D01*
X7934467Y-17935889D02*
X7924943Y-17897793D01*
X7924943Y-17897793D02*
X7924943Y-17850174D01*
X7924943Y-17850174D02*
X7934467Y-17812079D01*
X7934467Y-17812079D02*
X7943991Y-17793031D01*
X7943991Y-17793031D02*
X7953515Y-17783508D01*
X7953515Y-17783508D02*
X7972562Y-17773984D01*
X8163039Y-17773984D02*
X8182086Y-17773984D01*
X8182086Y-17773984D02*
X8201134Y-17783508D01*
X8201134Y-17783508D02*
X8210658Y-17793031D01*
X8210658Y-17793031D02*
X8220182Y-17812079D01*
X8220182Y-17812079D02*
X8229705Y-17850174D01*
X8229705Y-17850174D02*
X8229705Y-17897793D01*
X8229705Y-17897793D02*
X8220182Y-17935889D01*
X8220182Y-17935889D02*
X8210658Y-17954936D01*
X8210658Y-17954936D02*
X8201134Y-17964460D01*
X8201134Y-17964460D02*
X8182086Y-17973984D01*
X8182086Y-17973984D02*
X8163039Y-17973984D01*
X8163039Y-17973984D02*
X8143991Y-17964460D01*
X8143991Y-17964460D02*
X8134467Y-17954936D01*
X8134467Y-17954936D02*
X8124943Y-17935889D01*
X8124943Y-17935889D02*
X8115420Y-17897793D01*
X8115420Y-17897793D02*
X8115420Y-17850174D01*
X8115420Y-17850174D02*
X8124943Y-17812079D01*
X8124943Y-17812079D02*
X8134467Y-17793031D01*
X8134467Y-17793031D02*
X8143991Y-17783508D01*
X8143991Y-17783508D02*
X8163039Y-17773984D01*
X8315420Y-17973984D02*
X8315420Y-17840650D01*
X8315420Y-17859698D02*
X8324943Y-17850174D01*
X8324943Y-17850174D02*
X8343991Y-17840650D01*
X8343991Y-17840650D02*
X8372563Y-17840650D01*
X8372563Y-17840650D02*
X8391610Y-17850174D01*
X8391610Y-17850174D02*
X8401134Y-17869222D01*
X8401134Y-17869222D02*
X8401134Y-17973984D01*
X8401134Y-17869222D02*
X8410658Y-17850174D01*
X8410658Y-17850174D02*
X8429705Y-17840650D01*
X8429705Y-17840650D02*
X8458277Y-17840650D01*
X8458277Y-17840650D02*
X8477325Y-17850174D01*
X8477325Y-17850174D02*
X8486848Y-17869222D01*
X8486848Y-17869222D02*
X8486848Y-17973984D01*
X8582086Y-17973984D02*
X8582086Y-17840650D01*
X8582086Y-17859698D02*
X8591610Y-17850174D01*
X8591610Y-17850174D02*
X8610658Y-17840650D01*
X8610658Y-17840650D02*
X8639229Y-17840650D01*
X8639229Y-17840650D02*
X8658277Y-17850174D01*
X8658277Y-17850174D02*
X8667801Y-17869222D01*
X8667801Y-17869222D02*
X8667801Y-17973984D01*
X8667801Y-17869222D02*
X8677325Y-17850174D01*
X8677325Y-17850174D02*
X8696372Y-17840650D01*
X8696372Y-17840650D02*
X8724944Y-17840650D01*
X8724944Y-17840650D02*
X8743991Y-17850174D01*
X8743991Y-17850174D02*
X8753515Y-17869222D01*
X8753515Y-17869222D02*
X8753515Y-17973984D01*
X9143991Y-17764460D02*
X8972563Y-18021603D01*
X9401134Y-17773984D02*
X9420182Y-17773984D01*
X9420182Y-17773984D02*
X9439229Y-17783508D01*
X9439229Y-17783508D02*
X9448753Y-17793031D01*
X9448753Y-17793031D02*
X9458277Y-17812079D01*
X9458277Y-17812079D02*
X9467801Y-17850174D01*
X9467801Y-17850174D02*
X9467801Y-17897793D01*
X9467801Y-17897793D02*
X9458277Y-17935889D01*
X9458277Y-17935889D02*
X9448753Y-17954936D01*
X9448753Y-17954936D02*
X9439229Y-17964460D01*
X9439229Y-17964460D02*
X9420182Y-17973984D01*
X9420182Y-17973984D02*
X9401134Y-17973984D01*
X9401134Y-17973984D02*
X9382087Y-17964460D01*
X9382087Y-17964460D02*
X9372563Y-17954936D01*
X9372563Y-17954936D02*
X9363039Y-17935889D01*
X9363039Y-17935889D02*
X9353515Y-17897793D01*
X9353515Y-17897793D02*
X9353515Y-17850174D01*
X9353515Y-17850174D02*
X9363039Y-17812079D01*
X9363039Y-17812079D02*
X9372563Y-17793031D01*
X9372563Y-17793031D02*
X9382087Y-17783508D01*
X9382087Y-17783508D02*
X9401134Y-17773984D01*
X9553515Y-17954936D02*
X9563039Y-17964460D01*
X9563039Y-17964460D02*
X9553515Y-17973984D01*
X9553515Y-17973984D02*
X9543991Y-17964460D01*
X9543991Y-17964460D02*
X9553515Y-17954936D01*
X9553515Y-17954936D02*
X9553515Y-17973984D01*
X9686848Y-17773984D02*
X9705896Y-17773984D01*
X9705896Y-17773984D02*
X9724944Y-17783508D01*
X9724944Y-17783508D02*
X9734468Y-17793031D01*
X9734468Y-17793031D02*
X9743991Y-17812079D01*
X9743991Y-17812079D02*
X9753515Y-17850174D01*
X9753515Y-17850174D02*
X9753515Y-17897793D01*
X9753515Y-17897793D02*
X9743991Y-17935889D01*
X9743991Y-17935889D02*
X9734468Y-17954936D01*
X9734468Y-17954936D02*
X9724944Y-17964460D01*
X9724944Y-17964460D02*
X9705896Y-17973984D01*
X9705896Y-17973984D02*
X9686848Y-17973984D01*
X9686848Y-17973984D02*
X9667801Y-17964460D01*
X9667801Y-17964460D02*
X9658277Y-17954936D01*
X9658277Y-17954936D02*
X9648753Y-17935889D01*
X9648753Y-17935889D02*
X9639229Y-17897793D01*
X9639229Y-17897793D02*
X9639229Y-17850174D01*
X9639229Y-17850174D02*
X9648753Y-17812079D01*
X9648753Y-17812079D02*
X9658277Y-17793031D01*
X9658277Y-17793031D02*
X9667801Y-17783508D01*
X9667801Y-17783508D02*
X9686848Y-17773984D01*
X9924944Y-17773984D02*
X9886848Y-17773984D01*
X9886848Y-17773984D02*
X9867801Y-17783508D01*
X9867801Y-17783508D02*
X9858277Y-17793031D01*
X9858277Y-17793031D02*
X9839229Y-17821603D01*
X9839229Y-17821603D02*
X9829706Y-17859698D01*
X9829706Y-17859698D02*
X9829706Y-17935889D01*
X9829706Y-17935889D02*
X9839229Y-17954936D01*
X9839229Y-17954936D02*
X9848753Y-17964460D01*
X9848753Y-17964460D02*
X9867801Y-17973984D01*
X9867801Y-17973984D02*
X9905896Y-17973984D01*
X9905896Y-17973984D02*
X9924944Y-17964460D01*
X9924944Y-17964460D02*
X9934468Y-17954936D01*
X9934468Y-17954936D02*
X9943991Y-17935889D01*
X9943991Y-17935889D02*
X9943991Y-17888270D01*
X9943991Y-17888270D02*
X9934468Y-17869222D01*
X9934468Y-17869222D02*
X9924944Y-17859698D01*
X9924944Y-17859698D02*
X9905896Y-17850174D01*
X9905896Y-17850174D02*
X9867801Y-17850174D01*
X9867801Y-17850174D02*
X9848753Y-17859698D01*
X9848753Y-17859698D02*
X9839229Y-17869222D01*
X9839229Y-17869222D02*
X9829706Y-17888270D01*
X10010658Y-17773984D02*
X10134468Y-17773984D01*
X10134468Y-17773984D02*
X10067801Y-17850174D01*
X10067801Y-17850174D02*
X10096372Y-17850174D01*
X10096372Y-17850174D02*
X10115420Y-17859698D01*
X10115420Y-17859698D02*
X10124944Y-17869222D01*
X10124944Y-17869222D02*
X10134468Y-17888270D01*
X10134468Y-17888270D02*
X10134468Y-17935889D01*
X10134468Y-17935889D02*
X10124944Y-17954936D01*
X10124944Y-17954936D02*
X10115420Y-17964460D01*
X10115420Y-17964460D02*
X10096372Y-17973984D01*
X10096372Y-17973984D02*
X10039229Y-17973984D01*
X10039229Y-17973984D02*
X10020182Y-17964460D01*
X10020182Y-17964460D02*
X10010658Y-17954936D01*
X10258277Y-17773984D02*
X10277325Y-17773984D01*
X10277325Y-17773984D02*
X10296372Y-17783508D01*
X10296372Y-17783508D02*
X10305896Y-17793031D01*
X10305896Y-17793031D02*
X10315420Y-17812079D01*
X10315420Y-17812079D02*
X10324944Y-17850174D01*
X10324944Y-17850174D02*
X10324944Y-17897793D01*
X10324944Y-17897793D02*
X10315420Y-17935889D01*
X10315420Y-17935889D02*
X10305896Y-17954936D01*
X10305896Y-17954936D02*
X10296372Y-17964460D01*
X10296372Y-17964460D02*
X10277325Y-17973984D01*
X10277325Y-17973984D02*
X10258277Y-17973984D01*
X10258277Y-17973984D02*
X10239229Y-17964460D01*
X10239229Y-17964460D02*
X10229706Y-17954936D01*
X10229706Y-17954936D02*
X10220182Y-17935889D01*
X10220182Y-17935889D02*
X10210658Y-17897793D01*
X10210658Y-17897793D02*
X10210658Y-17850174D01*
X10210658Y-17850174D02*
X10220182Y-17812079D01*
X10220182Y-17812079D02*
X10229706Y-17793031D01*
X10229706Y-17793031D02*
X10239229Y-17783508D01*
X10239229Y-17783508D02*
X10258277Y-17773984D01*
X10401134Y-17773984D02*
X10401134Y-17812079D01*
X10477325Y-17773984D02*
X10477325Y-17812079D01*
X10772563Y-18050174D02*
X10763039Y-18040650D01*
X10763039Y-18040650D02*
X10743991Y-18012079D01*
X10743991Y-18012079D02*
X10734468Y-17993031D01*
X10734468Y-17993031D02*
X10724944Y-17964460D01*
X10724944Y-17964460D02*
X10715420Y-17916841D01*
X10715420Y-17916841D02*
X10715420Y-17878746D01*
X10715420Y-17878746D02*
X10724944Y-17831127D01*
X10724944Y-17831127D02*
X10734468Y-17802555D01*
X10734468Y-17802555D02*
X10743991Y-17783508D01*
X10743991Y-17783508D02*
X10763039Y-17754936D01*
X10763039Y-17754936D02*
X10772563Y-17745412D01*
X10839230Y-17793031D02*
X10848753Y-17783508D01*
X10848753Y-17783508D02*
X10867801Y-17773984D01*
X10867801Y-17773984D02*
X10915420Y-17773984D01*
X10915420Y-17773984D02*
X10934468Y-17783508D01*
X10934468Y-17783508D02*
X10943991Y-17793031D01*
X10943991Y-17793031D02*
X10953515Y-17812079D01*
X10953515Y-17812079D02*
X10953515Y-17831127D01*
X10953515Y-17831127D02*
X10943991Y-17859698D01*
X10943991Y-17859698D02*
X10829706Y-17973984D01*
X10829706Y-17973984D02*
X10953515Y-17973984D01*
X11191610Y-17973984D02*
X11191610Y-17773984D01*
X11277325Y-17973984D02*
X11277325Y-17869222D01*
X11277325Y-17869222D02*
X11267801Y-17850174D01*
X11267801Y-17850174D02*
X11248753Y-17840650D01*
X11248753Y-17840650D02*
X11220182Y-17840650D01*
X11220182Y-17840650D02*
X11201134Y-17850174D01*
X11201134Y-17850174D02*
X11191610Y-17859698D01*
X11401134Y-17973984D02*
X11382087Y-17964460D01*
X11382087Y-17964460D02*
X11372563Y-17954936D01*
X11372563Y-17954936D02*
X11363039Y-17935889D01*
X11363039Y-17935889D02*
X11363039Y-17878746D01*
X11363039Y-17878746D02*
X11372563Y-17859698D01*
X11372563Y-17859698D02*
X11382087Y-17850174D01*
X11382087Y-17850174D02*
X11401134Y-17840650D01*
X11401134Y-17840650D02*
X11429706Y-17840650D01*
X11429706Y-17840650D02*
X11448753Y-17850174D01*
X11448753Y-17850174D02*
X11458277Y-17859698D01*
X11458277Y-17859698D02*
X11467801Y-17878746D01*
X11467801Y-17878746D02*
X11467801Y-17935889D01*
X11467801Y-17935889D02*
X11458277Y-17954936D01*
X11458277Y-17954936D02*
X11448753Y-17964460D01*
X11448753Y-17964460D02*
X11429706Y-17973984D01*
X11429706Y-17973984D02*
X11401134Y-17973984D01*
X11582087Y-17973984D02*
X11563039Y-17964460D01*
X11563039Y-17964460D02*
X11553515Y-17945412D01*
X11553515Y-17945412D02*
X11553515Y-17773984D01*
X11734468Y-17964460D02*
X11715420Y-17973984D01*
X11715420Y-17973984D02*
X11677325Y-17973984D01*
X11677325Y-17973984D02*
X11658277Y-17964460D01*
X11658277Y-17964460D02*
X11648753Y-17945412D01*
X11648753Y-17945412D02*
X11648753Y-17869222D01*
X11648753Y-17869222D02*
X11658277Y-17850174D01*
X11658277Y-17850174D02*
X11677325Y-17840650D01*
X11677325Y-17840650D02*
X11715420Y-17840650D01*
X11715420Y-17840650D02*
X11734468Y-17850174D01*
X11734468Y-17850174D02*
X11743991Y-17869222D01*
X11743991Y-17869222D02*
X11743991Y-17888270D01*
X11743991Y-17888270D02*
X11648753Y-17907317D01*
X11820182Y-17964460D02*
X11839230Y-17973984D01*
X11839230Y-17973984D02*
X11877325Y-17973984D01*
X11877325Y-17973984D02*
X11896372Y-17964460D01*
X11896372Y-17964460D02*
X11905896Y-17945412D01*
X11905896Y-17945412D02*
X11905896Y-17935889D01*
X11905896Y-17935889D02*
X11896372Y-17916841D01*
X11896372Y-17916841D02*
X11877325Y-17907317D01*
X11877325Y-17907317D02*
X11848753Y-17907317D01*
X11848753Y-17907317D02*
X11829706Y-17897793D01*
X11829706Y-17897793D02*
X11820182Y-17878746D01*
X11820182Y-17878746D02*
X11820182Y-17869222D01*
X11820182Y-17869222D02*
X11829706Y-17850174D01*
X11829706Y-17850174D02*
X11848753Y-17840650D01*
X11848753Y-17840650D02*
X11877325Y-17840650D01*
X11877325Y-17840650D02*
X11896372Y-17850174D01*
X11972563Y-18050174D02*
X11982087Y-18040650D01*
X11982087Y-18040650D02*
X12001134Y-18012079D01*
X12001134Y-18012079D02*
X12010658Y-17993031D01*
X12010658Y-17993031D02*
X12020182Y-17964460D01*
X12020182Y-17964460D02*
X12029706Y-17916841D01*
X12029706Y-17916841D02*
X12029706Y-17878746D01*
X12029706Y-17878746D02*
X12020182Y-17831127D01*
X12020182Y-17831127D02*
X12010658Y-17802555D01*
X12010658Y-17802555D02*
X12001134Y-17783508D01*
X12001134Y-17783508D02*
X11982087Y-17754936D01*
X11982087Y-17754936D02*
X11972563Y-17745412D01*
M02*
