G04 #@! TF.GenerationSoftware,KiCad,Pcbnew,9.0.1*
G04 #@! TF.CreationDate,2025-10-01T12:05:20-04:00*
G04 #@! TF.ProjectId,SCREEN_VERSION_1.2,53435245-454e-45f5-9645-5253494f4e5f,rev?*
G04 #@! TF.SameCoordinates,Original*
G04 #@! TF.FileFunction,Copper,L1,Top*
G04 #@! TF.FilePolarity,Positive*
%FSLAX46Y46*%
G04 Gerber Fmt 4.6, Leading zero omitted, Abs format (unit mm)*
G04 Created by KiCad (PCBNEW 9.0.1) date 2025-10-01 12:05:20*
%MOMM*%
%LPD*%
G01*
G04 APERTURE LIST*
G04 Aperture macros list*
%AMRoundRect*
0 Rectangle with rounded corners*
0 $1 Rounding radius*
0 $2 $3 $4 $5 $6 $7 $8 $9 X,Y pos of 4 corners*
0 Add a 4 corners polygon primitive as box body*
4,1,4,$2,$3,$4,$5,$6,$7,$8,$9,$2,$3,0*
0 Add four circle primitives for the rounded corners*
1,1,$1+$1,$2,$3*
1,1,$1+$1,$4,$5*
1,1,$1+$1,$6,$7*
1,1,$1+$1,$8,$9*
0 Add four rect primitives between the rounded corners*
20,1,$1+$1,$2,$3,$4,$5,0*
20,1,$1+$1,$4,$5,$6,$7,0*
20,1,$1+$1,$6,$7,$8,$9,0*
20,1,$1+$1,$8,$9,$2,$3,0*%
G04 Aperture macros list end*
G04 #@! TA.AperFunction,SMDPad,CuDef*
%ADD10RoundRect,0.250000X0.375000X0.625000X-0.375000X0.625000X-0.375000X-0.625000X0.375000X-0.625000X0*%
G04 #@! TD*
G04 #@! TA.AperFunction,SMDPad,CuDef*
%ADD11RoundRect,0.150000X-0.150000X0.587500X-0.150000X-0.587500X0.150000X-0.587500X0.150000X0.587500X0*%
G04 #@! TD*
G04 #@! TA.AperFunction,SMDPad,CuDef*
%ADD12RoundRect,0.135000X-0.185000X0.135000X-0.185000X-0.135000X0.185000X-0.135000X0.185000X0.135000X0*%
G04 #@! TD*
G04 #@! TA.AperFunction,SMDPad,CuDef*
%ADD13RoundRect,0.135000X0.185000X-0.135000X0.185000X0.135000X-0.185000X0.135000X-0.185000X-0.135000X0*%
G04 #@! TD*
G04 #@! TA.AperFunction,SMDPad,CuDef*
%ADD14RoundRect,0.135000X-0.135000X-0.185000X0.135000X-0.185000X0.135000X0.185000X-0.135000X0.185000X0*%
G04 #@! TD*
G04 #@! TA.AperFunction,ComponentPad*
%ADD15R,1.300000X1.300000*%
G04 #@! TD*
G04 #@! TA.AperFunction,ComponentPad*
%ADD16C,1.300000*%
G04 #@! TD*
G04 #@! TA.AperFunction,SMDPad,CuDef*
%ADD17RoundRect,0.250000X-0.475000X0.250000X-0.475000X-0.250000X0.475000X-0.250000X0.475000X0.250000X0*%
G04 #@! TD*
G04 #@! TA.AperFunction,SMDPad,CuDef*
%ADD18RoundRect,0.225000X-0.225000X-0.250000X0.225000X-0.250000X0.225000X0.250000X-0.225000X0.250000X0*%
G04 #@! TD*
G04 #@! TA.AperFunction,SMDPad,CuDef*
%ADD19RoundRect,0.100000X0.550000X0.100000X-0.550000X0.100000X-0.550000X-0.100000X0.550000X-0.100000X0*%
G04 #@! TD*
G04 #@! TA.AperFunction,SMDPad,CuDef*
%ADD20RoundRect,0.325000X0.325000X0.510000X-0.325000X0.510000X-0.325000X-0.510000X0.325000X-0.510000X0*%
G04 #@! TD*
G04 #@! TA.AperFunction,SMDPad,CuDef*
%ADD21RoundRect,0.375000X-0.625000X-0.375000X0.625000X-0.375000X0.625000X0.375000X-0.625000X0.375000X0*%
G04 #@! TD*
G04 #@! TA.AperFunction,SMDPad,CuDef*
%ADD22RoundRect,0.500000X-0.500000X-1.400000X0.500000X-1.400000X0.500000X1.400000X-0.500000X1.400000X0*%
G04 #@! TD*
G04 #@! TA.AperFunction,SMDPad,CuDef*
%ADD23RoundRect,0.140000X0.140000X0.170000X-0.140000X0.170000X-0.140000X-0.170000X0.140000X-0.170000X0*%
G04 #@! TD*
G04 #@! TA.AperFunction,SMDPad,CuDef*
%ADD24RoundRect,0.650000X-3.450000X0.650000X-3.450000X-0.650000X3.450000X-0.650000X3.450000X0.650000X0*%
G04 #@! TD*
G04 #@! TA.AperFunction,ComponentPad*
%ADD25R,1.700000X1.700000*%
G04 #@! TD*
G04 #@! TA.AperFunction,ComponentPad*
%ADD26O,1.700000X1.700000*%
G04 #@! TD*
G04 #@! TA.AperFunction,SMDPad,CuDef*
%ADD27RoundRect,0.375000X0.375000X-0.625000X0.375000X0.625000X-0.375000X0.625000X-0.375000X-0.625000X0*%
G04 #@! TD*
G04 #@! TA.AperFunction,SMDPad,CuDef*
%ADD28RoundRect,0.500000X1.400000X-0.500000X1.400000X0.500000X-1.400000X0.500000X-1.400000X-0.500000X0*%
G04 #@! TD*
G04 #@! TA.AperFunction,SMDPad,CuDef*
%ADD29RoundRect,0.140000X-0.140000X-0.170000X0.140000X-0.170000X0.140000X0.170000X-0.140000X0.170000X0*%
G04 #@! TD*
G04 #@! TA.AperFunction,SMDPad,CuDef*
%ADD30RoundRect,0.135000X0.135000X0.185000X-0.135000X0.185000X-0.135000X-0.185000X0.135000X-0.185000X0*%
G04 #@! TD*
G04 #@! TA.AperFunction,SMDPad,CuDef*
%ADD31RoundRect,0.140000X0.170000X-0.140000X0.170000X0.140000X-0.170000X0.140000X-0.170000X-0.140000X0*%
G04 #@! TD*
G04 #@! TA.AperFunction,ComponentPad*
%ADD32O,2.200000X3.500000*%
G04 #@! TD*
G04 #@! TA.AperFunction,ComponentPad*
%ADD33R,1.500000X2.500000*%
G04 #@! TD*
G04 #@! TA.AperFunction,ComponentPad*
%ADD34O,1.500000X2.500000*%
G04 #@! TD*
G04 #@! TA.AperFunction,SMDPad,CuDef*
%ADD35RoundRect,0.250000X0.475000X-0.250000X0.475000X0.250000X-0.475000X0.250000X-0.475000X-0.250000X0*%
G04 #@! TD*
G04 #@! TA.AperFunction,SMDPad,CuDef*
%ADD36R,2.100000X1.800000*%
G04 #@! TD*
G04 #@! TA.AperFunction,SMDPad,CuDef*
%ADD37RoundRect,0.140000X-0.170000X0.140000X-0.170000X-0.140000X0.170000X-0.140000X0.170000X0.140000X0*%
G04 #@! TD*
G04 #@! TA.AperFunction,ComponentPad*
%ADD38R,1.800000X1.275000*%
G04 #@! TD*
G04 #@! TA.AperFunction,ComponentPad*
%ADD39O,1.800000X1.275000*%
G04 #@! TD*
G04 #@! TA.AperFunction,SMDPad,CuDef*
%ADD40RoundRect,0.225000X0.225000X0.250000X-0.225000X0.250000X-0.225000X-0.250000X0.225000X-0.250000X0*%
G04 #@! TD*
G04 #@! TA.AperFunction,SMDPad,CuDef*
%ADD41RoundRect,0.250000X1.100000X-0.412500X1.100000X0.412500X-1.100000X0.412500X-1.100000X-0.412500X0*%
G04 #@! TD*
G04 #@! TA.AperFunction,SMDPad,CuDef*
%ADD42RoundRect,0.075000X-0.925000X-0.075000X0.925000X-0.075000X0.925000X0.075000X-0.925000X0.075000X0*%
G04 #@! TD*
G04 #@! TA.AperFunction,SMDPad,CuDef*
%ADD43RoundRect,0.250000X0.250000X0.475000X-0.250000X0.475000X-0.250000X-0.475000X0.250000X-0.475000X0*%
G04 #@! TD*
G04 #@! TA.AperFunction,SMDPad,CuDef*
%ADD44RoundRect,0.237500X0.237500X-0.287500X0.237500X0.287500X-0.237500X0.287500X-0.237500X-0.287500X0*%
G04 #@! TD*
G04 #@! TA.AperFunction,SMDPad,CuDef*
%ADD45RoundRect,0.218750X0.256250X-0.218750X0.256250X0.218750X-0.256250X0.218750X-0.256250X-0.218750X0*%
G04 #@! TD*
G04 #@! TA.AperFunction,SMDPad,CuDef*
%ADD46RoundRect,0.218750X0.218750X0.256250X-0.218750X0.256250X-0.218750X-0.256250X0.218750X-0.256250X0*%
G04 #@! TD*
G04 #@! TA.AperFunction,SMDPad,CuDef*
%ADD47RoundRect,0.250000X-1.100000X0.412500X-1.100000X-0.412500X1.100000X-0.412500X1.100000X0.412500X0*%
G04 #@! TD*
G04 #@! TA.AperFunction,SMDPad,CuDef*
%ADD48RoundRect,0.200000X-1.550000X-0.200000X1.550000X-0.200000X1.550000X0.200000X-1.550000X0.200000X0*%
G04 #@! TD*
G04 #@! TA.AperFunction,SMDPad,CuDef*
%ADD49RoundRect,0.815000X-1.485000X-0.815000X1.485000X-0.815000X1.485000X0.815000X-1.485000X0.815000X0*%
G04 #@! TD*
G04 #@! TA.AperFunction,SMDPad,CuDef*
%ADD50R,1.000000X2.500000*%
G04 #@! TD*
G04 #@! TA.AperFunction,SMDPad,CuDef*
%ADD51R,1.800000X1.000000*%
G04 #@! TD*
G04 #@! TA.AperFunction,SMDPad,CuDef*
%ADD52RoundRect,0.218750X-0.256250X0.218750X-0.256250X-0.218750X0.256250X-0.218750X0.256250X0.218750X0*%
G04 #@! TD*
G04 #@! TA.AperFunction,SMDPad,CuDef*
%ADD53RoundRect,0.150000X-0.650000X-0.150000X0.650000X-0.150000X0.650000X0.150000X-0.650000X0.150000X0*%
G04 #@! TD*
G04 #@! TA.AperFunction,HeatsinkPad*
%ADD54R,2.400000X3.200000*%
G04 #@! TD*
G04 #@! TA.AperFunction,SMDPad,CuDef*
%ADD55RoundRect,0.225000X0.250000X-0.225000X0.250000X0.225000X-0.250000X0.225000X-0.250000X-0.225000X0*%
G04 #@! TD*
G04 #@! TA.AperFunction,ComponentPad*
%ADD56R,3.200000X3.200000*%
G04 #@! TD*
G04 #@! TA.AperFunction,ComponentPad*
%ADD57O,3.200000X3.200000*%
G04 #@! TD*
G04 #@! TA.AperFunction,SMDPad,CuDef*
%ADD58RoundRect,0.102500X-0.102500X0.797500X-0.102500X-0.797500X0.102500X-0.797500X0.102500X0.797500X0*%
G04 #@! TD*
G04 #@! TA.AperFunction,SMDPad,CuDef*
%ADD59RoundRect,0.102500X0.102500X-0.797500X0.102500X0.797500X-0.102500X0.797500X-0.102500X-0.797500X0*%
G04 #@! TD*
G04 #@! TA.AperFunction,SMDPad,CuDef*
%ADD60RoundRect,0.075000X-0.675000X-0.075000X0.675000X-0.075000X0.675000X0.075000X-0.675000X0.075000X0*%
G04 #@! TD*
G04 #@! TA.AperFunction,SMDPad,CuDef*
%ADD61RoundRect,0.075000X-0.075000X-0.675000X0.075000X-0.675000X0.075000X0.675000X-0.075000X0.675000X0*%
G04 #@! TD*
G04 #@! TA.AperFunction,ComponentPad*
%ADD62C,1.600000*%
G04 #@! TD*
G04 #@! TA.AperFunction,SMDPad,CuDef*
%ADD63RoundRect,0.225000X-0.250000X0.225000X-0.250000X-0.225000X0.250000X-0.225000X0.250000X0.225000X0*%
G04 #@! TD*
G04 #@! TA.AperFunction,ComponentPad*
%ADD64O,3.500000X2.200000*%
G04 #@! TD*
G04 #@! TA.AperFunction,ComponentPad*
%ADD65R,2.500000X1.500000*%
G04 #@! TD*
G04 #@! TA.AperFunction,ComponentPad*
%ADD66O,2.500000X1.500000*%
G04 #@! TD*
G04 #@! TA.AperFunction,ComponentPad*
%ADD67RoundRect,0.250000X0.600000X-0.600000X0.600000X0.600000X-0.600000X0.600000X-0.600000X-0.600000X0*%
G04 #@! TD*
G04 #@! TA.AperFunction,ComponentPad*
%ADD68C,1.700000*%
G04 #@! TD*
G04 #@! TA.AperFunction,SMDPad,CuDef*
%ADD69RoundRect,0.092500X-0.092500X0.807500X-0.092500X-0.807500X0.092500X-0.807500X0.092500X0.807500X0*%
G04 #@! TD*
G04 #@! TA.AperFunction,SMDPad,CuDef*
%ADD70RoundRect,0.150000X0.150000X-0.512500X0.150000X0.512500X-0.150000X0.512500X-0.150000X-0.512500X0*%
G04 #@! TD*
G04 #@! TA.AperFunction,SMDPad,CuDef*
%ADD71RoundRect,0.075000X0.925000X0.075000X-0.925000X0.075000X-0.925000X-0.075000X0.925000X-0.075000X0*%
G04 #@! TD*
G04 #@! TA.AperFunction,ComponentPad*
%ADD72R,2.000000X4.000000*%
G04 #@! TD*
G04 #@! TA.AperFunction,ComponentPad*
%ADD73O,2.000000X3.300000*%
G04 #@! TD*
G04 #@! TA.AperFunction,ComponentPad*
%ADD74O,3.500000X2.000000*%
G04 #@! TD*
G04 #@! TA.AperFunction,SMDPad,CuDef*
%ADD75R,0.300000X1.300000*%
G04 #@! TD*
G04 #@! TA.AperFunction,SMDPad,CuDef*
%ADD76R,1.800000X2.200000*%
G04 #@! TD*
G04 #@! TA.AperFunction,ViaPad*
%ADD77C,0.700000*%
G04 #@! TD*
G04 #@! TA.AperFunction,ViaPad*
%ADD78C,2.000000*%
G04 #@! TD*
G04 #@! TA.AperFunction,Conductor*
%ADD79C,1.500000*%
G04 #@! TD*
G04 #@! TA.AperFunction,Conductor*
%ADD80C,0.500000*%
G04 #@! TD*
G04 #@! TA.AperFunction,Conductor*
%ADD81C,0.300000*%
G04 #@! TD*
G04 #@! TA.AperFunction,Conductor*
%ADD82C,1.000000*%
G04 #@! TD*
G04 #@! TA.AperFunction,Conductor*
%ADD83C,2.000000*%
G04 #@! TD*
G04 APERTURE END LIST*
D10*
X216925000Y-66625000D03*
X214125000Y-66625000D03*
D11*
X217500000Y-81900000D03*
X215600000Y-81900000D03*
X216550000Y-83775000D03*
D12*
X221775000Y-74615000D03*
X221775000Y-75635000D03*
D13*
X219400000Y-76910000D03*
X219400000Y-75890000D03*
X217500000Y-76910000D03*
X217500000Y-75890000D03*
D14*
X213450000Y-78525000D03*
X214470000Y-78525000D03*
X216250000Y-78525000D03*
X217270000Y-78525000D03*
D15*
X231440000Y-77150000D03*
D16*
X228900000Y-77150000D03*
X226360000Y-77150000D03*
D17*
X216800000Y-115300000D03*
X216800000Y-117200000D03*
D18*
X158225000Y-130250000D03*
X159775000Y-130250000D03*
D14*
X193730000Y-59000000D03*
X194750000Y-59000000D03*
D17*
X214550000Y-115300000D03*
X214550000Y-117200000D03*
D19*
X134850000Y-136607500D03*
D20*
X134850000Y-134702500D03*
D19*
X134850000Y-132797500D03*
X129650000Y-132797500D03*
D20*
X129650000Y-134702500D03*
D19*
X129650000Y-136607500D03*
D18*
X177972500Y-81752500D03*
X179522500Y-81752500D03*
D21*
X82500000Y-65750000D03*
X82500000Y-68050000D03*
D22*
X88800000Y-68050000D03*
D21*
X82500000Y-70350000D03*
D23*
X172980000Y-146000000D03*
X172020000Y-146000000D03*
D24*
X204500000Y-74750000D03*
X204500000Y-80350000D03*
D25*
X231350000Y-143875000D03*
D26*
X233890000Y-143875000D03*
D27*
X196750000Y-130400000D03*
X199050000Y-130400000D03*
D28*
X199050000Y-124100000D03*
D27*
X201350000Y-130400000D03*
D23*
X166500000Y-115750000D03*
X165540000Y-115750000D03*
D29*
X166020000Y-83750000D03*
X166980000Y-83750000D03*
D30*
X91010000Y-77250000D03*
X89990000Y-77250000D03*
D23*
X142580000Y-96300000D03*
X141620000Y-96300000D03*
D29*
X184020000Y-104750000D03*
X184980000Y-104750000D03*
D31*
X153250000Y-100230000D03*
X153250000Y-99270000D03*
D32*
X222600000Y-147150000D03*
X214400000Y-147150000D03*
D33*
X220500000Y-147150000D03*
D34*
X218500000Y-147150000D03*
X216500000Y-147150000D03*
D31*
X152500000Y-97980000D03*
X152500000Y-97020000D03*
D32*
X165900000Y-55500000D03*
X174100000Y-55500000D03*
D33*
X168000000Y-55500000D03*
D34*
X170000000Y-55500000D03*
X172000000Y-55500000D03*
D23*
X159730000Y-132000000D03*
X158770000Y-132000000D03*
D35*
X79000000Y-69950000D03*
X79000000Y-68050000D03*
D21*
X145600000Y-143450000D03*
X145600000Y-145750000D03*
D22*
X151900000Y-145750000D03*
D21*
X145600000Y-148050000D03*
D31*
X137600000Y-101280000D03*
X137600000Y-100320000D03*
D30*
X91010000Y-84750000D03*
X89990000Y-84750000D03*
D25*
X219130000Y-108750000D03*
D26*
X216590000Y-108750000D03*
X214050000Y-108750000D03*
X211510000Y-108750000D03*
X208970000Y-108750000D03*
X206430000Y-108750000D03*
D30*
X91020000Y-79750000D03*
X90000000Y-79750000D03*
D25*
X79500000Y-76950000D03*
D26*
X79500000Y-79490000D03*
X79500000Y-82030000D03*
X79500000Y-84570000D03*
X79500000Y-87110000D03*
D36*
X144000000Y-100000000D03*
X141100000Y-100000000D03*
X141100000Y-102300000D03*
X144000000Y-102300000D03*
D25*
X211475000Y-87750000D03*
D26*
X211475000Y-90290000D03*
D37*
X163750000Y-115270000D03*
X163750000Y-116230000D03*
D13*
X209000000Y-59010000D03*
X209000000Y-57990000D03*
D29*
X178017500Y-84502500D03*
X178977500Y-84502500D03*
D13*
X224000000Y-139900000D03*
X224000000Y-138880000D03*
D38*
X217250000Y-62800000D03*
D39*
X217250000Y-61100000D03*
X217250000Y-59400000D03*
X217250000Y-57700000D03*
X217250000Y-56000000D03*
D31*
X88750000Y-103480000D03*
X88750000Y-102520000D03*
D40*
X152550000Y-115737500D03*
X151000000Y-115737500D03*
D41*
X222000000Y-62500000D03*
X222000000Y-59375000D03*
D23*
X171500000Y-115750000D03*
X170540000Y-115750000D03*
D42*
X95875000Y-104150000D03*
X95875000Y-103650000D03*
X95875000Y-103150000D03*
X95875000Y-102650000D03*
X95875000Y-102150000D03*
X91375000Y-102150000D03*
X91375000Y-102650000D03*
X91375000Y-103150000D03*
X91375000Y-103650000D03*
X91375000Y-104150000D03*
D32*
X191150000Y-55500000D03*
X199350000Y-55500000D03*
D33*
X193250000Y-55500000D03*
D34*
X195250000Y-55500000D03*
X197250000Y-55500000D03*
D35*
X154250000Y-142150000D03*
X154250000Y-140250000D03*
D31*
X159500000Y-83730000D03*
X159500000Y-82770000D03*
D43*
X195525000Y-118975000D03*
X193625000Y-118975000D03*
D37*
X152500000Y-107020000D03*
X152500000Y-107980000D03*
D29*
X152040000Y-105500000D03*
X153000000Y-105500000D03*
D32*
X143400000Y-136250000D03*
X151600000Y-136250000D03*
D33*
X145500000Y-136250000D03*
D34*
X147500000Y-136250000D03*
X149500000Y-136250000D03*
D14*
X150500000Y-101250000D03*
X151520000Y-101250000D03*
D44*
X144750000Y-129077500D03*
X144750000Y-127327500D03*
D45*
X222250000Y-115225000D03*
X222250000Y-113650000D03*
D25*
X165170000Y-64500000D03*
D26*
X167710000Y-64500000D03*
X170250000Y-64500000D03*
X172790000Y-64500000D03*
D46*
X87287500Y-79750000D03*
X85712500Y-79750000D03*
D18*
X88475000Y-125700000D03*
X90025000Y-125700000D03*
D35*
X141500000Y-150450000D03*
X141500000Y-148550000D03*
D47*
X195500000Y-80687500D03*
X195500000Y-83812500D03*
D48*
X216725000Y-90960000D03*
X216725000Y-92230000D03*
X216725000Y-93500000D03*
X216725000Y-94770000D03*
X216725000Y-96040000D03*
X216725000Y-97310000D03*
X216725000Y-98580000D03*
X216725000Y-99850000D03*
X216725000Y-101120000D03*
X216725000Y-102390000D03*
D49*
X233875000Y-89905000D03*
X233875000Y-103445000D03*
D37*
X184000000Y-96040000D03*
X184000000Y-97000000D03*
D40*
X103275000Y-77250000D03*
X101725000Y-77250000D03*
D30*
X91010000Y-82000000D03*
X89990000Y-82000000D03*
D23*
X152960000Y-92500000D03*
X152000000Y-92500000D03*
D13*
X210300000Y-152010000D03*
X210300000Y-150990000D03*
D30*
X91010000Y-87500000D03*
X89990000Y-87500000D03*
X230060000Y-112900000D03*
X229040000Y-112900000D03*
D50*
X226250000Y-120150000D03*
X224250000Y-120150000D03*
X222250000Y-120150000D03*
X220250000Y-120150000D03*
X218250000Y-120150000D03*
X216250000Y-120150000D03*
X214250000Y-120150000D03*
X212250000Y-120150000D03*
D51*
X210750000Y-122750000D03*
X210750000Y-124750000D03*
X210750000Y-126750000D03*
X210750000Y-128750000D03*
X210750000Y-130750000D03*
X210750000Y-132750000D03*
D50*
X212250000Y-135350000D03*
X214250000Y-135350000D03*
X216250000Y-135350000D03*
X218250000Y-135350000D03*
X220250000Y-135350000D03*
X222250000Y-135350000D03*
X224250000Y-135350000D03*
X226250000Y-135350000D03*
D37*
X184500000Y-107020000D03*
X184500000Y-107980000D03*
D12*
X225250000Y-114890000D03*
X225250000Y-115910000D03*
D13*
X216000000Y-140410000D03*
X216000000Y-139390000D03*
D52*
X222500000Y-138362500D03*
X222500000Y-139937500D03*
D30*
X149760000Y-104500000D03*
X148740000Y-104500000D03*
D29*
X184270000Y-91250000D03*
X185230000Y-91250000D03*
X222290000Y-117150000D03*
X223250000Y-117150000D03*
D30*
X224770000Y-112650000D03*
X223750000Y-112650000D03*
D52*
X152025000Y-111450000D03*
X152025000Y-113025000D03*
D31*
X180500000Y-128980000D03*
X180500000Y-128020000D03*
D37*
X175500000Y-115520000D03*
X175500000Y-116480000D03*
D30*
X159510000Y-59000000D03*
X158490000Y-59000000D03*
D25*
X205260000Y-147750000D03*
D26*
X207800000Y-147750000D03*
X210340000Y-147750000D03*
D37*
X140750000Y-111520000D03*
X140750000Y-112480000D03*
D53*
X88500000Y-129495000D03*
X88500000Y-130765000D03*
X88500000Y-132035000D03*
X88500000Y-133305000D03*
X93800000Y-133305000D03*
X93800000Y-132035000D03*
X93800000Y-130765000D03*
X93800000Y-129495000D03*
D54*
X91150000Y-131400000D03*
D31*
X183000000Y-130480000D03*
X183000000Y-129520000D03*
X175500000Y-129730000D03*
X175500000Y-128770000D03*
D12*
X205550000Y-143740000D03*
X205550000Y-144760000D03*
D25*
X231250000Y-139975000D03*
D26*
X233790000Y-139975000D03*
D46*
X87250000Y-77250000D03*
X85675000Y-77250000D03*
D37*
X138250000Y-111520000D03*
X138250000Y-112480000D03*
D55*
X143750000Y-132502500D03*
X143750000Y-130952500D03*
D56*
X205620000Y-66000000D03*
D57*
X190380000Y-66000000D03*
D37*
X153500000Y-101270000D03*
X153500000Y-102230000D03*
D23*
X218210000Y-137650000D03*
X217250000Y-137650000D03*
D37*
X97750000Y-93250000D03*
X97750000Y-94210000D03*
D30*
X221510000Y-142900000D03*
X220490000Y-142900000D03*
D37*
X184250000Y-89020000D03*
X184250000Y-89980000D03*
D25*
X144475000Y-113250000D03*
D26*
X144475000Y-110710000D03*
D31*
X187000000Y-105230000D03*
X187000000Y-104270000D03*
D52*
X220250000Y-138362500D03*
X220250000Y-139937500D03*
D13*
X218750000Y-139920000D03*
X218750000Y-138900000D03*
D37*
X187500000Y-89520000D03*
X187500000Y-90480000D03*
D29*
X226540000Y-116400000D03*
X227500000Y-116400000D03*
D37*
X159250000Y-115520000D03*
X159250000Y-116480000D03*
D40*
X93525000Y-125700000D03*
X91975000Y-125700000D03*
D12*
X211500000Y-57990000D03*
X211500000Y-59010000D03*
D43*
X131950000Y-139202500D03*
X130050000Y-139202500D03*
D37*
X147525000Y-112987500D03*
X147525000Y-113947500D03*
D46*
X87287500Y-82000000D03*
X85712500Y-82000000D03*
D58*
X99690000Y-73740000D03*
X100960000Y-73740000D03*
X102230000Y-73740000D03*
X103500000Y-73740000D03*
X104770000Y-73740000D03*
X106040000Y-73740000D03*
X107310000Y-73740000D03*
X108580000Y-73740000D03*
D59*
X108580000Y-63260000D03*
X107310000Y-63260000D03*
X106040000Y-63260000D03*
X104770000Y-63260000D03*
X103500000Y-63260000D03*
X102230000Y-63260000D03*
X100960000Y-63260000D03*
X99690000Y-63260000D03*
D29*
X101520000Y-75750000D03*
X102480000Y-75750000D03*
D60*
X155825000Y-89250000D03*
X155825000Y-89750000D03*
X155825000Y-90250000D03*
X155825000Y-90750000D03*
X155825000Y-91250000D03*
X155825000Y-91750000D03*
X155825000Y-92250000D03*
X155825000Y-92750000D03*
X155825000Y-93250000D03*
X155825000Y-93750000D03*
X155825000Y-94250000D03*
X155825000Y-94750000D03*
X155825000Y-95250000D03*
X155825000Y-95750000D03*
X155825000Y-96250000D03*
X155825000Y-96750000D03*
X155825000Y-97250000D03*
X155825000Y-97750000D03*
X155825000Y-98250000D03*
X155825000Y-98750000D03*
X155825000Y-99250000D03*
X155825000Y-99750000D03*
X155825000Y-100250000D03*
X155825000Y-100750000D03*
X155825000Y-101250000D03*
X155825000Y-101750000D03*
X155825000Y-102250000D03*
X155825000Y-102750000D03*
X155825000Y-103250000D03*
X155825000Y-103750000D03*
X155825000Y-104250000D03*
X155825000Y-104750000D03*
X155825000Y-105250000D03*
X155825000Y-105750000D03*
X155825000Y-106250000D03*
X155825000Y-106750000D03*
X155825000Y-107250000D03*
X155825000Y-107750000D03*
X155825000Y-108250000D03*
X155825000Y-108750000D03*
X155825000Y-109250000D03*
X155825000Y-109750000D03*
X155825000Y-110250000D03*
X155825000Y-110750000D03*
D61*
X157750000Y-112675000D03*
X158250000Y-112675000D03*
X158750000Y-112675000D03*
X159250000Y-112675000D03*
X159750000Y-112675000D03*
X160250000Y-112675000D03*
X160750000Y-112675000D03*
X161250000Y-112675000D03*
X161750000Y-112675000D03*
X162250000Y-112675000D03*
X162750000Y-112675000D03*
X163250000Y-112675000D03*
X163750000Y-112675000D03*
X164250000Y-112675000D03*
X164750000Y-112675000D03*
X165250000Y-112675000D03*
X165750000Y-112675000D03*
X166250000Y-112675000D03*
X166750000Y-112675000D03*
X167250000Y-112675000D03*
X167750000Y-112675000D03*
X168250000Y-112675000D03*
X168750000Y-112675000D03*
X169250000Y-112675000D03*
X169750000Y-112675000D03*
X170250000Y-112675000D03*
X170750000Y-112675000D03*
X171250000Y-112675000D03*
X171750000Y-112675000D03*
X172250000Y-112675000D03*
X172750000Y-112675000D03*
X173250000Y-112675000D03*
X173750000Y-112675000D03*
X174250000Y-112675000D03*
X174750000Y-112675000D03*
X175250000Y-112675000D03*
X175750000Y-112675000D03*
X176250000Y-112675000D03*
X176750000Y-112675000D03*
X177250000Y-112675000D03*
X177750000Y-112675000D03*
X178250000Y-112675000D03*
X178750000Y-112675000D03*
X179250000Y-112675000D03*
D60*
X181175000Y-110750000D03*
X181175000Y-110250000D03*
X181175000Y-109750000D03*
X181175000Y-109250000D03*
X181175000Y-108750000D03*
X181175000Y-108250000D03*
X181175000Y-107750000D03*
X181175000Y-107250000D03*
X181175000Y-106750000D03*
X181175000Y-106250000D03*
X181175000Y-105750000D03*
X181175000Y-105250000D03*
X181175000Y-104750000D03*
X181175000Y-104250000D03*
X181175000Y-103750000D03*
X181175000Y-103250000D03*
X181175000Y-102750000D03*
X181175000Y-102250000D03*
X181175000Y-101750000D03*
X181175000Y-101250000D03*
X181175000Y-100750000D03*
X181175000Y-100250000D03*
X181175000Y-99750000D03*
X181175000Y-99250000D03*
X181175000Y-98750000D03*
X181175000Y-98250000D03*
X181175000Y-97750000D03*
X181175000Y-97250000D03*
X181175000Y-96750000D03*
X181175000Y-96250000D03*
X181175000Y-95750000D03*
X181175000Y-95250000D03*
X181175000Y-94750000D03*
X181175000Y-94250000D03*
X181175000Y-93750000D03*
X181175000Y-93250000D03*
X181175000Y-92750000D03*
X181175000Y-92250000D03*
X181175000Y-91750000D03*
X181175000Y-91250000D03*
X181175000Y-90750000D03*
X181175000Y-90250000D03*
X181175000Y-89750000D03*
X181175000Y-89250000D03*
D61*
X179250000Y-87325000D03*
X178750000Y-87325000D03*
X178250000Y-87325000D03*
X177750000Y-87325000D03*
X177250000Y-87325000D03*
X176750000Y-87325000D03*
X176250000Y-87325000D03*
X175750000Y-87325000D03*
X175250000Y-87325000D03*
X174750000Y-87325000D03*
X174250000Y-87325000D03*
X173750000Y-87325000D03*
X173250000Y-87325000D03*
X172750000Y-87325000D03*
X172250000Y-87325000D03*
X171750000Y-87325000D03*
X171250000Y-87325000D03*
X170750000Y-87325000D03*
X170250000Y-87325000D03*
X169750000Y-87325000D03*
X169250000Y-87325000D03*
X168750000Y-87325000D03*
X168250000Y-87325000D03*
X167750000Y-87325000D03*
X167250000Y-87325000D03*
X166750000Y-87325000D03*
X166250000Y-87325000D03*
X165750000Y-87325000D03*
X165250000Y-87325000D03*
X164750000Y-87325000D03*
X164250000Y-87325000D03*
X163750000Y-87325000D03*
X163250000Y-87325000D03*
X162750000Y-87325000D03*
X162250000Y-87325000D03*
X161750000Y-87325000D03*
X161250000Y-87325000D03*
X160750000Y-87325000D03*
X160250000Y-87325000D03*
X159750000Y-87325000D03*
X159250000Y-87325000D03*
X158750000Y-87325000D03*
X158250000Y-87325000D03*
X157750000Y-87325000D03*
D62*
X220250000Y-70250000D03*
X220250000Y-72750000D03*
D17*
X142000000Y-127252500D03*
X142000000Y-129152500D03*
D45*
X192000000Y-82297500D03*
X192000000Y-80722500D03*
D29*
X171790000Y-84000000D03*
X172750000Y-84000000D03*
D35*
X92500000Y-66450000D03*
X92500000Y-64550000D03*
D63*
X149525000Y-112462500D03*
X149525000Y-114012500D03*
D23*
X215980000Y-138150000D03*
X215020000Y-138150000D03*
D31*
X181750000Y-59980000D03*
X181750000Y-59020000D03*
D64*
X99250000Y-134600000D03*
X99250000Y-126400000D03*
D65*
X99250000Y-132500000D03*
D66*
X99250000Y-130500000D03*
X99250000Y-128500000D03*
D37*
X176750000Y-115520000D03*
X176750000Y-116480000D03*
D12*
X192000000Y-83750000D03*
X192000000Y-84770000D03*
D67*
X119220000Y-59040000D03*
D68*
X119220000Y-56500000D03*
X121760000Y-59040000D03*
X121760000Y-56500000D03*
X124300000Y-59040000D03*
X124300000Y-56500000D03*
X126840000Y-59040000D03*
X126840000Y-56500000D03*
X129380000Y-59040000D03*
X129380000Y-56500000D03*
X131920000Y-59040000D03*
X131920000Y-56500000D03*
X134460000Y-59040000D03*
X134460000Y-56500000D03*
X137000000Y-59040000D03*
X137000000Y-56500000D03*
X139540000Y-59040000D03*
X139540000Y-56500000D03*
X142080000Y-59040000D03*
X142080000Y-56500000D03*
D55*
X137750000Y-136477500D03*
X137750000Y-134927500D03*
D25*
X183000000Y-62725000D03*
D26*
X185540000Y-62725000D03*
D30*
X179510000Y-59000000D03*
X178490000Y-59000000D03*
D25*
X222880000Y-153300000D03*
D26*
X220340000Y-153300000D03*
X217800000Y-153300000D03*
X215260000Y-153300000D03*
D29*
X152040000Y-104500000D03*
X153000000Y-104500000D03*
X178520000Y-146250000D03*
X179480000Y-146250000D03*
D69*
X181950000Y-132187500D03*
X181150000Y-132187500D03*
X180350000Y-132187500D03*
X179550000Y-132187500D03*
X178750000Y-132187500D03*
X177950000Y-132187500D03*
X177150000Y-132187500D03*
X176350000Y-132187500D03*
X175550000Y-132187500D03*
X174750000Y-132187500D03*
X173950000Y-132187500D03*
X173150000Y-132187500D03*
X172350000Y-132187500D03*
X171550000Y-132187500D03*
X170750000Y-132187500D03*
X169950000Y-132187500D03*
X169150000Y-132187500D03*
X168350000Y-132187500D03*
X167550000Y-132187500D03*
X166750000Y-132187500D03*
X165950000Y-132187500D03*
X165150000Y-132187500D03*
X164350000Y-132187500D03*
X163550000Y-132187500D03*
X162750000Y-132187500D03*
X161950000Y-132187500D03*
X161150000Y-132187500D03*
X161150000Y-143487500D03*
X161950000Y-143487500D03*
X162750000Y-143487500D03*
X163550000Y-143487500D03*
X164350000Y-143487500D03*
X165150000Y-143487500D03*
X165950000Y-143487500D03*
X166750000Y-143487500D03*
X167550000Y-143487500D03*
X168350000Y-143487500D03*
X169150000Y-143487500D03*
X169950000Y-143487500D03*
X170750000Y-143487500D03*
X171550000Y-143487500D03*
X172350000Y-143487500D03*
X173150000Y-143487500D03*
X173950000Y-143487500D03*
X174750000Y-143487500D03*
X175550000Y-143487500D03*
X176350000Y-143487500D03*
X177150000Y-143487500D03*
X177950000Y-143487500D03*
X178750000Y-143487500D03*
X179550000Y-143487500D03*
X180350000Y-143487500D03*
X181150000Y-143487500D03*
X181950000Y-143487500D03*
D46*
X87287500Y-84750000D03*
X85712500Y-84750000D03*
D32*
X186100000Y-55500000D03*
X177900000Y-55500000D03*
D33*
X184000000Y-55500000D03*
D34*
X182000000Y-55500000D03*
X180000000Y-55500000D03*
D32*
X153400000Y-55500000D03*
X161600000Y-55500000D03*
D33*
X155500000Y-55500000D03*
D34*
X157500000Y-55500000D03*
X159500000Y-55500000D03*
D70*
X148550000Y-130590000D03*
X149500000Y-130590000D03*
X150450000Y-130590000D03*
X150450000Y-128315000D03*
X148550000Y-128315000D03*
D71*
X90500000Y-92500000D03*
X90500000Y-93000000D03*
X90500000Y-93500000D03*
X90500000Y-94000000D03*
X90500000Y-94500000D03*
X95000000Y-94500000D03*
X95000000Y-94000000D03*
X95000000Y-93500000D03*
X95000000Y-93000000D03*
X95000000Y-92500000D03*
D72*
X227500000Y-65750000D03*
D73*
X233500000Y-65750000D03*
D74*
X234500000Y-70250000D03*
X234500000Y-61250000D03*
D31*
X171500000Y-129730000D03*
X171500000Y-128770000D03*
D30*
X172520000Y-59000000D03*
X171500000Y-59000000D03*
D14*
X218990000Y-141900000D03*
X220010000Y-141900000D03*
D46*
X87287500Y-87500000D03*
X85712500Y-87500000D03*
D25*
X143750000Y-117250000D03*
D26*
X146290000Y-117250000D03*
D17*
X204300000Y-130000000D03*
X204300000Y-131900000D03*
D75*
X102250000Y-109700000D03*
X102750000Y-109700000D03*
X103250000Y-109700000D03*
X103750000Y-109700000D03*
X104250000Y-109700000D03*
X104750000Y-109700000D03*
X105250000Y-109700000D03*
X105750000Y-109700000D03*
X106250000Y-109700000D03*
X106750000Y-109700000D03*
X107250000Y-109700000D03*
X107750000Y-109700000D03*
X108250000Y-109700000D03*
X108750000Y-109700000D03*
X109250000Y-109700000D03*
X109750000Y-109700000D03*
X110250000Y-109700000D03*
X110750000Y-109700000D03*
X111250000Y-109700000D03*
X111750000Y-109700000D03*
X112250000Y-109700000D03*
X112750000Y-109700000D03*
X113250000Y-109700000D03*
X113750000Y-109700000D03*
X114250000Y-109700000D03*
X114750000Y-109700000D03*
X115250000Y-109700000D03*
X115750000Y-109700000D03*
X116250000Y-109700000D03*
X116750000Y-109700000D03*
X117250000Y-109700000D03*
X117750000Y-109700000D03*
X118250000Y-109700000D03*
X118750000Y-109700000D03*
X119250000Y-109700000D03*
X119750000Y-109700000D03*
X120250000Y-109700000D03*
X120750000Y-109700000D03*
X121250000Y-109700000D03*
X121750000Y-109700000D03*
D76*
X100350000Y-112950000D03*
X123650000Y-112950000D03*
D45*
X227550000Y-114725000D03*
X227550000Y-113150000D03*
D14*
X219730000Y-115400000D03*
X220750000Y-115400000D03*
D30*
X223510000Y-141400000D03*
X222490000Y-141400000D03*
D77*
X213000000Y-94375000D03*
X196100000Y-147875000D03*
X219950000Y-150925000D03*
X211200000Y-101700000D03*
X210775000Y-104700000D03*
X204850000Y-97825000D03*
X197325000Y-92275000D03*
X217100000Y-74625000D03*
X213850000Y-77175000D03*
X216875000Y-85775000D03*
X138350000Y-99050000D03*
X106690000Y-65485000D03*
X90000000Y-126950000D03*
X160250000Y-82750000D03*
X146250000Y-141500000D03*
X116250000Y-111250000D03*
X140000000Y-110250000D03*
X170250000Y-116500000D03*
X103500000Y-111250000D03*
X151250000Y-105500000D03*
X119750000Y-111500000D03*
D78*
X192900000Y-126025000D03*
D77*
X211000000Y-55500000D03*
X183500000Y-101500000D03*
X228250000Y-116150000D03*
X185500000Y-108150003D03*
X150500000Y-140250000D03*
X187750000Y-104000000D03*
X92000000Y-84750000D03*
X136500000Y-133452500D03*
X224250000Y-141400000D03*
X98000000Y-102750000D03*
X92000000Y-87500000D03*
X209250000Y-53250000D03*
X102000000Y-108000000D03*
X135750000Y-131702500D03*
X173000000Y-83000000D03*
X87750000Y-101750000D03*
X89000000Y-63750000D03*
X84000000Y-63750000D03*
X88750000Y-93750000D03*
X212500000Y-53250000D03*
X92250000Y-77250000D03*
D78*
X202550000Y-135000000D03*
D77*
X204000000Y-53500000D03*
X151000000Y-114762500D03*
X183000000Y-128750000D03*
X175500000Y-128000000D03*
X99000000Y-94500000D03*
X215020000Y-138880000D03*
X230800000Y-112900000D03*
X86500000Y-62000000D03*
X191000000Y-85000000D03*
X146000000Y-102750000D03*
X197750000Y-84750000D03*
X181000000Y-145750000D03*
X216800000Y-114250000D03*
D78*
X197350000Y-136200000D03*
D77*
X180500000Y-127250000D03*
X223750000Y-56750000D03*
X157000000Y-129500000D03*
X92250000Y-79750000D03*
X77250000Y-66750000D03*
X141500000Y-146500000D03*
X220000000Y-56000000D03*
X104250000Y-77250000D03*
X218990000Y-142640000D03*
X202750000Y-83750000D03*
X152750000Y-101250000D03*
X147775000Y-114737500D03*
X165250000Y-116500000D03*
X210500000Y-59500000D03*
X90750000Y-129200000D03*
X141500000Y-131202500D03*
X171250000Y-146250000D03*
D78*
X200400000Y-138650000D03*
D77*
X153250000Y-98750000D03*
X151750000Y-97000000D03*
X92000000Y-82000000D03*
X150980000Y-92250000D03*
X140600000Y-98300000D03*
X133000000Y-133702500D03*
X206750000Y-55500000D03*
X93500000Y-61750000D03*
X217000000Y-138400000D03*
X170500000Y-59750000D03*
X79750000Y-65750000D03*
D78*
X193550000Y-138425000D03*
D77*
X185000000Y-89750000D03*
X210300000Y-153490000D03*
D78*
X143000000Y-143000000D03*
D77*
X160750000Y-145250000D03*
X151250000Y-104500000D03*
X224000000Y-116900000D03*
X152000000Y-129952500D03*
X81500000Y-63000000D03*
X167250000Y-83000000D03*
X201250000Y-84750000D03*
X91250000Y-126950000D03*
X171500000Y-128000000D03*
X200500000Y-83500000D03*
D78*
X193525000Y-134175000D03*
D77*
X139100000Y-99800000D03*
X185250000Y-97000000D03*
X160250000Y-60250000D03*
X225250000Y-111900000D03*
X175550000Y-145200000D03*
X90500000Y-62250000D03*
X221500000Y-53500000D03*
X158500000Y-117000000D03*
X133000000Y-139452500D03*
X163750000Y-117000000D03*
D78*
X207300000Y-136500000D03*
X193475000Y-129975000D03*
D77*
X179997500Y-84002500D03*
X220500000Y-57750000D03*
X138250000Y-131702500D03*
X175500000Y-117250000D03*
X172500000Y-134250000D03*
X151250000Y-107750000D03*
X179000000Y-134250000D03*
X136250000Y-140250000D03*
D78*
X206550000Y-126500000D03*
D77*
X74000000Y-69250000D03*
X131000000Y-131250000D03*
X154500000Y-103000000D03*
X146500000Y-101500000D03*
X142750000Y-103750000D03*
X157500000Y-103750000D03*
X171750000Y-116500000D03*
X198250000Y-78000000D03*
X185000000Y-88500000D03*
X152775000Y-114487500D03*
X151750000Y-98000000D03*
X192000000Y-74750000D03*
X152230000Y-91500000D03*
X189250000Y-74750000D03*
X160500000Y-84000000D03*
X87750000Y-104250000D03*
X186500000Y-77500000D03*
X158500000Y-115750000D03*
X185500000Y-107250000D03*
X193250000Y-79000000D03*
X194750000Y-72000000D03*
X193500000Y-73500000D03*
X191500000Y-76500000D03*
X166750000Y-116500000D03*
X98750000Y-92750000D03*
X196000000Y-77500000D03*
X189000000Y-72000000D03*
X193500000Y-77500000D03*
X208000000Y-59500000D03*
X188000000Y-76250000D03*
X161000000Y-130500000D03*
X103500000Y-108000000D03*
X198250000Y-80250000D03*
X151750000Y-107000000D03*
X191500000Y-72000000D03*
X186500000Y-80250000D03*
X177250000Y-59250000D03*
X186250000Y-72000000D03*
X171750000Y-83000000D03*
X195500000Y-75000000D03*
X176500000Y-114500000D03*
X208750000Y-81500000D03*
X165750000Y-83000000D03*
X187730000Y-105230000D03*
X189750000Y-77500000D03*
X190000000Y-79500000D03*
X177247500Y-83752500D03*
X152520000Y-100230000D03*
X185000000Y-96000000D03*
X186250000Y-74750000D03*
X171500000Y-133750000D03*
X188000000Y-79000000D03*
X183000000Y-131250000D03*
X164750000Y-81500000D03*
X140750000Y-71250000D03*
X164750000Y-75750000D03*
X163750000Y-82000000D03*
X163750000Y-75000000D03*
X168750000Y-95500000D03*
X135750000Y-68500000D03*
X158250000Y-108000000D03*
X158250000Y-110250000D03*
X188000000Y-62750000D03*
X165750000Y-106750000D03*
X162750000Y-81000000D03*
X161500000Y-67250000D03*
X160500000Y-85500000D03*
X157250000Y-143500000D03*
X175250000Y-147250000D03*
X157500000Y-139750000D03*
X180500000Y-134250000D03*
X175250000Y-134000000D03*
X160500000Y-89500000D03*
X161500000Y-89500000D03*
X163750000Y-108000000D03*
X164750000Y-104750000D03*
X173450000Y-96125000D03*
X177500000Y-90250000D03*
X172750000Y-109750000D03*
X176250000Y-140750000D03*
X172500000Y-138500000D03*
X172250000Y-110750000D03*
X178750000Y-107250000D03*
X181750000Y-129500000D03*
X175000000Y-91000000D03*
X179000000Y-129750000D03*
X158500000Y-101500000D03*
X108750000Y-81500000D03*
X122250000Y-108000000D03*
X96500000Y-107000000D03*
X164250000Y-141000000D03*
X167250000Y-109750000D03*
X169500000Y-123250000D03*
X165750000Y-89750000D03*
X163000000Y-102250000D03*
X162750000Y-141250000D03*
X188250000Y-95500000D03*
X191500000Y-95500000D03*
X214050000Y-132000000D03*
X167000000Y-140500000D03*
X168750000Y-119750000D03*
X191750000Y-98750000D03*
X187750000Y-93500000D03*
X175750000Y-90250000D03*
X175000000Y-120500000D03*
X170500000Y-111250000D03*
X158500000Y-96550000D03*
X158750000Y-125000000D03*
X186300000Y-132250000D03*
X172000000Y-135750000D03*
X172875000Y-139875000D03*
X173500000Y-117000000D03*
X169500000Y-111000000D03*
X175500000Y-122250000D03*
X161625000Y-98875000D03*
X161250000Y-127500000D03*
X165750000Y-110500000D03*
X163500000Y-140000000D03*
X172500000Y-120500000D03*
X172500000Y-122750000D03*
X177000000Y-110750000D03*
X178000000Y-134750000D03*
X111750000Y-77250000D03*
X111750000Y-85250000D03*
X109750000Y-80750000D03*
X109750000Y-87750000D03*
X123500000Y-94250000D03*
X120250000Y-94250000D03*
X168000000Y-137500000D03*
X188750000Y-134500000D03*
X120500000Y-113750000D03*
X89250000Y-114750000D03*
X174750000Y-114250000D03*
X177250000Y-140750000D03*
X169250000Y-148000000D03*
X172000000Y-150500000D03*
X121250000Y-106000000D03*
X98250000Y-97000000D03*
X176750000Y-95750000D03*
X174250000Y-119500000D03*
X174750000Y-139750000D03*
X165750000Y-120250000D03*
X166250000Y-122250000D03*
X177750000Y-106500000D03*
X180000000Y-125250000D03*
X166300000Y-135750000D03*
X188500000Y-128750000D03*
X142000000Y-125000000D03*
X120000000Y-125000000D03*
X111000000Y-114000000D03*
X169000000Y-106500000D03*
X153750000Y-125000000D03*
X165880025Y-108380025D03*
X160000000Y-122500000D03*
X171614950Y-106635050D03*
X115500000Y-71750000D03*
X165243627Y-107743627D03*
X113500000Y-68750000D03*
X101000000Y-68000000D03*
X160000000Y-125250000D03*
X159500000Y-97050000D03*
X107500000Y-99250000D03*
X164534606Y-93853817D03*
X176250000Y-93750000D03*
X171250000Y-93750000D03*
X170000000Y-130750000D03*
X158750000Y-122500000D03*
X114000000Y-75250000D03*
X158500000Y-100250000D03*
X162255025Y-100494975D03*
X162000000Y-138750000D03*
X100750000Y-91000000D03*
X120000000Y-98750000D03*
X112625000Y-81375000D03*
X112450000Y-84000000D03*
X157750000Y-90100000D03*
X158000000Y-92250000D03*
X103750000Y-71750000D03*
X163750000Y-109750000D03*
X116250000Y-77250000D03*
X113500000Y-83000000D03*
X135000000Y-109000000D03*
X171000000Y-105750000D03*
X168250000Y-105750000D03*
X158500000Y-106750000D03*
X165000000Y-140250000D03*
X168250000Y-110250000D03*
X178000000Y-122500000D03*
X167650000Y-126000000D03*
X166000000Y-140000000D03*
X167000000Y-119000000D03*
X178250000Y-124250000D03*
X174250000Y-90250000D03*
X112000000Y-89000000D03*
X123250000Y-89250000D03*
X160800000Y-126000000D03*
X160375000Y-97550000D03*
X214300000Y-122750000D03*
X210300000Y-112750000D03*
X187000000Y-96750000D03*
X193000000Y-97000000D03*
X126000000Y-117750000D03*
X155000000Y-118750000D03*
X169250000Y-101750000D03*
X108500000Y-70500000D03*
X122500000Y-123000000D03*
X118750000Y-115500000D03*
X143500000Y-123000000D03*
X158250000Y-103000000D03*
X108250000Y-92500000D03*
X121000000Y-90000000D03*
X147000000Y-87500000D03*
X134250000Y-75250000D03*
X114750000Y-89250000D03*
X115000000Y-94000000D03*
X116250000Y-122250000D03*
X142250000Y-122250000D03*
X159250000Y-119500000D03*
X106000000Y-112500000D03*
X116750000Y-95750000D03*
X164250000Y-93000000D03*
X110750000Y-120500000D03*
X159500000Y-117500000D03*
X108000000Y-117250000D03*
X144500000Y-120500000D03*
X101000000Y-103250000D03*
X125250000Y-103250000D03*
X157500000Y-100000000D03*
X100000000Y-75750000D03*
X154369975Y-109619975D03*
X136500000Y-108750000D03*
X119500000Y-90750000D03*
X108750000Y-94000000D03*
X109250000Y-117250000D03*
X113000000Y-121250000D03*
X143500000Y-121250000D03*
X158750000Y-118500000D03*
X122000000Y-95250000D03*
X111050000Y-98500000D03*
X107000000Y-119500000D03*
X157250000Y-109750000D03*
X137000000Y-109500000D03*
X105750000Y-115250000D03*
X123500000Y-117000000D03*
X152750000Y-119500000D03*
X108500000Y-112750000D03*
X164499878Y-94753150D03*
X115500000Y-78750000D03*
X114250000Y-84750000D03*
X115750000Y-92750000D03*
X115750000Y-89250000D03*
X106750000Y-97750000D03*
X171250000Y-91750000D03*
X177250000Y-91750000D03*
X164500000Y-91750000D03*
X171500000Y-89250000D03*
X221425000Y-111125000D03*
X193075000Y-86500000D03*
X172750000Y-90000000D03*
X205800000Y-141250000D03*
X222550000Y-143250000D03*
X218300000Y-112750000D03*
X224550000Y-114250000D03*
X218550000Y-140750000D03*
X215300000Y-141250000D03*
D78*
X199050000Y-121250000D03*
D77*
X225550000Y-131750000D03*
X223800000Y-132000000D03*
X160000000Y-121250000D03*
X90750000Y-119000000D03*
X88500000Y-116500000D03*
X123500000Y-126000000D03*
X158000000Y-105500000D03*
X92000000Y-90250000D03*
X129000000Y-106250000D03*
X126000000Y-104750000D03*
X86000000Y-94250000D03*
X81750000Y-108000000D03*
X183250000Y-116000000D03*
X183250000Y-118250000D03*
X94500000Y-105500000D03*
X75250000Y-84000000D03*
X84250000Y-116500000D03*
X84500000Y-96250000D03*
X183250000Y-122500000D03*
X170000000Y-89250000D03*
X179250000Y-92500000D03*
X131750000Y-86500000D03*
X122750000Y-100000000D03*
X100000000Y-101500000D03*
X102750000Y-101750000D03*
X124750000Y-101750000D03*
D79*
X226625000Y-66625000D02*
X227500000Y-65750000D01*
X217250000Y-62800000D02*
X215800000Y-62800000D01*
X214125000Y-64475000D02*
X214125000Y-66625000D01*
X215800000Y-62800000D02*
X214125000Y-64475000D01*
D80*
X213875000Y-93500000D02*
X213000000Y-94375000D01*
X216725000Y-93500000D02*
X213875000Y-93500000D01*
X192000000Y-82297500D02*
X192000000Y-83750000D01*
D81*
X226250000Y-135350000D02*
X226250000Y-137950000D01*
X226250000Y-137950000D02*
X227050000Y-138750000D01*
X227050000Y-138750000D02*
X232565000Y-138750000D01*
X232565000Y-138750000D02*
X233790000Y-139975000D01*
X217800000Y-152000000D02*
X217800000Y-153300000D01*
X231350000Y-143875000D02*
X228625000Y-143875000D01*
X228625000Y-143875000D02*
X226200000Y-146300000D01*
X226200000Y-146300000D02*
X226200000Y-153225000D01*
X226200000Y-153225000D02*
X226225000Y-153250000D01*
X226225000Y-153250000D02*
X224675000Y-154800000D01*
X224675000Y-154800000D02*
X203025000Y-154800000D01*
X203025000Y-154800000D02*
X196100000Y-147875000D01*
X228125000Y-141550000D02*
X228000000Y-141550000D01*
X228000000Y-141550000D02*
X225075000Y-144475000D01*
X225075000Y-144475000D02*
X225075000Y-149000000D01*
X225075000Y-149000000D02*
X223150000Y-150925000D01*
X223150000Y-150925000D02*
X219950000Y-150925000D01*
X224250000Y-135350000D02*
X224250000Y-137675000D01*
X224250000Y-137675000D02*
X228125000Y-141550000D01*
X228125000Y-141550000D02*
X232675000Y-141550000D01*
X232675000Y-141550000D02*
X233890000Y-142765000D01*
X233890000Y-142765000D02*
X233890000Y-143875000D01*
X192900000Y-126025000D02*
X192575000Y-125700000D01*
X192575000Y-121725000D02*
X193625000Y-120675000D01*
X192575000Y-125700000D02*
X192575000Y-121725000D01*
X193625000Y-120675000D02*
X193625000Y-118975000D01*
X193000000Y-97000000D02*
X203075000Y-107075000D01*
X203075000Y-107075000D02*
X204755000Y-107075000D01*
X204755000Y-107075000D02*
X206430000Y-108750000D01*
X191500000Y-95500000D02*
X193950000Y-95500000D01*
X193950000Y-95500000D02*
X202950000Y-104500000D01*
X202950000Y-104500000D02*
X204720000Y-104500000D01*
X204720000Y-104500000D02*
X208970000Y-108750000D01*
X211200000Y-101700000D02*
X211200000Y-102125000D01*
X211200000Y-102125000D02*
X214075000Y-105000000D01*
X214075000Y-105000000D02*
X221800000Y-105000000D01*
X221800000Y-105000000D02*
X226050000Y-109250000D01*
X226050000Y-109250000D02*
X226050000Y-114275000D01*
X226050000Y-114275000D02*
X226540000Y-114765000D01*
X226540000Y-114765000D02*
X226540000Y-116400000D01*
X193075000Y-86500000D02*
X193550000Y-86500000D01*
X201675000Y-101525000D02*
X205850000Y-101525000D01*
X193550000Y-86500000D02*
X194000000Y-86950000D01*
X194000000Y-86950000D02*
X194000000Y-93850000D01*
X194000000Y-93850000D02*
X201675000Y-101525000D01*
X205850000Y-101525000D02*
X205850000Y-101550000D01*
X205850000Y-101550000D02*
X209000000Y-104700000D01*
X209000000Y-104700000D02*
X210775000Y-104700000D01*
X204850000Y-97825000D02*
X205605000Y-98580000D01*
X205605000Y-98580000D02*
X216725000Y-98580000D01*
X197325000Y-92275000D02*
X204900000Y-99850000D01*
X204900000Y-99850000D02*
X216725000Y-99850000D01*
D80*
X217500000Y-76910000D02*
X217500000Y-78295000D01*
X217500000Y-78295000D02*
X217270000Y-78525000D01*
X217500000Y-75025000D02*
X217100000Y-74625000D01*
X217500000Y-75890000D02*
X217500000Y-75025000D01*
X211475000Y-90290000D02*
X213415000Y-92230000D01*
X213415000Y-92230000D02*
X216725000Y-92230000D01*
X213450000Y-77575000D02*
X213850000Y-77175000D01*
X213450000Y-78525000D02*
X213450000Y-77575000D01*
X216550000Y-85450000D02*
X216875000Y-85775000D01*
X216550000Y-83775000D02*
X216550000Y-85450000D01*
X214470000Y-78525000D02*
X216250000Y-78525000D01*
X216250000Y-78525000D02*
X216250000Y-81250000D01*
X216250000Y-81250000D02*
X215600000Y-81900000D01*
X217270000Y-78525000D02*
X217270000Y-81670000D01*
X217270000Y-81670000D02*
X217500000Y-81900000D01*
X219400000Y-76910000D02*
X217500000Y-76910000D01*
X219400000Y-75890000D02*
X220315000Y-75890000D01*
X220315000Y-75890000D02*
X223450000Y-79025000D01*
X223450000Y-79025000D02*
X227025000Y-79025000D01*
X227025000Y-79025000D02*
X228900000Y-77150000D01*
X220250000Y-72750000D02*
X220250000Y-73090000D01*
X220250000Y-73090000D02*
X221775000Y-74615000D01*
X226360000Y-77150000D02*
X223290000Y-77150000D01*
X223290000Y-77150000D02*
X221775000Y-75635000D01*
X226300000Y-77090000D02*
X226360000Y-77150000D01*
D81*
X147775000Y-114197500D02*
X147525000Y-113947500D01*
X142775000Y-129927500D02*
X142000000Y-129152500D01*
X182750000Y-100750000D02*
X183500000Y-101500000D01*
X187000000Y-104270000D02*
X187480000Y-104270000D01*
D80*
X180350000Y-145380000D02*
X179480000Y-146250000D01*
D81*
X178977500Y-84502500D02*
X179497500Y-84502500D01*
X179497500Y-84502500D02*
X179997500Y-84002500D01*
X91020000Y-79750000D02*
X92250000Y-79750000D01*
X178250000Y-86210000D02*
X178977500Y-85482500D01*
X148500000Y-114012500D02*
X147775000Y-114737500D01*
X181175000Y-107750000D02*
X184270000Y-107750000D01*
X142775000Y-129927500D02*
X141500000Y-131202500D01*
X187500000Y-90480000D02*
X185730000Y-90480000D01*
X187480000Y-104270000D02*
X187750000Y-104000000D01*
X103275000Y-77250000D02*
X104250000Y-77250000D01*
X223250000Y-117150000D02*
X223750000Y-117150000D01*
X172500000Y-85750000D02*
X172750000Y-85500000D01*
X139500000Y-111520000D02*
X139500000Y-110750000D01*
X102480000Y-76455000D02*
X103275000Y-77250000D01*
X185250000Y-97000000D02*
X184000000Y-97000000D01*
X97600000Y-103150000D02*
X98000000Y-102750000D01*
X224770000Y-112380000D02*
X225250000Y-111900000D01*
X171750000Y-86471880D02*
X172471880Y-85750000D01*
D80*
X161150000Y-143487500D02*
X161150000Y-144850000D01*
D81*
X230060000Y-112900000D02*
X230800000Y-112900000D01*
X132750000Y-139202500D02*
X133000000Y-139452500D01*
D80*
X171500000Y-146000000D02*
X171250000Y-146250000D01*
D81*
X184770000Y-89980000D02*
X185000000Y-89750000D01*
X140750000Y-111520000D02*
X139500000Y-111520000D01*
X149500000Y-130590000D02*
X149500000Y-129927501D01*
X165500000Y-114250000D02*
X165540000Y-114290000D01*
X89000000Y-93500000D02*
X88750000Y-93750000D01*
X151750000Y-97000000D02*
X152480000Y-97000000D01*
D80*
X180630000Y-145380000D02*
X181000000Y-145750000D01*
D81*
X178977500Y-84022500D02*
X179522500Y-83477500D01*
X170500000Y-114750000D02*
X170540000Y-114790000D01*
X98710000Y-94210000D02*
X99000000Y-94500000D01*
X172750000Y-83270000D02*
X173020000Y-83000000D01*
X144000000Y-102300000D02*
X145550000Y-102300000D01*
X166750000Y-87325000D02*
X166750000Y-86471880D01*
X184980000Y-103980000D02*
X184980000Y-104750000D01*
D80*
X183000000Y-129520000D02*
X183000000Y-128750000D01*
X172500000Y-134250000D02*
X173150000Y-133600000D01*
D81*
X185230000Y-89980000D02*
X185000000Y-89750000D01*
X185500000Y-108150003D02*
X185329997Y-107980000D01*
D80*
X180350000Y-145380000D02*
X180630000Y-145380000D01*
D81*
X165540000Y-115750000D02*
X165540000Y-116210000D01*
X185460000Y-104270000D02*
X184980000Y-104750000D01*
D80*
X175500000Y-128770000D02*
X175500000Y-128000000D01*
D81*
X151000000Y-115737500D02*
X151000000Y-114762500D01*
X152040000Y-105500000D02*
X151250000Y-105500000D01*
X97750000Y-94210000D02*
X98710000Y-94210000D01*
X102250000Y-109700000D02*
X102250000Y-108250000D01*
X185230000Y-91250000D02*
X185230000Y-89980000D01*
X223510000Y-141400000D02*
X224250000Y-141400000D01*
X91010000Y-87500000D02*
X92000000Y-87500000D01*
X178977500Y-84502500D02*
X178977500Y-84022500D01*
X182500000Y-96750000D02*
X182750000Y-97000000D01*
D80*
X181950000Y-143487500D02*
X181950000Y-144800000D01*
D81*
X184250000Y-89980000D02*
X184770000Y-89980000D01*
X90500000Y-93500000D02*
X89000000Y-93500000D01*
X170500000Y-114250000D02*
X170500000Y-114750000D01*
X131950000Y-139202500D02*
X132750000Y-139202500D01*
X102480000Y-75750000D02*
X102480000Y-76455000D01*
D80*
X157750000Y-130250000D02*
X157000000Y-129500000D01*
X158225000Y-130250000D02*
X158225000Y-131455000D01*
D81*
X179522500Y-83477500D02*
X179522500Y-81752500D01*
X210300000Y-152010000D02*
X210300000Y-153490000D01*
X151500000Y-129452500D02*
X152000000Y-129952500D01*
X204300000Y-131900000D02*
X202550000Y-133650000D01*
X227500000Y-116400000D02*
X228000000Y-116400000D01*
X165750000Y-114000000D02*
X165500000Y-114250000D01*
X172471880Y-85750000D02*
X172500000Y-85750000D01*
X217250000Y-138150000D02*
X217000000Y-138400000D01*
X155825000Y-99750000D02*
X154971880Y-99750000D01*
X149975001Y-129452500D02*
X151500000Y-129452500D01*
X88880000Y-102650000D02*
X88750000Y-102520000D01*
X184750000Y-103750000D02*
X184980000Y-103980000D01*
D80*
X77700000Y-66750000D02*
X77250000Y-66750000D01*
D81*
X185730000Y-90480000D02*
X185000000Y-89750000D01*
D80*
X180350000Y-143487500D02*
X180350000Y-145380000D01*
X171500000Y-128770000D02*
X171500000Y-128000000D01*
D82*
X129650000Y-134702500D02*
X132000000Y-134702500D01*
D81*
X166980000Y-83750000D02*
X166980000Y-83270000D01*
X160230000Y-82770000D02*
X160250000Y-82750000D01*
X172750000Y-85500000D02*
X172750000Y-84000000D01*
D80*
X181950000Y-144800000D02*
X181000000Y-145750000D01*
D81*
X149500000Y-129927501D02*
X149975001Y-129452500D01*
X212250000Y-135350000D02*
X212250000Y-136650000D01*
X172750000Y-84000000D02*
X172750000Y-83270000D01*
D80*
X177950000Y-132187500D02*
X177950000Y-133200000D01*
D81*
X170750000Y-112675000D02*
X170750000Y-114000000D01*
X97540000Y-94000000D02*
X97750000Y-94210000D01*
X223750000Y-117150000D02*
X224000000Y-116900000D01*
X151480000Y-107980000D02*
X151250000Y-107750000D01*
X185329997Y-107980000D02*
X184500000Y-107980000D01*
D80*
X211500000Y-59010000D02*
X210990000Y-59010000D01*
D81*
X166750000Y-86471880D02*
X166985940Y-86235940D01*
X103250000Y-109700000D02*
X103250000Y-111000000D01*
D80*
X175550000Y-143487500D02*
X175550000Y-145200000D01*
D81*
X91010000Y-82000000D02*
X92000000Y-82000000D01*
X159740000Y-60250000D02*
X160250000Y-60250000D01*
X158490000Y-59000000D02*
X159740000Y-60250000D01*
X153500000Y-101270000D02*
X152770000Y-101270000D01*
X159500000Y-82770000D02*
X160230000Y-82770000D01*
X165540000Y-114290000D02*
X165540000Y-115750000D01*
X165750000Y-112675000D02*
X165750000Y-114000000D01*
D80*
X210990000Y-59010000D02*
X210500000Y-59500000D01*
D81*
X170540000Y-115750000D02*
X170540000Y-116210000D01*
D80*
X172020000Y-146000000D02*
X171500000Y-146000000D01*
D81*
X176250000Y-117250000D02*
X175500000Y-117250000D01*
X88520000Y-102520000D02*
X87750000Y-101750000D01*
X155825000Y-95750000D02*
X153770000Y-95750000D01*
X154971880Y-99750000D02*
X154500000Y-99278120D01*
X163750000Y-116230000D02*
X163750000Y-117000000D01*
X170750000Y-59750000D02*
X170500000Y-59750000D01*
X153270000Y-107980000D02*
X152500000Y-107980000D01*
X181750000Y-59980000D02*
X181750000Y-61475000D01*
X166980000Y-83270000D02*
X167250000Y-83000000D01*
X214550000Y-115300000D02*
X216800000Y-115300000D01*
X152770000Y-101270000D02*
X152750000Y-101250000D01*
X154000000Y-107250000D02*
X153270000Y-107980000D01*
X151230000Y-92500000D02*
X150980000Y-92250000D01*
X139500000Y-110750000D02*
X140000000Y-110250000D01*
X95000000Y-94000000D02*
X97540000Y-94000000D01*
X181175000Y-96750000D02*
X182500000Y-96750000D01*
X165540000Y-116210000D02*
X165250000Y-116500000D01*
X153770000Y-95750000D02*
X152500000Y-97020000D01*
X216800000Y-115300000D02*
X216800000Y-114250000D01*
X139500000Y-111520000D02*
X138250000Y-111520000D01*
X170750000Y-114000000D02*
X170500000Y-114250000D01*
X178250000Y-87325000D02*
X178250000Y-86210000D01*
X202550000Y-133650000D02*
X202550000Y-135000000D01*
X171750000Y-87325000D02*
X171750000Y-86471880D01*
X176750000Y-116750000D02*
X176250000Y-117250000D01*
X181175000Y-103750000D02*
X184750000Y-103750000D01*
X192000000Y-84770000D02*
X191230000Y-84770000D01*
D80*
X173150000Y-133600000D02*
X173150000Y-132187500D01*
D81*
X145550000Y-102300000D02*
X146000000Y-102750000D01*
X217250000Y-137650000D02*
X217250000Y-138150000D01*
X215020000Y-138150000D02*
X215020000Y-138880000D01*
X103250000Y-111000000D02*
X103500000Y-111250000D01*
X91010000Y-84750000D02*
X92000000Y-84750000D01*
X171500000Y-59000000D02*
X170750000Y-59750000D01*
X102250000Y-108250000D02*
X102000000Y-108000000D01*
X116250000Y-109700000D02*
X116250000Y-111250000D01*
X153250000Y-99270000D02*
X153250000Y-98750000D01*
X154500000Y-99250000D02*
X154480000Y-99270000D01*
D82*
X132000000Y-134702500D02*
X133000000Y-133702500D01*
D81*
X107250000Y-63575000D02*
X107250000Y-64925000D01*
X173020000Y-83000000D02*
X173000000Y-83000000D01*
X184270000Y-107750000D02*
X184500000Y-107980000D01*
X91375000Y-102650000D02*
X88880000Y-102650000D01*
X170540000Y-114790000D02*
X170540000Y-115750000D01*
X183980000Y-90250000D02*
X184250000Y-89980000D01*
X107250000Y-64925000D02*
X106690000Y-65485000D01*
D80*
X158225000Y-131455000D02*
X158770000Y-132000000D01*
X161150000Y-144850000D02*
X160750000Y-145250000D01*
D81*
X182750000Y-97000000D02*
X184000000Y-97000000D01*
X154480000Y-99270000D02*
X153250000Y-99270000D01*
D80*
X180500000Y-128020000D02*
X180500000Y-127250000D01*
D81*
X159020000Y-116480000D02*
X158500000Y-117000000D01*
X154500000Y-99278120D02*
X154500000Y-99250000D01*
X228000000Y-116400000D02*
X228250000Y-116150000D01*
X178977500Y-85482500D02*
X178977500Y-84502500D01*
X88750000Y-102520000D02*
X88520000Y-102520000D01*
D80*
X158225000Y-130250000D02*
X157750000Y-130250000D01*
D81*
X155825000Y-107250000D02*
X154000000Y-107250000D01*
X176750000Y-116480000D02*
X176750000Y-116750000D01*
X166985940Y-86235940D02*
X166980000Y-86230000D01*
X97600000Y-103150000D02*
X95875000Y-103150000D01*
X181750000Y-61475000D02*
X183000000Y-62725000D01*
D80*
X171550000Y-143487500D02*
X171550000Y-145530000D01*
D81*
X181175000Y-100750000D02*
X182750000Y-100750000D01*
X143750000Y-130902500D02*
X142775000Y-129927500D01*
X152000000Y-92500000D02*
X151230000Y-92500000D01*
X166980000Y-86230000D02*
X166980000Y-83750000D01*
X91010000Y-77250000D02*
X92250000Y-77250000D01*
X191230000Y-84770000D02*
X191000000Y-85000000D01*
X159250000Y-116480000D02*
X159020000Y-116480000D01*
D80*
X79000000Y-68050000D02*
X77700000Y-66750000D01*
X171550000Y-145530000D02*
X172020000Y-146000000D01*
D81*
X147775000Y-114737500D02*
X147775000Y-114197500D01*
X224770000Y-112650000D02*
X224770000Y-112380000D01*
X170540000Y-116210000D02*
X170250000Y-116500000D01*
X175500000Y-116480000D02*
X175500000Y-117250000D01*
X152500000Y-107980000D02*
X151480000Y-107980000D01*
X152040000Y-104500000D02*
X151250000Y-104500000D01*
X119750000Y-109700000D02*
X119750000Y-111500000D01*
X149525000Y-114012500D02*
X148500000Y-114012500D01*
X187000000Y-104270000D02*
X185460000Y-104270000D01*
D80*
X177950000Y-133200000D02*
X179000000Y-134250000D01*
D81*
X218990000Y-141900000D02*
X218990000Y-142640000D01*
X181175000Y-90250000D02*
X183980000Y-90250000D01*
D80*
X74950000Y-69950000D02*
X79000000Y-69950000D01*
X129650000Y-132797500D02*
X131000000Y-131447500D01*
D79*
X206550000Y-126500000D02*
X206550000Y-127750000D01*
D80*
X82100000Y-69950000D02*
X82500000Y-70350000D01*
X79000000Y-69950000D02*
X82100000Y-69950000D01*
X134850000Y-136607500D02*
X134850000Y-138850000D01*
X140200000Y-150450000D02*
X137750000Y-148000000D01*
X226250000Y-70250000D02*
X220250000Y-70250000D01*
X137750000Y-148000000D02*
X137750000Y-136477500D01*
D79*
X206550000Y-127750000D02*
X204300000Y-130000000D01*
D80*
X134850000Y-136607500D02*
X137620000Y-136607500D01*
X227500000Y-65750000D02*
X227500000Y-69000000D01*
X131000000Y-131447500D02*
X131000000Y-131250000D01*
X227500000Y-69000000D02*
X226250000Y-70250000D01*
X74250000Y-69250000D02*
X74950000Y-69950000D01*
D81*
X203900000Y-130400000D02*
X204300000Y-130000000D01*
X201350000Y-130400000D02*
X203900000Y-130400000D01*
D80*
X74000000Y-69250000D02*
X74250000Y-69250000D01*
X134850000Y-138850000D02*
X136250000Y-140250000D01*
X141500000Y-150450000D02*
X140200000Y-150450000D01*
D81*
X175750000Y-112675000D02*
X175750000Y-114000000D01*
X175500000Y-114250000D02*
X175500000Y-115520000D01*
X175750000Y-114000000D02*
X175500000Y-114250000D01*
X182250000Y-90750000D02*
X182750000Y-91250000D01*
X181175000Y-90750000D02*
X182250000Y-90750000D01*
X182750000Y-91250000D02*
X184270000Y-91250000D01*
X181175000Y-105250000D02*
X183520000Y-105250000D01*
X179250000Y-103000000D02*
X179250000Y-104178120D01*
X181175000Y-102250000D02*
X180000000Y-102250000D01*
X180321880Y-105250000D02*
X181175000Y-105250000D01*
X180000000Y-102250000D02*
X179250000Y-103000000D01*
X183520000Y-105250000D02*
X184020000Y-104750000D01*
X179250000Y-104178120D02*
X180321880Y-105250000D01*
X146500000Y-101500000D02*
X145000000Y-100000000D01*
X155825000Y-103250000D02*
X154750000Y-103250000D01*
X144000000Y-97250000D02*
X144000000Y-100000000D01*
X154750000Y-103250000D02*
X154500000Y-103000000D01*
X143050000Y-96300000D02*
X144000000Y-97250000D01*
X142580000Y-96300000D02*
X143050000Y-96300000D01*
X145000000Y-100000000D02*
X144000000Y-100000000D01*
X138550000Y-102300000D02*
X141100000Y-102300000D01*
X137600000Y-101350000D02*
X138550000Y-102300000D01*
X142750000Y-103750000D02*
X142550000Y-103750000D01*
X155825000Y-103750000D02*
X157500000Y-103750000D01*
X142550000Y-103750000D02*
X141100000Y-102300000D01*
X154000000Y-97000000D02*
X154000000Y-97010050D01*
X183000000Y-96000000D02*
X183040000Y-96040000D01*
X176250000Y-112675000D02*
X176250000Y-113750000D01*
X184500000Y-107020000D02*
X185270000Y-107020000D01*
D80*
X181950000Y-131530000D02*
X183000000Y-130480000D01*
D81*
X91375000Y-103150000D02*
X89080000Y-103150000D01*
X152770000Y-106750000D02*
X152500000Y-107020000D01*
X154000000Y-97010050D02*
X153030050Y-97980000D01*
X152775000Y-114487500D02*
X152025000Y-113737500D01*
X166250000Y-86250000D02*
X166000000Y-86000000D01*
X152960000Y-92230000D02*
X152230000Y-91500000D01*
X166020000Y-85980000D02*
X166020000Y-83750000D01*
X181175000Y-107250000D02*
X182250000Y-107250000D01*
D80*
X171500000Y-132137500D02*
X171550000Y-132187500D01*
D81*
X171500000Y-115750000D02*
X171500000Y-116250000D01*
X88750000Y-103480000D02*
X88520000Y-103480000D01*
X183040000Y-96040000D02*
X184000000Y-96040000D01*
X97500000Y-93000000D02*
X97750000Y-93250000D01*
X171250000Y-112675000D02*
X171250000Y-114250000D01*
X181175000Y-105750000D02*
X186480000Y-105750000D01*
X159750000Y-115020000D02*
X159750000Y-112675000D01*
X171790000Y-83020000D02*
X171770000Y-83020000D01*
X177750000Y-87325000D02*
X177750000Y-84770000D01*
D80*
X171550000Y-133700000D02*
X171500000Y-133750000D01*
D81*
X166020000Y-83750000D02*
X166020000Y-83270000D01*
X159250000Y-115520000D02*
X158730000Y-115520000D01*
X176250000Y-113750000D02*
X176500000Y-114000000D01*
D80*
X159775000Y-131955000D02*
X159730000Y-132000000D01*
X181950000Y-132187500D02*
X181950000Y-131530000D01*
X161150000Y-130650000D02*
X161000000Y-130500000D01*
D81*
X166500000Y-116250000D02*
X166750000Y-116500000D01*
X176500000Y-114500000D02*
X176750000Y-114750000D01*
X152500000Y-97980000D02*
X151770000Y-97980000D01*
X159750000Y-83980000D02*
X159540000Y-83770000D01*
X171790000Y-84000000D02*
X171790000Y-83020000D01*
X155825000Y-96250000D02*
X154750000Y-96250000D01*
X166250000Y-87325000D02*
X166250000Y-86250000D01*
X177750000Y-84770000D02*
X178017500Y-84502500D01*
X171250000Y-87325000D02*
X171250000Y-84540000D01*
X151770000Y-107020000D02*
X151750000Y-107000000D01*
X181175000Y-96250000D02*
X182250000Y-96250000D01*
X154750000Y-96250000D02*
X154000000Y-97000000D01*
X88920000Y-103650000D02*
X88750000Y-103480000D01*
X152960000Y-92500000D02*
X152960000Y-92230000D01*
X159750000Y-87325000D02*
X159750000Y-83980000D01*
X178017500Y-84252500D02*
X178017500Y-81797500D01*
X178017500Y-84502500D02*
X178017500Y-84252500D01*
X152500000Y-107020000D02*
X151770000Y-107020000D01*
D80*
X159917500Y-132187500D02*
X159730000Y-132000000D01*
D81*
X178490000Y-59000000D02*
X177500000Y-59000000D01*
X166250000Y-114000000D02*
X166500000Y-114250000D01*
X171250000Y-84540000D02*
X171790000Y-84000000D01*
D80*
X209000000Y-59010000D02*
X208490000Y-59010000D01*
D81*
X166500000Y-114250000D02*
X166500000Y-115750000D01*
X95000000Y-93500000D02*
X97500000Y-93500000D01*
X176750000Y-114750000D02*
X176750000Y-115520000D01*
X185000000Y-96000000D02*
X184960000Y-96040000D01*
X153500000Y-92500000D02*
X152960000Y-92500000D01*
X88520000Y-103480000D02*
X87750000Y-104250000D01*
X171250000Y-114250000D02*
X171500000Y-114500000D01*
X158730000Y-115520000D02*
X158500000Y-115750000D01*
X97500000Y-93500000D02*
X97750000Y-93250000D01*
X166020000Y-83270000D02*
X165750000Y-83000000D01*
D80*
X161150000Y-132187500D02*
X159917500Y-132187500D01*
X161150000Y-132187500D02*
X161150000Y-130650000D01*
D81*
X98250000Y-93250000D02*
X98750000Y-92750000D01*
X166500000Y-115750000D02*
X166500000Y-116250000D01*
X171500000Y-116250000D02*
X171750000Y-116500000D01*
X186480000Y-105750000D02*
X187000000Y-105230000D01*
X182500000Y-107000000D02*
X182520000Y-107020000D01*
X171500000Y-114500000D02*
X171500000Y-115750000D01*
X182520000Y-107020000D02*
X184500000Y-107020000D01*
X177500000Y-59000000D02*
X177250000Y-59250000D01*
X152550000Y-114712500D02*
X152775000Y-114487500D01*
D80*
X183000000Y-130480000D02*
X183000000Y-131250000D01*
D81*
X184480000Y-89020000D02*
X185000000Y-88500000D01*
X155825000Y-91750000D02*
X154250000Y-91750000D01*
X97750000Y-93250000D02*
X98250000Y-93250000D01*
X184250000Y-89020000D02*
X184480000Y-89020000D01*
X95000000Y-93000000D02*
X97500000Y-93000000D01*
X181175000Y-89750000D02*
X182250000Y-89750000D01*
X152025000Y-113737500D02*
X152025000Y-113025000D01*
X186020000Y-89520000D02*
X185000000Y-88500000D01*
X185270000Y-107020000D02*
X185500000Y-107250000D01*
X152550000Y-115737500D02*
X152550000Y-114712500D01*
X153030050Y-97980000D02*
X152500000Y-97980000D01*
X182250000Y-107250000D02*
X182500000Y-107000000D01*
X182980000Y-89020000D02*
X184250000Y-89020000D01*
X176500000Y-114000000D02*
X176500000Y-114500000D01*
X184960000Y-96040000D02*
X184000000Y-96040000D01*
X91375000Y-103650000D02*
X88920000Y-103650000D01*
X177747500Y-84252500D02*
X177247500Y-83752500D01*
X182250000Y-96250000D02*
X182500000Y-96000000D01*
X154250000Y-91750000D02*
X153500000Y-92500000D01*
X182500000Y-96000000D02*
X183000000Y-96000000D01*
X103750000Y-109700000D02*
X103750000Y-108250000D01*
X187500000Y-89520000D02*
X186020000Y-89520000D01*
X166000000Y-86000000D02*
X166020000Y-85980000D01*
X166250000Y-112675000D02*
X166250000Y-114000000D01*
X159250000Y-115520000D02*
X159750000Y-115020000D01*
D80*
X159775000Y-130250000D02*
X159775000Y-131955000D01*
X171500000Y-129730000D02*
X171500000Y-132137500D01*
D81*
X89080000Y-103150000D02*
X88750000Y-103480000D01*
D80*
X171550000Y-132187500D02*
X171550000Y-133700000D01*
D81*
X159500000Y-83730000D02*
X160230000Y-83730000D01*
X187000000Y-105230000D02*
X187730000Y-105230000D01*
X155825000Y-100250000D02*
X153270000Y-100250000D01*
D80*
X208490000Y-59010000D02*
X208000000Y-59500000D01*
D81*
X160230000Y-83730000D02*
X160500000Y-84000000D01*
X153250000Y-100230000D02*
X152520000Y-100230000D01*
X155825000Y-106750000D02*
X152770000Y-106750000D01*
X171770000Y-83020000D02*
X171750000Y-83000000D01*
X182250000Y-89750000D02*
X182980000Y-89020000D01*
X103750000Y-108250000D02*
X103500000Y-108000000D01*
X178017500Y-84252500D02*
X177747500Y-84252500D01*
D80*
X140800000Y-132502500D02*
X140250000Y-131952500D01*
D81*
X129650000Y-136607500D02*
X129650000Y-138802500D01*
D80*
X140250000Y-130202500D02*
X139250000Y-129202500D01*
X139250000Y-129202500D02*
X130000000Y-129202500D01*
X127905000Y-136607500D02*
X129650000Y-136607500D01*
D81*
X129650000Y-138802500D02*
X130050000Y-139202500D01*
D80*
X140250000Y-131952500D02*
X140250000Y-130202500D01*
X130000000Y-129202500D02*
X126750000Y-132452500D01*
X145500000Y-133702500D02*
X145500000Y-136250000D01*
X126750000Y-135452500D02*
X127905000Y-136607500D01*
X126750000Y-132452500D02*
X126750000Y-135452500D01*
X148550000Y-130590000D02*
X145500000Y-133640000D01*
X144300000Y-132502500D02*
X145500000Y-133702500D01*
X143750000Y-132502500D02*
X140800000Y-132502500D01*
X143750000Y-132502500D02*
X144300000Y-132502500D01*
X145500000Y-133640000D02*
X145500000Y-133702500D01*
D81*
X167250000Y-69250000D02*
X134750000Y-69250000D01*
X176500000Y-84250000D02*
X176500000Y-78500000D01*
X176500000Y-78500000D02*
X167250000Y-69250000D01*
X177250000Y-87325000D02*
X177250000Y-85000000D01*
X134750000Y-69250000D02*
X129380000Y-63880000D01*
X177250000Y-85000000D02*
X176500000Y-84250000D01*
X129380000Y-63880000D02*
X129380000Y-59040000D01*
X163000000Y-71250000D02*
X140750000Y-71250000D01*
X164750000Y-73000000D02*
X163000000Y-71250000D01*
X164750000Y-75750000D02*
X164750000Y-73000000D01*
X165250000Y-87325000D02*
X165250000Y-84250000D01*
X165250000Y-84250000D02*
X164750000Y-83750000D01*
X164750000Y-83750000D02*
X164750000Y-81500000D01*
X121760000Y-66010000D02*
X121760000Y-59040000D01*
X162000000Y-72000000D02*
X127750000Y-72000000D01*
X163750000Y-84500000D02*
X163750000Y-82000000D01*
X163750000Y-73750000D02*
X162000000Y-72000000D01*
X163750000Y-75000000D02*
X163750000Y-73750000D01*
X164750000Y-85500000D02*
X163750000Y-84500000D01*
X127750000Y-72000000D02*
X121760000Y-66010000D01*
X164750000Y-87325000D02*
X164750000Y-85500000D01*
X181750000Y-59020000D02*
X181750000Y-58500000D01*
X157210050Y-104450000D02*
X162550000Y-104450000D01*
X157010050Y-104250000D02*
X157210050Y-104450000D01*
X162550000Y-104450000D02*
X168750000Y-98250000D01*
X182000000Y-58250000D02*
X182000000Y-55500000D01*
X155825000Y-104250000D02*
X157010050Y-104250000D01*
X181750000Y-58500000D02*
X182000000Y-58250000D01*
X168750000Y-98250000D02*
X168750000Y-95500000D01*
X131250000Y-70250000D02*
X124300000Y-63300000D01*
X175750000Y-79000000D02*
X167000000Y-70250000D01*
X124300000Y-63300000D02*
X124300000Y-59040000D01*
X167000000Y-70250000D02*
X131250000Y-70250000D01*
X175750000Y-84250000D02*
X175750000Y-79000000D01*
X176750000Y-87325000D02*
X176750000Y-85250000D01*
X176750000Y-85250000D02*
X175750000Y-84250000D01*
X179750000Y-88500000D02*
X180750000Y-87500000D01*
X181175000Y-91250000D02*
X180321880Y-91250000D01*
X180750000Y-87500000D02*
X180750000Y-78500000D01*
X170750000Y-68500000D02*
X135750000Y-68500000D01*
X180750000Y-78500000D02*
X170750000Y-68500000D01*
X179750000Y-90678120D02*
X179750000Y-88500000D01*
X180321880Y-91250000D02*
X179750000Y-90678120D01*
X180000000Y-55500000D02*
X180000000Y-58510000D01*
X180000000Y-58510000D02*
X179510000Y-59000000D01*
X159510000Y-59000000D02*
X159510000Y-55510000D01*
X172000000Y-57000000D02*
X172520000Y-57520000D01*
X172520000Y-57520000D02*
X172520000Y-59000000D01*
X172000000Y-55500000D02*
X172000000Y-57000000D01*
X88475000Y-119025000D02*
X88475000Y-125700000D01*
X96000000Y-111500000D02*
X88475000Y-119025000D01*
X101950000Y-111500000D02*
X96000000Y-111500000D01*
D80*
X87725000Y-126450000D02*
X88475000Y-125700000D01*
X88500000Y-129495000D02*
X87725000Y-128720000D01*
X87725000Y-128720000D02*
X87725000Y-126450000D01*
D81*
X102750000Y-110700000D02*
X101950000Y-111500000D01*
X102750000Y-109700000D02*
X102750000Y-110700000D01*
X159250000Y-112675000D02*
X159250000Y-111250000D01*
X159500000Y-106750000D02*
X165750000Y-106750000D01*
X159250000Y-111250000D02*
X158250000Y-110250000D01*
X158250000Y-108000000D02*
X159500000Y-106750000D01*
X188000000Y-62750000D02*
X191730000Y-59020000D01*
X191730000Y-59020000D02*
X193750000Y-59020000D01*
X195250000Y-58500000D02*
X194750000Y-59000000D01*
X195250000Y-55500000D02*
X195250000Y-58500000D01*
X140750000Y-114750000D02*
X143250000Y-117250000D01*
X141020000Y-112480000D02*
X140750000Y-112480000D01*
X146435000Y-108750000D02*
X144475000Y-110710000D01*
X154542893Y-107750000D02*
X153542893Y-108750000D01*
X140750000Y-112480000D02*
X140750000Y-114750000D01*
X142790000Y-110710000D02*
X141020000Y-112480000D01*
X155825000Y-107750000D02*
X154542893Y-107750000D01*
X138250000Y-112480000D02*
X140750000Y-112480000D01*
X144475000Y-110710000D02*
X142790000Y-110710000D01*
X153542893Y-108750000D02*
X146435000Y-108750000D01*
X162750000Y-87325000D02*
X162750000Y-81000000D01*
X160250000Y-87325000D02*
X160250000Y-85750000D01*
X161500000Y-67250000D02*
X161500000Y-63000000D01*
X170000000Y-58500000D02*
X170000000Y-55500000D01*
X163500000Y-61000000D02*
X167500000Y-61000000D01*
X160250000Y-85750000D02*
X160500000Y-85500000D01*
X167500000Y-61000000D02*
X170000000Y-58500000D01*
X161500000Y-63000000D02*
X163500000Y-61000000D01*
D80*
X146290000Y-125787500D02*
X144750000Y-127327500D01*
X150450000Y-126950000D02*
X149287500Y-125787500D01*
X150450000Y-128315000D02*
X150450000Y-126950000D01*
X142000000Y-127252500D02*
X144675000Y-127252500D01*
X149287500Y-125787500D02*
X146290000Y-125787500D01*
X146290000Y-117250000D02*
X146290000Y-125787500D01*
X175250000Y-147250000D02*
X173150000Y-145150000D01*
X173150000Y-145830000D02*
X172980000Y-146000000D01*
X180350000Y-129130000D02*
X180500000Y-128980000D01*
X156297500Y-143500000D02*
X154500000Y-145297500D01*
X156650000Y-139750000D02*
X154250000Y-142150000D01*
X180350000Y-132187500D02*
X180350000Y-134100000D01*
X177950000Y-143487500D02*
X177950000Y-145680000D01*
X157500000Y-139750000D02*
X156650000Y-139750000D01*
X175550000Y-133700000D02*
X175250000Y-134000000D01*
X173150000Y-145000000D02*
X173150000Y-145830000D01*
X180350000Y-132187500D02*
X180350000Y-129130000D01*
X176380000Y-147250000D02*
X175250000Y-147250000D01*
X157250000Y-143500000D02*
X156297500Y-143500000D01*
X175500000Y-132137500D02*
X175550000Y-132187500D01*
X157500000Y-139750000D02*
X157500000Y-143250000D01*
X175500000Y-129730000D02*
X175500000Y-132137500D01*
X177950000Y-145680000D02*
X178520000Y-146250000D01*
X175550000Y-132187500D02*
X175550000Y-133700000D01*
X177950000Y-145680000D02*
X176380000Y-147250000D01*
X180350000Y-134100000D02*
X180500000Y-134250000D01*
X173150000Y-143487500D02*
X173150000Y-145000000D01*
X173150000Y-145150000D02*
X173150000Y-145000000D01*
D81*
X160750000Y-89250000D02*
X160500000Y-89500000D01*
X160750000Y-87325000D02*
X160750000Y-89250000D01*
X161250000Y-89250000D02*
X161500000Y-89500000D01*
X161250000Y-87325000D02*
X161250000Y-89250000D01*
X173375000Y-96125000D02*
X164750000Y-104750000D01*
X173450000Y-96125000D02*
X173375000Y-96125000D01*
X163000000Y-108750000D02*
X163750000Y-108000000D01*
X155825000Y-108750000D02*
X163000000Y-108750000D01*
X177404163Y-90250000D02*
X177500000Y-90250000D01*
X175750000Y-87325000D02*
X175750000Y-88595837D01*
X175750000Y-88595837D02*
X177404163Y-90250000D01*
X146125000Y-129077500D02*
X144750000Y-129077500D01*
X148550000Y-128315000D02*
X146887500Y-128315000D01*
X146887500Y-128315000D02*
X146125000Y-129077500D01*
X216500000Y-150700000D02*
X216500000Y-147150000D01*
X217800000Y-152000000D02*
X216500000Y-150700000D01*
D80*
X97825000Y-130500000D02*
X95020000Y-133305000D01*
X99250000Y-130500000D02*
X97825000Y-130500000D01*
X95020000Y-133305000D02*
X93800000Y-133305000D01*
D81*
X147500000Y-133702500D02*
X147500000Y-136250000D01*
X150450000Y-131252499D02*
X148749999Y-132952500D01*
X150450000Y-130590000D02*
X150450000Y-131252499D01*
X148749999Y-132952500D02*
X148250000Y-132952500D01*
X148250000Y-132952500D02*
X147500000Y-133702500D01*
X173750000Y-112675000D02*
X173750000Y-110750000D01*
X176250000Y-143387500D02*
X176350000Y-143487500D01*
X176250000Y-140750000D02*
X176250000Y-143387500D01*
X173750000Y-110750000D02*
X172750000Y-109750000D01*
X172750000Y-112675000D02*
X172750000Y-111250000D01*
X172500000Y-138500000D02*
X173950000Y-139950000D01*
X172750000Y-111250000D02*
X172250000Y-110750000D01*
X173950000Y-139950000D02*
X173950000Y-143487500D01*
X181750000Y-129500000D02*
X181150000Y-130100000D01*
X181175000Y-106750000D02*
X179250000Y-106750000D01*
X179250000Y-106750000D02*
X178750000Y-107250000D01*
X181150000Y-130100000D02*
X181150000Y-132187500D01*
X174750000Y-89010050D02*
X175000000Y-89260050D01*
X175000000Y-89260050D02*
X175000000Y-91000000D01*
X178750000Y-130000000D02*
X178750000Y-132187500D01*
X179000000Y-129750000D02*
X178750000Y-130000000D01*
X174750000Y-87325000D02*
X174750000Y-89010050D01*
X108750000Y-81500000D02*
X108750000Y-74320000D01*
X155825000Y-102250000D02*
X157750000Y-102250000D01*
X108750000Y-74320000D02*
X108580000Y-74150000D01*
X157750000Y-102250000D02*
X158500000Y-101500000D01*
X121750000Y-108500000D02*
X122250000Y-108000000D01*
X94225000Y-107000000D02*
X91375000Y-104150000D01*
X96500000Y-107000000D02*
X94225000Y-107000000D01*
X121750000Y-109700000D02*
X121750000Y-108500000D01*
X166750000Y-112675000D02*
X166750000Y-110250000D01*
X166750000Y-110250000D02*
X167250000Y-109750000D01*
X164250000Y-141000000D02*
X164250000Y-143387500D01*
X164250000Y-143387500D02*
X164350000Y-143487500D01*
X169500000Y-123500000D02*
X169150000Y-123850000D01*
X165750000Y-87325000D02*
X165750000Y-89750000D01*
X169500000Y-123250000D02*
X169500000Y-123500000D01*
X169150000Y-123850000D02*
X169150000Y-132187500D01*
X160000000Y-99250000D02*
X155825000Y-99250000D01*
X163000000Y-102250000D02*
X160000000Y-99250000D01*
X162750000Y-141250000D02*
X162750000Y-143487500D01*
X209290000Y-144610000D02*
X209290000Y-146260000D01*
X214250000Y-135350000D02*
X214250000Y-132200000D01*
X214250000Y-135350000D02*
X214250000Y-139650000D01*
X214250000Y-132200000D02*
X214050000Y-132000000D01*
X214250000Y-139650000D02*
X209290000Y-144610000D01*
X181175000Y-94750000D02*
X187500000Y-94750000D01*
X209290000Y-146260000D02*
X207800000Y-147750000D01*
X187500000Y-94750000D02*
X188250000Y-95500000D01*
X167000000Y-140500000D02*
X166750000Y-140750000D01*
X168750000Y-112675000D02*
X168750000Y-119750000D01*
X166750000Y-140750000D02*
X166750000Y-143487500D01*
X188450000Y-105499950D02*
X187750000Y-106199950D01*
X187750000Y-106199950D02*
X187750000Y-147250000D01*
X186750000Y-100250000D02*
X188450000Y-101950000D01*
X185500000Y-149500000D02*
X169500000Y-149500000D01*
X187750000Y-147250000D02*
X185500000Y-149500000D01*
X169500000Y-149500000D02*
X167550000Y-147550000D01*
X188450000Y-101950000D02*
X188450000Y-105499950D01*
X167550000Y-147550000D02*
X167550000Y-143487500D01*
X181175000Y-100250000D02*
X186750000Y-100250000D01*
X187750000Y-93500000D02*
X191750000Y-97500000D01*
X175250000Y-88802943D02*
X175750000Y-89302943D01*
X191750000Y-97500000D02*
X191750000Y-98750000D01*
X175750000Y-89302943D02*
X175750000Y-90250000D01*
X175250000Y-87325000D02*
X175250000Y-88802943D01*
X169750000Y-112675000D02*
X169750000Y-111821880D01*
X169750000Y-111821880D02*
X170321880Y-111250000D01*
X174750000Y-120750000D02*
X174750000Y-132187500D01*
X175000000Y-120500000D02*
X174750000Y-120750000D01*
X170321880Y-111250000D02*
X170500000Y-111250000D01*
X159250000Y-124500000D02*
X163500000Y-124500000D01*
X158300000Y-96750000D02*
X155825000Y-96750000D01*
X158500000Y-96550000D02*
X158300000Y-96750000D01*
X158750000Y-125000000D02*
X159250000Y-124500000D01*
X163500000Y-124500000D02*
X164350000Y-125350000D01*
X164350000Y-125350000D02*
X164350000Y-132187500D01*
X184750000Y-109250000D02*
X182750000Y-109250000D01*
X170750000Y-135000000D02*
X170750000Y-132187500D01*
X182250000Y-108750000D02*
X181175000Y-108750000D01*
X186300000Y-132250000D02*
X186250000Y-132200000D01*
X186250000Y-132200000D02*
X186250000Y-110750000D01*
X172000000Y-135750000D02*
X171500000Y-135750000D01*
X171500000Y-135750000D02*
X170750000Y-135000000D01*
X186250000Y-110750000D02*
X184750000Y-109250000D01*
X182750000Y-109250000D02*
X182250000Y-108750000D01*
X172875000Y-139875000D02*
X172350000Y-140400000D01*
X173500000Y-115042894D02*
X173500000Y-117000000D01*
X172250000Y-112675000D02*
X172250000Y-113792894D01*
X172350000Y-140400000D02*
X172350000Y-143487500D01*
X172250000Y-113792894D02*
X173500000Y-115042894D01*
X169250000Y-112675000D02*
X169250000Y-111250000D01*
X169250000Y-111250000D02*
X169500000Y-111000000D01*
X176350000Y-123100000D02*
X176350000Y-132187500D01*
X175500000Y-122250000D02*
X176350000Y-123100000D01*
X161000000Y-98250000D02*
X155825000Y-98250000D01*
X161950000Y-128200000D02*
X161950000Y-132187500D01*
X161250000Y-127500000D02*
X161950000Y-128200000D01*
X161625000Y-98875000D02*
X161000000Y-98250000D01*
X163500000Y-140000000D02*
X163550000Y-140050000D01*
X163550000Y-140050000D02*
X163550000Y-143487500D01*
X165250000Y-112675000D02*
X165250000Y-111000000D01*
X165250000Y-111000000D02*
X165750000Y-110500000D01*
X171750000Y-114000000D02*
X172500000Y-114750000D01*
X172350000Y-122900000D02*
X172350000Y-132187500D01*
X172500000Y-122750000D02*
X172350000Y-122900000D01*
X172500000Y-114750000D02*
X172500000Y-120500000D01*
X171750000Y-112675000D02*
X171750000Y-114000000D01*
X168350000Y-139400000D02*
X168350000Y-143487500D01*
X178000000Y-136000000D02*
X177250000Y-136750000D01*
X177250000Y-112675000D02*
X177250000Y-111000000D01*
X178000000Y-134750000D02*
X178000000Y-136000000D01*
X177250000Y-136750000D02*
X171000000Y-136750000D01*
X177250000Y-111000000D02*
X177000000Y-110750000D01*
X171000000Y-136750000D02*
X168350000Y-139400000D01*
X178750000Y-140500000D02*
X178750000Y-143487500D01*
X180250000Y-139000000D02*
X178750000Y-140500000D01*
X181175000Y-110750000D02*
X183250000Y-110750000D01*
X184000000Y-138500000D02*
X183500000Y-139000000D01*
X184000000Y-111500000D02*
X184000000Y-138500000D01*
X183250000Y-110750000D02*
X184000000Y-111500000D01*
X183500000Y-139000000D02*
X180250000Y-139000000D01*
X112500000Y-76500000D02*
X111750000Y-77250000D01*
X111750000Y-96260050D02*
X111750000Y-109700000D01*
X174000000Y-80000000D02*
X170500000Y-76500000D01*
X170500000Y-76500000D02*
X112500000Y-76500000D01*
X173250000Y-85750000D02*
X174000000Y-85000000D01*
X173250000Y-87325000D02*
X173250000Y-85750000D01*
X111250000Y-95760050D02*
X111750000Y-96260050D01*
X111250000Y-85750000D02*
X111250000Y-95760050D01*
X111750000Y-85250000D02*
X111250000Y-85750000D01*
X174000000Y-85000000D02*
X174000000Y-80000000D01*
X170250000Y-84000000D02*
X170250000Y-79250000D01*
X169000000Y-78000000D02*
X112500000Y-78000000D01*
X170250000Y-79250000D02*
X169000000Y-78000000D01*
X109750000Y-87750000D02*
X109750000Y-109700000D01*
X169250000Y-85000000D02*
X170250000Y-84000000D01*
X112500000Y-78000000D02*
X109750000Y-80750000D01*
X169250000Y-87325000D02*
X169250000Y-85000000D01*
X180750000Y-139750000D02*
X179550000Y-140950000D01*
X183457107Y-110250000D02*
X184750000Y-111542893D01*
X184750000Y-111542893D02*
X184750000Y-139000000D01*
X184750000Y-139000000D02*
X184000000Y-139750000D01*
X181175000Y-110250000D02*
X183457107Y-110250000D01*
X179550000Y-140950000D02*
X179550000Y-143487500D01*
X184000000Y-139750000D02*
X180750000Y-139750000D01*
X117750000Y-96750000D02*
X117750000Y-109700000D01*
X120250000Y-94250000D02*
X117750000Y-96750000D01*
X155825000Y-94750000D02*
X154250000Y-94750000D01*
X153750000Y-94250000D02*
X123500000Y-94250000D01*
X154250000Y-94750000D02*
X153750000Y-94250000D01*
X190000000Y-101250000D02*
X190000000Y-106000000D01*
X190000000Y-106000000D02*
X189250000Y-106750000D01*
X166750000Y-135210050D02*
X166750000Y-132187500D01*
X181175000Y-98750000D02*
X187500000Y-98750000D01*
X168000000Y-137500000D02*
X168000000Y-136460050D01*
X189250000Y-106750000D02*
X189250000Y-134000000D01*
X187500000Y-98750000D02*
X190000000Y-101250000D01*
X189250000Y-134000000D02*
X188750000Y-134500000D01*
X168000000Y-136460050D02*
X166750000Y-135210050D01*
X83000000Y-108500000D02*
X83000000Y-101250000D01*
X88000000Y-100000000D02*
X90150000Y-102150000D01*
X120750000Y-113500000D02*
X120500000Y-113750000D01*
X89250000Y-114750000D02*
X83000000Y-108500000D01*
X120750000Y-109700000D02*
X120750000Y-113500000D01*
X83000000Y-101250000D02*
X84250000Y-100000000D01*
X90150000Y-102150000D02*
X91375000Y-102150000D01*
X84250000Y-100000000D02*
X88000000Y-100000000D01*
X177250000Y-140750000D02*
X177250000Y-143387500D01*
X174250000Y-112675000D02*
X174250000Y-113750000D01*
X177250000Y-143387500D02*
X177150000Y-143487500D01*
X174250000Y-113750000D02*
X174750000Y-114250000D01*
X169500000Y-114542893D02*
X169500000Y-118750000D01*
X170250000Y-112675000D02*
X170250000Y-113792893D01*
X169500000Y-118750000D02*
X173950000Y-123200000D01*
X173950000Y-123200000D02*
X173950000Y-132187500D01*
X170250000Y-113792893D02*
X169500000Y-114542893D01*
X169250000Y-148000000D02*
X169250000Y-147750000D01*
X169250000Y-147750000D02*
X169150000Y-147650000D01*
X169150000Y-147650000D02*
X169150000Y-143487500D01*
X182778120Y-98000000D02*
X188000000Y-98000000D01*
X190000000Y-146250000D02*
X185750000Y-150500000D01*
X190750000Y-106250000D02*
X190000000Y-107000000D01*
X190000000Y-107000000D02*
X190000000Y-146250000D01*
X185750000Y-150500000D02*
X172000000Y-150500000D01*
X182028120Y-97250000D02*
X182778120Y-98000000D01*
X188000000Y-98000000D02*
X190750000Y-100750000D01*
X190750000Y-100750000D02*
X190750000Y-106250000D01*
X181175000Y-97250000D02*
X182028120Y-97250000D01*
X187000000Y-110639953D02*
X187000000Y-146750000D01*
X185110047Y-108750000D02*
X187000000Y-110639953D01*
X171250000Y-148750000D02*
X169950000Y-147450000D01*
X182750000Y-108250000D02*
X183250000Y-108750000D01*
X169950000Y-147450000D02*
X169950000Y-143487500D01*
X185000000Y-148750000D02*
X171250000Y-148750000D01*
X183250000Y-108750000D02*
X185110047Y-108750000D01*
X187000000Y-146750000D02*
X185000000Y-148750000D01*
X181175000Y-108250000D02*
X182750000Y-108250000D01*
X98250000Y-96250000D02*
X96500000Y-94500000D01*
X96500000Y-94500000D02*
X95000000Y-94500000D01*
X121250000Y-109700000D02*
X121250000Y-106000000D01*
X98250000Y-97000000D02*
X98250000Y-96250000D01*
X173750000Y-89010050D02*
X173500000Y-89260050D01*
X173750000Y-87325000D02*
X173750000Y-89010050D01*
X173500000Y-89260050D02*
X173500000Y-92500000D01*
X173500000Y-92500000D02*
X176750000Y-95750000D01*
X174250000Y-119500000D02*
X174250000Y-114750000D01*
X174750000Y-139750000D02*
X174750000Y-143487500D01*
X174250000Y-114750000D02*
X173250000Y-113750000D01*
X173250000Y-113750000D02*
X173250000Y-112675000D01*
X164500000Y-116260050D02*
X164500000Y-119000000D01*
X166250000Y-122250000D02*
X168350000Y-124350000D01*
X164750000Y-116010050D02*
X164500000Y-116260050D01*
X164750000Y-112675000D02*
X164750000Y-116010050D01*
X164500000Y-119000000D02*
X165750000Y-120250000D01*
X168350000Y-124350000D02*
X168350000Y-132187500D01*
X181175000Y-106250000D02*
X178000000Y-106250000D01*
X180000000Y-125250000D02*
X179700000Y-125550000D01*
X178000000Y-106250000D02*
X177750000Y-106500000D01*
X179700000Y-125550000D02*
X179700000Y-132037500D01*
X179700000Y-132037500D02*
X179550000Y-132187500D01*
X181175000Y-99250000D02*
X187000000Y-99250000D01*
X166300000Y-135750000D02*
X165950000Y-135400000D01*
X188500000Y-106500000D02*
X188500000Y-128750000D01*
X165950000Y-135400000D02*
X165950000Y-132187500D01*
X187000000Y-99250000D02*
X189250000Y-101500000D01*
X189250000Y-105750000D02*
X188500000Y-106500000D01*
X189250000Y-101500000D02*
X189250000Y-105750000D01*
X111000000Y-114000000D02*
X110750000Y-113750000D01*
X171500000Y-106750000D02*
X171614950Y-106635050D01*
X142000000Y-125000000D02*
X120000000Y-125000000D01*
X157500000Y-125000000D02*
X153750000Y-125000000D01*
X110750000Y-113750000D02*
X110750000Y-109700000D01*
X167760050Y-106500000D02*
X169000000Y-106500000D01*
X175250000Y-110500000D02*
X171500000Y-106750000D01*
X175250000Y-112675000D02*
X175250000Y-110500000D01*
X165880025Y-108380025D02*
X167760050Y-106500000D01*
X160000000Y-122500000D02*
X157500000Y-125000000D01*
X150537500Y-111450000D02*
X149525000Y-112462500D01*
X155825000Y-108250000D02*
X154750000Y-108250000D01*
X148025000Y-112987500D02*
X148550000Y-112462500D01*
X147525000Y-112987500D02*
X148025000Y-112987500D01*
X148550000Y-112462500D02*
X149525000Y-112462500D01*
X152025000Y-111450000D02*
X150537500Y-111450000D01*
X153669975Y-109805025D02*
X152025000Y-111450000D01*
X154750000Y-108250000D02*
X153669975Y-109330025D01*
X146750000Y-113250000D02*
X144475000Y-113250000D01*
X147525000Y-112987500D02*
X147012500Y-112987500D01*
X147012500Y-112987500D02*
X146750000Y-113250000D01*
X153669975Y-109330025D02*
X153669975Y-109805025D01*
X163760050Y-108750000D02*
X164250000Y-108750000D01*
X101000000Y-68000000D02*
X99690000Y-66690000D01*
X161750000Y-110760050D02*
X163760050Y-108750000D01*
X115500000Y-70750000D02*
X113500000Y-68750000D01*
X165250000Y-107750000D02*
X165243627Y-107743627D01*
X161750000Y-112675000D02*
X161750000Y-110760050D01*
X164250000Y-108750000D02*
X165250000Y-107750000D01*
X115500000Y-71750000D02*
X115500000Y-70750000D01*
X99690000Y-66690000D02*
X99690000Y-62850000D01*
X159500000Y-97050000D02*
X159300000Y-97250000D01*
X162500000Y-125250000D02*
X163550000Y-126300000D01*
X160000000Y-125250000D02*
X162500000Y-125250000D01*
X163550000Y-126300000D02*
X163550000Y-132187500D01*
X159300000Y-97250000D02*
X155825000Y-97250000D01*
X164500000Y-93819211D02*
X164534606Y-93853817D01*
X107500000Y-99250000D02*
X107250000Y-99500000D01*
X181175000Y-93750000D02*
X176250000Y-93750000D01*
X107250000Y-99500000D02*
X107250000Y-109700000D01*
X171250000Y-93750000D02*
X164500000Y-93750000D01*
X164500000Y-93750000D02*
X164500000Y-93819211D01*
X170000000Y-130750000D02*
X170000000Y-132137500D01*
X157750000Y-114500000D02*
X158250000Y-114000000D01*
X170000000Y-132137500D02*
X169950000Y-132187500D01*
X158750000Y-122500000D02*
X158750000Y-121250000D01*
X158250000Y-114000000D02*
X158250000Y-112675000D01*
X158750000Y-121250000D02*
X157750000Y-120250000D01*
X157750000Y-120250000D02*
X157750000Y-114500000D01*
X114000000Y-72000000D02*
X110000000Y-68000000D01*
X110000000Y-68000000D02*
X103000000Y-68000000D01*
X100960000Y-65960000D02*
X100960000Y-62850000D01*
X155825000Y-101750000D02*
X157000000Y-101750000D01*
X103000000Y-68000000D02*
X100960000Y-65960000D01*
X114000000Y-75250000D02*
X114000000Y-72000000D01*
X157000000Y-101750000D02*
X158500000Y-100250000D01*
X162255025Y-100494975D02*
X160510050Y-98750000D01*
X160510050Y-98750000D02*
X155825000Y-98750000D01*
X161950000Y-138800000D02*
X161950000Y-143487500D01*
X162000000Y-138750000D02*
X161950000Y-138800000D01*
X154250000Y-93528120D02*
X154250000Y-93500000D01*
X154250000Y-93500000D02*
X122500000Y-93500000D01*
X122500000Y-93500000D02*
X118250000Y-97750000D01*
X118250000Y-97750000D02*
X118250000Y-109700000D01*
X154971880Y-94250000D02*
X154250000Y-93528120D01*
X155825000Y-94250000D02*
X154971880Y-94250000D01*
X120250000Y-99000000D02*
X120000000Y-98750000D01*
X120250000Y-109700000D02*
X120250000Y-99000000D01*
X96750000Y-92500000D02*
X95000000Y-92500000D01*
X100750000Y-91000000D02*
X98250000Y-91000000D01*
X98250000Y-91000000D02*
X96750000Y-92500000D01*
X114500000Y-79500000D02*
X168000000Y-79500000D01*
X112450000Y-84000000D02*
X112450000Y-84200000D01*
X112625000Y-81375000D02*
X114500000Y-79500000D01*
X168750000Y-80250000D02*
X168750000Y-83500000D01*
X168000000Y-79500000D02*
X168750000Y-80250000D01*
X168250000Y-84000000D02*
X168250000Y-87325000D01*
X112750000Y-84500000D02*
X112750000Y-109700000D01*
X112450000Y-84200000D02*
X112750000Y-84500000D01*
X168750000Y-83500000D02*
X168250000Y-84000000D01*
X162250000Y-112675000D02*
X162250000Y-111250000D01*
X157750000Y-92000000D02*
X157750000Y-90100000D01*
X103750000Y-71750000D02*
X103500000Y-71750000D01*
X103500000Y-71750000D02*
X102230000Y-73020000D01*
X158000000Y-92250000D02*
X157750000Y-92000000D01*
X162250000Y-111250000D02*
X163750000Y-109750000D01*
X170750000Y-78500000D02*
X169500000Y-77250000D01*
X113250000Y-83250000D02*
X113500000Y-83000000D01*
X169500000Y-77250000D02*
X116250000Y-77250000D01*
X113250000Y-109700000D02*
X113250000Y-83250000D01*
X170750000Y-87325000D02*
X170750000Y-78500000D01*
X177750000Y-110250000D02*
X173250000Y-105750000D01*
X168250000Y-105750000D02*
X159500000Y-105750000D01*
X127700000Y-116300000D02*
X118050000Y-116300000D01*
X117250000Y-115500000D02*
X117250000Y-109700000D01*
X177750000Y-112675000D02*
X177750000Y-110250000D01*
X173250000Y-105750000D02*
X171000000Y-105750000D01*
X118050000Y-116300000D02*
X117250000Y-115500000D01*
X135000000Y-109000000D02*
X127700000Y-116300000D01*
X159500000Y-105750000D02*
X158500000Y-106750000D01*
X167250000Y-111250000D02*
X167250000Y-112675000D01*
X168250000Y-110250000D02*
X167250000Y-111250000D01*
X165000000Y-140250000D02*
X165150000Y-140400000D01*
X165150000Y-140400000D02*
X165150000Y-143487500D01*
X176750000Y-112675000D02*
X176750000Y-113542893D01*
X176750000Y-113542893D02*
X177207107Y-114000000D01*
X167550000Y-126100000D02*
X167550000Y-132187500D01*
X177250000Y-114000000D02*
X178000000Y-114750000D01*
X178000000Y-114750000D02*
X178000000Y-122500000D01*
X167650000Y-126000000D02*
X167550000Y-126100000D01*
X177207107Y-114000000D02*
X177250000Y-114000000D01*
X185500000Y-139500000D02*
X184000000Y-141000000D01*
X184250000Y-109750000D02*
X185500000Y-111000000D01*
X182000000Y-141000000D02*
X181150000Y-141850000D01*
X181150000Y-141850000D02*
X181150000Y-143487500D01*
X184000000Y-141000000D02*
X182000000Y-141000000D01*
X181175000Y-109750000D02*
X184250000Y-109750000D01*
X185500000Y-111000000D02*
X185500000Y-139500000D01*
X168250000Y-112675000D02*
X168250000Y-119000000D01*
X165150000Y-122100000D02*
X165150000Y-132187500D01*
X168250000Y-119000000D02*
X165150000Y-122100000D01*
X166000000Y-140000000D02*
X165950000Y-140050000D01*
X167750000Y-118250000D02*
X167000000Y-119000000D01*
X167750000Y-112675000D02*
X167750000Y-118250000D01*
X165950000Y-140050000D02*
X165950000Y-143487500D01*
X159250000Y-87325000D02*
X159250000Y-86000000D01*
X121750000Y-85250000D02*
X114250000Y-92750000D01*
X114250000Y-92750000D02*
X114250000Y-109700000D01*
X159250000Y-86000000D02*
X158500000Y-85250000D01*
X158500000Y-85250000D02*
X121750000Y-85250000D01*
X178250000Y-124250000D02*
X177150000Y-125350000D01*
X177150000Y-125350000D02*
X177150000Y-132187500D01*
X174250000Y-87325000D02*
X174250000Y-90250000D01*
X154500000Y-90250000D02*
X153500000Y-89250000D01*
X112000000Y-95802943D02*
X112250000Y-96052943D01*
X112000000Y-89000000D02*
X112000000Y-95802943D01*
X153500000Y-89250000D02*
X123250000Y-89250000D01*
X112250000Y-96052943D02*
X112250000Y-109700000D01*
X155825000Y-90250000D02*
X154500000Y-90250000D01*
X162750000Y-127750000D02*
X162750000Y-132187500D01*
X161000000Y-126000000D02*
X162750000Y-127750000D01*
X160375000Y-97550000D02*
X160175000Y-97750000D01*
X160800000Y-126000000D02*
X161000000Y-126000000D01*
X160175000Y-97750000D02*
X155825000Y-97750000D01*
X206430000Y-111130000D02*
X206430000Y-108750000D01*
X214250000Y-122700000D02*
X214300000Y-122750000D01*
X214250000Y-120150000D02*
X214250000Y-122700000D01*
X208050000Y-112750000D02*
X206430000Y-111130000D01*
X185500000Y-95250000D02*
X187000000Y-96750000D01*
X210300000Y-112750000D02*
X208050000Y-112750000D01*
X181175000Y-95250000D02*
X185500000Y-95250000D01*
X126000000Y-117750000D02*
X112500000Y-117750000D01*
X110250000Y-115500000D02*
X110250000Y-109700000D01*
X112500000Y-117750000D02*
X110250000Y-115500000D01*
X156750000Y-117000000D02*
X155000000Y-118750000D01*
X156750000Y-113675000D02*
X156750000Y-117000000D01*
X157750000Y-112675000D02*
X156750000Y-113675000D01*
X174750000Y-112675000D02*
X174750000Y-110760050D01*
X108500000Y-70500000D02*
X107310000Y-71690000D01*
X107310000Y-71690000D02*
X107310000Y-74150000D01*
X169250000Y-105260050D02*
X169250000Y-101750000D01*
X174750000Y-110760050D02*
X169250000Y-105260050D01*
X143500000Y-123000000D02*
X122500000Y-123000000D01*
X158000000Y-102750000D02*
X158250000Y-103000000D01*
X118750000Y-115500000D02*
X118750000Y-109700000D01*
X155825000Y-102750000D02*
X158000000Y-102750000D01*
X108050000Y-94289950D02*
X108250000Y-94489950D01*
X154000000Y-90750000D02*
X153250000Y-90000000D01*
X108250000Y-94489950D02*
X108250000Y-109700000D01*
X153250000Y-90000000D02*
X121000000Y-90000000D01*
X108250000Y-92500000D02*
X108050000Y-92700000D01*
X108050000Y-92700000D02*
X108050000Y-94289950D01*
X155825000Y-90750000D02*
X154000000Y-90750000D01*
X147750000Y-88250000D02*
X147000000Y-87500000D01*
X134250000Y-75250000D02*
X127750000Y-75250000D01*
X127750000Y-75250000D02*
X115350000Y-62850000D01*
X154500000Y-89250000D02*
X153500000Y-88250000D01*
X155825000Y-89250000D02*
X154500000Y-89250000D01*
X115350000Y-62850000D02*
X108580000Y-62850000D01*
X153500000Y-88250000D02*
X147750000Y-88250000D01*
X162250000Y-81750000D02*
X161500000Y-81000000D01*
X161500000Y-81000000D02*
X122750000Y-81000000D01*
X122750000Y-81000000D02*
X114750000Y-89000000D01*
X115000000Y-107500000D02*
X115250000Y-107750000D01*
X115000000Y-94000000D02*
X115000000Y-107500000D01*
X115250000Y-107750000D02*
X115250000Y-109700000D01*
X162250000Y-87325000D02*
X162250000Y-81750000D01*
X114750000Y-89000000D02*
X114750000Y-89250000D01*
X160250000Y-119500000D02*
X159250000Y-119500000D01*
X162000000Y-117750000D02*
X160250000Y-119500000D01*
X163250000Y-114250000D02*
X162000000Y-115500000D01*
X106000000Y-112500000D02*
X105750000Y-112250000D01*
X163250000Y-112675000D02*
X163250000Y-114250000D01*
X105750000Y-112250000D02*
X105750000Y-109700000D01*
X116250000Y-122250000D02*
X142250000Y-122250000D01*
X162000000Y-115500000D02*
X162000000Y-117750000D01*
D82*
X82500000Y-68050000D02*
X88800000Y-68050000D01*
D80*
X100960000Y-74150000D02*
X100960000Y-71460000D01*
X97550000Y-68050000D02*
X88800000Y-68050000D01*
D81*
X101040000Y-75000000D02*
X101040000Y-75270000D01*
X101725000Y-75955000D02*
X101520000Y-75750000D01*
X101000000Y-74960000D02*
X101000000Y-74250000D01*
D80*
X100960000Y-71460000D02*
X97550000Y-68050000D01*
D81*
X101040000Y-75270000D02*
X101520000Y-75750000D01*
X101725000Y-77250000D02*
X101725000Y-75955000D01*
D83*
X204500000Y-74750000D02*
X204500000Y-67120000D01*
D79*
X217250000Y-61100000D02*
X210650000Y-61100000D01*
X210650000Y-61100000D02*
X205750000Y-66000000D01*
X205750000Y-66000000D02*
X205620000Y-66000000D01*
D83*
X204500000Y-67120000D02*
X205620000Y-66000000D01*
D80*
X209000000Y-57990000D02*
X211500000Y-57990000D01*
X211500000Y-57990000D02*
X216960000Y-57990000D01*
X216960000Y-57990000D02*
X217250000Y-57700000D01*
D81*
X172750000Y-93000000D02*
X164250000Y-93000000D01*
X181175000Y-97750000D02*
X177500000Y-97750000D01*
X177500000Y-97750000D02*
X172750000Y-93000000D01*
X116750000Y-95750000D02*
X116750000Y-109700000D01*
X160750000Y-116250000D02*
X159500000Y-117500000D01*
X106250000Y-110700000D02*
X106250000Y-109700000D01*
X160750000Y-112675000D02*
X160750000Y-116250000D01*
X108000000Y-117250000D02*
X107000000Y-116250000D01*
X107000000Y-111450000D02*
X106250000Y-110700000D01*
X144500000Y-120500000D02*
X110750000Y-120500000D01*
X107000000Y-116250000D02*
X107000000Y-111450000D01*
X153000000Y-105809999D02*
X152559999Y-106250000D01*
X132000000Y-107750000D02*
X127500000Y-103250000D01*
X101000000Y-103250000D02*
X100600000Y-103650000D01*
X152559999Y-106250000D02*
X150500000Y-106250000D01*
X153000000Y-105500000D02*
X153000000Y-105809999D01*
X155825000Y-105750000D02*
X153250000Y-105750000D01*
X153250000Y-105750000D02*
X153000000Y-105500000D01*
X100600000Y-103650000D02*
X95875000Y-103650000D01*
X127500000Y-103250000D02*
X125250000Y-103250000D01*
X150500000Y-106250000D02*
X149000000Y-107750000D01*
X149000000Y-107750000D02*
X132000000Y-107750000D01*
X167750000Y-83489950D02*
X167950000Y-83289950D01*
X167950000Y-83289950D02*
X167950000Y-80700000D01*
X104250000Y-91000000D02*
X104250000Y-109700000D01*
X167950000Y-80700000D02*
X167500000Y-80250000D01*
X115000000Y-80250000D02*
X104250000Y-91000000D01*
X167750000Y-87325000D02*
X167750000Y-83489950D01*
X167500000Y-80250000D02*
X115000000Y-80250000D01*
X155825000Y-100750000D02*
X156750000Y-100750000D01*
X100000000Y-74460000D02*
X99690000Y-74150000D01*
X156750000Y-100750000D02*
X157500000Y-100000000D01*
X100000000Y-75750000D02*
X100000000Y-74460000D01*
X154500000Y-109750000D02*
X154369975Y-109619975D01*
X136500000Y-108750000D02*
X126500000Y-118750000D01*
X126500000Y-118750000D02*
X108000000Y-118750000D01*
X108000000Y-118750000D02*
X104750000Y-115500000D01*
X155825000Y-109750000D02*
X154500000Y-109750000D01*
X104750000Y-115500000D02*
X104750000Y-109700000D01*
X119500000Y-90750000D02*
X153000000Y-90750000D01*
X153000000Y-90750000D02*
X153500000Y-91250000D01*
X108750000Y-94000000D02*
X108750000Y-109700000D01*
X155825000Y-91250000D02*
X153500000Y-91250000D01*
X143500000Y-121250000D02*
X113000000Y-121250000D01*
X160000000Y-118500000D02*
X158750000Y-118500000D01*
X161250000Y-117250000D02*
X160000000Y-118500000D01*
X109250000Y-117250000D02*
X109250000Y-109700000D01*
X161250000Y-112675000D02*
X161250000Y-117250000D01*
X111250000Y-98700000D02*
X111250000Y-109700000D01*
X155825000Y-95250000D02*
X122000000Y-95250000D01*
X111050000Y-98500000D02*
X111250000Y-98700000D01*
X107000000Y-119500000D02*
X127000000Y-119500000D01*
X127000000Y-119500000D02*
X137000000Y-109500000D01*
X156750000Y-109250000D02*
X157250000Y-109750000D01*
X105250000Y-114750000D02*
X105250000Y-109700000D01*
X155825000Y-109250000D02*
X156750000Y-109250000D01*
X105750000Y-115250000D02*
X105250000Y-114750000D01*
X117250000Y-117000000D02*
X114750000Y-114500000D01*
X157500000Y-111250000D02*
X156000000Y-112750000D01*
X158178120Y-111250000D02*
X157500000Y-111250000D01*
X156000000Y-112750000D02*
X156000000Y-116250000D01*
X123500000Y-117000000D02*
X117250000Y-117000000D01*
X156000000Y-116250000D02*
X152750000Y-119500000D01*
X158750000Y-112675000D02*
X158750000Y-111821880D01*
X158750000Y-111821880D02*
X158178120Y-111250000D01*
X114750000Y-114500000D02*
X114750000Y-109700000D01*
X181175000Y-98250000D02*
X177000000Y-98250000D01*
X164500000Y-94753028D02*
X164499878Y-94753150D01*
X107750000Y-112000000D02*
X107750000Y-109700000D01*
X108500000Y-112750000D02*
X107750000Y-112000000D01*
X177000000Y-98250000D02*
X173500000Y-94750000D01*
X164500000Y-94750000D02*
X164500000Y-94753028D01*
X173500000Y-94750000D02*
X164500000Y-94750000D01*
X169500000Y-79750000D02*
X168500000Y-78750000D01*
X169500000Y-83750000D02*
X169500000Y-79750000D01*
X168750000Y-84500000D02*
X169500000Y-83750000D01*
X113750000Y-85250000D02*
X113750000Y-109700000D01*
X168750000Y-87325000D02*
X168750000Y-84500000D01*
X114250000Y-84750000D02*
X113750000Y-85250000D01*
X168500000Y-78750000D02*
X115500000Y-78750000D01*
X161750000Y-82750000D02*
X160750000Y-81750000D01*
X115750000Y-92750000D02*
X115750000Y-109700000D01*
X160750000Y-81750000D02*
X123250000Y-81750000D01*
X123250000Y-81750000D02*
X115750000Y-89250000D01*
X161750000Y-87325000D02*
X161750000Y-82750000D01*
X106750000Y-97750000D02*
X106750000Y-109700000D01*
X181175000Y-91750000D02*
X177250000Y-91750000D01*
X171250000Y-91750000D02*
X164500000Y-91750000D01*
X220500000Y-142640000D02*
X220500000Y-147150000D01*
X217750000Y-138650000D02*
X217750000Y-146000000D01*
X218250000Y-138150000D02*
X217750000Y-138650000D01*
X217750000Y-146000000D02*
X218700000Y-146950000D01*
X218250000Y-135350000D02*
X218250000Y-138150000D01*
X215980000Y-135620000D02*
X215980000Y-139370000D01*
X172250000Y-88500000D02*
X171500000Y-89250000D01*
X172250000Y-87325000D02*
X172250000Y-88500000D01*
X222290000Y-117150000D02*
X222290000Y-115265000D01*
X221425000Y-111125000D02*
X220750000Y-111800000D01*
X220750000Y-115400000D02*
X222075000Y-115400000D01*
X222250000Y-120150000D02*
X222250000Y-117190000D01*
X220750000Y-111800000D02*
X220750000Y-115400000D01*
X226250000Y-120150000D02*
X226250000Y-116690000D01*
X226540000Y-115735000D02*
X226540000Y-116400000D01*
X226250000Y-116690000D02*
X226540000Y-116400000D01*
X172750000Y-87325000D02*
X172750000Y-90000000D01*
X225250000Y-115910000D02*
X226050000Y-115910000D01*
X226050000Y-115910000D02*
X226540000Y-116400000D01*
X227550000Y-114725000D02*
X226540000Y-115735000D01*
X184000000Y-61185000D02*
X184000000Y-55500000D01*
X185540000Y-62725000D02*
X184000000Y-61185000D01*
X155825000Y-104750000D02*
X154971880Y-104750000D01*
X151520000Y-101250000D02*
X152500000Y-102230000D01*
X153500000Y-103278120D02*
X153500000Y-102230000D01*
X152500000Y-102230000D02*
X153500000Y-102230000D01*
X154971880Y-104750000D02*
X153500000Y-103278120D01*
X153500000Y-104500000D02*
X153000000Y-104500000D01*
X155825000Y-105250000D02*
X154250000Y-105250000D01*
X153000000Y-104500000D02*
X153000000Y-104000000D01*
X153000000Y-104000000D02*
X152500000Y-103500000D01*
X150760000Y-103500000D02*
X149760000Y-104500000D01*
X154250000Y-105250000D02*
X153500000Y-104500000D01*
X152500000Y-103500000D02*
X150760000Y-103500000D01*
D80*
X218800000Y-112750000D02*
X212800000Y-112750000D01*
X219730000Y-113680000D02*
X218800000Y-112750000D01*
X209050000Y-118000000D02*
X208300000Y-118750000D01*
X225300000Y-143000000D02*
X222800000Y-143000000D01*
X224000000Y-139900000D02*
X224700000Y-139900000D01*
X224700000Y-139900000D02*
X225550000Y-140750000D01*
D81*
X212250000Y-120150000D02*
X212250000Y-118550000D01*
X205550000Y-141500000D02*
X205800000Y-141250000D01*
D80*
X221510000Y-142900000D02*
X222200000Y-142900000D01*
X219730000Y-115400000D02*
X219730000Y-113680000D01*
X218750000Y-139920000D02*
X218750000Y-140550000D01*
D79*
X199050000Y-130400000D02*
X199050000Y-124100000D01*
D80*
X225550000Y-142750000D02*
X225300000Y-143000000D01*
X225190000Y-114890000D02*
X224550000Y-114250000D01*
X218750000Y-140550000D02*
X218550000Y-140750000D01*
X222800000Y-143000000D02*
X222550000Y-143250000D01*
X216000000Y-140410000D02*
X216000000Y-140550000D01*
D81*
X212250000Y-118550000D02*
X213600000Y-117200000D01*
D80*
X216000000Y-140550000D02*
X215300000Y-141250000D01*
X209050000Y-116500000D02*
X209050000Y-118000000D01*
D81*
X216800000Y-117200000D02*
X214550000Y-117200000D01*
D80*
X212800000Y-112750000D02*
X209050000Y-116500000D01*
X225550000Y-140750000D02*
X225550000Y-142750000D01*
D81*
X205550000Y-143740000D02*
X205550000Y-141500000D01*
X213600000Y-117200000D02*
X214550000Y-117200000D01*
D80*
X222200000Y-142900000D02*
X222550000Y-143250000D01*
D81*
X229040000Y-112900000D02*
X227800000Y-112900000D01*
X223750000Y-112650000D02*
X223250000Y-112650000D01*
X223250000Y-112650000D02*
X222250000Y-113650000D01*
X220010000Y-141400000D02*
X220010000Y-141900000D01*
X220250000Y-141160000D02*
X220010000Y-141400000D01*
X220250000Y-139937500D02*
X220250000Y-141160000D01*
X222500000Y-139937500D02*
X222500000Y-141390000D01*
X226250000Y-132450000D02*
X225550000Y-131750000D01*
X226250000Y-135350000D02*
X226250000Y-132450000D01*
X224250000Y-132450000D02*
X223800000Y-132000000D01*
X224250000Y-135350000D02*
X224250000Y-132450000D01*
X210340000Y-147750000D02*
X210340000Y-150950000D01*
X205260000Y-145050000D02*
X205550000Y-144760000D01*
X205260000Y-147750000D02*
X205260000Y-145050000D01*
X123500000Y-126000000D02*
X112250000Y-126000000D01*
X160250000Y-121250000D02*
X160000000Y-121250000D01*
X107500000Y-121250000D02*
X93000000Y-121250000D01*
X163750000Y-112675000D02*
X163750000Y-115270000D01*
X163480000Y-115270000D02*
X163000000Y-115750000D01*
X93000000Y-121250000D02*
X90750000Y-119000000D01*
X88500000Y-116500000D02*
X80750000Y-108750000D01*
X163000000Y-118500000D02*
X160250000Y-121250000D01*
X80750000Y-108750000D02*
X80750000Y-96250000D01*
X80750000Y-96250000D02*
X84000000Y-93000000D01*
X112250000Y-126000000D02*
X107500000Y-121250000D01*
X163750000Y-115270000D02*
X163480000Y-115270000D01*
X163000000Y-115750000D02*
X163000000Y-118500000D01*
X84000000Y-93000000D02*
X90500000Y-93000000D01*
X87287500Y-87500000D02*
X89990000Y-87500000D01*
X79500000Y-87110000D02*
X85322500Y-87110000D01*
X127500000Y-106250000D02*
X126000000Y-104750000D01*
X90500000Y-92500000D02*
X84890000Y-92500000D01*
X91500000Y-90250000D02*
X90750000Y-91000000D01*
X92000000Y-90250000D02*
X91500000Y-90250000D01*
X157250000Y-106250000D02*
X158000000Y-105500000D01*
X85322500Y-87110000D02*
X85712500Y-87500000D01*
X90750000Y-91000000D02*
X90750000Y-92250000D01*
X84890000Y-92500000D02*
X79500000Y-87110000D01*
X129000000Y-106250000D02*
X127500000Y-106250000D01*
X155825000Y-106250000D02*
X157250000Y-106250000D01*
X90750000Y-92250000D02*
X90500000Y-92500000D01*
X180825000Y-114250000D02*
X182000000Y-114250000D01*
X179250000Y-112675000D02*
X180825000Y-114250000D01*
X182000000Y-114250000D02*
X183250000Y-115500000D01*
X81750000Y-108000000D02*
X81750000Y-97500000D01*
X86250000Y-94500000D02*
X86000000Y-94250000D01*
X183250000Y-115500000D02*
X183250000Y-116000000D01*
X85532500Y-84570000D02*
X85712500Y-84750000D01*
X79500000Y-84570000D02*
X85532500Y-84570000D01*
X90500000Y-94500000D02*
X86250000Y-94500000D01*
X81750000Y-97500000D02*
X85000000Y-94250000D01*
X85000000Y-94250000D02*
X86000000Y-94250000D01*
X87287500Y-84750000D02*
X89990000Y-84750000D01*
X87287500Y-82000000D02*
X89990000Y-82000000D01*
X95875000Y-104150000D02*
X94525000Y-105500000D01*
X79500000Y-82030000D02*
X85682500Y-82030000D01*
X85682500Y-82030000D02*
X85712500Y-82000000D01*
X75250000Y-84000000D02*
X77220000Y-82030000D01*
X183250000Y-118028120D02*
X183250000Y-118250000D01*
X94525000Y-105500000D02*
X94500000Y-105500000D01*
X178750000Y-113528120D02*
X183250000Y-118028120D01*
X77220000Y-82030000D02*
X79500000Y-82030000D01*
X178750000Y-112675000D02*
X178750000Y-113528120D01*
X87287500Y-79750000D02*
X90000000Y-79750000D01*
X183250000Y-120750000D02*
X183250000Y-122500000D01*
X89975000Y-96250000D02*
X84500000Y-96250000D01*
X95875000Y-102150000D02*
X89975000Y-96250000D01*
X85452500Y-79490000D02*
X85712500Y-79750000D01*
X179250000Y-115292893D02*
X179250000Y-116750000D01*
X79500000Y-79490000D02*
X85452500Y-79490000D01*
X178250000Y-112675000D02*
X178250000Y-114292893D01*
X179250000Y-116750000D02*
X183250000Y-120750000D01*
X178250000Y-114292893D02*
X179250000Y-115292893D01*
X79500000Y-76950000D02*
X85375000Y-76950000D01*
X168750000Y-90500000D02*
X159500000Y-90500000D01*
X179571880Y-92500000D02*
X179250000Y-92500000D01*
X159500000Y-90500000D02*
X155500000Y-86500000D01*
X170000000Y-89250000D02*
X168750000Y-90500000D01*
X181175000Y-93250000D02*
X180321880Y-93250000D01*
X85375000Y-76950000D02*
X85675000Y-77250000D01*
X155500000Y-86500000D02*
X131750000Y-86500000D01*
X180321880Y-93250000D02*
X179571880Y-92500000D01*
X87250000Y-77250000D02*
X89990000Y-77250000D01*
X99750000Y-101750000D02*
X97878120Y-101750000D01*
X150500000Y-102250000D02*
X149750000Y-103000000D01*
X149750000Y-103000000D02*
X148750000Y-103000000D01*
X97878120Y-101750000D02*
X96978120Y-102650000D01*
X148750000Y-103000000D02*
X146250000Y-105500000D01*
X96978120Y-102650000D02*
X95875000Y-102650000D01*
X150500000Y-101250000D02*
X150500000Y-102250000D01*
X133500000Y-105500000D02*
X128000000Y-100000000D01*
X128000000Y-100000000D02*
X122750000Y-100000000D01*
X146250000Y-105500000D02*
X133500000Y-105500000D01*
X100000000Y-101500000D02*
X99750000Y-101750000D01*
X93000000Y-94500000D02*
X92500000Y-94000000D01*
X92500000Y-94000000D02*
X90500000Y-94000000D01*
X95000000Y-98000000D02*
X93000000Y-96000000D01*
X147000000Y-106750000D02*
X132750000Y-106750000D01*
X148740000Y-105010000D02*
X147000000Y-106750000D01*
X127750000Y-101750000D02*
X124750000Y-101750000D01*
X93000000Y-96000000D02*
X93000000Y-94500000D01*
X132750000Y-106750000D02*
X127750000Y-101750000D01*
X148740000Y-104500000D02*
X148740000Y-105010000D01*
X99000000Y-98000000D02*
X95000000Y-98000000D01*
X102750000Y-101750000D02*
X99000000Y-98000000D01*
X218750000Y-138900000D02*
X219712500Y-138900000D01*
X220250000Y-135350000D02*
X220250000Y-138362500D01*
X219712500Y-138900000D02*
X220250000Y-138362500D01*
X222250000Y-135350000D02*
X222250000Y-138112500D01*
X223482500Y-138362500D02*
X224000000Y-138880000D01*
X222500000Y-138362500D02*
X223482500Y-138362500D01*
G04 #@! TA.AperFunction,Conductor*
G36*
X87549491Y-65769685D02*
G01*
X87595246Y-65822489D01*
X87605190Y-65891647D01*
X87578554Y-65952361D01*
X87460721Y-66096870D01*
X87366557Y-66277138D01*
X87310609Y-66472671D01*
X87310608Y-66472674D01*
X87300000Y-66591999D01*
X87300000Y-67800000D01*
X90300000Y-67800000D01*
X90300000Y-66749986D01*
X91275001Y-66749986D01*
X91285494Y-66852697D01*
X91340641Y-67019119D01*
X91340643Y-67019124D01*
X91432684Y-67168345D01*
X91556654Y-67292315D01*
X91705875Y-67384356D01*
X91705880Y-67384358D01*
X91872302Y-67439505D01*
X91872309Y-67439506D01*
X91975019Y-67449999D01*
X92249999Y-67449999D01*
X92750000Y-67449999D01*
X93024972Y-67449999D01*
X93024986Y-67449998D01*
X93127697Y-67439505D01*
X93294119Y-67384358D01*
X93294124Y-67384356D01*
X93443345Y-67292315D01*
X93567315Y-67168345D01*
X93659356Y-67019124D01*
X93659358Y-67019119D01*
X93714505Y-66852697D01*
X93714506Y-66852690D01*
X93724999Y-66749986D01*
X93725000Y-66749973D01*
X93725000Y-66700000D01*
X92750000Y-66700000D01*
X92750000Y-67449999D01*
X92249999Y-67449999D01*
X92250000Y-67449998D01*
X92250000Y-66700000D01*
X91275001Y-66700000D01*
X91275001Y-66749986D01*
X90300000Y-66749986D01*
X90300000Y-66592002D01*
X90299999Y-66591999D01*
X90289391Y-66472674D01*
X90289390Y-66472671D01*
X90233442Y-66277138D01*
X90139278Y-66096870D01*
X90021446Y-65952361D01*
X89994337Y-65887965D01*
X90006346Y-65819135D01*
X90053661Y-65767725D01*
X90117548Y-65750000D01*
X91212291Y-65750000D01*
X91279330Y-65769685D01*
X91325085Y-65822489D01*
X91335029Y-65891647D01*
X91329997Y-65913004D01*
X91285494Y-66047302D01*
X91285493Y-66047309D01*
X91275000Y-66150013D01*
X91275000Y-66200000D01*
X93724999Y-66200000D01*
X93724999Y-66150028D01*
X93724998Y-66150013D01*
X93714505Y-66047302D01*
X93670003Y-65913004D01*
X93667601Y-65843176D01*
X93703333Y-65783134D01*
X93765853Y-65751941D01*
X93787709Y-65750000D01*
X94376000Y-65750000D01*
X94443039Y-65769685D01*
X94488794Y-65822489D01*
X94500000Y-65874000D01*
X94500000Y-70876000D01*
X94480315Y-70943039D01*
X94427511Y-70988794D01*
X94376000Y-71000000D01*
X88779272Y-71000000D01*
X88723818Y-70986909D01*
X88106576Y-70678288D01*
X88055418Y-70630701D01*
X88038108Y-70563009D01*
X88060143Y-70496705D01*
X88114527Y-70452839D01*
X88173013Y-70443866D01*
X88242001Y-70449999D01*
X88242002Y-70450000D01*
X88550000Y-70450000D01*
X89050000Y-70450000D01*
X89357998Y-70450000D01*
X89358000Y-70449999D01*
X89477325Y-70439391D01*
X89477328Y-70439390D01*
X89672861Y-70383442D01*
X89853129Y-70289278D01*
X90010753Y-70160753D01*
X90139278Y-70003129D01*
X90233442Y-69822861D01*
X90289390Y-69627328D01*
X90289391Y-69627325D01*
X90299999Y-69508000D01*
X90300000Y-69507998D01*
X90300000Y-68300000D01*
X89050000Y-68300000D01*
X89050000Y-70450000D01*
X88550000Y-70450000D01*
X88550000Y-68300000D01*
X87300000Y-68300000D01*
X87300000Y-69508000D01*
X87310608Y-69627325D01*
X87310609Y-69627328D01*
X87366557Y-69822861D01*
X87460721Y-70003129D01*
X87580742Y-70150323D01*
X87607851Y-70214719D01*
X87595842Y-70283549D01*
X87548527Y-70334960D01*
X87480928Y-70352628D01*
X87429186Y-70339593D01*
X84818546Y-69034273D01*
X84767387Y-68986686D01*
X84750000Y-68923364D01*
X84750000Y-67316362D01*
X84769685Y-67249323D01*
X84805215Y-67213189D01*
X86968761Y-65770826D01*
X87035460Y-65750018D01*
X87037544Y-65750000D01*
X87482452Y-65750000D01*
X87549491Y-65769685D01*
G37*
G04 #@! TD.AperFunction*
G04 #@! TA.AperFunction,Conductor*
G36*
X195991159Y-70769890D02*
G01*
X196035919Y-70817349D01*
X197885823Y-74285919D01*
X200000000Y-78250000D01*
X209126000Y-78250000D01*
X209193039Y-78269685D01*
X209238794Y-78322489D01*
X209250000Y-78374000D01*
X209250000Y-79209303D01*
X209230315Y-79276342D01*
X209177511Y-79322097D01*
X209108353Y-79332041D01*
X209044797Y-79303016D01*
X209012566Y-79259389D01*
X208958971Y-79138009D01*
X208838525Y-78962179D01*
X208687820Y-78811474D01*
X208511990Y-78691028D01*
X208317032Y-78604946D01*
X208317017Y-78604941D01*
X208109570Y-78556149D01*
X208109555Y-78556147D01*
X208020989Y-78550000D01*
X206560000Y-78550000D01*
X206551989Y-78569338D01*
X206552579Y-78570418D01*
X206547595Y-78640110D01*
X206519094Y-78684457D01*
X204764457Y-80439095D01*
X204703134Y-80472580D01*
X204633442Y-80467596D01*
X204589095Y-80439095D01*
X204500000Y-80350000D01*
X204410905Y-80439095D01*
X204349582Y-80472580D01*
X204279890Y-80467596D01*
X204235543Y-80439095D01*
X202480904Y-78684456D01*
X202476565Y-78676510D01*
X202469318Y-78671085D01*
X202460083Y-78646325D01*
X202447419Y-78623133D01*
X202448064Y-78614103D01*
X202444901Y-78605621D01*
X202450517Y-78579800D01*
X202450786Y-78576042D01*
X202439999Y-78550000D01*
X203053551Y-78550000D01*
X204500000Y-79996448D01*
X204500001Y-79996448D01*
X205946447Y-78550000D01*
X203053551Y-78550000D01*
X202439999Y-78550000D01*
X200979011Y-78550000D01*
X200890440Y-78556147D01*
X200890431Y-78556148D01*
X200682982Y-78604941D01*
X200682967Y-78604946D01*
X200488009Y-78691028D01*
X200312179Y-78811474D01*
X200161474Y-78962179D01*
X200041028Y-79138009D01*
X199954946Y-79332967D01*
X199954941Y-79332982D01*
X199906149Y-79540429D01*
X199906147Y-79540444D01*
X199900000Y-79629011D01*
X199900000Y-81070988D01*
X199906147Y-81159559D01*
X199906148Y-81159568D01*
X199954941Y-81367017D01*
X199954946Y-81367032D01*
X200041028Y-81561990D01*
X200161474Y-81737820D01*
X200211973Y-81788319D01*
X200222585Y-81807755D01*
X200237086Y-81824489D01*
X200239002Y-81837820D01*
X200245458Y-81849642D01*
X200243878Y-81871728D01*
X200247030Y-81893647D01*
X200241434Y-81905898D01*
X200240474Y-81919334D01*
X200227203Y-81937060D01*
X200218005Y-81957203D01*
X200206673Y-81964485D01*
X200198602Y-81975267D01*
X200177856Y-81983004D01*
X200159227Y-81994977D01*
X200137308Y-81998128D01*
X200133138Y-81999684D01*
X200124292Y-82000000D01*
X200034345Y-82000000D01*
X199970549Y-81982329D01*
X199269990Y-81561994D01*
X198750000Y-81249999D01*
X197476214Y-81272745D01*
X197408834Y-81254261D01*
X197362143Y-81202282D01*
X197350000Y-81148765D01*
X197350000Y-80937500D01*
X193650001Y-80937500D01*
X193650001Y-81149971D01*
X193650002Y-81149991D01*
X193655779Y-81206551D01*
X193643009Y-81275244D01*
X193595127Y-81326127D01*
X193534635Y-81343131D01*
X193051330Y-81351761D01*
X192983950Y-81333277D01*
X192937259Y-81281298D01*
X192926083Y-81212328D01*
X192931410Y-81188776D01*
X192964943Y-81087582D01*
X192974999Y-80989150D01*
X192975000Y-80989137D01*
X192975000Y-80972500D01*
X191025001Y-80972500D01*
X191025001Y-80989152D01*
X191035056Y-81087583D01*
X191080932Y-81226025D01*
X191083334Y-81295853D01*
X191047602Y-81355895D01*
X190985082Y-81387088D01*
X190965440Y-81389009D01*
X184879256Y-81497691D01*
X184811876Y-81479207D01*
X184765185Y-81427228D01*
X184753077Y-81370759D01*
X184753530Y-81351761D01*
X184774861Y-80455849D01*
X191025000Y-80455849D01*
X191025000Y-80472500D01*
X191750000Y-80472500D01*
X192250000Y-80472500D01*
X192974999Y-80472500D01*
X192974999Y-80455864D01*
X192974998Y-80455847D01*
X192964943Y-80357416D01*
X192932950Y-80260868D01*
X192921069Y-80225013D01*
X193650000Y-80225013D01*
X193650000Y-80437500D01*
X195250000Y-80437500D01*
X195750000Y-80437500D01*
X197349999Y-80437500D01*
X197349999Y-80225028D01*
X197349998Y-80225013D01*
X197339505Y-80122302D01*
X197284358Y-79955880D01*
X197284356Y-79955875D01*
X197192315Y-79806654D01*
X197068345Y-79682684D01*
X196919124Y-79590643D01*
X196919119Y-79590641D01*
X196752697Y-79535494D01*
X196752690Y-79535493D01*
X196649986Y-79525000D01*
X195750000Y-79525000D01*
X195750000Y-80437500D01*
X195250000Y-80437500D01*
X195250000Y-79525000D01*
X194350028Y-79525000D01*
X194350012Y-79525001D01*
X194247302Y-79535494D01*
X194080880Y-79590641D01*
X194080875Y-79590643D01*
X193931654Y-79682684D01*
X193807684Y-79806654D01*
X193715643Y-79955875D01*
X193715641Y-79955880D01*
X193660494Y-80122302D01*
X193660493Y-80122309D01*
X193650000Y-80225013D01*
X192921069Y-80225013D01*
X192912093Y-80197927D01*
X192912091Y-80197922D01*
X192823885Y-80054919D01*
X192705080Y-79936114D01*
X192562077Y-79847908D01*
X192562072Y-79847906D01*
X192402583Y-79795057D01*
X192304150Y-79785000D01*
X192250000Y-79785000D01*
X192250000Y-80472500D01*
X191750000Y-80472500D01*
X191750000Y-79785000D01*
X191749999Y-79784999D01*
X191695864Y-79785000D01*
X191695847Y-79785001D01*
X191597415Y-79795057D01*
X191437927Y-79847906D01*
X191437922Y-79847908D01*
X191294919Y-79936114D01*
X191176114Y-80054919D01*
X191087908Y-80197922D01*
X191087906Y-80197927D01*
X191035057Y-80357416D01*
X191025000Y-80455849D01*
X184774861Y-80455849D01*
X184997182Y-71118323D01*
X185018457Y-71051775D01*
X185072335Y-71007289D01*
X185118326Y-70997310D01*
X195923691Y-70751734D01*
X195991159Y-70769890D01*
G37*
G04 #@! TD.AperFunction*
G04 #@! TA.AperFunction,Conductor*
G36*
X209191720Y-81385544D02*
G01*
X209238136Y-81437767D01*
X209250000Y-81490696D01*
X209250000Y-81876000D01*
X209230315Y-81943039D01*
X209177511Y-81988794D01*
X209126000Y-82000000D01*
X208875708Y-82000000D01*
X208808669Y-81980315D01*
X208762914Y-81927511D01*
X208752970Y-81858353D01*
X208781995Y-81794797D01*
X208788027Y-81788319D01*
X208838525Y-81737820D01*
X208958968Y-81561994D01*
X209012565Y-81440610D01*
X209057651Y-81387234D01*
X209124437Y-81366706D01*
X209191720Y-81385544D01*
G37*
G04 #@! TD.AperFunction*
G04 #@! TA.AperFunction,Conductor*
G36*
X147443039Y-147019685D02*
G01*
X147488794Y-147072489D01*
X147500000Y-147124000D01*
X147500000Y-151376000D01*
X147480315Y-151443039D01*
X147427511Y-151488794D01*
X147376000Y-151500000D01*
X140374000Y-151500000D01*
X140306961Y-151480315D01*
X140261206Y-151427511D01*
X140250000Y-151376000D01*
X140250000Y-149624000D01*
X140269685Y-149556961D01*
X140322489Y-149511206D01*
X140374000Y-149500000D01*
X144000000Y-149500000D01*
X144000000Y-147124000D01*
X144019685Y-147056961D01*
X144072489Y-147011206D01*
X144124000Y-147000000D01*
X147376000Y-147000000D01*
X147443039Y-147019685D01*
G37*
G04 #@! TD.AperFunction*
G04 #@! TA.AperFunction,Conductor*
G36*
X155437150Y-141523207D02*
G01*
X155485763Y-141573391D01*
X155500000Y-141631080D01*
X155500000Y-148626000D01*
X155480315Y-148693039D01*
X155427511Y-148738794D01*
X155376000Y-148750000D01*
X150547583Y-148750000D01*
X150480544Y-148730315D01*
X150464631Y-148718168D01*
X148000001Y-146500000D01*
X148000000Y-146500000D01*
X144624000Y-146500000D01*
X144556961Y-146480315D01*
X144511206Y-146427511D01*
X144500000Y-146376000D01*
X144500000Y-144874000D01*
X144519685Y-144806961D01*
X144572489Y-144761206D01*
X144624000Y-144750000D01*
X146750000Y-144750000D01*
X149250000Y-144250000D01*
X150965451Y-141799355D01*
X151020020Y-141755724D01*
X151060150Y-141746658D01*
X155369122Y-141507271D01*
X155437150Y-141523207D01*
G37*
G04 #@! TD.AperFunction*
G04 #@! TA.AperFunction,Conductor*
G36*
X193558785Y-124268739D02*
G01*
X193592883Y-124292883D01*
X197763681Y-128463681D01*
X197797166Y-128525004D01*
X197800000Y-128551362D01*
X197800000Y-128936172D01*
X197780315Y-129003211D01*
X197727511Y-129048966D01*
X197658353Y-129058910D01*
X197605395Y-129035901D01*
X197604686Y-129037011D01*
X197599022Y-129033390D01*
X197428523Y-128948831D01*
X197243824Y-128902897D01*
X197201097Y-128900000D01*
X197000000Y-128900000D01*
X197000000Y-131900000D01*
X197201097Y-131900000D01*
X197243824Y-131897102D01*
X197428523Y-131851168D01*
X197599022Y-131766609D01*
X197604686Y-131762989D01*
X197605475Y-131764223D01*
X197662895Y-131740521D01*
X197731640Y-131753011D01*
X197782719Y-131800683D01*
X197800000Y-131863827D01*
X197800000Y-132000000D01*
X201050000Y-133500000D01*
X211186928Y-133706876D01*
X211253549Y-133727923D01*
X211298217Y-133781650D01*
X211306747Y-133850997D01*
X211300577Y-133874181D01*
X211256403Y-133992617D01*
X211256401Y-133992627D01*
X211250000Y-134052155D01*
X211250000Y-135100000D01*
X212126000Y-135100000D01*
X212193039Y-135119685D01*
X212238794Y-135172489D01*
X212250000Y-135224000D01*
X212250000Y-135350000D01*
X212376000Y-135350000D01*
X212443039Y-135369685D01*
X212488794Y-135422489D01*
X212500000Y-135474000D01*
X212500000Y-137100000D01*
X212797828Y-137100000D01*
X212797844Y-137099999D01*
X212857372Y-137093598D01*
X212857379Y-137093596D01*
X212992086Y-137043354D01*
X212992093Y-137043350D01*
X213107187Y-136957190D01*
X213107190Y-136957187D01*
X213193350Y-136842093D01*
X213193354Y-136842085D01*
X213195742Y-136835684D01*
X213237610Y-136779747D01*
X213303072Y-136755326D01*
X213371346Y-136770174D01*
X213420755Y-136819576D01*
X213435809Y-136873624D01*
X213544630Y-139376491D01*
X213527876Y-139444322D01*
X213477109Y-139492327D01*
X213426508Y-139505743D01*
X192175767Y-140494150D01*
X192107886Y-140477602D01*
X192059727Y-140426980D01*
X192046067Y-140374157D01*
X191929620Y-136647844D01*
X211250000Y-136647844D01*
X211256401Y-136707372D01*
X211256403Y-136707379D01*
X211306645Y-136842086D01*
X211306649Y-136842093D01*
X211392809Y-136957187D01*
X211392812Y-136957190D01*
X211507906Y-137043350D01*
X211507913Y-137043354D01*
X211642620Y-137093596D01*
X211642627Y-137093598D01*
X211702155Y-137099999D01*
X211702172Y-137100000D01*
X212000000Y-137100000D01*
X212000000Y-135600000D01*
X211250000Y-135600000D01*
X211250000Y-136647844D01*
X191929620Y-136647844D01*
X191895391Y-135552511D01*
X191848505Y-134052155D01*
X191756284Y-131101096D01*
X195500000Y-131101096D01*
X195502897Y-131143824D01*
X195548831Y-131328523D01*
X195633390Y-131499022D01*
X195633392Y-131499025D01*
X195752632Y-131647366D01*
X195752633Y-131647367D01*
X195900974Y-131766607D01*
X195900977Y-131766609D01*
X196071476Y-131851168D01*
X196256175Y-131897102D01*
X196298903Y-131900000D01*
X196500000Y-131900000D01*
X196500000Y-130650000D01*
X195500000Y-130650000D01*
X195500000Y-131101096D01*
X191756284Y-131101096D01*
X191712466Y-129698903D01*
X195500000Y-129698903D01*
X195500000Y-130150000D01*
X196500000Y-130150000D01*
X196500000Y-128900000D01*
X196298903Y-128900000D01*
X196256175Y-128902897D01*
X196071476Y-128948831D01*
X195900977Y-129033390D01*
X195900974Y-129033392D01*
X195752633Y-129152632D01*
X195752632Y-129152633D01*
X195633392Y-129300974D01*
X195633390Y-129300977D01*
X195548831Y-129471476D01*
X195502897Y-129656175D01*
X195500000Y-129698903D01*
X191712466Y-129698903D01*
X191553528Y-124612903D01*
X191571108Y-124545283D01*
X191622458Y-124497901D01*
X191662086Y-124485989D01*
X193489822Y-124257522D01*
X193558785Y-124268739D01*
G37*
G04 #@! TD.AperFunction*
G04 #@! TA.AperFunction,Conductor*
G36*
X203693039Y-83019685D02*
G01*
X203738794Y-83072489D01*
X203750000Y-83124000D01*
X203750000Y-85376000D01*
X203730315Y-85443039D01*
X203677511Y-85488794D01*
X203626000Y-85500000D01*
X194374000Y-85500000D01*
X194306961Y-85480315D01*
X194261206Y-85427511D01*
X194250000Y-85376000D01*
X194250000Y-85098999D01*
X194269685Y-85031960D01*
X194322489Y-84986205D01*
X194374000Y-84974999D01*
X195249999Y-84974999D01*
X195750000Y-84974999D01*
X196649972Y-84974999D01*
X196649986Y-84974998D01*
X196752697Y-84964505D01*
X196919119Y-84909358D01*
X196919124Y-84909356D01*
X197068345Y-84817315D01*
X197192315Y-84693345D01*
X197284356Y-84544124D01*
X197284358Y-84544119D01*
X197339505Y-84377697D01*
X197339506Y-84377690D01*
X197349999Y-84274986D01*
X197350000Y-84274973D01*
X197350000Y-84062500D01*
X195750000Y-84062500D01*
X195750000Y-84974999D01*
X195249999Y-84974999D01*
X195250000Y-84974998D01*
X195250000Y-83936500D01*
X195269685Y-83869461D01*
X195322489Y-83823706D01*
X195374000Y-83812500D01*
X195500000Y-83812500D01*
X195500000Y-83686500D01*
X195519685Y-83619461D01*
X195572489Y-83573706D01*
X195624000Y-83562500D01*
X197349999Y-83562500D01*
X197349999Y-83350028D01*
X197349998Y-83350013D01*
X197339505Y-83247302D01*
X197311572Y-83163004D01*
X197309170Y-83093176D01*
X197344902Y-83033134D01*
X197407422Y-83001941D01*
X197429278Y-83000000D01*
X203626000Y-83000000D01*
X203693039Y-83019685D01*
G37*
G04 #@! TD.AperFunction*
G04 #@! TA.AperFunction,Conductor*
G36*
X96240403Y-124219685D02*
G01*
X96284273Y-124268546D01*
X96736909Y-125173818D01*
X96750000Y-125229272D01*
X96750000Y-127700000D01*
X100633736Y-127942733D01*
X100699416Y-127966562D01*
X100741788Y-128022117D01*
X100750000Y-128066492D01*
X100750000Y-129326000D01*
X100730315Y-129393039D01*
X100677511Y-129438794D01*
X100626000Y-129450000D01*
X99864633Y-129450000D01*
X99854455Y-129449500D01*
X99853465Y-129449500D01*
X98646535Y-129449500D01*
X98645545Y-129449500D01*
X98635367Y-129450000D01*
X96250000Y-129450000D01*
X95276181Y-129936909D01*
X95220728Y-129950000D01*
X93368726Y-129950000D01*
X93301687Y-129930315D01*
X93255932Y-129877511D01*
X93244843Y-129831386D01*
X93166179Y-128022117D01*
X93005625Y-124329384D01*
X93022379Y-124261555D01*
X93073146Y-124213550D01*
X93129508Y-124200000D01*
X96173364Y-124200000D01*
X96240403Y-124219685D01*
G37*
G04 #@! TD.AperFunction*
G04 #@! TA.AperFunction,Conductor*
G36*
X229193039Y-61769685D02*
G01*
X229238794Y-61822489D01*
X229250000Y-61874000D01*
X229250000Y-67876000D01*
X229230315Y-67943039D01*
X229177511Y-67988794D01*
X229126000Y-68000000D01*
X229116310Y-68000000D01*
X229049271Y-67980315D01*
X229003516Y-67927511D01*
X228993021Y-67862744D01*
X228999999Y-67797844D01*
X229000000Y-67797827D01*
X229000000Y-66000000D01*
X228000000Y-66000000D01*
X228000000Y-65500000D01*
X229000000Y-65500000D01*
X229000000Y-63702172D01*
X228999999Y-63702155D01*
X228993598Y-63642627D01*
X228993596Y-63642620D01*
X228943354Y-63507913D01*
X228943350Y-63507906D01*
X228857190Y-63392812D01*
X228857187Y-63392809D01*
X228742093Y-63306649D01*
X228742086Y-63306645D01*
X228607379Y-63256403D01*
X228607372Y-63256401D01*
X228547844Y-63250000D01*
X227750000Y-63250000D01*
X227750000Y-64316988D01*
X227692993Y-64284075D01*
X227565826Y-64250000D01*
X227434174Y-64250000D01*
X227307007Y-64284075D01*
X227250000Y-64316988D01*
X227250000Y-63250000D01*
X226452155Y-63250000D01*
X226392627Y-63256401D01*
X226392620Y-63256403D01*
X226257913Y-63306645D01*
X226257906Y-63306649D01*
X226142812Y-63392809D01*
X226142809Y-63392812D01*
X226056649Y-63507906D01*
X226056645Y-63507913D01*
X226006403Y-63642620D01*
X226006401Y-63642627D01*
X226000000Y-63702155D01*
X226000000Y-65500000D01*
X227000000Y-65500000D01*
X227000000Y-66000000D01*
X226000000Y-66000000D01*
X226000000Y-67797844D01*
X226006979Y-67862744D01*
X225994574Y-67931503D01*
X225946965Y-67982641D01*
X225883690Y-68000000D01*
X217910023Y-68000000D01*
X217842984Y-67980315D01*
X217797229Y-67927511D01*
X217787285Y-67858353D01*
X217816310Y-67794797D01*
X217822342Y-67788319D01*
X217892315Y-67718345D01*
X217984356Y-67569124D01*
X217984358Y-67569119D01*
X218039505Y-67402697D01*
X218039506Y-67402690D01*
X218049999Y-67299986D01*
X218050000Y-67299973D01*
X218050000Y-66875000D01*
X217049000Y-66875000D01*
X216981961Y-66855315D01*
X216936206Y-66802511D01*
X216925000Y-66751000D01*
X216925000Y-66625000D01*
X216799000Y-66625000D01*
X216731961Y-66605315D01*
X216686206Y-66552511D01*
X216675000Y-66501000D01*
X216675000Y-66375000D01*
X217175000Y-66375000D01*
X218049999Y-66375000D01*
X218049999Y-65950028D01*
X218049998Y-65950013D01*
X218039505Y-65847302D01*
X217984358Y-65680880D01*
X217984356Y-65680875D01*
X217892315Y-65531654D01*
X217768345Y-65407684D01*
X217619124Y-65315643D01*
X217619119Y-65315641D01*
X217452697Y-65260494D01*
X217452690Y-65260493D01*
X217349986Y-65250000D01*
X217175000Y-65250000D01*
X217175000Y-66375000D01*
X216675000Y-66375000D01*
X216675000Y-65250000D01*
X216500029Y-65250000D01*
X216500012Y-65250001D01*
X216397302Y-65260494D01*
X216230880Y-65315641D01*
X216230871Y-65315645D01*
X216189096Y-65341413D01*
X216121704Y-65359853D01*
X216055040Y-65338930D01*
X216010271Y-65285288D01*
X216000000Y-65235874D01*
X216000000Y-65121478D01*
X216019685Y-65054439D01*
X216072489Y-65008684D01*
X216121451Y-64997504D01*
X219650000Y-64925000D01*
X219549358Y-62962486D01*
X220150001Y-62962486D01*
X220160494Y-63065197D01*
X220215641Y-63231619D01*
X220215643Y-63231624D01*
X220307684Y-63380845D01*
X220431654Y-63504815D01*
X220580875Y-63596856D01*
X220580880Y-63596858D01*
X220747302Y-63652005D01*
X220747309Y-63652006D01*
X220850019Y-63662499D01*
X221749999Y-63662499D01*
X222250000Y-63662499D01*
X223149972Y-63662499D01*
X223149986Y-63662498D01*
X223252697Y-63652005D01*
X223419119Y-63596858D01*
X223419130Y-63596853D01*
X223424865Y-63593315D01*
X223424870Y-63593312D01*
X223568345Y-63504815D01*
X223692315Y-63380845D01*
X223784356Y-63231624D01*
X223784358Y-63231619D01*
X223839505Y-63065197D01*
X223839506Y-63065190D01*
X223849999Y-62962486D01*
X223850000Y-62962473D01*
X223850000Y-62750000D01*
X222250000Y-62750000D01*
X222250000Y-63662499D01*
X221749999Y-63662499D01*
X221750000Y-63662498D01*
X221750000Y-62750000D01*
X220150001Y-62750000D01*
X220150001Y-62962486D01*
X219549358Y-62962486D01*
X219504829Y-62094168D01*
X219521054Y-62026209D01*
X219571445Y-61977810D01*
X219589442Y-61970185D01*
X219994811Y-61835062D01*
X220064631Y-61832538D01*
X220124736Y-61868163D01*
X220156039Y-61930628D01*
X220157377Y-61965301D01*
X220150000Y-62037508D01*
X220150000Y-62250000D01*
X223849999Y-62250000D01*
X223849999Y-62037528D01*
X223849998Y-62037513D01*
X223839505Y-61934801D01*
X223832283Y-61913006D01*
X223829880Y-61843177D01*
X223865611Y-61783135D01*
X223928130Y-61751942D01*
X223949988Y-61750000D01*
X229126000Y-61750000D01*
X229193039Y-61769685D01*
G37*
G04 #@! TD.AperFunction*
G04 #@! TA.AperFunction,Conductor*
G36*
X92443039Y-125219685D02*
G01*
X92488794Y-125272489D01*
X92500000Y-125324000D01*
X92500000Y-133076000D01*
X92480315Y-133143039D01*
X92427511Y-133188794D01*
X92376000Y-133200000D01*
X89874000Y-133200000D01*
X89806961Y-133180315D01*
X89761206Y-133127511D01*
X89750000Y-133076000D01*
X89750000Y-132450000D01*
X86374000Y-132450000D01*
X86306961Y-132430315D01*
X86261206Y-132377511D01*
X86250000Y-132326000D01*
X86250000Y-131824000D01*
X86269685Y-131756961D01*
X86322489Y-131711206D01*
X86374000Y-131700000D01*
X89750000Y-131700000D01*
X89750000Y-131699999D01*
X89737407Y-131536299D01*
X89598892Y-129735597D01*
X89599068Y-129714526D01*
X89600500Y-129699266D01*
X89600500Y-129290734D01*
X89597646Y-129260301D01*
X89557729Y-129146225D01*
X89551137Y-129114783D01*
X89260270Y-125333510D01*
X89274755Y-125265159D01*
X89323894Y-125215489D01*
X89383905Y-125200000D01*
X92376000Y-125200000D01*
X92443039Y-125219685D01*
G37*
G04 #@! TD.AperFunction*
G04 #@! TA.AperFunction,Conductor*
G36*
X212933687Y-116748384D02*
G01*
X213000446Y-116768998D01*
X213045463Y-116822432D01*
X213055809Y-116866180D01*
X213128642Y-118322850D01*
X213112330Y-118390789D01*
X213061877Y-118439123D01*
X212993301Y-118452508D01*
X212961464Y-118445224D01*
X212857379Y-118406403D01*
X212857372Y-118406401D01*
X212797844Y-118400000D01*
X212500000Y-118400000D01*
X212500000Y-120026000D01*
X212480315Y-120093039D01*
X212427511Y-120138794D01*
X212376000Y-120150000D01*
X212250000Y-120150000D01*
X212250000Y-120276000D01*
X212230315Y-120343039D01*
X212177511Y-120388794D01*
X212126000Y-120400000D01*
X211250000Y-120400000D01*
X211250000Y-121447844D01*
X211256401Y-121507372D01*
X211256402Y-121507376D01*
X211284484Y-121582666D01*
X211289468Y-121652358D01*
X211255983Y-121713681D01*
X211194660Y-121747166D01*
X211168302Y-121750000D01*
X203800000Y-121750000D01*
X202567264Y-124955112D01*
X202524826Y-125010617D01*
X202506984Y-125021508D01*
X201576181Y-125486909D01*
X201520728Y-125500000D01*
X201267548Y-125500000D01*
X201200509Y-125480315D01*
X201154754Y-125427511D01*
X201144810Y-125358353D01*
X201171446Y-125297639D01*
X201289278Y-125153129D01*
X201383442Y-124972861D01*
X201439390Y-124777328D01*
X201439391Y-124777325D01*
X201449999Y-124658000D01*
X201450000Y-124657998D01*
X201450000Y-124350000D01*
X196650000Y-124350000D01*
X196650000Y-124658000D01*
X196660608Y-124777325D01*
X196660609Y-124777328D01*
X196716556Y-124972859D01*
X196726497Y-124991889D01*
X196740088Y-125060424D01*
X196714469Y-125125428D01*
X196657774Y-125166261D01*
X196602895Y-125172543D01*
X195160307Y-125012256D01*
X195095851Y-124985288D01*
X195056207Y-124927754D01*
X195050000Y-124889014D01*
X195050000Y-123541999D01*
X196650000Y-123541999D01*
X196650000Y-123850000D01*
X198800000Y-123850000D01*
X199300000Y-123850000D01*
X201450000Y-123850000D01*
X201450000Y-123542002D01*
X201449999Y-123541999D01*
X201439391Y-123422674D01*
X201439390Y-123422671D01*
X201383442Y-123227138D01*
X201289278Y-123046870D01*
X201160753Y-122889246D01*
X201003129Y-122760721D01*
X200822861Y-122666557D01*
X200627328Y-122610609D01*
X200627325Y-122610608D01*
X200508000Y-122600000D01*
X199300000Y-122600000D01*
X199300000Y-123850000D01*
X198800000Y-123850000D01*
X198800000Y-122600000D01*
X197591999Y-122600000D01*
X197472674Y-122610608D01*
X197472671Y-122610609D01*
X197277138Y-122666557D01*
X197096870Y-122760721D01*
X196939246Y-122889246D01*
X196810721Y-123046870D01*
X196716557Y-123227138D01*
X196660609Y-123422671D01*
X196660608Y-123422674D01*
X196650000Y-123541999D01*
X195050000Y-123541999D01*
X195050000Y-120319433D01*
X195069685Y-120252394D01*
X195122489Y-120206639D01*
X195186603Y-120196075D01*
X195225019Y-120199999D01*
X195775000Y-120199999D01*
X195824972Y-120199999D01*
X195824986Y-120199998D01*
X195927697Y-120189505D01*
X196094119Y-120134358D01*
X196094124Y-120134356D01*
X196243345Y-120042315D01*
X196367315Y-119918345D01*
X196459356Y-119769124D01*
X196459358Y-119769119D01*
X196514505Y-119602697D01*
X196514506Y-119602690D01*
X196524999Y-119499986D01*
X196525000Y-119499973D01*
X196525000Y-119225000D01*
X195775000Y-119225000D01*
X195775000Y-120199999D01*
X195225019Y-120199999D01*
X195274999Y-120199998D01*
X195275000Y-120199998D01*
X195275000Y-118852155D01*
X211250000Y-118852155D01*
X211250000Y-119900000D01*
X212000000Y-119900000D01*
X212000000Y-118400000D01*
X211702155Y-118400000D01*
X211642627Y-118406401D01*
X211642620Y-118406403D01*
X211507913Y-118456645D01*
X211507906Y-118456649D01*
X211392812Y-118542809D01*
X211392809Y-118542812D01*
X211306649Y-118657906D01*
X211306645Y-118657913D01*
X211256403Y-118792620D01*
X211256401Y-118792627D01*
X211250000Y-118852155D01*
X195275000Y-118852155D01*
X195275000Y-118725000D01*
X195775000Y-118725000D01*
X196524999Y-118725000D01*
X196524999Y-118450028D01*
X196524998Y-118450013D01*
X196514505Y-118347302D01*
X196459358Y-118180880D01*
X196459356Y-118180875D01*
X196367315Y-118031654D01*
X196243345Y-117907684D01*
X196094124Y-117815643D01*
X196094119Y-117815641D01*
X195927697Y-117760494D01*
X195927690Y-117760493D01*
X195824986Y-117750000D01*
X195775000Y-117750000D01*
X195775000Y-118725000D01*
X195275000Y-118725000D01*
X195275000Y-117790673D01*
X195138093Y-117749254D01*
X195128813Y-117743182D01*
X195117907Y-117741155D01*
X195100091Y-117724390D01*
X195079626Y-117711000D01*
X195075101Y-117700873D01*
X195067024Y-117693273D01*
X195059776Y-117666577D01*
X195051122Y-117647209D01*
X195052341Y-117639192D01*
X195050000Y-117630567D01*
X195050000Y-116625734D01*
X195069685Y-116558695D01*
X195122489Y-116512940D01*
X195175721Y-116501746D01*
X212933687Y-116748384D01*
G37*
G04 #@! TD.AperFunction*
G04 #@! TA.AperFunction,Conductor*
G36*
X141793039Y-95620185D02*
G01*
X141838794Y-95672989D01*
X141850000Y-95724500D01*
X141850000Y-97050000D01*
X142329174Y-97768761D01*
X142349982Y-97835460D01*
X142350000Y-97837544D01*
X142350000Y-100676000D01*
X142330315Y-100743039D01*
X142277511Y-100788794D01*
X142226000Y-100800000D01*
X139865266Y-100800000D01*
X139835192Y-100796298D01*
X138850000Y-100550000D01*
X137224000Y-100550000D01*
X137156961Y-100530315D01*
X137111206Y-100477511D01*
X137100000Y-100426000D01*
X137100000Y-98663238D01*
X137119685Y-98596199D01*
X137172489Y-98550444D01*
X137212769Y-98539748D01*
X139850000Y-98300000D01*
X141044005Y-95673186D01*
X141089666Y-95620304D01*
X141156670Y-95600500D01*
X141726000Y-95600500D01*
X141793039Y-95620185D01*
G37*
G04 #@! TD.AperFunction*
G04 #@! TA.AperFunction,Conductor*
G36*
X156164285Y-138042911D02*
G01*
X156221971Y-138082332D01*
X156249188Y-138146683D01*
X156250000Y-138160853D01*
X156250000Y-139320112D01*
X156230315Y-139387151D01*
X156213681Y-139407793D01*
X154584867Y-141036606D01*
X154523544Y-141070091D01*
X154502348Y-141072817D01*
X150250003Y-141249999D01*
X150249999Y-141250000D01*
X146784827Y-144220148D01*
X146721116Y-144248831D01*
X146704129Y-144250000D01*
X143750000Y-144250000D01*
X143749999Y-144250000D01*
X143749998Y-144250001D01*
X143000000Y-145749999D01*
X143000000Y-148876000D01*
X142980315Y-148943039D01*
X142927511Y-148988794D01*
X142876000Y-149000000D01*
X140162838Y-149000000D01*
X140095799Y-148980315D01*
X140050044Y-148927511D01*
X140040100Y-148858353D01*
X140043303Y-148843025D01*
X140896552Y-145750000D01*
X141981025Y-141818781D01*
X142017828Y-141759392D01*
X142069001Y-141731841D01*
X156094443Y-138040936D01*
X156164285Y-138042911D01*
G37*
G04 #@! TD.AperFunction*
G04 #@! TA.AperFunction,Conductor*
G36*
X139193039Y-130972185D02*
G01*
X139238794Y-131024989D01*
X139250000Y-131076500D01*
X139250000Y-135328500D01*
X139230315Y-135395539D01*
X139177511Y-135441294D01*
X139126000Y-135452500D01*
X138835587Y-135452500D01*
X138768548Y-135432815D01*
X138722793Y-135380011D01*
X138712849Y-135310853D01*
X138714335Y-135302539D01*
X138714856Y-135300104D01*
X138724999Y-135200822D01*
X138725000Y-135200809D01*
X138725000Y-135177500D01*
X136775001Y-135177500D01*
X136775001Y-135200822D01*
X136781141Y-135260920D01*
X136768371Y-135329613D01*
X136720491Y-135380497D01*
X136653510Y-135397448D01*
X136119727Y-135379042D01*
X136053405Y-135357059D01*
X136009497Y-135302710D01*
X136000000Y-135255116D01*
X136000000Y-134654177D01*
X136775000Y-134654177D01*
X136775000Y-134677500D01*
X137500000Y-134677500D01*
X138000000Y-134677500D01*
X138724999Y-134677500D01*
X138724999Y-134654192D01*
X138724998Y-134654177D01*
X138714855Y-134554892D01*
X138661547Y-134394018D01*
X138661542Y-134394007D01*
X138572575Y-134249771D01*
X138572572Y-134249767D01*
X138452732Y-134129927D01*
X138452728Y-134129924D01*
X138308492Y-134040957D01*
X138308481Y-134040952D01*
X138147606Y-133987644D01*
X138048322Y-133977500D01*
X138000000Y-133977500D01*
X138000000Y-134677500D01*
X137500000Y-134677500D01*
X137500000Y-133977500D01*
X137499999Y-133977499D01*
X137451693Y-133977500D01*
X137451675Y-133977501D01*
X137352392Y-133987644D01*
X137191518Y-134040952D01*
X137191507Y-134040957D01*
X137047271Y-134129924D01*
X137047267Y-134129927D01*
X136927427Y-134249767D01*
X136927424Y-134249771D01*
X136838457Y-134394007D01*
X136838452Y-134394018D01*
X136785144Y-134554893D01*
X136775000Y-134654177D01*
X136000000Y-134654177D01*
X136000000Y-134120758D01*
X135997267Y-134080465D01*
X135963074Y-133942976D01*
X135114456Y-134791594D01*
X135053133Y-134825079D01*
X134983441Y-134820095D01*
X134939094Y-134791594D01*
X134850000Y-134702500D01*
X134760905Y-134791595D01*
X134699582Y-134825080D01*
X134629890Y-134820096D01*
X134585543Y-134791595D01*
X133736924Y-133942976D01*
X133736923Y-133942976D01*
X133702732Y-134080463D01*
X133700000Y-134120758D01*
X133700000Y-135167254D01*
X133680315Y-135234293D01*
X133627511Y-135280048D01*
X133571727Y-135291180D01*
X131000002Y-135202500D01*
X130999997Y-135202500D01*
X130970052Y-135214479D01*
X130900497Y-135221100D01*
X130838404Y-135189066D01*
X130803487Y-135128547D01*
X130800000Y-135099348D01*
X130800000Y-134120758D01*
X130797267Y-134080465D01*
X130753958Y-133906319D01*
X130674231Y-133745565D01*
X130600780Y-133654188D01*
X130574121Y-133589604D01*
X130586611Y-133520859D01*
X130634285Y-133469781D01*
X130697427Y-133452500D01*
X131499999Y-133452500D01*
X131500000Y-133452500D01*
X132453197Y-132658169D01*
X133700000Y-132658169D01*
X133700000Y-132936824D01*
X133715442Y-133054128D01*
X133715444Y-133054133D01*
X133775899Y-133200085D01*
X133872075Y-133325424D01*
X133984072Y-133411363D01*
X134025274Y-133467791D01*
X134032403Y-133516451D01*
X134031636Y-133530585D01*
X134850000Y-134348948D01*
X134850001Y-134348948D01*
X135668360Y-133530586D01*
X135667594Y-133516454D01*
X135683620Y-133448447D01*
X135715926Y-133411364D01*
X135827923Y-133325426D01*
X135924100Y-133200086D01*
X135984554Y-133054134D01*
X135984555Y-133054130D01*
X135999999Y-132936830D01*
X135999999Y-132658175D01*
X135984557Y-132540871D01*
X135984555Y-132540866D01*
X135924100Y-132394914D01*
X135827923Y-132269573D01*
X135733341Y-132196999D01*
X135079101Y-132851239D01*
X135017778Y-132884724D01*
X134948086Y-132879740D01*
X134903739Y-132851239D01*
X134850000Y-132797500D01*
X134796260Y-132851240D01*
X134734937Y-132884725D01*
X134665245Y-132879741D01*
X134620898Y-132851240D01*
X133966657Y-132196999D01*
X133872077Y-132269573D01*
X133775899Y-132394913D01*
X133715445Y-132540865D01*
X133715444Y-132540869D01*
X133700000Y-132658169D01*
X132453197Y-132658169D01*
X133126000Y-132097500D01*
X134432841Y-132097500D01*
X134850000Y-132514658D01*
X134850001Y-132514658D01*
X135267157Y-132097500D01*
X134432841Y-132097500D01*
X133126000Y-132097500D01*
X134465511Y-130981241D01*
X134529614Y-130953445D01*
X134544894Y-130952500D01*
X139126000Y-130952500D01*
X139193039Y-130972185D01*
G37*
G04 #@! TD.AperFunction*
G04 #@! TA.AperFunction,Conductor*
G36*
X222268805Y-52269685D02*
G01*
X222285556Y-52282593D01*
X225209791Y-54963141D01*
X225245907Y-55022951D01*
X225250000Y-55054547D01*
X225250000Y-59876000D01*
X225230315Y-59943039D01*
X225177511Y-59988794D01*
X225126000Y-60000000D01*
X223970710Y-60000000D01*
X223903671Y-59980315D01*
X223857916Y-59927511D01*
X223847352Y-59863396D01*
X223849999Y-59837483D01*
X223850000Y-59837473D01*
X223850000Y-59625000D01*
X222124000Y-59625000D01*
X222056961Y-59605315D01*
X222011206Y-59552511D01*
X222000000Y-59501000D01*
X222000000Y-59375000D01*
X221874000Y-59375000D01*
X221806961Y-59355315D01*
X221761206Y-59302511D01*
X221750000Y-59251000D01*
X221750000Y-59125000D01*
X222250000Y-59125000D01*
X223849999Y-59125000D01*
X223849999Y-58912528D01*
X223849998Y-58912513D01*
X223839505Y-58809802D01*
X223784358Y-58643380D01*
X223784356Y-58643375D01*
X223692315Y-58494154D01*
X223568345Y-58370184D01*
X223419124Y-58278143D01*
X223419119Y-58278141D01*
X223252697Y-58222994D01*
X223252690Y-58222993D01*
X223149986Y-58212500D01*
X222250000Y-58212500D01*
X222250000Y-59125000D01*
X221750000Y-59125000D01*
X221750000Y-58212500D01*
X220850028Y-58212500D01*
X220850012Y-58212501D01*
X220747302Y-58222994D01*
X220580880Y-58278141D01*
X220580875Y-58278143D01*
X220431654Y-58370184D01*
X220307684Y-58494154D01*
X220215643Y-58643375D01*
X220215642Y-58643378D01*
X220208476Y-58665005D01*
X220168702Y-58722450D01*
X220104186Y-58749272D01*
X220090770Y-58750000D01*
X219374000Y-58750000D01*
X219306961Y-58730315D01*
X219261206Y-58677511D01*
X219250000Y-58626000D01*
X219250000Y-56750000D01*
X218612299Y-56740621D01*
X218545557Y-56719952D01*
X218500583Y-56666481D01*
X218491658Y-56597184D01*
X218503638Y-56560339D01*
X218566660Y-56436652D01*
X218621991Y-56266359D01*
X218624583Y-56250000D01*
X217740748Y-56250000D01*
X217762518Y-56212292D01*
X217800000Y-56072409D01*
X217800000Y-55927591D01*
X217762518Y-55787708D01*
X217740748Y-55750000D01*
X218624583Y-55750000D01*
X218621991Y-55733640D01*
X218566659Y-55563347D01*
X218485376Y-55403819D01*
X218380133Y-55258967D01*
X218380133Y-55258966D01*
X218253533Y-55132366D01*
X218108680Y-55027123D01*
X217949152Y-54945840D01*
X217778859Y-54890508D01*
X217602022Y-54862500D01*
X217500000Y-54862500D01*
X217500000Y-55509252D01*
X217462292Y-55487482D01*
X217322409Y-55450000D01*
X217177591Y-55450000D01*
X217037708Y-55487482D01*
X217000000Y-55509252D01*
X217000000Y-54862500D01*
X216897978Y-54862500D01*
X216721140Y-54890508D01*
X216550847Y-54945840D01*
X216391319Y-55027123D01*
X216246467Y-55132366D01*
X216246466Y-55132366D01*
X216119866Y-55258966D01*
X216119866Y-55258967D01*
X216014623Y-55403819D01*
X215933340Y-55563347D01*
X215878008Y-55733640D01*
X215875417Y-55750000D01*
X216759252Y-55750000D01*
X216737482Y-55787708D01*
X216700000Y-55927591D01*
X216700000Y-56072409D01*
X216737482Y-56212292D01*
X216759252Y-56250000D01*
X215875417Y-56250000D01*
X215878008Y-56266359D01*
X215933340Y-56436655D01*
X215975764Y-56519916D01*
X215988660Y-56588585D01*
X215962383Y-56653325D01*
X215905277Y-56693582D01*
X215863456Y-56700197D01*
X202372177Y-56501796D01*
X202305434Y-56481127D01*
X202260460Y-56427656D01*
X202250000Y-56377809D01*
X202250000Y-52374000D01*
X202269685Y-52306961D01*
X202322489Y-52261206D01*
X202374000Y-52250000D01*
X222201766Y-52250000D01*
X222268805Y-52269685D01*
G37*
G04 #@! TD.AperFunction*
G04 #@! TA.AperFunction,Conductor*
G36*
X94443039Y-61269685D02*
G01*
X94488794Y-61322489D01*
X94500000Y-61374000D01*
X94500000Y-64876000D01*
X94480315Y-64943039D01*
X94427511Y-64988794D01*
X94376000Y-65000000D01*
X93846987Y-65000000D01*
X93779948Y-64980315D01*
X93734193Y-64927511D01*
X93723629Y-64863395D01*
X93724999Y-64849981D01*
X93725000Y-64849973D01*
X93725000Y-64800000D01*
X91275001Y-64800000D01*
X91275001Y-64849984D01*
X91276372Y-64863397D01*
X91263603Y-64932090D01*
X91215723Y-64982975D01*
X91153014Y-65000000D01*
X86000000Y-65000000D01*
X84183276Y-66413007D01*
X84118273Y-66438627D01*
X84049737Y-66425037D01*
X83999429Y-66376551D01*
X83983321Y-66308564D01*
X83986813Y-66285199D01*
X83997101Y-66243828D01*
X84000000Y-66201096D01*
X84000000Y-66000000D01*
X81000000Y-66000000D01*
X81000000Y-66201096D01*
X81002897Y-66243824D01*
X81048831Y-66428523D01*
X81119446Y-66570906D01*
X81131598Y-66639711D01*
X81104621Y-66704163D01*
X81047082Y-66743798D01*
X81008358Y-66750000D01*
X81000000Y-66750000D01*
X80250000Y-66750000D01*
X78339374Y-66750000D01*
X78272335Y-66730315D01*
X78226580Y-66677511D01*
X78221737Y-66665212D01*
X78125517Y-66376551D01*
X78021974Y-66065924D01*
X78019450Y-65996103D01*
X78044760Y-65946846D01*
X78590396Y-65298903D01*
X81000000Y-65298903D01*
X81000000Y-65500000D01*
X82250000Y-65500000D01*
X82750000Y-65500000D01*
X84000000Y-65500000D01*
X84000000Y-65298903D01*
X83997102Y-65256175D01*
X83951168Y-65071476D01*
X83866609Y-64900977D01*
X83866607Y-64900974D01*
X83747367Y-64752633D01*
X83747366Y-64752632D01*
X83599025Y-64633392D01*
X83599022Y-64633390D01*
X83428523Y-64548831D01*
X83243824Y-64502897D01*
X83201097Y-64500000D01*
X82750000Y-64500000D01*
X82750000Y-65500000D01*
X82250000Y-65500000D01*
X82250000Y-64500000D01*
X81798903Y-64500000D01*
X81756175Y-64502897D01*
X81571476Y-64548831D01*
X81400977Y-64633390D01*
X81400974Y-64633392D01*
X81252633Y-64752632D01*
X81252632Y-64752633D01*
X81133392Y-64900974D01*
X81133390Y-64900977D01*
X81048831Y-65071476D01*
X81002897Y-65256175D01*
X81000000Y-65298903D01*
X78590396Y-65298903D01*
X79473672Y-64250013D01*
X91275000Y-64250013D01*
X91275000Y-64300000D01*
X92250000Y-64300000D01*
X92750000Y-64300000D01*
X93724999Y-64300000D01*
X93724999Y-64250028D01*
X93724998Y-64250013D01*
X93714505Y-64147302D01*
X93659358Y-63980880D01*
X93659356Y-63980875D01*
X93567315Y-63831654D01*
X93443345Y-63707684D01*
X93294124Y-63615643D01*
X93294119Y-63615641D01*
X93127697Y-63560494D01*
X93127690Y-63560493D01*
X93024986Y-63550000D01*
X92750000Y-63550000D01*
X92750000Y-64300000D01*
X92250000Y-64300000D01*
X92250000Y-63550000D01*
X91975029Y-63550000D01*
X91975012Y-63550001D01*
X91872302Y-63560494D01*
X91705880Y-63615641D01*
X91705875Y-63615643D01*
X91556654Y-63707684D01*
X91432684Y-63831654D01*
X91340643Y-63980875D01*
X91340641Y-63980880D01*
X91285494Y-64147302D01*
X91285493Y-64147309D01*
X91275000Y-64250013D01*
X79473672Y-64250013D01*
X81962840Y-61294126D01*
X82021079Y-61255527D01*
X82057689Y-61250000D01*
X94376000Y-61250000D01*
X94443039Y-61269685D01*
G37*
G04 #@! TD.AperFunction*
M02*
