G04 #@! TF.GenerationSoftware,KiCad,Pcbnew,9.0.1*
G04 #@! TF.CreationDate,2025-10-01T12:05:20-04:00*
G04 #@! TF.ProjectId,SCREEN_VERSION_1.2,53435245-454e-45f5-9645-5253494f4e5f,rev?*
G04 #@! TF.SameCoordinates,Original*
G04 #@! TF.FileFunction,Copper,L6,Bot*
G04 #@! TF.FilePolarity,Positive*
%FSLAX46Y46*%
G04 Gerber Fmt 4.6, Leading zero omitted, Abs format (unit mm)*
G04 Created by KiCad (PCBNEW 9.0.1) date 2025-10-01 12:05:20*
%MOMM*%
%LPD*%
G01*
G04 APERTURE LIST*
G04 Aperture macros list*
%AMRoundRect*
0 Rectangle with rounded corners*
0 $1 Rounding radius*
0 $2 $3 $4 $5 $6 $7 $8 $9 X,Y pos of 4 corners*
0 Add a 4 corners polygon primitive as box body*
4,1,4,$2,$3,$4,$5,$6,$7,$8,$9,$2,$3,0*
0 Add four circle primitives for the rounded corners*
1,1,$1+$1,$2,$3*
1,1,$1+$1,$4,$5*
1,1,$1+$1,$6,$7*
1,1,$1+$1,$8,$9*
0 Add four rect primitives between the rounded corners*
20,1,$1+$1,$2,$3,$4,$5,0*
20,1,$1+$1,$4,$5,$6,$7,0*
20,1,$1+$1,$6,$7,$8,$9,0*
20,1,$1+$1,$8,$9,$2,$3,0*%
G04 Aperture macros list end*
G04 #@! TA.AperFunction,ComponentPad*
%ADD10R,1.300000X1.300000*%
G04 #@! TD*
G04 #@! TA.AperFunction,ComponentPad*
%ADD11C,1.300000*%
G04 #@! TD*
G04 #@! TA.AperFunction,ComponentPad*
%ADD12R,1.700000X1.700000*%
G04 #@! TD*
G04 #@! TA.AperFunction,ComponentPad*
%ADD13O,1.700000X1.700000*%
G04 #@! TD*
G04 #@! TA.AperFunction,ComponentPad*
%ADD14O,2.200000X3.500000*%
G04 #@! TD*
G04 #@! TA.AperFunction,ComponentPad*
%ADD15R,1.500000X2.500000*%
G04 #@! TD*
G04 #@! TA.AperFunction,ComponentPad*
%ADD16O,1.500000X2.500000*%
G04 #@! TD*
G04 #@! TA.AperFunction,ComponentPad*
%ADD17R,1.800000X1.275000*%
G04 #@! TD*
G04 #@! TA.AperFunction,ComponentPad*
%ADD18O,1.800000X1.275000*%
G04 #@! TD*
G04 #@! TA.AperFunction,ComponentPad*
%ADD19R,3.200000X3.200000*%
G04 #@! TD*
G04 #@! TA.AperFunction,ComponentPad*
%ADD20O,3.200000X3.200000*%
G04 #@! TD*
G04 #@! TA.AperFunction,ComponentPad*
%ADD21C,1.600000*%
G04 #@! TD*
G04 #@! TA.AperFunction,ComponentPad*
%ADD22O,3.500000X2.200000*%
G04 #@! TD*
G04 #@! TA.AperFunction,ComponentPad*
%ADD23R,2.500000X1.500000*%
G04 #@! TD*
G04 #@! TA.AperFunction,ComponentPad*
%ADD24O,2.500000X1.500000*%
G04 #@! TD*
G04 #@! TA.AperFunction,ComponentPad*
%ADD25RoundRect,0.250000X0.600000X-0.600000X0.600000X0.600000X-0.600000X0.600000X-0.600000X-0.600000X0*%
G04 #@! TD*
G04 #@! TA.AperFunction,ComponentPad*
%ADD26C,1.700000*%
G04 #@! TD*
G04 #@! TA.AperFunction,ComponentPad*
%ADD27R,2.000000X4.000000*%
G04 #@! TD*
G04 #@! TA.AperFunction,ComponentPad*
%ADD28O,2.000000X3.300000*%
G04 #@! TD*
G04 #@! TA.AperFunction,ComponentPad*
%ADD29O,3.500000X2.000000*%
G04 #@! TD*
G04 #@! TA.AperFunction,ViaPad*
%ADD30C,0.700000*%
G04 #@! TD*
G04 #@! TA.AperFunction,ViaPad*
%ADD31C,2.000000*%
G04 #@! TD*
G04 #@! TA.AperFunction,Conductor*
%ADD32C,0.300000*%
G04 #@! TD*
G04 APERTURE END LIST*
D10*
X231440000Y-77150000D03*
D11*
X228900000Y-77150000D03*
X226360000Y-77150000D03*
D12*
X231350000Y-143875000D03*
D13*
X233890000Y-143875000D03*
D14*
X222600000Y-147150000D03*
X214400000Y-147150000D03*
D15*
X220500000Y-147150000D03*
D16*
X218500000Y-147150000D03*
X216500000Y-147150000D03*
D14*
X165900000Y-55500000D03*
X174100000Y-55500000D03*
D15*
X168000000Y-55500000D03*
D16*
X170000000Y-55500000D03*
X172000000Y-55500000D03*
D12*
X219130000Y-108750000D03*
D13*
X216590000Y-108750000D03*
X214050000Y-108750000D03*
X211510000Y-108750000D03*
X208970000Y-108750000D03*
X206430000Y-108750000D03*
D12*
X79500000Y-76950000D03*
D13*
X79500000Y-79490000D03*
X79500000Y-82030000D03*
X79500000Y-84570000D03*
X79500000Y-87110000D03*
D12*
X211475000Y-87750000D03*
D13*
X211475000Y-90290000D03*
D17*
X217250000Y-62800000D03*
D18*
X217250000Y-61100000D03*
X217250000Y-59400000D03*
X217250000Y-57700000D03*
X217250000Y-56000000D03*
D14*
X191150000Y-55500000D03*
X199350000Y-55500000D03*
D15*
X193250000Y-55500000D03*
D16*
X195250000Y-55500000D03*
X197250000Y-55500000D03*
D14*
X143400000Y-136250000D03*
X151600000Y-136250000D03*
D15*
X145500000Y-136250000D03*
D16*
X147500000Y-136250000D03*
X149500000Y-136250000D03*
D12*
X165170000Y-64500000D03*
D13*
X167710000Y-64500000D03*
X170250000Y-64500000D03*
X172790000Y-64500000D03*
D12*
X205260000Y-147750000D03*
D13*
X207800000Y-147750000D03*
X210340000Y-147750000D03*
D12*
X231250000Y-139975000D03*
D13*
X233790000Y-139975000D03*
D19*
X205620000Y-66000000D03*
D20*
X190380000Y-66000000D03*
D12*
X144475000Y-113250000D03*
D13*
X144475000Y-110710000D03*
D21*
X220250000Y-70250000D03*
X220250000Y-72750000D03*
D22*
X99250000Y-134600000D03*
X99250000Y-126400000D03*
D23*
X99250000Y-132500000D03*
D24*
X99250000Y-130500000D03*
X99250000Y-128500000D03*
D25*
X119220000Y-59040000D03*
D26*
X119220000Y-56500000D03*
X121760000Y-59040000D03*
X121760000Y-56500000D03*
X124300000Y-59040000D03*
X124300000Y-56500000D03*
X126840000Y-59040000D03*
X126840000Y-56500000D03*
X129380000Y-59040000D03*
X129380000Y-56500000D03*
X131920000Y-59040000D03*
X131920000Y-56500000D03*
X134460000Y-59040000D03*
X134460000Y-56500000D03*
X137000000Y-59040000D03*
X137000000Y-56500000D03*
X139540000Y-59040000D03*
X139540000Y-56500000D03*
X142080000Y-59040000D03*
X142080000Y-56500000D03*
D12*
X183000000Y-62725000D03*
D13*
X185540000Y-62725000D03*
D12*
X222880000Y-153300000D03*
D13*
X220340000Y-153300000D03*
X217800000Y-153300000D03*
X215260000Y-153300000D03*
D14*
X186100000Y-55500000D03*
X177900000Y-55500000D03*
D15*
X184000000Y-55500000D03*
D16*
X182000000Y-55500000D03*
X180000000Y-55500000D03*
D14*
X153400000Y-55500000D03*
X161600000Y-55500000D03*
D15*
X155500000Y-55500000D03*
D16*
X157500000Y-55500000D03*
X159500000Y-55500000D03*
D27*
X227500000Y-65750000D03*
D28*
X233500000Y-65750000D03*
D29*
X234500000Y-70250000D03*
X234500000Y-61250000D03*
D12*
X143750000Y-117250000D03*
D13*
X146290000Y-117250000D03*
D30*
X213000000Y-94375000D03*
X196100000Y-147875000D03*
X219950000Y-150925000D03*
X211200000Y-101700000D03*
X210775000Y-104700000D03*
X204850000Y-97825000D03*
X197325000Y-92275000D03*
X217100000Y-74625000D03*
X213850000Y-77175000D03*
X216875000Y-85775000D03*
X138350000Y-99050000D03*
X106690000Y-65485000D03*
X90000000Y-126950000D03*
X160250000Y-82750000D03*
X146250000Y-141500000D03*
X116250000Y-111250000D03*
X140000000Y-110250000D03*
X170250000Y-116500000D03*
X103500000Y-111250000D03*
X151250000Y-105500000D03*
X119750000Y-111500000D03*
D31*
X192900000Y-126025000D03*
D30*
X211000000Y-55500000D03*
X183500000Y-101500000D03*
X228250000Y-116150000D03*
X185500000Y-108150003D03*
X150500000Y-140250000D03*
X187750000Y-104000000D03*
X92000000Y-84750000D03*
X136500000Y-133452500D03*
X224250000Y-141400000D03*
X98000000Y-102750000D03*
X92000000Y-87500000D03*
X209250000Y-53250000D03*
X102000000Y-108000000D03*
X135750000Y-131702500D03*
X173000000Y-83000000D03*
X87750000Y-101750000D03*
X89000000Y-63750000D03*
X84000000Y-63750000D03*
X88750000Y-93750000D03*
X212500000Y-53250000D03*
X92250000Y-77250000D03*
D31*
X202550000Y-135000000D03*
D30*
X204000000Y-53500000D03*
X151000000Y-114762500D03*
X183000000Y-128750000D03*
X175500000Y-128000000D03*
X99000000Y-94500000D03*
X215020000Y-138880000D03*
X230800000Y-112900000D03*
X86500000Y-62000000D03*
X191000000Y-85000000D03*
X146000000Y-102750000D03*
X197750000Y-84750000D03*
X181000000Y-145750000D03*
X216800000Y-114250000D03*
D31*
X197350000Y-136200000D03*
D30*
X180500000Y-127250000D03*
X223750000Y-56750000D03*
X157000000Y-129500000D03*
X92250000Y-79750000D03*
X77250000Y-66750000D03*
X141500000Y-146500000D03*
X220000000Y-56000000D03*
X104250000Y-77250000D03*
X218990000Y-142640000D03*
X202750000Y-83750000D03*
X152750000Y-101250000D03*
X147775000Y-114737500D03*
X165250000Y-116500000D03*
X210500000Y-59500000D03*
X90750000Y-129200000D03*
X141500000Y-131202500D03*
X171250000Y-146250000D03*
D31*
X200400000Y-138650000D03*
D30*
X153250000Y-98750000D03*
X151750000Y-97000000D03*
X92000000Y-82000000D03*
X150980000Y-92250000D03*
X140600000Y-98300000D03*
X133000000Y-133702500D03*
X206750000Y-55500000D03*
X93500000Y-61750000D03*
X217000000Y-138400000D03*
X170500000Y-59750000D03*
X79750000Y-65750000D03*
D31*
X193550000Y-138425000D03*
D30*
X185000000Y-89750000D03*
X210300000Y-153490000D03*
D31*
X143000000Y-143000000D03*
D30*
X160750000Y-145250000D03*
X151250000Y-104500000D03*
X224000000Y-116900000D03*
X152000000Y-129952500D03*
X81500000Y-63000000D03*
X167250000Y-83000000D03*
X201250000Y-84750000D03*
X91250000Y-126950000D03*
X171500000Y-128000000D03*
X200500000Y-83500000D03*
D31*
X193525000Y-134175000D03*
D30*
X139100000Y-99800000D03*
X185250000Y-97000000D03*
X160250000Y-60250000D03*
X225250000Y-111900000D03*
X175550000Y-145200000D03*
X90500000Y-62250000D03*
X221500000Y-53500000D03*
X158500000Y-117000000D03*
X133000000Y-139452500D03*
X163750000Y-117000000D03*
D31*
X207300000Y-136500000D03*
X193475000Y-129975000D03*
D30*
X179997500Y-84002500D03*
X220500000Y-57750000D03*
X138250000Y-131702500D03*
X175500000Y-117250000D03*
X172500000Y-134250000D03*
X151250000Y-107750000D03*
X179000000Y-134250000D03*
X136250000Y-140250000D03*
D31*
X206550000Y-126500000D03*
D30*
X74000000Y-69250000D03*
X131000000Y-131250000D03*
X154500000Y-103000000D03*
X146500000Y-101500000D03*
X142750000Y-103750000D03*
X157500000Y-103750000D03*
X171750000Y-116500000D03*
X198250000Y-78000000D03*
X185000000Y-88500000D03*
X152775000Y-114487500D03*
X151750000Y-98000000D03*
X192000000Y-74750000D03*
X152230000Y-91500000D03*
X189250000Y-74750000D03*
X160500000Y-84000000D03*
X87750000Y-104250000D03*
X186500000Y-77500000D03*
X158500000Y-115750000D03*
X185500000Y-107250000D03*
X193250000Y-79000000D03*
X194750000Y-72000000D03*
X193500000Y-73500000D03*
X191500000Y-76500000D03*
X166750000Y-116500000D03*
X98750000Y-92750000D03*
X196000000Y-77500000D03*
X189000000Y-72000000D03*
X193500000Y-77500000D03*
X208000000Y-59500000D03*
X188000000Y-76250000D03*
X161000000Y-130500000D03*
X103500000Y-108000000D03*
X198250000Y-80250000D03*
X151750000Y-107000000D03*
X191500000Y-72000000D03*
X186500000Y-80250000D03*
X177250000Y-59250000D03*
X186250000Y-72000000D03*
X171750000Y-83000000D03*
X195500000Y-75000000D03*
X176500000Y-114500000D03*
X208750000Y-81500000D03*
X165750000Y-83000000D03*
X187730000Y-105230000D03*
X189750000Y-77500000D03*
X190000000Y-79500000D03*
X177247500Y-83752500D03*
X152520000Y-100230000D03*
X185000000Y-96000000D03*
X186250000Y-74750000D03*
X171500000Y-133750000D03*
X188000000Y-79000000D03*
X183000000Y-131250000D03*
X164750000Y-81500000D03*
X140750000Y-71250000D03*
X164750000Y-75750000D03*
X163750000Y-82000000D03*
X163750000Y-75000000D03*
X168750000Y-95500000D03*
X135750000Y-68500000D03*
X158250000Y-108000000D03*
X158250000Y-110250000D03*
X188000000Y-62750000D03*
X165750000Y-106750000D03*
X162750000Y-81000000D03*
X161500000Y-67250000D03*
X160500000Y-85500000D03*
X157250000Y-143500000D03*
X175250000Y-147250000D03*
X157500000Y-139750000D03*
X180500000Y-134250000D03*
X175250000Y-134000000D03*
X160500000Y-89500000D03*
X161500000Y-89500000D03*
X163750000Y-108000000D03*
X164750000Y-104750000D03*
X173450000Y-96125000D03*
X177500000Y-90250000D03*
X172750000Y-109750000D03*
X176250000Y-140750000D03*
X172500000Y-138500000D03*
X172250000Y-110750000D03*
X178750000Y-107250000D03*
X181750000Y-129500000D03*
X175000000Y-91000000D03*
X179000000Y-129750000D03*
X158500000Y-101500000D03*
X108750000Y-81500000D03*
X122250000Y-108000000D03*
X96500000Y-107000000D03*
X164250000Y-141000000D03*
X167250000Y-109750000D03*
X169500000Y-123250000D03*
X165750000Y-89750000D03*
X163000000Y-102250000D03*
X162750000Y-141250000D03*
X188250000Y-95500000D03*
X191500000Y-95500000D03*
X214050000Y-132000000D03*
X167000000Y-140500000D03*
X168750000Y-119750000D03*
X191750000Y-98750000D03*
X187750000Y-93500000D03*
X175750000Y-90250000D03*
X175000000Y-120500000D03*
X170500000Y-111250000D03*
X158500000Y-96550000D03*
X158750000Y-125000000D03*
X186300000Y-132250000D03*
X172000000Y-135750000D03*
X172875000Y-139875000D03*
X173500000Y-117000000D03*
X169500000Y-111000000D03*
X175500000Y-122250000D03*
X161625000Y-98875000D03*
X161250000Y-127500000D03*
X165750000Y-110500000D03*
X163500000Y-140000000D03*
X172500000Y-120500000D03*
X172500000Y-122750000D03*
X177000000Y-110750000D03*
X178000000Y-134750000D03*
X111750000Y-77250000D03*
X111750000Y-85250000D03*
X109750000Y-80750000D03*
X109750000Y-87750000D03*
X123500000Y-94250000D03*
X120250000Y-94250000D03*
X168000000Y-137500000D03*
X188750000Y-134500000D03*
X120500000Y-113750000D03*
X89250000Y-114750000D03*
X174750000Y-114250000D03*
X177250000Y-140750000D03*
X169250000Y-148000000D03*
X172000000Y-150500000D03*
X121250000Y-106000000D03*
X98250000Y-97000000D03*
X176750000Y-95750000D03*
X174250000Y-119500000D03*
X174750000Y-139750000D03*
X165750000Y-120250000D03*
X166250000Y-122250000D03*
X177750000Y-106500000D03*
X180000000Y-125250000D03*
X166300000Y-135750000D03*
X188500000Y-128750000D03*
X142000000Y-125000000D03*
X120000000Y-125000000D03*
X111000000Y-114000000D03*
X169000000Y-106500000D03*
X153750000Y-125000000D03*
X165880025Y-108380025D03*
X160000000Y-122500000D03*
X171614950Y-106635050D03*
X115500000Y-71750000D03*
X165243627Y-107743627D03*
X113500000Y-68750000D03*
X101000000Y-68000000D03*
X160000000Y-125250000D03*
X159500000Y-97050000D03*
X107500000Y-99250000D03*
X164534606Y-93853817D03*
X176250000Y-93750000D03*
X171250000Y-93750000D03*
X170000000Y-130750000D03*
X158750000Y-122500000D03*
X114000000Y-75250000D03*
X158500000Y-100250000D03*
X162255025Y-100494975D03*
X162000000Y-138750000D03*
X100750000Y-91000000D03*
X120000000Y-98750000D03*
X112625000Y-81375000D03*
X112450000Y-84000000D03*
X157750000Y-90100000D03*
X158000000Y-92250000D03*
X103750000Y-71750000D03*
X163750000Y-109750000D03*
X116250000Y-77250000D03*
X113500000Y-83000000D03*
X135000000Y-109000000D03*
X171000000Y-105750000D03*
X168250000Y-105750000D03*
X158500000Y-106750000D03*
X165000000Y-140250000D03*
X168250000Y-110250000D03*
X178000000Y-122500000D03*
X167650000Y-126000000D03*
X166000000Y-140000000D03*
X167000000Y-119000000D03*
X178250000Y-124250000D03*
X174250000Y-90250000D03*
X112000000Y-89000000D03*
X123250000Y-89250000D03*
X160800000Y-126000000D03*
X160375000Y-97550000D03*
X214300000Y-122750000D03*
X210300000Y-112750000D03*
X187000000Y-96750000D03*
X193000000Y-97000000D03*
X126000000Y-117750000D03*
X155000000Y-118750000D03*
X169250000Y-101750000D03*
X108500000Y-70500000D03*
X122500000Y-123000000D03*
X118750000Y-115500000D03*
X143500000Y-123000000D03*
X158250000Y-103000000D03*
X108250000Y-92500000D03*
X121000000Y-90000000D03*
X147000000Y-87500000D03*
X134250000Y-75250000D03*
X114750000Y-89250000D03*
X115000000Y-94000000D03*
X116250000Y-122250000D03*
X142250000Y-122250000D03*
X159250000Y-119500000D03*
X106000000Y-112500000D03*
X116750000Y-95750000D03*
X164250000Y-93000000D03*
X110750000Y-120500000D03*
X159500000Y-117500000D03*
X108000000Y-117250000D03*
X144500000Y-120500000D03*
X101000000Y-103250000D03*
X125250000Y-103250000D03*
X157500000Y-100000000D03*
X100000000Y-75750000D03*
X154369975Y-109619975D03*
X136500000Y-108750000D03*
X119500000Y-90750000D03*
X108750000Y-94000000D03*
X109250000Y-117250000D03*
X113000000Y-121250000D03*
X143500000Y-121250000D03*
X158750000Y-118500000D03*
X122000000Y-95250000D03*
X111050000Y-98500000D03*
X107000000Y-119500000D03*
X157250000Y-109750000D03*
X137000000Y-109500000D03*
X105750000Y-115250000D03*
X123500000Y-117000000D03*
X152750000Y-119500000D03*
X108500000Y-112750000D03*
X164499878Y-94753150D03*
X115500000Y-78750000D03*
X114250000Y-84750000D03*
X115750000Y-92750000D03*
X115750000Y-89250000D03*
X106750000Y-97750000D03*
X171250000Y-91750000D03*
X177250000Y-91750000D03*
X164500000Y-91750000D03*
X171500000Y-89250000D03*
X221425000Y-111125000D03*
X193075000Y-86500000D03*
X172750000Y-90000000D03*
X205800000Y-141250000D03*
X222550000Y-143250000D03*
X218300000Y-112750000D03*
X224550000Y-114250000D03*
X218550000Y-140750000D03*
X215300000Y-141250000D03*
D31*
X199050000Y-121250000D03*
D30*
X225550000Y-131750000D03*
X223800000Y-132000000D03*
X160000000Y-121250000D03*
X90750000Y-119000000D03*
X88500000Y-116500000D03*
X123500000Y-126000000D03*
X158000000Y-105500000D03*
X92000000Y-90250000D03*
X129000000Y-106250000D03*
X126000000Y-104750000D03*
X86000000Y-94250000D03*
X81750000Y-108000000D03*
X183250000Y-116000000D03*
X183250000Y-118250000D03*
X94500000Y-105500000D03*
X75250000Y-84000000D03*
X84250000Y-116500000D03*
X84500000Y-96250000D03*
X183250000Y-122500000D03*
X170000000Y-89250000D03*
X179250000Y-92500000D03*
X131750000Y-86500000D03*
X122750000Y-100000000D03*
X100000000Y-101500000D03*
X102750000Y-101750000D03*
X124750000Y-101750000D03*
D32*
X148000000Y-103000000D02*
X146500000Y-101500000D01*
X154500000Y-103000000D02*
X148000000Y-103000000D01*
X168750000Y-95500000D02*
X168750000Y-85010050D01*
X147710000Y-69750000D02*
X137000000Y-59040000D01*
X168750000Y-85010050D02*
X180250000Y-73510050D01*
X164750000Y-70000000D02*
X164250000Y-70000000D01*
X164250000Y-70000000D02*
X164000000Y-69750000D01*
X180250000Y-59000000D02*
X182000000Y-57250000D01*
X164000000Y-69750000D02*
X147710000Y-69750000D01*
X168750000Y-85010050D02*
X168750000Y-74000000D01*
X180250000Y-73510050D02*
X180250000Y-59000000D01*
X182000000Y-57250000D02*
X182000000Y-55500000D01*
X168750000Y-74000000D02*
X164750000Y-70000000D01*
X188000000Y-66500000D02*
X183000000Y-71500000D01*
X188000000Y-62750000D02*
X188000000Y-66500000D01*
X158250000Y-110250000D02*
X158250000Y-108000000D01*
X173250000Y-99250000D02*
X165750000Y-106750000D01*
X190750000Y-89750000D02*
X190750000Y-95000000D01*
X190750000Y-95000000D02*
X186500000Y-99250000D01*
X186500000Y-99250000D02*
X173250000Y-99250000D01*
X183000000Y-71500000D02*
X183000000Y-82000000D01*
X183000000Y-82000000D02*
X190750000Y-89750000D01*
X174200000Y-116710050D02*
X174200000Y-118460050D01*
X174050000Y-116560050D02*
X174200000Y-116710050D01*
X174200000Y-118460050D02*
X176250000Y-120510050D01*
X174050000Y-111050000D02*
X174050000Y-116560050D01*
X172750000Y-109750000D02*
X174050000Y-111050000D01*
X176250000Y-120510050D02*
X176250000Y-140750000D01*
X172250000Y-110750000D02*
X172500000Y-111000000D01*
X170700000Y-136700000D02*
X172500000Y-138500000D01*
X172500000Y-111000000D02*
X172500000Y-119250000D01*
X172500000Y-119250000D02*
X170250000Y-121500000D01*
X170700000Y-129705025D02*
X170700000Y-136700000D01*
X170250000Y-129255025D02*
X170700000Y-129705025D01*
X170250000Y-121500000D02*
X170250000Y-129255025D01*
X152250000Y-95000000D02*
X144250000Y-95000000D01*
X158500000Y-101500000D02*
X157750000Y-101500000D01*
X117300000Y-82300000D02*
X109550000Y-82300000D01*
X128750000Y-93750000D02*
X117300000Y-82300000D01*
X156000000Y-98750000D02*
X152250000Y-95000000D01*
X143000000Y-93750000D02*
X128750000Y-93750000D01*
X157750000Y-101500000D02*
X156000000Y-99750000D01*
X109550000Y-82300000D02*
X108750000Y-81500000D01*
X144250000Y-95000000D02*
X143000000Y-93750000D01*
X156000000Y-99750000D02*
X156000000Y-98750000D01*
X122250000Y-108000000D02*
X121250000Y-107000000D01*
X121250000Y-107000000D02*
X96500000Y-107000000D01*
X167450000Y-109950000D02*
X167450000Y-116842894D01*
X167450000Y-116842894D02*
X164250000Y-120042894D01*
X167250000Y-109750000D02*
X167450000Y-109950000D01*
X164250000Y-120042894D02*
X164250000Y-141000000D01*
X163000000Y-139510050D02*
X162750000Y-139760050D01*
X162750000Y-139760050D02*
X162750000Y-141250000D01*
X163000000Y-102250000D02*
X163000000Y-139510050D01*
X168750000Y-119750000D02*
X168750000Y-138750000D01*
X168750000Y-138750000D02*
X167000000Y-140500000D01*
X157000000Y-113750000D02*
X159250000Y-111500000D01*
X158500000Y-98500000D02*
X158500000Y-96550000D01*
X159250000Y-99250000D02*
X158500000Y-98500000D01*
X158750000Y-125000000D02*
X157000000Y-123250000D01*
X157000000Y-123250000D02*
X157000000Y-113750000D01*
X159250000Y-111500000D02*
X159250000Y-99250000D01*
X173500000Y-117000000D02*
X173500000Y-139250000D01*
X173500000Y-139250000D02*
X172875000Y-139875000D01*
X161625000Y-98875000D02*
X161500000Y-99000000D01*
X161500000Y-127250000D02*
X161250000Y-127500000D01*
X161500000Y-99000000D02*
X161500000Y-127250000D01*
X165750000Y-110500000D02*
X164550000Y-111700000D01*
X164550000Y-118700000D02*
X163500000Y-119750000D01*
X164550000Y-111700000D02*
X164550000Y-118700000D01*
X163500000Y-119750000D02*
X163500000Y-140000000D01*
X181500000Y-124739950D02*
X178000000Y-128239950D01*
X177000000Y-110750000D02*
X177000000Y-113000000D01*
X181500000Y-117500000D02*
X181500000Y-124739950D01*
X178000000Y-128239950D02*
X178000000Y-134750000D01*
X177000000Y-113000000D02*
X181500000Y-117500000D01*
X119750000Y-114500000D02*
X120500000Y-113750000D01*
X93000000Y-118500000D02*
X110750000Y-118500000D01*
X89250000Y-114750000D02*
X93000000Y-118500000D01*
X114750000Y-114500000D02*
X119750000Y-114500000D01*
X110750000Y-118500000D02*
X114750000Y-114500000D01*
X174750000Y-117750000D02*
X177250000Y-120250000D01*
X177250000Y-120250000D02*
X177250000Y-140750000D01*
X174750000Y-114250000D02*
X174750000Y-117750000D01*
X120000000Y-104750000D02*
X101250000Y-104750000D01*
X101250000Y-104750000D02*
X98250000Y-101750000D01*
X98250000Y-101750000D02*
X98250000Y-97000000D01*
X121250000Y-106000000D02*
X120000000Y-104750000D01*
X174250000Y-119500000D02*
X174250000Y-139250000D01*
X174250000Y-139250000D02*
X174750000Y-139750000D01*
X112750000Y-68000000D02*
X101000000Y-68000000D01*
X165050000Y-107550000D02*
X165050000Y-105439950D01*
X165450000Y-98950000D02*
X163250000Y-96750000D01*
X113500000Y-68750000D02*
X112750000Y-68000000D01*
X132500000Y-88750000D02*
X115500000Y-71750000D01*
X165450000Y-105039950D02*
X165450000Y-98950000D01*
X165243627Y-107743627D02*
X165050000Y-107550000D01*
X163250000Y-92260050D02*
X161189950Y-90200000D01*
X165050000Y-105439950D02*
X165450000Y-105039950D01*
X161189950Y-90200000D02*
X159450000Y-90200000D01*
X163250000Y-96750000D02*
X163250000Y-92260050D01*
X158000000Y-88750000D02*
X132500000Y-88750000D01*
X159450000Y-90200000D02*
X158000000Y-88750000D01*
X160000000Y-98750000D02*
X159500000Y-98250000D01*
X157750000Y-114500000D02*
X160000000Y-112250000D01*
X160000000Y-125000000D02*
X157750000Y-122750000D01*
X160000000Y-112250000D02*
X160000000Y-98750000D01*
X159500000Y-98250000D02*
X159500000Y-97050000D01*
X160000000Y-125250000D02*
X160000000Y-125000000D01*
X157750000Y-122750000D02*
X157750000Y-114500000D01*
X176250000Y-93750000D02*
X171250000Y-93750000D01*
X145500000Y-93500000D02*
X144000000Y-92000000D01*
X144000000Y-92000000D02*
X129750000Y-92000000D01*
X129750000Y-92000000D02*
X114000000Y-76250000D01*
X158500000Y-100250000D02*
X158200000Y-100550000D01*
X158200000Y-100550000D02*
X158200000Y-98950000D01*
X152750000Y-93500000D02*
X145500000Y-93500000D01*
X114000000Y-76250000D02*
X114000000Y-75250000D01*
X158200000Y-98950000D02*
X152750000Y-93500000D01*
X162250000Y-100500000D02*
X162250000Y-138500000D01*
X162255025Y-100494975D02*
X162250000Y-100500000D01*
X162250000Y-138500000D02*
X162000000Y-138750000D01*
X108000000Y-97000000D02*
X102000000Y-91000000D01*
X102000000Y-91000000D02*
X100750000Y-91000000D01*
X118250000Y-97000000D02*
X108000000Y-97000000D01*
X120000000Y-98750000D02*
X118250000Y-97000000D01*
X164450000Y-106950000D02*
X163750000Y-106250000D01*
X130250000Y-89750000D02*
X112250000Y-71750000D01*
X163750000Y-109750000D02*
X164450000Y-109050000D01*
X157400000Y-89750000D02*
X130250000Y-89750000D01*
X158000000Y-93000000D02*
X158000000Y-92250000D01*
X163750000Y-106250000D02*
X163750000Y-98750000D01*
X112250000Y-71750000D02*
X103750000Y-71750000D01*
X157750000Y-90100000D02*
X157400000Y-89750000D01*
X164450000Y-109050000D02*
X164450000Y-106950000D01*
X163750000Y-98750000D02*
X158000000Y-93000000D01*
X137750000Y-106250000D02*
X135000000Y-109000000D01*
X156500000Y-106250000D02*
X137750000Y-106250000D01*
X157000000Y-106750000D02*
X156500000Y-106250000D01*
X158500000Y-106750000D02*
X157000000Y-106750000D01*
X168250000Y-116750000D02*
X165000000Y-120000000D01*
X165000000Y-120000000D02*
X165000000Y-140250000D01*
X168250000Y-110250000D02*
X168250000Y-116750000D01*
X166500000Y-122989950D02*
X166500000Y-134960050D01*
X167000000Y-135460050D02*
X167000000Y-139000000D01*
X167000000Y-139000000D02*
X166000000Y-140000000D01*
X166950000Y-119950000D02*
X166950000Y-122539950D01*
X167000000Y-119000000D02*
X166500000Y-119500000D01*
X166950000Y-122539950D02*
X166500000Y-122989950D01*
X166500000Y-119500000D02*
X166950000Y-119950000D01*
X166500000Y-134960050D02*
X167000000Y-135460050D01*
X123250000Y-89250000D02*
X122000000Y-88000000D01*
X122000000Y-88000000D02*
X113000000Y-88000000D01*
X113000000Y-88000000D02*
X112000000Y-89000000D01*
X160750000Y-125950000D02*
X160750000Y-97925000D01*
X160750000Y-97925000D02*
X160375000Y-97550000D01*
X160800000Y-126000000D02*
X160750000Y-125950000D01*
X169250000Y-101750000D02*
X169250000Y-100250000D01*
X166000000Y-97000000D02*
X166000000Y-92260050D01*
X166000000Y-92260050D02*
X161239950Y-87500000D01*
X169250000Y-100250000D02*
X166000000Y-97000000D01*
X128500000Y-70500000D02*
X108500000Y-70500000D01*
X132000000Y-74000000D02*
X128500000Y-70500000D01*
X135500000Y-74000000D02*
X132000000Y-74000000D01*
X149000000Y-87500000D02*
X135500000Y-74000000D01*
X161239950Y-87500000D02*
X149000000Y-87500000D01*
X110750000Y-90000000D02*
X108250000Y-92500000D01*
X121000000Y-90000000D02*
X110750000Y-90000000D01*
X147000000Y-87500000D02*
X134750000Y-75250000D01*
X134750000Y-75250000D02*
X134250000Y-75250000D01*
X125250000Y-103250000D02*
X101000000Y-103250000D01*
X157500000Y-99000000D02*
X152750000Y-94250000D01*
X152750000Y-94250000D02*
X145000000Y-94250000D01*
X143500000Y-92750000D02*
X129000000Y-92750000D01*
X100000000Y-77500000D02*
X100000000Y-75750000D01*
X116000000Y-79750000D02*
X102250000Y-79750000D01*
X145000000Y-94250000D02*
X143500000Y-92750000D01*
X129000000Y-92750000D02*
X116000000Y-79750000D01*
X102250000Y-79750000D02*
X100000000Y-77500000D01*
X157500000Y-100000000D02*
X157500000Y-99000000D01*
X112000000Y-90750000D02*
X108750000Y-94000000D01*
X119500000Y-90750000D02*
X112000000Y-90750000D01*
X177250000Y-91750000D02*
X171250000Y-91750000D01*
X191250000Y-124000000D02*
X191250000Y-141250000D01*
X80500000Y-113750000D02*
X81750000Y-112500000D01*
X94250000Y-154500000D02*
X80500000Y-140750000D01*
X80500000Y-140750000D02*
X80500000Y-113750000D01*
X81750000Y-112500000D02*
X81750000Y-108000000D01*
X86000000Y-94250000D02*
X82000000Y-94250000D01*
X183250000Y-116000000D02*
X191250000Y-124000000D01*
X178000000Y-154500000D02*
X94250000Y-154500000D01*
X82000000Y-94250000D02*
X77500000Y-89750000D01*
X77500000Y-86570000D02*
X79500000Y-84570000D01*
X77500000Y-89750000D02*
X77500000Y-86570000D01*
X191250000Y-141250000D02*
X178000000Y-154500000D01*
X89000000Y-107750000D02*
X92250000Y-107750000D01*
X183250000Y-118250000D02*
X190000000Y-125000000D01*
X75250000Y-98500000D02*
X75250000Y-84000000D01*
X82250000Y-105500000D02*
X75250000Y-98500000D01*
X95500000Y-153250000D02*
X82250000Y-140000000D01*
X82250000Y-140000000D02*
X82250000Y-114500000D01*
X92250000Y-107750000D02*
X94500000Y-105500000D01*
X177750000Y-153250000D02*
X95500000Y-153250000D01*
X82250000Y-114500000D02*
X89000000Y-107750000D01*
X190000000Y-141000000D02*
X177750000Y-153250000D01*
X94500000Y-105500000D02*
X82250000Y-105500000D01*
X190000000Y-125000000D02*
X190000000Y-141000000D01*
X138750000Y-152250000D02*
X138250000Y-151750000D01*
X76500000Y-90250000D02*
X76500000Y-81250000D01*
X84500000Y-96250000D02*
X82500000Y-96250000D01*
X177750000Y-151250000D02*
X150250000Y-151250000D01*
X183250000Y-122500000D02*
X184750000Y-124000000D01*
X150250000Y-151250000D02*
X149250000Y-152250000D01*
X149250000Y-152250000D02*
X138750000Y-152250000D01*
X184750000Y-124000000D02*
X184750000Y-144250000D01*
X138250000Y-151750000D02*
X97250000Y-151750000D01*
X78260000Y-79490000D02*
X79500000Y-79490000D01*
X184750000Y-144250000D02*
X177750000Y-151250000D01*
X97250000Y-151750000D02*
X84250000Y-138750000D01*
X84250000Y-138750000D02*
X84250000Y-116500000D01*
X76500000Y-81250000D02*
X78260000Y-79490000D01*
X82500000Y-96250000D02*
X76500000Y-90250000D01*
X170750000Y-88500000D02*
X170000000Y-89250000D01*
X176739950Y-88500000D02*
X170750000Y-88500000D01*
X179250000Y-91010050D02*
X176739950Y-88500000D01*
X179250000Y-92500000D02*
X179250000Y-91010050D01*
X122750000Y-100000000D02*
X101500000Y-100000000D01*
X101500000Y-100000000D02*
X100000000Y-101500000D01*
X124750000Y-101750000D02*
X102750000Y-101750000D01*
M02*
