M48
; DRILL file {KiCad 9.0.1} date 2025-10-01T12:05:25-0400
; FORMAT={-:-/ absolute / metric / decimal}
; #@! TF.CreationDate,2025-10-01T12:05:25-04:00
; #@! TF.GenerationSoftware,Kicad,Pcbnew,9.0.1
; #@! TF.FileFunction,Plated,1,6,PTH
FMAT,2
METRIC
; #@! TA.AperFunction,Plated,PTH,ViaDrill
T1C0.300
; #@! TA.AperFunction,Plated,PTH,ComponentDrill
T2C0.700
; #@! TA.AperFunction,Plated,PTH,ComponentDrill
T3C0.800
; #@! TA.AperFunction,Plated,PTH,ComponentDrill
T4C1.000
; #@! TA.AperFunction,Plated,PTH,ComponentDrill
T5C1.100
; #@! TA.AperFunction,Plated,PTH,ComponentDrill
T6C1.500
; #@! TA.AperFunction,Plated,PTH,ComponentDrill
T7C1.600
%
G90
G05
T1
X74.0Y-69.25
X75.25Y-84.0
X77.25Y-66.75
X79.75Y-65.75
X81.5Y-63.0
X81.75Y-108.0
X84.0Y-63.75
X84.25Y-116.5
X84.5Y-96.25
X86.0Y-94.25
X86.5Y-62.0
X87.75Y-101.75
X87.75Y-104.25
X88.5Y-116.5
X88.75Y-93.75
X89.0Y-63.75
X89.25Y-114.75
X90.0Y-126.95
X90.5Y-62.25
X90.75Y-119.0
X90.75Y-129.2
X91.25Y-126.95
X92.0Y-82.0
X92.0Y-84.75
X92.0Y-87.5
X92.0Y-90.25
X92.25Y-77.25
X92.25Y-79.75
X93.5Y-61.75
X94.5Y-105.5
X96.5Y-107.0
X98.0Y-102.75
X98.25Y-97.0
X98.75Y-92.75
X99.0Y-94.5
X100.0Y-75.75
X100.0Y-101.5
X100.75Y-91.0
X101.0Y-68.0
X101.0Y-103.25
X102.0Y-108.0
X102.75Y-101.75
X103.5Y-108.0
X103.5Y-111.25
X103.75Y-71.75
X104.25Y-77.25
X105.75Y-115.25
X106.0Y-112.5
X106.69Y-65.485
X106.75Y-97.75
X107.0Y-119.5
X107.5Y-99.25
X108.0Y-117.25
X108.25Y-92.5
X108.5Y-70.5
X108.5Y-112.75
X108.75Y-81.5
X108.75Y-94.0
X109.25Y-117.25
X109.75Y-80.75
X109.75Y-87.75
X110.75Y-120.5
X111.0Y-114.0
X111.05Y-98.5
X111.75Y-77.25
X111.75Y-85.25
X112.0Y-89.0
X112.45Y-84.0
X112.625Y-81.375
X113.0Y-121.25
X113.5Y-68.75
X113.5Y-83.0
X114.0Y-75.25
X114.25Y-84.75
X114.75Y-89.25
X115.0Y-94.0
X115.5Y-71.75
X115.5Y-78.75
X115.75Y-89.25
X115.75Y-92.75
X116.25Y-77.25
X116.25Y-111.25
X116.25Y-122.25
X116.75Y-95.75
X118.75Y-115.5
X119.5Y-90.75
X119.75Y-111.5
X120.0Y-98.75
X120.0Y-125.0
X120.25Y-94.25
X120.5Y-113.75
X121.0Y-90.0
X121.25Y-106.0
X122.0Y-95.25
X122.25Y-108.0
X122.5Y-123.0
X122.75Y-100.0
X123.25Y-89.25
X123.5Y-94.25
X123.5Y-117.0
X123.5Y-126.0
X124.75Y-101.75
X125.25Y-103.25
X126.0Y-104.75
X126.0Y-117.75
X129.0Y-106.25
X131.0Y-131.25
X131.75Y-86.5
X133.0Y-133.702
X133.0Y-139.452
X134.25Y-75.25
X135.0Y-109.0
X135.75Y-68.5
X135.75Y-131.702
X136.25Y-140.25
X136.5Y-108.75
X136.5Y-133.452
X137.0Y-109.5
X138.25Y-131.702
X138.35Y-99.05
X139.1Y-99.8
X140.0Y-110.25
X140.6Y-98.3
X140.75Y-71.25
X141.5Y-131.202
X141.5Y-146.5
X142.0Y-125.0
X142.25Y-122.25
X142.75Y-103.75
X143.0Y-143.0
X143.5Y-121.25
X143.5Y-123.0
X144.5Y-120.5
X146.0Y-102.75
X146.25Y-141.5
X146.5Y-101.5
X147.0Y-87.5
X147.775Y-114.737
X150.5Y-140.25
X150.98Y-92.25
X151.0Y-114.762
X151.25Y-104.5
X151.25Y-105.5
X151.25Y-107.75
X151.75Y-97.0
X151.75Y-98.0
X151.75Y-107.0
X152.0Y-129.952
X152.23Y-91.5
X152.52Y-100.23
X152.75Y-101.25
X152.75Y-119.5
X152.775Y-114.487
X153.25Y-98.75
X153.75Y-125.0
X154.37Y-109.62
X154.5Y-103.0
X155.0Y-118.75
X157.0Y-129.5
X157.25Y-109.75
X157.25Y-143.5
X157.5Y-100.0
X157.5Y-103.75
X157.5Y-139.75
X157.75Y-90.1
X158.0Y-92.25
X158.0Y-105.5
X158.25Y-103.0
X158.25Y-108.0
X158.25Y-110.25
X158.5Y-96.55
X158.5Y-100.25
X158.5Y-101.5
X158.5Y-106.75
X158.5Y-115.75
X158.5Y-117.0
X158.75Y-118.5
X158.75Y-122.5
X158.75Y-125.0
X159.25Y-119.5
X159.5Y-97.05
X159.5Y-117.5
X160.0Y-121.25
X160.0Y-122.5
X160.0Y-125.25
X160.25Y-60.25
X160.25Y-82.75
X160.375Y-97.55
X160.5Y-84.0
X160.5Y-85.5
X160.5Y-89.5
X160.75Y-145.25
X160.8Y-126.0
X161.0Y-130.5
X161.25Y-127.5
X161.5Y-67.25
X161.5Y-89.5
X161.625Y-98.875
X162.0Y-138.75
X162.255Y-100.495
X162.75Y-81.0
X162.75Y-141.25
X163.0Y-102.25
X163.5Y-140.0
X163.75Y-75.0
X163.75Y-82.0
X163.75Y-108.0
X163.75Y-109.75
X163.75Y-117.0
X164.25Y-93.0
X164.25Y-141.0
X164.5Y-94.753
X164.5Y-91.75
X164.535Y-93.854
X164.75Y-75.75
X164.75Y-81.5
X164.75Y-104.75
X165.0Y-140.25
X165.244Y-107.744
X165.25Y-116.5
X165.75Y-83.0
X165.75Y-89.75
X165.75Y-106.75
X165.75Y-110.5
X165.75Y-120.25
X165.88Y-108.38
X166.0Y-140.0
X166.25Y-122.25
X166.3Y-135.75
X166.75Y-116.5
X167.0Y-119.0
X167.0Y-140.5
X167.25Y-83.0
X167.25Y-109.75
X167.65Y-126.0
X168.0Y-137.5
X168.25Y-105.75
X168.25Y-110.25
X168.75Y-95.5
X168.75Y-119.75
X169.0Y-106.5
X169.25Y-101.75
X169.25Y-148.0
X169.5Y-111.0
X169.5Y-123.25
X170.0Y-89.25
X170.0Y-130.75
X170.25Y-116.5
X170.5Y-59.75
X170.5Y-111.25
X171.0Y-105.75
X171.25Y-91.75
X171.25Y-93.75
X171.25Y-146.25
X171.5Y-89.25
X171.5Y-128.0
X171.5Y-133.75
X171.615Y-106.635
X171.75Y-83.0
X171.75Y-116.5
X172.0Y-135.75
X172.0Y-150.5
X172.25Y-110.75
X172.5Y-120.5
X172.5Y-122.75
X172.5Y-134.25
X172.5Y-138.5
X172.75Y-90.0
X172.75Y-109.75
X172.875Y-139.875
X173.0Y-83.0
X173.45Y-96.125
X173.5Y-117.0
X174.25Y-90.25
X174.25Y-119.5
X174.75Y-114.25
X174.75Y-139.75
X175.0Y-91.0
X175.0Y-120.5
X175.25Y-134.0
X175.25Y-147.25
X175.5Y-117.25
X175.5Y-122.25
X175.5Y-128.0
X175.55Y-145.2
X175.75Y-90.25
X176.25Y-93.75
X176.25Y-140.75
X176.5Y-114.5
X176.75Y-95.75
X177.0Y-110.75
X177.248Y-83.752
X177.25Y-59.25
X177.25Y-91.75
X177.25Y-140.75
X177.5Y-90.25
X177.75Y-106.5
X178.0Y-122.5
X178.0Y-134.75
X178.25Y-124.25
X178.75Y-107.25
X179.0Y-129.75
X179.0Y-134.25
X179.25Y-92.5
X179.998Y-84.002
X180.0Y-125.25
X180.5Y-127.25
X180.5Y-134.25
X181.0Y-145.75
X181.75Y-129.5
X183.0Y-128.75
X183.0Y-131.25
X183.25Y-116.0
X183.25Y-118.25
X183.25Y-122.5
X183.5Y-101.5
X185.0Y-88.5
X185.0Y-89.75
X185.0Y-96.0
X185.25Y-97.0
X185.5Y-107.25
X185.5Y-108.15
X186.25Y-72.0
X186.25Y-74.75
X186.3Y-132.25
X186.5Y-77.5
X186.5Y-80.25
X187.0Y-96.75
X187.73Y-105.23
X187.75Y-93.5
X187.75Y-104.0
X188.0Y-62.75
X188.0Y-76.25
X188.0Y-79.0
X188.25Y-95.5
X188.5Y-128.75
X188.75Y-134.5
X189.0Y-72.0
X189.25Y-74.75
X189.75Y-77.5
X190.0Y-79.5
X191.0Y-85.0
X191.5Y-72.0
X191.5Y-76.5
X191.5Y-95.5
X191.75Y-98.75
X192.0Y-74.75
X192.9Y-126.025
X193.0Y-97.0
X193.075Y-86.5
X193.25Y-79.0
X193.475Y-129.975
X193.5Y-73.5
X193.5Y-77.5
X193.525Y-134.175
X193.55Y-138.425
X194.75Y-72.0
X195.5Y-75.0
X196.0Y-77.5
X196.1Y-147.875
X197.325Y-92.275
X197.35Y-136.2
X197.75Y-84.75
X198.25Y-78.0
X198.25Y-80.25
X199.05Y-121.25
X200.4Y-138.65
X200.5Y-83.5
X201.25Y-84.75
X202.55Y-135.0
X202.75Y-83.75
X204.0Y-53.5
X204.85Y-97.825
X205.8Y-141.25
X206.55Y-126.5
X206.75Y-55.5
X207.3Y-136.5
X208.0Y-59.5
X208.75Y-81.5
X209.25Y-53.25
X210.3Y-112.75
X210.3Y-153.49
X210.5Y-59.5
X210.775Y-104.7
X211.0Y-55.5
X211.2Y-101.7
X212.5Y-53.25
X213.0Y-94.375
X213.85Y-77.175
X214.05Y-132.0
X214.3Y-122.75
X215.02Y-138.88
X215.3Y-141.25
X216.8Y-114.25
X216.875Y-85.775
X217.0Y-138.4
X217.1Y-74.625
X218.3Y-112.75
X218.55Y-140.75
X218.99Y-142.64
X219.95Y-150.925
X220.0Y-56.0
X220.5Y-57.75
X221.425Y-111.125
X221.5Y-53.5
X222.55Y-143.25
X223.75Y-56.75
X223.8Y-132.0
X224.0Y-116.9
X224.25Y-141.4
X224.55Y-114.25
X225.25Y-111.9
X225.55Y-131.75
X228.25Y-116.15
X230.8Y-112.9
T2
X226.36Y-77.15
X228.9Y-77.15
X231.44Y-77.15
T3
X99.25Y-128.5
X99.25Y-130.5
X99.25Y-132.5
X145.5Y-136.25
X147.5Y-136.25
X149.5Y-136.25
X155.5Y-55.5
X157.5Y-55.5
X159.5Y-55.5
X168.0Y-55.5
X170.0Y-55.5
X172.0Y-55.5
X180.0Y-55.5
X182.0Y-55.5
X184.0Y-55.5
X193.25Y-55.5
X195.25Y-55.5
X197.25Y-55.5
X216.5Y-147.15
X218.5Y-147.15
X220.25Y-70.25
X220.25Y-72.75
X220.5Y-147.15
T4
X79.5Y-76.95
X79.5Y-79.49
X79.5Y-82.03
X79.5Y-84.57
X79.5Y-87.11
X119.22Y-56.5
X119.22Y-59.04
X121.76Y-56.5
X121.76Y-59.04
X124.3Y-56.5
X124.3Y-59.04
X126.84Y-56.5
X126.84Y-59.04
X129.38Y-56.5
X129.38Y-59.04
X131.92Y-56.5
X131.92Y-59.04
X134.46Y-56.5
X134.46Y-59.04
X137.0Y-56.5
X137.0Y-59.04
X139.54Y-56.5
X139.54Y-59.04
X142.08Y-56.5
X142.08Y-59.04
X143.75Y-117.25
X144.475Y-110.71
X144.475Y-113.25
X146.29Y-117.25
X165.17Y-64.5
X167.71Y-64.5
X170.25Y-64.5
X172.79Y-64.5
X183.0Y-62.725
X185.54Y-62.725
X205.26Y-147.75
X206.43Y-108.75
X207.8Y-147.75
X208.97Y-108.75
X210.34Y-147.75
X211.475Y-87.75
X211.475Y-90.29
X211.51Y-108.75
X214.05Y-108.75
X215.26Y-153.3
X216.59Y-108.75
X217.8Y-153.3
X219.13Y-108.75
X220.34Y-153.3
X222.88Y-153.3
X231.25Y-139.975
X231.35Y-143.875
X233.79Y-139.975
X233.89Y-143.875
T5
X217.25Y-56.0
X217.25Y-57.7
X217.25Y-59.4
X217.25Y-61.1
X217.25Y-62.8
T6
X99.25Y-126.4
X99.25Y-134.6
X143.4Y-136.25
X151.6Y-136.25
X153.4Y-55.5
X161.6Y-55.5
X165.9Y-55.5
X174.1Y-55.5
X177.9Y-55.5
X186.1Y-55.5
X191.15Y-55.5
X199.35Y-55.5
X214.4Y-147.15
X222.6Y-147.15
T7
X190.38Y-66.0
X205.62Y-66.0
T4
X227.5Y-66.75G85X227.5Y-64.75
G05
X233.5Y-66.4G85X233.5Y-65.1
G05
X233.75Y-61.25G85X235.25Y-61.25
G05
X233.75Y-70.25G85X235.25Y-70.25
G05
M30
